%TF.GenerationSoftware,KiCad,Pcbnew,9.0.5*%
%TF.CreationDate,2025-11-12T08:22:28+01:00*%
%TF.ProjectId,test01,74657374-3031-42e6-9b69-6361645f7063,rev?*%
%TF.SameCoordinates,Original*%
%TF.FileFunction,Drillmap*%
%TF.FilePolarity,Positive*%
%FSLAX45Y45*%
G04 Gerber Fmt 4.5, Leading zero omitted, Abs format (unit mm)*
G04 Created by KiCad (PCBNEW 9.0.5) date 2025-11-12 08:22:28*
%MOMM*%
%LPD*%
G01*
G04 APERTURE LIST*
%ADD10C,0.250000*%
%ADD11C,0.200000*%
G04 APERTURE END LIST*
D10*
X42450000Y-44050000D02*
G75*
G02*
X42150000Y-44050000I-150000J0D01*
G01*
X42150000Y-44050000D02*
G75*
G02*
X42450000Y-44050000I150000J0D01*
G01*
X82950000Y-45550000D02*
G75*
G02*
X82650000Y-45550000I-150000J0D01*
G01*
X82650000Y-45550000D02*
G75*
G02*
X82950000Y-45550000I150000J0D01*
G01*
X61950000Y-42550000D02*
G75*
G02*
X61650000Y-42550000I-150000J0D01*
G01*
X61650000Y-42550000D02*
G75*
G02*
X61950000Y-42550000I150000J0D01*
G01*
X66450000Y-29050000D02*
G75*
G02*
X66150000Y-29050000I-150000J0D01*
G01*
X66150000Y-29050000D02*
G75*
G02*
X66450000Y-29050000I150000J0D01*
G01*
X73950000Y-47050000D02*
G75*
G02*
X73650000Y-47050000I-150000J0D01*
G01*
X73650000Y-47050000D02*
G75*
G02*
X73950000Y-47050000I150000J0D01*
G01*
X27450000Y-39550000D02*
G75*
G02*
X27150000Y-39550000I-150000J0D01*
G01*
X27150000Y-39550000D02*
G75*
G02*
X27450000Y-39550000I150000J0D01*
G01*
X70950000Y-41050000D02*
G75*
G02*
X70650000Y-41050000I-150000J0D01*
G01*
X70650000Y-41050000D02*
G75*
G02*
X70950000Y-41050000I150000J0D01*
G01*
X58950000Y-42550000D02*
G75*
G02*
X58650000Y-42550000I-150000J0D01*
G01*
X58650000Y-42550000D02*
G75*
G02*
X58950000Y-42550000I150000J0D01*
G01*
X29025000Y-38050000D02*
G75*
G02*
X28575000Y-38050000I-225000J0D01*
G01*
X28575000Y-38050000D02*
G75*
G02*
X29025000Y-38050000I225000J0D01*
G01*
X54450000Y-48550000D02*
G75*
G02*
X54150000Y-48550000I-150000J0D01*
G01*
X54150000Y-48550000D02*
G75*
G02*
X54450000Y-48550000I150000J0D01*
G01*
X72450000Y-54550000D02*
G75*
G02*
X72150000Y-54550000I-150000J0D01*
G01*
X72150000Y-54550000D02*
G75*
G02*
X72450000Y-54550000I150000J0D01*
G01*
X85950000Y-53050000D02*
G75*
G02*
X85650000Y-53050000I-150000J0D01*
G01*
X85650000Y-53050000D02*
G75*
G02*
X85950000Y-53050000I150000J0D01*
G01*
X66850000Y-38520000D02*
G75*
G02*
X66770000Y-38600000I-80000J0D01*
G01*
X37950000Y-42550000D02*
G75*
G02*
X37650000Y-42550000I-150000J0D01*
G01*
X37650000Y-42550000D02*
G75*
G02*
X37950000Y-42550000I150000J0D01*
G01*
X45850000Y-38520000D02*
G75*
G02*
X45770000Y-38600000I-80000J0D01*
G01*
X82950000Y-44050000D02*
G75*
G02*
X82650000Y-44050000I-150000J0D01*
G01*
X82650000Y-44050000D02*
G75*
G02*
X82950000Y-44050000I150000J0D01*
G01*
X81450000Y-57550000D02*
G75*
G02*
X81150000Y-57550000I-150000J0D01*
G01*
X81150000Y-57550000D02*
G75*
G02*
X81450000Y-57550000I150000J0D01*
G01*
X40950000Y-27550000D02*
G75*
G02*
X40650000Y-27550000I-150000J0D01*
G01*
X40650000Y-27550000D02*
G75*
G02*
X40950000Y-27550000I150000J0D01*
G01*
X57450000Y-45550000D02*
G75*
G02*
X57150000Y-45550000I-150000J0D01*
G01*
X57150000Y-45550000D02*
G75*
G02*
X57450000Y-45550000I150000J0D01*
G01*
X39450000Y-44050000D02*
G75*
G02*
X39150000Y-44050000I-150000J0D01*
G01*
X39150000Y-44050000D02*
G75*
G02*
X39450000Y-44050000I150000J0D01*
G01*
X55950000Y-57550000D02*
G75*
G02*
X55650000Y-57550000I-150000J0D01*
G01*
X55650000Y-57550000D02*
G75*
G02*
X55950000Y-57550000I150000J0D01*
G01*
X85950000Y-26050000D02*
G75*
G02*
X85650000Y-26050000I-150000J0D01*
G01*
X85650000Y-26050000D02*
G75*
G02*
X85950000Y-26050000I150000J0D01*
G01*
X52950000Y-48550000D02*
G75*
G02*
X52650000Y-48550000I-150000J0D01*
G01*
X52650000Y-48550000D02*
G75*
G02*
X52950000Y-48550000I150000J0D01*
G01*
X84450000Y-39550000D02*
G75*
G02*
X84150000Y-39550000I-150000J0D01*
G01*
X84150000Y-39550000D02*
G75*
G02*
X84450000Y-39550000I150000J0D01*
G01*
X45450000Y-18550000D02*
G75*
G02*
X45150000Y-18550000I-150000J0D01*
G01*
X45150000Y-18550000D02*
G75*
G02*
X45450000Y-18550000I150000J0D01*
G01*
X76950000Y-50050000D02*
G75*
G02*
X76650000Y-50050000I-150000J0D01*
G01*
X76650000Y-50050000D02*
G75*
G02*
X76950000Y-50050000I150000J0D01*
G01*
X63450000Y-57550000D02*
G75*
G02*
X63150000Y-57550000I-150000J0D01*
G01*
X63150000Y-57550000D02*
G75*
G02*
X63450000Y-57550000I150000J0D01*
G01*
X84450000Y-50050000D02*
G75*
G02*
X84150000Y-50050000I-150000J0D01*
G01*
X84150000Y-50050000D02*
G75*
G02*
X84450000Y-50050000I150000J0D01*
G01*
X73950000Y-57550000D02*
G75*
G02*
X73650000Y-57550000I-150000J0D01*
G01*
X73650000Y-57550000D02*
G75*
G02*
X73950000Y-57550000I150000J0D01*
G01*
X25950000Y-51550000D02*
G75*
G02*
X25650000Y-51550000I-150000J0D01*
G01*
X25650000Y-51550000D02*
G75*
G02*
X25950000Y-51550000I150000J0D01*
G01*
X84450000Y-41050000D02*
G75*
G02*
X84150000Y-41050000I-150000J0D01*
G01*
X84150000Y-41050000D02*
G75*
G02*
X84450000Y-41050000I150000J0D01*
G01*
X60450000Y-54550000D02*
G75*
G02*
X60150000Y-54550000I-150000J0D01*
G01*
X60150000Y-54550000D02*
G75*
G02*
X60450000Y-54550000I150000J0D01*
G01*
X57450000Y-32050000D02*
G75*
G02*
X57150000Y-32050000I-150000J0D01*
G01*
X57150000Y-32050000D02*
G75*
G02*
X57450000Y-32050000I150000J0D01*
G01*
X37950000Y-33550000D02*
G75*
G02*
X37650000Y-33550000I-150000J0D01*
G01*
X37650000Y-33550000D02*
G75*
G02*
X37950000Y-33550000I150000J0D01*
G01*
X31950000Y-23050000D02*
G75*
G02*
X31650000Y-23050000I-150000J0D01*
G01*
X31650000Y-23050000D02*
G75*
G02*
X31950000Y-23050000I150000J0D01*
G01*
X45450000Y-51550000D02*
G75*
G02*
X45150000Y-51550000I-150000J0D01*
G01*
X45150000Y-51550000D02*
G75*
G02*
X45450000Y-51550000I150000J0D01*
G01*
X27450000Y-50050000D02*
G75*
G02*
X27150000Y-50050000I-150000J0D01*
G01*
X27150000Y-50050000D02*
G75*
G02*
X27450000Y-50050000I150000J0D01*
G01*
X36450000Y-33550000D02*
G75*
G02*
X36150000Y-33550000I-150000J0D01*
G01*
X36150000Y-33550000D02*
G75*
G02*
X36450000Y-33550000I150000J0D01*
G01*
X55950000Y-33550000D02*
G75*
G02*
X55650000Y-33550000I-150000J0D01*
G01*
X55650000Y-33550000D02*
G75*
G02*
X55950000Y-33550000I150000J0D01*
G01*
X25950000Y-24550000D02*
G75*
G02*
X25650000Y-24550000I-150000J0D01*
G01*
X25650000Y-24550000D02*
G75*
G02*
X25950000Y-24550000I150000J0D01*
G01*
X64950000Y-53050000D02*
G75*
G02*
X64650000Y-53050000I-150000J0D01*
G01*
X64650000Y-53050000D02*
G75*
G02*
X64950000Y-53050000I150000J0D01*
G01*
X21750000Y-57950000D02*
X88350000Y-57950000D01*
X34950000Y-41050000D02*
G75*
G02*
X34650000Y-41050000I-150000J0D01*
G01*
X34650000Y-41050000D02*
G75*
G02*
X34950000Y-41050000I150000J0D01*
G01*
X64950000Y-27550000D02*
G75*
G02*
X64650000Y-27550000I-150000J0D01*
G01*
X64650000Y-27550000D02*
G75*
G02*
X64950000Y-27550000I150000J0D01*
G01*
X48450000Y-38050000D02*
G75*
G02*
X48150000Y-38050000I-150000J0D01*
G01*
X48150000Y-38050000D02*
G75*
G02*
X48450000Y-38050000I150000J0D01*
G01*
X72450000Y-23050000D02*
G75*
G02*
X72150000Y-23050000I-150000J0D01*
G01*
X72150000Y-23050000D02*
G75*
G02*
X72450000Y-23050000I150000J0D01*
G01*
X75450000Y-23050000D02*
G75*
G02*
X75150000Y-23050000I-150000J0D01*
G01*
X75150000Y-23050000D02*
G75*
G02*
X75450000Y-23050000I150000J0D01*
G01*
X46950000Y-50050000D02*
G75*
G02*
X46650000Y-50050000I-150000J0D01*
G01*
X46650000Y-50050000D02*
G75*
G02*
X46950000Y-50050000I150000J0D01*
G01*
X46950000Y-20050000D02*
G75*
G02*
X46650000Y-20050000I-150000J0D01*
G01*
X46650000Y-20050000D02*
G75*
G02*
X46950000Y-20050000I150000J0D01*
G01*
X49950000Y-30550000D02*
G75*
G02*
X49650000Y-30550000I-150000J0D01*
G01*
X49650000Y-30550000D02*
G75*
G02*
X49950000Y-30550000I150000J0D01*
G01*
X75450000Y-35050000D02*
G75*
G02*
X75150000Y-35050000I-150000J0D01*
G01*
X75150000Y-35050000D02*
G75*
G02*
X75450000Y-35050000I150000J0D01*
G01*
X82950000Y-23050000D02*
G75*
G02*
X82650000Y-23050000I-150000J0D01*
G01*
X82650000Y-23050000D02*
G75*
G02*
X82950000Y-23050000I150000J0D01*
G01*
X81450000Y-47050000D02*
G75*
G02*
X81150000Y-47050000I-150000J0D01*
G01*
X81150000Y-47050000D02*
G75*
G02*
X81450000Y-47050000I150000J0D01*
G01*
X58950000Y-27550000D02*
G75*
G02*
X58650000Y-27550000I-150000J0D01*
G01*
X58650000Y-27550000D02*
G75*
G02*
X58950000Y-27550000I150000J0D01*
G01*
X55950000Y-48550000D02*
G75*
G02*
X55650000Y-48550000I-150000J0D01*
G01*
X55650000Y-48550000D02*
G75*
G02*
X55950000Y-48550000I150000J0D01*
G01*
X63450000Y-51550000D02*
G75*
G02*
X63150000Y-51550000I-150000J0D01*
G01*
X63150000Y-51550000D02*
G75*
G02*
X63450000Y-51550000I150000J0D01*
G01*
X85950000Y-35050000D02*
G75*
G02*
X85650000Y-35050000I-150000J0D01*
G01*
X85650000Y-35050000D02*
G75*
G02*
X85950000Y-35050000I150000J0D01*
G01*
X72450000Y-32050000D02*
G75*
G02*
X72150000Y-32050000I-150000J0D01*
G01*
X72150000Y-32050000D02*
G75*
G02*
X72450000Y-32050000I150000J0D01*
G01*
X88450000Y-57850000D02*
X88450000Y-18250000D01*
X48450000Y-39550000D02*
G75*
G02*
X48150000Y-39550000I-150000J0D01*
G01*
X48150000Y-39550000D02*
G75*
G02*
X48450000Y-39550000I150000J0D01*
G01*
X51450000Y-27550000D02*
G75*
G02*
X51150000Y-27550000I-150000J0D01*
G01*
X51150000Y-27550000D02*
G75*
G02*
X51450000Y-27550000I150000J0D01*
G01*
X49950000Y-53050000D02*
G75*
G02*
X49650000Y-53050000I-150000J0D01*
G01*
X49650000Y-53050000D02*
G75*
G02*
X49950000Y-53050000I150000J0D01*
G01*
X55950000Y-56050000D02*
G75*
G02*
X55650000Y-56050000I-150000J0D01*
G01*
X55650000Y-56050000D02*
G75*
G02*
X55950000Y-56050000I150000J0D01*
G01*
X39450000Y-41050000D02*
G75*
G02*
X39150000Y-41050000I-150000J0D01*
G01*
X39150000Y-41050000D02*
G75*
G02*
X39450000Y-41050000I150000J0D01*
G01*
X63450000Y-18550000D02*
G75*
G02*
X63150000Y-18550000I-150000J0D01*
G01*
X63150000Y-18550000D02*
G75*
G02*
X63450000Y-18550000I150000J0D01*
G01*
X66450000Y-41050000D02*
G75*
G02*
X66150000Y-41050000I-150000J0D01*
G01*
X66150000Y-41050000D02*
G75*
G02*
X66450000Y-41050000I150000J0D01*
G01*
X61950000Y-57550000D02*
G75*
G02*
X61650000Y-57550000I-150000J0D01*
G01*
X61650000Y-57550000D02*
G75*
G02*
X61950000Y-57550000I150000J0D01*
G01*
X60450000Y-42550000D02*
G75*
G02*
X60150000Y-42550000I-150000J0D01*
G01*
X60150000Y-42550000D02*
G75*
G02*
X60450000Y-42550000I150000J0D01*
G01*
X27450000Y-41050000D02*
G75*
G02*
X27150000Y-41050000I-150000J0D01*
G01*
X27150000Y-41050000D02*
G75*
G02*
X27450000Y-41050000I150000J0D01*
G01*
X48450000Y-36550000D02*
G75*
G02*
X48150000Y-36550000I-150000J0D01*
G01*
X48150000Y-36550000D02*
G75*
G02*
X48450000Y-36550000I150000J0D01*
G01*
X52950000Y-57550000D02*
G75*
G02*
X52650000Y-57550000I-150000J0D01*
G01*
X52650000Y-57550000D02*
G75*
G02*
X52950000Y-57550000I150000J0D01*
G01*
X70950000Y-56050000D02*
G75*
G02*
X70650000Y-56050000I-150000J0D01*
G01*
X70650000Y-56050000D02*
G75*
G02*
X70950000Y-56050000I150000J0D01*
G01*
X76950000Y-51550000D02*
G75*
G02*
X76650000Y-51550000I-150000J0D01*
G01*
X76650000Y-51550000D02*
G75*
G02*
X76950000Y-51550000I150000J0D01*
G01*
X40950000Y-39550000D02*
G75*
G02*
X40650000Y-39550000I-150000J0D01*
G01*
X40650000Y-39550000D02*
G75*
G02*
X40950000Y-39550000I150000J0D01*
G01*
X73950000Y-29050000D02*
G75*
G02*
X73650000Y-29050000I-150000J0D01*
G01*
X73650000Y-29050000D02*
G75*
G02*
X73950000Y-29050000I150000J0D01*
G01*
X40950000Y-26050000D02*
G75*
G02*
X40650000Y-26050000I-150000J0D01*
G01*
X40650000Y-26050000D02*
G75*
G02*
X40950000Y-26050000I150000J0D01*
G01*
X82950000Y-36550000D02*
G75*
G02*
X82650000Y-36550000I-150000J0D01*
G01*
X82650000Y-36550000D02*
G75*
G02*
X82950000Y-36550000I150000J0D01*
G01*
X27450000Y-30550000D02*
G75*
G02*
X27150000Y-30550000I-150000J0D01*
G01*
X27150000Y-30550000D02*
G75*
G02*
X27450000Y-30550000I150000J0D01*
G01*
X81450000Y-44050000D02*
G75*
G02*
X81150000Y-44050000I-150000J0D01*
G01*
X81150000Y-44050000D02*
G75*
G02*
X81450000Y-44050000I150000J0D01*
G01*
X60450000Y-38050000D02*
G75*
G02*
X60150000Y-38050000I-150000J0D01*
G01*
X60150000Y-38050000D02*
G75*
G02*
X60450000Y-38050000I150000J0D01*
G01*
X81450000Y-27550000D02*
G75*
G02*
X81150000Y-27550000I-150000J0D01*
G01*
X81150000Y-27550000D02*
G75*
G02*
X81450000Y-27550000I150000J0D01*
G01*
X76950000Y-29050000D02*
G75*
G02*
X76650000Y-29050000I-150000J0D01*
G01*
X76650000Y-29050000D02*
G75*
G02*
X76950000Y-29050000I150000J0D01*
G01*
X31950000Y-27550000D02*
G75*
G02*
X31650000Y-27550000I-150000J0D01*
G01*
X31650000Y-27550000D02*
G75*
G02*
X31950000Y-27550000I150000J0D01*
G01*
X66450000Y-42550000D02*
G75*
G02*
X66150000Y-42550000I-150000J0D01*
G01*
X66150000Y-42550000D02*
G75*
G02*
X66450000Y-42550000I150000J0D01*
G01*
X30450000Y-21550000D02*
G75*
G02*
X30150000Y-21550000I-150000J0D01*
G01*
X30150000Y-21550000D02*
G75*
G02*
X30450000Y-21550000I150000J0D01*
G01*
X43950000Y-45550000D02*
G75*
G02*
X43650000Y-45550000I-150000J0D01*
G01*
X43650000Y-45550000D02*
G75*
G02*
X43950000Y-45550000I150000J0D01*
G01*
X67950000Y-44050000D02*
G75*
G02*
X67650000Y-44050000I-150000J0D01*
G01*
X67650000Y-44050000D02*
G75*
G02*
X67950000Y-44050000I150000J0D01*
G01*
X85950000Y-33550000D02*
G75*
G02*
X85650000Y-33550000I-150000J0D01*
G01*
X85650000Y-33550000D02*
G75*
G02*
X85950000Y-33550000I150000J0D01*
G01*
X31950000Y-30550000D02*
G75*
G02*
X31650000Y-30550000I-150000J0D01*
G01*
X31650000Y-30550000D02*
G75*
G02*
X31950000Y-30550000I150000J0D01*
G01*
X24450000Y-26050000D02*
G75*
G02*
X24150000Y-26050000I-150000J0D01*
G01*
X24150000Y-26050000D02*
G75*
G02*
X24450000Y-26050000I150000J0D01*
G01*
X43950000Y-41050000D02*
G75*
G02*
X43650000Y-41050000I-150000J0D01*
G01*
X43650000Y-41050000D02*
G75*
G02*
X43950000Y-41050000I150000J0D01*
G01*
X73950000Y-30550000D02*
G75*
G02*
X73650000Y-30550000I-150000J0D01*
G01*
X73650000Y-30550000D02*
G75*
G02*
X73950000Y-30550000I150000J0D01*
G01*
X84450000Y-38050000D02*
G75*
G02*
X84150000Y-38050000I-150000J0D01*
G01*
X84150000Y-38050000D02*
G75*
G02*
X84450000Y-38050000I150000J0D01*
G01*
X76950000Y-20050000D02*
G75*
G02*
X76650000Y-20050000I-150000J0D01*
G01*
X76650000Y-20050000D02*
G75*
G02*
X76950000Y-20050000I150000J0D01*
G01*
X63450000Y-35050000D02*
G75*
G02*
X63150000Y-35050000I-150000J0D01*
G01*
X63150000Y-35050000D02*
G75*
G02*
X63450000Y-35050000I150000J0D01*
G01*
X82950000Y-50050000D02*
G75*
G02*
X82650000Y-50050000I-150000J0D01*
G01*
X82650000Y-50050000D02*
G75*
G02*
X82950000Y-50050000I150000J0D01*
G01*
X33450000Y-54550000D02*
G75*
G02*
X33150000Y-54550000I-150000J0D01*
G01*
X33150000Y-54550000D02*
G75*
G02*
X33450000Y-54550000I150000J0D01*
G01*
X57450000Y-42550000D02*
G75*
G02*
X57150000Y-42550000I-150000J0D01*
G01*
X57150000Y-42550000D02*
G75*
G02*
X57450000Y-42550000I150000J0D01*
G01*
X31950000Y-44050000D02*
G75*
G02*
X31650000Y-44050000I-150000J0D01*
G01*
X31650000Y-44050000D02*
G75*
G02*
X31950000Y-44050000I150000J0D01*
G01*
X46950000Y-45550000D02*
G75*
G02*
X46650000Y-45550000I-150000J0D01*
G01*
X46650000Y-45550000D02*
G75*
G02*
X46950000Y-45550000I150000J0D01*
G01*
X78450000Y-38050000D02*
G75*
G02*
X78150000Y-38050000I-150000J0D01*
G01*
X78150000Y-38050000D02*
G75*
G02*
X78450000Y-38050000I150000J0D01*
G01*
X81450000Y-29050000D02*
G75*
G02*
X81150000Y-29050000I-150000J0D01*
G01*
X81150000Y-29050000D02*
G75*
G02*
X81450000Y-29050000I150000J0D01*
G01*
X43950000Y-30550000D02*
G75*
G02*
X43650000Y-30550000I-150000J0D01*
G01*
X43650000Y-30550000D02*
G75*
G02*
X43950000Y-30550000I150000J0D01*
G01*
X55950000Y-32050000D02*
G75*
G02*
X55650000Y-32050000I-150000J0D01*
G01*
X55650000Y-32050000D02*
G75*
G02*
X55950000Y-32050000I150000J0D01*
G01*
X60450000Y-41050000D02*
G75*
G02*
X60150000Y-41050000I-150000J0D01*
G01*
X60150000Y-41050000D02*
G75*
G02*
X60450000Y-41050000I150000J0D01*
G01*
X48450000Y-23050000D02*
G75*
G02*
X48150000Y-23050000I-150000J0D01*
G01*
X48150000Y-23050000D02*
G75*
G02*
X48450000Y-23050000I150000J0D01*
G01*
X58950000Y-35050000D02*
G75*
G02*
X58650000Y-35050000I-150000J0D01*
G01*
X58650000Y-35050000D02*
G75*
G02*
X58950000Y-35050000I150000J0D01*
G01*
X70950000Y-45550000D02*
G75*
G02*
X70650000Y-45550000I-150000J0D01*
G01*
X70650000Y-45550000D02*
G75*
G02*
X70950000Y-45550000I150000J0D01*
G01*
X76950000Y-36550000D02*
G75*
G02*
X76650000Y-36550000I-150000J0D01*
G01*
X76650000Y-36550000D02*
G75*
G02*
X76950000Y-36550000I150000J0D01*
G01*
X72450000Y-45550000D02*
G75*
G02*
X72150000Y-45550000I-150000J0D01*
G01*
X72150000Y-45550000D02*
G75*
G02*
X72450000Y-45550000I150000J0D01*
G01*
X79950000Y-35050000D02*
G75*
G02*
X79650000Y-35050000I-150000J0D01*
G01*
X79650000Y-35050000D02*
G75*
G02*
X79950000Y-35050000I150000J0D01*
G01*
X76950000Y-21550000D02*
G75*
G02*
X76650000Y-21550000I-150000J0D01*
G01*
X76650000Y-21550000D02*
G75*
G02*
X76950000Y-21550000I150000J0D01*
G01*
X52950000Y-27550000D02*
G75*
G02*
X52650000Y-27550000I-150000J0D01*
G01*
X52650000Y-27550000D02*
G75*
G02*
X52950000Y-27550000I150000J0D01*
G01*
X78450000Y-27550000D02*
G75*
G02*
X78150000Y-27550000I-150000J0D01*
G01*
X78150000Y-27550000D02*
G75*
G02*
X78450000Y-27550000I150000J0D01*
G01*
X28950000Y-26050000D02*
G75*
G02*
X28650000Y-26050000I-150000J0D01*
G01*
X28650000Y-26050000D02*
G75*
G02*
X28950000Y-26050000I150000J0D01*
G01*
X54450000Y-26050000D02*
G75*
G02*
X54150000Y-26050000I-150000J0D01*
G01*
X54150000Y-26050000D02*
G75*
G02*
X54450000Y-26050000I150000J0D01*
G01*
X63450000Y-45550000D02*
G75*
G02*
X63150000Y-45550000I-150000J0D01*
G01*
X63150000Y-45550000D02*
G75*
G02*
X63450000Y-45550000I150000J0D01*
G01*
X43950000Y-42550000D02*
G75*
G02*
X43650000Y-42550000I-150000J0D01*
G01*
X43650000Y-42550000D02*
G75*
G02*
X43950000Y-42550000I150000J0D01*
G01*
X54450000Y-45550000D02*
G75*
G02*
X54150000Y-45550000I-150000J0D01*
G01*
X54150000Y-45550000D02*
G75*
G02*
X54450000Y-45550000I150000J0D01*
G01*
X63450000Y-36550000D02*
G75*
G02*
X63150000Y-36550000I-150000J0D01*
G01*
X63150000Y-36550000D02*
G75*
G02*
X63450000Y-36550000I150000J0D01*
G01*
X30450000Y-32050000D02*
G75*
G02*
X30150000Y-32050000I-150000J0D01*
G01*
X30150000Y-32050000D02*
G75*
G02*
X30450000Y-32050000I150000J0D01*
G01*
X76950000Y-57550000D02*
G75*
G02*
X76650000Y-57550000I-150000J0D01*
G01*
X76650000Y-57550000D02*
G75*
G02*
X76950000Y-57550000I150000J0D01*
G01*
X52950000Y-54550000D02*
G75*
G02*
X52650000Y-54550000I-150000J0D01*
G01*
X52650000Y-54550000D02*
G75*
G02*
X52950000Y-54550000I150000J0D01*
G01*
X51450000Y-29050000D02*
G75*
G02*
X51150000Y-29050000I-150000J0D01*
G01*
X51150000Y-29050000D02*
G75*
G02*
X51450000Y-29050000I150000J0D01*
G01*
X43950000Y-48550000D02*
G75*
G02*
X43650000Y-48550000I-150000J0D01*
G01*
X43650000Y-48550000D02*
G75*
G02*
X43950000Y-48550000I150000J0D01*
G01*
X28950000Y-51550000D02*
G75*
G02*
X28650000Y-51550000I-150000J0D01*
G01*
X28650000Y-51550000D02*
G75*
G02*
X28950000Y-51550000I150000J0D01*
G01*
X82950000Y-57550000D02*
G75*
G02*
X82650000Y-57550000I-150000J0D01*
G01*
X82650000Y-57550000D02*
G75*
G02*
X82950000Y-57550000I150000J0D01*
G01*
X51450000Y-36550000D02*
G75*
G02*
X51150000Y-36550000I-150000J0D01*
G01*
X51150000Y-36550000D02*
G75*
G02*
X51450000Y-36550000I150000J0D01*
G01*
X63450000Y-48550000D02*
G75*
G02*
X63150000Y-48550000I-150000J0D01*
G01*
X63150000Y-48550000D02*
G75*
G02*
X63450000Y-48550000I150000J0D01*
G01*
X36450000Y-23050000D02*
G75*
G02*
X36150000Y-23050000I-150000J0D01*
G01*
X36150000Y-23050000D02*
G75*
G02*
X36450000Y-23050000I150000J0D01*
G01*
X43950000Y-36550000D02*
G75*
G02*
X43650000Y-36550000I-150000J0D01*
G01*
X43650000Y-36550000D02*
G75*
G02*
X43950000Y-36550000I150000J0D01*
G01*
X66450000Y-32050000D02*
G75*
G02*
X66150000Y-32050000I-150000J0D01*
G01*
X66150000Y-32050000D02*
G75*
G02*
X66450000Y-32050000I150000J0D01*
G01*
X31950000Y-32050000D02*
G75*
G02*
X31650000Y-32050000I-150000J0D01*
G01*
X31650000Y-32050000D02*
G75*
G02*
X31950000Y-32050000I150000J0D01*
G01*
X42450000Y-51550000D02*
G75*
G02*
X42150000Y-51550000I-150000J0D01*
G01*
X42150000Y-51550000D02*
G75*
G02*
X42450000Y-51550000I150000J0D01*
G01*
X67950000Y-38050000D02*
G75*
G02*
X67650000Y-38050000I-150000J0D01*
G01*
X67650000Y-38050000D02*
G75*
G02*
X67950000Y-38050000I150000J0D01*
G01*
X54450000Y-36550000D02*
G75*
G02*
X54150000Y-36550000I-150000J0D01*
G01*
X54150000Y-36550000D02*
G75*
G02*
X54450000Y-36550000I150000J0D01*
G01*
X34950000Y-44050000D02*
G75*
G02*
X34650000Y-44050000I-150000J0D01*
G01*
X34650000Y-44050000D02*
G75*
G02*
X34950000Y-44050000I150000J0D01*
G01*
X36450000Y-53050000D02*
G75*
G02*
X36150000Y-53050000I-150000J0D01*
G01*
X36150000Y-53050000D02*
G75*
G02*
X36450000Y-53050000I150000J0D01*
G01*
X78450000Y-54550000D02*
G75*
G02*
X78150000Y-54550000I-150000J0D01*
G01*
X78150000Y-54550000D02*
G75*
G02*
X78450000Y-54550000I150000J0D01*
G01*
X63450000Y-44050000D02*
G75*
G02*
X63150000Y-44050000I-150000J0D01*
G01*
X63150000Y-44050000D02*
G75*
G02*
X63450000Y-44050000I150000J0D01*
G01*
X34950000Y-27550000D02*
G75*
G02*
X34650000Y-27550000I-150000J0D01*
G01*
X34650000Y-27550000D02*
G75*
G02*
X34950000Y-27550000I150000J0D01*
G01*
X36450000Y-27550000D02*
G75*
G02*
X36150000Y-27550000I-150000J0D01*
G01*
X36150000Y-27550000D02*
G75*
G02*
X36450000Y-27550000I150000J0D01*
G01*
X25950000Y-42550000D02*
G75*
G02*
X25650000Y-42550000I-150000J0D01*
G01*
X25650000Y-42550000D02*
G75*
G02*
X25950000Y-42550000I150000J0D01*
G01*
X45450000Y-56050000D02*
G75*
G02*
X45150000Y-56050000I-150000J0D01*
G01*
X45150000Y-56050000D02*
G75*
G02*
X45450000Y-56050000I150000J0D01*
G01*
X64950000Y-48550000D02*
G75*
G02*
X64650000Y-48550000I-150000J0D01*
G01*
X64650000Y-48550000D02*
G75*
G02*
X64950000Y-48550000I150000J0D01*
G01*
X55950000Y-26050000D02*
G75*
G02*
X55650000Y-26050000I-150000J0D01*
G01*
X55650000Y-26050000D02*
G75*
G02*
X55950000Y-26050000I150000J0D01*
G01*
X60450000Y-51550000D02*
G75*
G02*
X60150000Y-51550000I-150000J0D01*
G01*
X60150000Y-51550000D02*
G75*
G02*
X60450000Y-51550000I150000J0D01*
G01*
X58950000Y-26050000D02*
G75*
G02*
X58650000Y-26050000I-150000J0D01*
G01*
X58650000Y-26050000D02*
G75*
G02*
X58950000Y-26050000I150000J0D01*
G01*
X24450000Y-53050000D02*
G75*
G02*
X24150000Y-53050000I-150000J0D01*
G01*
X24150000Y-53050000D02*
G75*
G02*
X24450000Y-53050000I150000J0D01*
G01*
X58950000Y-29050000D02*
G75*
G02*
X58650000Y-29050000I-150000J0D01*
G01*
X58650000Y-29050000D02*
G75*
G02*
X58950000Y-29050000I150000J0D01*
G01*
X27450000Y-51550000D02*
G75*
G02*
X27150000Y-51550000I-150000J0D01*
G01*
X27150000Y-51550000D02*
G75*
G02*
X27450000Y-51550000I150000J0D01*
G01*
X40950000Y-38050000D02*
G75*
G02*
X40650000Y-38050000I-150000J0D01*
G01*
X40650000Y-38050000D02*
G75*
G02*
X40950000Y-38050000I150000J0D01*
G01*
X30450000Y-18550000D02*
G75*
G02*
X30150000Y-18550000I-150000J0D01*
G01*
X30150000Y-18550000D02*
G75*
G02*
X30450000Y-18550000I150000J0D01*
G01*
X85950000Y-50050000D02*
G75*
G02*
X85650000Y-50050000I-150000J0D01*
G01*
X85650000Y-50050000D02*
G75*
G02*
X85950000Y-50050000I150000J0D01*
G01*
X67950000Y-51550000D02*
G75*
G02*
X67650000Y-51550000I-150000J0D01*
G01*
X67650000Y-51550000D02*
G75*
G02*
X67950000Y-51550000I150000J0D01*
G01*
X69450000Y-47050000D02*
G75*
G02*
X69150000Y-47050000I-150000J0D01*
G01*
X69150000Y-47050000D02*
G75*
G02*
X69450000Y-47050000I150000J0D01*
G01*
X82950000Y-48550000D02*
G75*
G02*
X82650000Y-48550000I-150000J0D01*
G01*
X82650000Y-48550000D02*
G75*
G02*
X82950000Y-48550000I150000J0D01*
G01*
X79950000Y-24550000D02*
G75*
G02*
X79650000Y-24550000I-150000J0D01*
G01*
X79650000Y-24550000D02*
G75*
G02*
X79950000Y-24550000I150000J0D01*
G01*
X81450000Y-32050000D02*
G75*
G02*
X81150000Y-32050000I-150000J0D01*
G01*
X81150000Y-32050000D02*
G75*
G02*
X81450000Y-32050000I150000J0D01*
G01*
X37950000Y-41050000D02*
G75*
G02*
X37650000Y-41050000I-150000J0D01*
G01*
X37650000Y-41050000D02*
G75*
G02*
X37950000Y-41050000I150000J0D01*
G01*
X33450000Y-24550000D02*
G75*
G02*
X33150000Y-24550000I-150000J0D01*
G01*
X33150000Y-24550000D02*
G75*
G02*
X33450000Y-24550000I150000J0D01*
G01*
X78450000Y-45550000D02*
G75*
G02*
X78150000Y-45550000I-150000J0D01*
G01*
X78150000Y-45550000D02*
G75*
G02*
X78450000Y-45550000I150000J0D01*
G01*
X25950000Y-44050000D02*
G75*
G02*
X25650000Y-44050000I-150000J0D01*
G01*
X25650000Y-44050000D02*
G75*
G02*
X25950000Y-44050000I150000J0D01*
G01*
X51450000Y-24550000D02*
G75*
G02*
X51150000Y-24550000I-150000J0D01*
G01*
X51150000Y-24550000D02*
G75*
G02*
X51450000Y-24550000I150000J0D01*
G01*
X45450000Y-50050000D02*
G75*
G02*
X45150000Y-50050000I-150000J0D01*
G01*
X45150000Y-50050000D02*
G75*
G02*
X45450000Y-50050000I150000J0D01*
G01*
X28950000Y-36550000D02*
G75*
G02*
X28650000Y-36550000I-150000J0D01*
G01*
X28650000Y-36550000D02*
G75*
G02*
X28950000Y-36550000I150000J0D01*
G01*
X61950000Y-39550000D02*
G75*
G02*
X61650000Y-39550000I-150000J0D01*
G01*
X61650000Y-39550000D02*
G75*
G02*
X61950000Y-39550000I150000J0D01*
G01*
X79950000Y-39550000D02*
G75*
G02*
X79650000Y-39550000I-150000J0D01*
G01*
X79650000Y-39550000D02*
G75*
G02*
X79950000Y-39550000I150000J0D01*
G01*
X25950000Y-47050000D02*
G75*
G02*
X25650000Y-47050000I-150000J0D01*
G01*
X25650000Y-47050000D02*
G75*
G02*
X25950000Y-47050000I150000J0D01*
G01*
X82950000Y-35050000D02*
G75*
G02*
X82650000Y-35050000I-150000J0D01*
G01*
X82650000Y-35050000D02*
G75*
G02*
X82950000Y-35050000I150000J0D01*
G01*
X34950000Y-20050000D02*
G75*
G02*
X34650000Y-20050000I-150000J0D01*
G01*
X34650000Y-20050000D02*
G75*
G02*
X34950000Y-20050000I150000J0D01*
G01*
X55950000Y-36550000D02*
G75*
G02*
X55650000Y-36550000I-150000J0D01*
G01*
X55650000Y-36550000D02*
G75*
G02*
X55950000Y-36550000I150000J0D01*
G01*
X30450000Y-57550000D02*
G75*
G02*
X30150000Y-57550000I-150000J0D01*
G01*
X30150000Y-57550000D02*
G75*
G02*
X30450000Y-57550000I150000J0D01*
G01*
X70950000Y-33550000D02*
G75*
G02*
X70650000Y-33550000I-150000J0D01*
G01*
X70650000Y-33550000D02*
G75*
G02*
X70950000Y-33550000I150000J0D01*
G01*
X37950000Y-56050000D02*
G75*
G02*
X37650000Y-56050000I-150000J0D01*
G01*
X37650000Y-56050000D02*
G75*
G02*
X37950000Y-56050000I150000J0D01*
G01*
X54450000Y-41050000D02*
G75*
G02*
X54150000Y-41050000I-150000J0D01*
G01*
X54150000Y-41050000D02*
G75*
G02*
X54450000Y-41050000I150000J0D01*
G01*
X81450000Y-21550000D02*
G75*
G02*
X81150000Y-21550000I-150000J0D01*
G01*
X81150000Y-21550000D02*
G75*
G02*
X81450000Y-21550000I150000J0D01*
G01*
X85950000Y-30550000D02*
G75*
G02*
X85650000Y-30550000I-150000J0D01*
G01*
X85650000Y-30550000D02*
G75*
G02*
X85950000Y-30550000I150000J0D01*
G01*
X36450000Y-56050000D02*
G75*
G02*
X36150000Y-56050000I-150000J0D01*
G01*
X36150000Y-56050000D02*
G75*
G02*
X36450000Y-56050000I150000J0D01*
G01*
X67950000Y-21550000D02*
G75*
G02*
X67650000Y-21550000I-150000J0D01*
G01*
X67650000Y-21550000D02*
G75*
G02*
X67950000Y-21550000I150000J0D01*
G01*
X37950000Y-38050000D02*
G75*
G02*
X37650000Y-38050000I-150000J0D01*
G01*
X37650000Y-38050000D02*
G75*
G02*
X37950000Y-38050000I150000J0D01*
G01*
X61950000Y-35050000D02*
G75*
G02*
X61650000Y-35050000I-150000J0D01*
G01*
X61650000Y-35050000D02*
G75*
G02*
X61950000Y-35050000I150000J0D01*
G01*
X76950000Y-33550000D02*
G75*
G02*
X76650000Y-33550000I-150000J0D01*
G01*
X76650000Y-33550000D02*
G75*
G02*
X76950000Y-33550000I150000J0D01*
G01*
X24450000Y-30550000D02*
G75*
G02*
X24150000Y-30550000I-150000J0D01*
G01*
X24150000Y-30550000D02*
G75*
G02*
X24450000Y-30550000I150000J0D01*
G01*
X25950000Y-41050000D02*
G75*
G02*
X25650000Y-41050000I-150000J0D01*
G01*
X25650000Y-41050000D02*
G75*
G02*
X25950000Y-41050000I150000J0D01*
G01*
X34950000Y-35050000D02*
G75*
G02*
X34650000Y-35050000I-150000J0D01*
G01*
X34650000Y-35050000D02*
G75*
G02*
X34950000Y-35050000I150000J0D01*
G01*
X31950000Y-47050000D02*
G75*
G02*
X31650000Y-47050000I-150000J0D01*
G01*
X31650000Y-47050000D02*
G75*
G02*
X31950000Y-47050000I150000J0D01*
G01*
X64950000Y-21550000D02*
G75*
G02*
X64650000Y-21550000I-150000J0D01*
G01*
X64650000Y-21550000D02*
G75*
G02*
X64950000Y-21550000I150000J0D01*
G01*
X42450000Y-23050000D02*
G75*
G02*
X42150000Y-23050000I-150000J0D01*
G01*
X42150000Y-23050000D02*
G75*
G02*
X42450000Y-23050000I150000J0D01*
G01*
X79950000Y-44050000D02*
G75*
G02*
X79650000Y-44050000I-150000J0D01*
G01*
X79650000Y-44050000D02*
G75*
G02*
X79950000Y-44050000I150000J0D01*
G01*
X40950000Y-54550000D02*
G75*
G02*
X40650000Y-54550000I-150000J0D01*
G01*
X40650000Y-54550000D02*
G75*
G02*
X40950000Y-54550000I150000J0D01*
G01*
X52950000Y-44050000D02*
G75*
G02*
X52650000Y-44050000I-150000J0D01*
G01*
X52650000Y-44050000D02*
G75*
G02*
X52950000Y-44050000I150000J0D01*
G01*
X85950000Y-45550000D02*
G75*
G02*
X85650000Y-45550000I-150000J0D01*
G01*
X85650000Y-45550000D02*
G75*
G02*
X85950000Y-45550000I150000J0D01*
G01*
X27450000Y-26050000D02*
G75*
G02*
X27150000Y-26050000I-150000J0D01*
G01*
X27150000Y-26050000D02*
G75*
G02*
X27450000Y-26050000I150000J0D01*
G01*
X75450000Y-47050000D02*
G75*
G02*
X75150000Y-47050000I-150000J0D01*
G01*
X75150000Y-47050000D02*
G75*
G02*
X75450000Y-47050000I150000J0D01*
G01*
X36450000Y-32050000D02*
G75*
G02*
X36150000Y-32050000I-150000J0D01*
G01*
X36150000Y-32050000D02*
G75*
G02*
X36450000Y-32050000I150000J0D01*
G01*
X67950000Y-35050000D02*
G75*
G02*
X67650000Y-35050000I-150000J0D01*
G01*
X67650000Y-35050000D02*
G75*
G02*
X67950000Y-35050000I150000J0D01*
G01*
X54450000Y-30550000D02*
G75*
G02*
X54150000Y-30550000I-150000J0D01*
G01*
X54150000Y-30550000D02*
G75*
G02*
X54450000Y-30550000I150000J0D01*
G01*
X58950000Y-41050000D02*
G75*
G02*
X58650000Y-41050000I-150000J0D01*
G01*
X58650000Y-41050000D02*
G75*
G02*
X58950000Y-41050000I150000J0D01*
G01*
X34950000Y-56050000D02*
G75*
G02*
X34650000Y-56050000I-150000J0D01*
G01*
X34650000Y-56050000D02*
G75*
G02*
X34950000Y-56050000I150000J0D01*
G01*
X58950000Y-44050000D02*
G75*
G02*
X58650000Y-44050000I-150000J0D01*
G01*
X58650000Y-44050000D02*
G75*
G02*
X58950000Y-44050000I150000J0D01*
G01*
X63450000Y-32050000D02*
G75*
G02*
X63150000Y-32050000I-150000J0D01*
G01*
X63150000Y-32050000D02*
G75*
G02*
X63450000Y-32050000I150000J0D01*
G01*
X28950000Y-47050000D02*
G75*
G02*
X28650000Y-47050000I-150000J0D01*
G01*
X28650000Y-47050000D02*
G75*
G02*
X28950000Y-47050000I150000J0D01*
G01*
X33450000Y-26050000D02*
G75*
G02*
X33150000Y-26050000I-150000J0D01*
G01*
X33150000Y-26050000D02*
G75*
G02*
X33450000Y-26050000I150000J0D01*
G01*
X52950000Y-36550000D02*
G75*
G02*
X52650000Y-36550000I-150000J0D01*
G01*
X52650000Y-36550000D02*
G75*
G02*
X52950000Y-36550000I150000J0D01*
G01*
X64950000Y-47050000D02*
G75*
G02*
X64650000Y-47050000I-150000J0D01*
G01*
X64650000Y-47050000D02*
G75*
G02*
X64950000Y-47050000I150000J0D01*
G01*
X60450000Y-36550000D02*
G75*
G02*
X60150000Y-36550000I-150000J0D01*
G01*
X60150000Y-36550000D02*
G75*
G02*
X60450000Y-36550000I150000J0D01*
G01*
X54450000Y-32050000D02*
G75*
G02*
X54150000Y-32050000I-150000J0D01*
G01*
X54150000Y-32050000D02*
G75*
G02*
X54450000Y-32050000I150000J0D01*
G01*
X60450000Y-56050000D02*
G75*
G02*
X60150000Y-56050000I-150000J0D01*
G01*
X60150000Y-56050000D02*
G75*
G02*
X60450000Y-56050000I150000J0D01*
G01*
X81525000Y-38050000D02*
G75*
G02*
X81075000Y-38050000I-225000J0D01*
G01*
X81075000Y-38050000D02*
G75*
G02*
X81525000Y-38050000I225000J0D01*
G01*
X25950000Y-50050000D02*
G75*
G02*
X25650000Y-50050000I-150000J0D01*
G01*
X25650000Y-50050000D02*
G75*
G02*
X25950000Y-50050000I150000J0D01*
G01*
X66450000Y-18550000D02*
G75*
G02*
X66150000Y-18550000I-150000J0D01*
G01*
X66150000Y-18550000D02*
G75*
G02*
X66450000Y-18550000I150000J0D01*
G01*
X48450000Y-18550000D02*
G75*
G02*
X48150000Y-18550000I-150000J0D01*
G01*
X48150000Y-18550000D02*
G75*
G02*
X48450000Y-18550000I150000J0D01*
G01*
X48450000Y-20050000D02*
G75*
G02*
X48150000Y-20050000I-150000J0D01*
G01*
X48150000Y-20050000D02*
G75*
G02*
X48450000Y-20050000I150000J0D01*
G01*
X52950000Y-21550000D02*
G75*
G02*
X52650000Y-21550000I-150000J0D01*
G01*
X52650000Y-21550000D02*
G75*
G02*
X52950000Y-21550000I150000J0D01*
G01*
X69450000Y-42550000D02*
G75*
G02*
X69150000Y-42550000I-150000J0D01*
G01*
X69150000Y-42550000D02*
G75*
G02*
X69450000Y-42550000I150000J0D01*
G01*
X27450000Y-33550000D02*
G75*
G02*
X27150000Y-33550000I-150000J0D01*
G01*
X27150000Y-33550000D02*
G75*
G02*
X27450000Y-33550000I150000J0D01*
G01*
X31950000Y-57550000D02*
G75*
G02*
X31650000Y-57550000I-150000J0D01*
G01*
X31650000Y-57550000D02*
G75*
G02*
X31950000Y-57550000I150000J0D01*
G01*
X27450000Y-54550000D02*
G75*
G02*
X27150000Y-54550000I-150000J0D01*
G01*
X27150000Y-54550000D02*
G75*
G02*
X27450000Y-54550000I150000J0D01*
G01*
X66450000Y-45550000D02*
G75*
G02*
X66150000Y-45550000I-150000J0D01*
G01*
X66150000Y-45550000D02*
G75*
G02*
X66450000Y-45550000I150000J0D01*
G01*
X61950000Y-38050000D02*
G75*
G02*
X61650000Y-38050000I-150000J0D01*
G01*
X61650000Y-38050000D02*
G75*
G02*
X61950000Y-38050000I150000J0D01*
G01*
X51450000Y-33550000D02*
G75*
G02*
X51150000Y-33550000I-150000J0D01*
G01*
X51150000Y-33550000D02*
G75*
G02*
X51450000Y-33550000I150000J0D01*
G01*
X75450000Y-41050000D02*
G75*
G02*
X75150000Y-41050000I-150000J0D01*
G01*
X75150000Y-41050000D02*
G75*
G02*
X75450000Y-41050000I150000J0D01*
G01*
X81450000Y-33550000D02*
G75*
G02*
X81150000Y-33550000I-150000J0D01*
G01*
X81150000Y-33550000D02*
G75*
G02*
X81450000Y-33550000I150000J0D01*
G01*
X24450000Y-33550000D02*
G75*
G02*
X24150000Y-33550000I-150000J0D01*
G01*
X24150000Y-33550000D02*
G75*
G02*
X24450000Y-33550000I150000J0D01*
G01*
X66450000Y-50050000D02*
G75*
G02*
X66150000Y-50050000I-150000J0D01*
G01*
X66150000Y-50050000D02*
G75*
G02*
X66450000Y-50050000I150000J0D01*
G01*
X37950000Y-48550000D02*
G75*
G02*
X37650000Y-48550000I-150000J0D01*
G01*
X37650000Y-48550000D02*
G75*
G02*
X37950000Y-48550000I150000J0D01*
G01*
X49950000Y-41050000D02*
G75*
G02*
X49650000Y-41050000I-150000J0D01*
G01*
X49650000Y-41050000D02*
G75*
G02*
X49950000Y-41050000I150000J0D01*
G01*
X29025000Y-53050000D02*
G75*
G02*
X28575000Y-53050000I-225000J0D01*
G01*
X28575000Y-53050000D02*
G75*
G02*
X29025000Y-53050000I225000J0D01*
G01*
X28950000Y-54550000D02*
G75*
G02*
X28650000Y-54550000I-150000J0D01*
G01*
X28650000Y-54550000D02*
G75*
G02*
X28950000Y-54550000I150000J0D01*
G01*
X64950000Y-18550000D02*
G75*
G02*
X64650000Y-18550000I-150000J0D01*
G01*
X64650000Y-18550000D02*
G75*
G02*
X64950000Y-18550000I150000J0D01*
G01*
X28950000Y-21550000D02*
G75*
G02*
X28650000Y-21550000I-150000J0D01*
G01*
X28650000Y-21550000D02*
G75*
G02*
X28950000Y-21550000I150000J0D01*
G01*
X64950000Y-54550000D02*
G75*
G02*
X64650000Y-54550000I-150000J0D01*
G01*
X64650000Y-54550000D02*
G75*
G02*
X64950000Y-54550000I150000J0D01*
G01*
X60450000Y-26050000D02*
G75*
G02*
X60150000Y-26050000I-150000J0D01*
G01*
X60150000Y-26050000D02*
G75*
G02*
X60450000Y-26050000I150000J0D01*
G01*
X30450000Y-44050000D02*
G75*
G02*
X30150000Y-44050000I-150000J0D01*
G01*
X30150000Y-44050000D02*
G75*
G02*
X30450000Y-44050000I150000J0D01*
G01*
X39450000Y-48550000D02*
G75*
G02*
X39150000Y-48550000I-150000J0D01*
G01*
X39150000Y-48550000D02*
G75*
G02*
X39450000Y-48550000I150000J0D01*
G01*
X24450000Y-20050000D02*
G75*
G02*
X24150000Y-20050000I-150000J0D01*
G01*
X24150000Y-20050000D02*
G75*
G02*
X24450000Y-20050000I150000J0D01*
G01*
X39450000Y-45550000D02*
G75*
G02*
X39150000Y-45550000I-150000J0D01*
G01*
X39150000Y-45550000D02*
G75*
G02*
X39450000Y-45550000I150000J0D01*
G01*
X66450000Y-30550000D02*
G75*
G02*
X66150000Y-30550000I-150000J0D01*
G01*
X66150000Y-30550000D02*
G75*
G02*
X66450000Y-30550000I150000J0D01*
G01*
X43950000Y-21550000D02*
G75*
G02*
X43650000Y-21550000I-150000J0D01*
G01*
X43650000Y-21550000D02*
G75*
G02*
X43950000Y-21550000I150000J0D01*
G01*
X75450000Y-30550000D02*
G75*
G02*
X75150000Y-30550000I-150000J0D01*
G01*
X75150000Y-30550000D02*
G75*
G02*
X75450000Y-30550000I150000J0D01*
G01*
X46950000Y-26050000D02*
G75*
G02*
X46650000Y-26050000I-150000J0D01*
G01*
X46650000Y-26050000D02*
G75*
G02*
X46950000Y-26050000I150000J0D01*
G01*
X36450000Y-24550000D02*
G75*
G02*
X36150000Y-24550000I-150000J0D01*
G01*
X36150000Y-24550000D02*
G75*
G02*
X36450000Y-24550000I150000J0D01*
G01*
X84450000Y-21550000D02*
G75*
G02*
X84150000Y-21550000I-150000J0D01*
G01*
X84150000Y-21550000D02*
G75*
G02*
X84450000Y-21550000I150000J0D01*
G01*
X51450000Y-48550000D02*
G75*
G02*
X51150000Y-48550000I-150000J0D01*
G01*
X51150000Y-48550000D02*
G75*
G02*
X51450000Y-48550000I150000J0D01*
G01*
X45450000Y-29050000D02*
G75*
G02*
X45150000Y-29050000I-150000J0D01*
G01*
X45150000Y-29050000D02*
G75*
G02*
X45450000Y-29050000I150000J0D01*
G01*
X84450000Y-57550000D02*
G75*
G02*
X84150000Y-57550000I-150000J0D01*
G01*
X84150000Y-57550000D02*
G75*
G02*
X84450000Y-57550000I150000J0D01*
G01*
X29025000Y-23050000D02*
G75*
G02*
X28575000Y-23050000I-225000J0D01*
G01*
X28575000Y-23050000D02*
G75*
G02*
X29025000Y-23050000I225000J0D01*
G01*
X36450000Y-57550000D02*
G75*
G02*
X36150000Y-57550000I-150000J0D01*
G01*
X36150000Y-57550000D02*
G75*
G02*
X36450000Y-57550000I150000J0D01*
G01*
X76950000Y-30550000D02*
G75*
G02*
X76650000Y-30550000I-150000J0D01*
G01*
X76650000Y-30550000D02*
G75*
G02*
X76950000Y-30550000I150000J0D01*
G01*
X64950000Y-32050000D02*
G75*
G02*
X64650000Y-32050000I-150000J0D01*
G01*
X64650000Y-32050000D02*
G75*
G02*
X64950000Y-32050000I150000J0D01*
G01*
X52950000Y-23050000D02*
G75*
G02*
X52650000Y-23050000I-150000J0D01*
G01*
X52650000Y-23050000D02*
G75*
G02*
X52950000Y-23050000I150000J0D01*
G01*
X69450000Y-33550000D02*
G75*
G02*
X69150000Y-33550000I-150000J0D01*
G01*
X69150000Y-33550000D02*
G75*
G02*
X69450000Y-33550000I150000J0D01*
G01*
X42450000Y-53050000D02*
G75*
G02*
X42150000Y-53050000I-150000J0D01*
G01*
X42150000Y-53050000D02*
G75*
G02*
X42450000Y-53050000I150000J0D01*
G01*
X78450000Y-42550000D02*
G75*
G02*
X78150000Y-42550000I-150000J0D01*
G01*
X78150000Y-42550000D02*
G75*
G02*
X78450000Y-42550000I150000J0D01*
G01*
X34950000Y-36550000D02*
G75*
G02*
X34650000Y-36550000I-150000J0D01*
G01*
X34650000Y-36550000D02*
G75*
G02*
X34950000Y-36550000I150000J0D01*
G01*
X54450000Y-50050000D02*
G75*
G02*
X54150000Y-50050000I-150000J0D01*
G01*
X54150000Y-50050000D02*
G75*
G02*
X54450000Y-50050000I150000J0D01*
G01*
X39450000Y-38050000D02*
G75*
G02*
X39150000Y-38050000I-150000J0D01*
G01*
X39150000Y-38050000D02*
G75*
G02*
X39450000Y-38050000I150000J0D01*
G01*
X45450000Y-27550000D02*
G75*
G02*
X45150000Y-27550000I-150000J0D01*
G01*
X45150000Y-27550000D02*
G75*
G02*
X45450000Y-27550000I150000J0D01*
G01*
X33450000Y-36550000D02*
G75*
G02*
X33150000Y-36550000I-150000J0D01*
G01*
X33150000Y-36550000D02*
G75*
G02*
X33450000Y-36550000I150000J0D01*
G01*
X49950000Y-48550000D02*
G75*
G02*
X49650000Y-48550000I-150000J0D01*
G01*
X49650000Y-48550000D02*
G75*
G02*
X49950000Y-48550000I150000J0D01*
G01*
X54450000Y-24550000D02*
G75*
G02*
X54150000Y-24550000I-150000J0D01*
G01*
X54150000Y-24550000D02*
G75*
G02*
X54450000Y-24550000I150000J0D01*
G01*
X34950000Y-21550000D02*
G75*
G02*
X34650000Y-21550000I-150000J0D01*
G01*
X34650000Y-21550000D02*
G75*
G02*
X34950000Y-21550000I150000J0D01*
G01*
X79950000Y-41050000D02*
G75*
G02*
X79650000Y-41050000I-150000J0D01*
G01*
X79650000Y-41050000D02*
G75*
G02*
X79950000Y-41050000I150000J0D01*
G01*
X69450000Y-29050000D02*
G75*
G02*
X69150000Y-29050000I-150000J0D01*
G01*
X69150000Y-29050000D02*
G75*
G02*
X69450000Y-29050000I150000J0D01*
G01*
X84450000Y-27550000D02*
G75*
G02*
X84150000Y-27550000I-150000J0D01*
G01*
X84150000Y-27550000D02*
G75*
G02*
X84450000Y-27550000I150000J0D01*
G01*
X73950000Y-35050000D02*
G75*
G02*
X73650000Y-35050000I-150000J0D01*
G01*
X73650000Y-35050000D02*
G75*
G02*
X73950000Y-35050000I150000J0D01*
G01*
X67950000Y-24550000D02*
G75*
G02*
X67650000Y-24550000I-150000J0D01*
G01*
X67650000Y-24550000D02*
G75*
G02*
X67950000Y-24550000I150000J0D01*
G01*
X48450000Y-21550000D02*
G75*
G02*
X48150000Y-21550000I-150000J0D01*
G01*
X48150000Y-21550000D02*
G75*
G02*
X48450000Y-21550000I150000J0D01*
G01*
X28950000Y-44050000D02*
G75*
G02*
X28650000Y-44050000I-150000J0D01*
G01*
X28650000Y-44050000D02*
G75*
G02*
X28950000Y-44050000I150000J0D01*
G01*
X24450000Y-27550000D02*
G75*
G02*
X24150000Y-27550000I-150000J0D01*
G01*
X24150000Y-27550000D02*
G75*
G02*
X24450000Y-27550000I150000J0D01*
G01*
X85950000Y-56050000D02*
G75*
G02*
X85650000Y-56050000I-150000J0D01*
G01*
X85650000Y-56050000D02*
G75*
G02*
X85950000Y-56050000I150000J0D01*
G01*
X70950000Y-20050000D02*
G75*
G02*
X70650000Y-20050000I-150000J0D01*
G01*
X70650000Y-20050000D02*
G75*
G02*
X70950000Y-20050000I150000J0D01*
G01*
X67950000Y-36550000D02*
G75*
G02*
X67650000Y-36550000I-150000J0D01*
G01*
X67650000Y-36550000D02*
G75*
G02*
X67950000Y-36550000I150000J0D01*
G01*
X61950000Y-45550000D02*
G75*
G02*
X61650000Y-45550000I-150000J0D01*
G01*
X61650000Y-45550000D02*
G75*
G02*
X61950000Y-45550000I150000J0D01*
G01*
X61950000Y-24550000D02*
G75*
G02*
X61650000Y-24550000I-150000J0D01*
G01*
X61650000Y-24550000D02*
G75*
G02*
X61950000Y-24550000I150000J0D01*
G01*
X67950000Y-29050000D02*
G75*
G02*
X67650000Y-29050000I-150000J0D01*
G01*
X67650000Y-29050000D02*
G75*
G02*
X67950000Y-29050000I150000J0D01*
G01*
X61950000Y-44050000D02*
G75*
G02*
X61650000Y-44050000I-150000J0D01*
G01*
X61650000Y-44050000D02*
G75*
G02*
X61950000Y-44050000I150000J0D01*
G01*
X55950000Y-44050000D02*
G75*
G02*
X55650000Y-44050000I-150000J0D01*
G01*
X55650000Y-44050000D02*
G75*
G02*
X55950000Y-44050000I150000J0D01*
G01*
X25950000Y-32050000D02*
G75*
G02*
X25650000Y-32050000I-150000J0D01*
G01*
X25650000Y-32050000D02*
G75*
G02*
X25950000Y-32050000I150000J0D01*
G01*
X82950000Y-24550000D02*
G75*
G02*
X82650000Y-24550000I-150000J0D01*
G01*
X82650000Y-24550000D02*
G75*
G02*
X82950000Y-24550000I150000J0D01*
G01*
X57450000Y-18550000D02*
G75*
G02*
X57150000Y-18550000I-150000J0D01*
G01*
X57150000Y-18550000D02*
G75*
G02*
X57450000Y-18550000I150000J0D01*
G01*
X25950000Y-29050000D02*
G75*
G02*
X25650000Y-29050000I-150000J0D01*
G01*
X25650000Y-29050000D02*
G75*
G02*
X25950000Y-29050000I150000J0D01*
G01*
X57450000Y-27550000D02*
G75*
G02*
X57150000Y-27550000I-150000J0D01*
G01*
X57150000Y-27550000D02*
G75*
G02*
X57450000Y-27550000I150000J0D01*
G01*
X81450000Y-42550000D02*
G75*
G02*
X81150000Y-42550000I-150000J0D01*
G01*
X81150000Y-42550000D02*
G75*
G02*
X81450000Y-42550000I150000J0D01*
G01*
X45450000Y-36550000D02*
G75*
G02*
X45150000Y-36550000I-150000J0D01*
G01*
X45150000Y-36550000D02*
G75*
G02*
X45450000Y-36550000I150000J0D01*
G01*
X34950000Y-45550000D02*
G75*
G02*
X34650000Y-45550000I-150000J0D01*
G01*
X34650000Y-45550000D02*
G75*
G02*
X34950000Y-45550000I150000J0D01*
G01*
X58950000Y-33550000D02*
G75*
G02*
X58650000Y-33550000I-150000J0D01*
G01*
X58650000Y-33550000D02*
G75*
G02*
X58950000Y-33550000I150000J0D01*
G01*
X28950000Y-20050000D02*
G75*
G02*
X28650000Y-20050000I-150000J0D01*
G01*
X28650000Y-20050000D02*
G75*
G02*
X28950000Y-20050000I150000J0D01*
G01*
X51450000Y-56050000D02*
G75*
G02*
X51150000Y-56050000I-150000J0D01*
G01*
X51150000Y-56050000D02*
G75*
G02*
X51450000Y-56050000I150000J0D01*
G01*
X69450000Y-36550000D02*
G75*
G02*
X69150000Y-36550000I-150000J0D01*
G01*
X69150000Y-36550000D02*
G75*
G02*
X69450000Y-36550000I150000J0D01*
G01*
X24450000Y-18550000D02*
G75*
G02*
X24150000Y-18550000I-150000J0D01*
G01*
X24150000Y-18550000D02*
G75*
G02*
X24450000Y-18550000I150000J0D01*
G01*
X66450000Y-33550000D02*
G75*
G02*
X66150000Y-33550000I-150000J0D01*
G01*
X66150000Y-33550000D02*
G75*
G02*
X66450000Y-33550000I150000J0D01*
G01*
X37950000Y-36550000D02*
G75*
G02*
X37650000Y-36550000I-150000J0D01*
G01*
X37650000Y-36550000D02*
G75*
G02*
X37950000Y-36550000I150000J0D01*
G01*
X42450000Y-56050000D02*
G75*
G02*
X42150000Y-56050000I-150000J0D01*
G01*
X42150000Y-56050000D02*
G75*
G02*
X42450000Y-56050000I150000J0D01*
G01*
X55950000Y-35050000D02*
G75*
G02*
X55650000Y-35050000I-150000J0D01*
G01*
X55650000Y-35050000D02*
G75*
G02*
X55950000Y-35050000I150000J0D01*
G01*
X57450000Y-47050000D02*
G75*
G02*
X57150000Y-47050000I-150000J0D01*
G01*
X57150000Y-47050000D02*
G75*
G02*
X57450000Y-47050000I150000J0D01*
G01*
X55950000Y-42550000D02*
G75*
G02*
X55650000Y-42550000I-150000J0D01*
G01*
X55650000Y-42550000D02*
G75*
G02*
X55950000Y-42550000I150000J0D01*
G01*
X46950000Y-51550000D02*
G75*
G02*
X46650000Y-51550000I-150000J0D01*
G01*
X46650000Y-51550000D02*
G75*
G02*
X46950000Y-51550000I150000J0D01*
G01*
X85950000Y-38050000D02*
G75*
G02*
X85650000Y-38050000I-150000J0D01*
G01*
X85650000Y-38050000D02*
G75*
G02*
X85950000Y-38050000I150000J0D01*
G01*
X46950000Y-39550000D02*
G75*
G02*
X46650000Y-39550000I-150000J0D01*
G01*
X46650000Y-39550000D02*
G75*
G02*
X46950000Y-39550000I150000J0D01*
G01*
X52950000Y-53050000D02*
G75*
G02*
X52650000Y-53050000I-150000J0D01*
G01*
X52650000Y-53050000D02*
G75*
G02*
X52950000Y-53050000I150000J0D01*
G01*
X39450000Y-42550000D02*
G75*
G02*
X39150000Y-42550000I-150000J0D01*
G01*
X39150000Y-42550000D02*
G75*
G02*
X39450000Y-42550000I150000J0D01*
G01*
X69450000Y-57550000D02*
G75*
G02*
X69150000Y-57550000I-150000J0D01*
G01*
X69150000Y-57550000D02*
G75*
G02*
X69450000Y-57550000I150000J0D01*
G01*
X25950000Y-21550000D02*
G75*
G02*
X25650000Y-21550000I-150000J0D01*
G01*
X25650000Y-21550000D02*
G75*
G02*
X25950000Y-21550000I150000J0D01*
G01*
X79950000Y-33550000D02*
G75*
G02*
X79650000Y-33550000I-150000J0D01*
G01*
X79650000Y-33550000D02*
G75*
G02*
X79950000Y-33550000I150000J0D01*
G01*
X39450000Y-20050000D02*
G75*
G02*
X39150000Y-20050000I-150000J0D01*
G01*
X39150000Y-20050000D02*
G75*
G02*
X39450000Y-20050000I150000J0D01*
G01*
X40950000Y-56050000D02*
G75*
G02*
X40650000Y-56050000I-150000J0D01*
G01*
X40650000Y-56050000D02*
G75*
G02*
X40950000Y-56050000I150000J0D01*
G01*
X51450000Y-30550000D02*
G75*
G02*
X51150000Y-30550000I-150000J0D01*
G01*
X51150000Y-30550000D02*
G75*
G02*
X51450000Y-30550000I150000J0D01*
G01*
X33450000Y-47050000D02*
G75*
G02*
X33150000Y-47050000I-150000J0D01*
G01*
X33150000Y-47050000D02*
G75*
G02*
X33450000Y-47050000I150000J0D01*
G01*
X73950000Y-27550000D02*
G75*
G02*
X73650000Y-27550000I-150000J0D01*
G01*
X73650000Y-27550000D02*
G75*
G02*
X73950000Y-27550000I150000J0D01*
G01*
X64950000Y-24550000D02*
G75*
G02*
X64650000Y-24550000I-150000J0D01*
G01*
X64650000Y-24550000D02*
G75*
G02*
X64950000Y-24550000I150000J0D01*
G01*
X63450000Y-30550000D02*
G75*
G02*
X63150000Y-30550000I-150000J0D01*
G01*
X63150000Y-30550000D02*
G75*
G02*
X63450000Y-30550000I150000J0D01*
G01*
X48450000Y-54550000D02*
G75*
G02*
X48150000Y-54550000I-150000J0D01*
G01*
X48150000Y-54550000D02*
G75*
G02*
X48450000Y-54550000I150000J0D01*
G01*
X39450000Y-23050000D02*
G75*
G02*
X39150000Y-23050000I-150000J0D01*
G01*
X39150000Y-23050000D02*
G75*
G02*
X39450000Y-23050000I150000J0D01*
G01*
X34950000Y-51550000D02*
G75*
G02*
X34650000Y-51550000I-150000J0D01*
G01*
X34650000Y-51550000D02*
G75*
G02*
X34950000Y-51550000I150000J0D01*
G01*
X54450000Y-39550000D02*
G75*
G02*
X54150000Y-39550000I-150000J0D01*
G01*
X54150000Y-39550000D02*
G75*
G02*
X54450000Y-39550000I150000J0D01*
G01*
X58950000Y-23050000D02*
G75*
G02*
X58650000Y-23050000I-150000J0D01*
G01*
X58650000Y-23050000D02*
G75*
G02*
X58950000Y-23050000I150000J0D01*
G01*
X73950000Y-26050000D02*
G75*
G02*
X73650000Y-26050000I-150000J0D01*
G01*
X73650000Y-26050000D02*
G75*
G02*
X73950000Y-26050000I150000J0D01*
G01*
X70950000Y-35050000D02*
G75*
G02*
X70650000Y-35050000I-150000J0D01*
G01*
X70650000Y-35050000D02*
G75*
G02*
X70950000Y-35050000I150000J0D01*
G01*
X75450000Y-36550000D02*
G75*
G02*
X75150000Y-36550000I-150000J0D01*
G01*
X75150000Y-36550000D02*
G75*
G02*
X75450000Y-36550000I150000J0D01*
G01*
X66450000Y-36550000D02*
G75*
G02*
X66150000Y-36550000I-150000J0D01*
G01*
X66150000Y-36550000D02*
G75*
G02*
X66450000Y-36550000I150000J0D01*
G01*
X25950000Y-30550000D02*
G75*
G02*
X25650000Y-30550000I-150000J0D01*
G01*
X25650000Y-30550000D02*
G75*
G02*
X25950000Y-30550000I150000J0D01*
G01*
X73950000Y-42550000D02*
G75*
G02*
X73650000Y-42550000I-150000J0D01*
G01*
X73650000Y-42550000D02*
G75*
G02*
X73950000Y-42550000I150000J0D01*
G01*
X61950000Y-26050000D02*
G75*
G02*
X61650000Y-26050000I-150000J0D01*
G01*
X61650000Y-26050000D02*
G75*
G02*
X61950000Y-26050000I150000J0D01*
G01*
X48450000Y-27550000D02*
G75*
G02*
X48150000Y-27550000I-150000J0D01*
G01*
X48150000Y-27550000D02*
G75*
G02*
X48450000Y-27550000I150000J0D01*
G01*
X54450000Y-18550000D02*
G75*
G02*
X54150000Y-18550000I-150000J0D01*
G01*
X54150000Y-18550000D02*
G75*
G02*
X54450000Y-18550000I150000J0D01*
G01*
X28950000Y-56050000D02*
G75*
G02*
X28650000Y-56050000I-150000J0D01*
G01*
X28650000Y-56050000D02*
G75*
G02*
X28950000Y-56050000I150000J0D01*
G01*
X58950000Y-24550000D02*
G75*
G02*
X58650000Y-24550000I-150000J0D01*
G01*
X58650000Y-24550000D02*
G75*
G02*
X58950000Y-24550000I150000J0D01*
G01*
X76950000Y-18550000D02*
G75*
G02*
X76650000Y-18550000I-150000J0D01*
G01*
X76650000Y-18550000D02*
G75*
G02*
X76950000Y-18550000I150000J0D01*
G01*
X37950000Y-39550000D02*
G75*
G02*
X37650000Y-39550000I-150000J0D01*
G01*
X37650000Y-39550000D02*
G75*
G02*
X37950000Y-39550000I150000J0D01*
G01*
X28950000Y-42550000D02*
G75*
G02*
X28650000Y-42550000I-150000J0D01*
G01*
X28650000Y-42550000D02*
G75*
G02*
X28950000Y-42550000I150000J0D01*
G01*
X55950000Y-29050000D02*
G75*
G02*
X55650000Y-29050000I-150000J0D01*
G01*
X55650000Y-29050000D02*
G75*
G02*
X55950000Y-29050000I150000J0D01*
G01*
X58950000Y-48550000D02*
G75*
G02*
X58650000Y-48550000I-150000J0D01*
G01*
X58650000Y-48550000D02*
G75*
G02*
X58950000Y-48550000I150000J0D01*
G01*
X33450000Y-27550000D02*
G75*
G02*
X33150000Y-27550000I-150000J0D01*
G01*
X33150000Y-27550000D02*
G75*
G02*
X33450000Y-27550000I150000J0D01*
G01*
X30450000Y-29050000D02*
G75*
G02*
X30150000Y-29050000I-150000J0D01*
G01*
X30150000Y-29050000D02*
G75*
G02*
X30450000Y-29050000I150000J0D01*
G01*
X30450000Y-20050000D02*
G75*
G02*
X30150000Y-20050000I-150000J0D01*
G01*
X30150000Y-20050000D02*
G75*
G02*
X30450000Y-20050000I150000J0D01*
G01*
X37950000Y-57550000D02*
G75*
G02*
X37650000Y-57550000I-150000J0D01*
G01*
X37650000Y-57550000D02*
G75*
G02*
X37950000Y-57550000I150000J0D01*
G01*
X24450000Y-54550000D02*
G75*
G02*
X24150000Y-54550000I-150000J0D01*
G01*
X24150000Y-54550000D02*
G75*
G02*
X24450000Y-54550000I150000J0D01*
G01*
X79950000Y-54550000D02*
G75*
G02*
X79650000Y-54550000I-150000J0D01*
G01*
X79650000Y-54550000D02*
G75*
G02*
X79950000Y-54550000I150000J0D01*
G01*
X28950000Y-27550000D02*
G75*
G02*
X28650000Y-27550000I-150000J0D01*
G01*
X28650000Y-27550000D02*
G75*
G02*
X28950000Y-27550000I150000J0D01*
G01*
X84450000Y-33550000D02*
G75*
G02*
X84150000Y-33550000I-150000J0D01*
G01*
X84150000Y-33550000D02*
G75*
G02*
X84450000Y-33550000I150000J0D01*
G01*
X63450000Y-26050000D02*
G75*
G02*
X63150000Y-26050000I-150000J0D01*
G01*
X63150000Y-26050000D02*
G75*
G02*
X63450000Y-26050000I150000J0D01*
G01*
X34950000Y-30550000D02*
G75*
G02*
X34650000Y-30550000I-150000J0D01*
G01*
X34650000Y-30550000D02*
G75*
G02*
X34950000Y-30550000I150000J0D01*
G01*
X27450000Y-53050000D02*
G75*
G02*
X27150000Y-53050000I-150000J0D01*
G01*
X27150000Y-53050000D02*
G75*
G02*
X27450000Y-53050000I150000J0D01*
G01*
X27450000Y-42550000D02*
G75*
G02*
X27150000Y-42550000I-150000J0D01*
G01*
X27150000Y-42550000D02*
G75*
G02*
X27450000Y-42550000I150000J0D01*
G01*
X70950000Y-27550000D02*
G75*
G02*
X70650000Y-27550000I-150000J0D01*
G01*
X70650000Y-27550000D02*
G75*
G02*
X70950000Y-27550000I150000J0D01*
G01*
X51450000Y-39550000D02*
G75*
G02*
X51150000Y-39550000I-150000J0D01*
G01*
X51150000Y-39550000D02*
G75*
G02*
X51450000Y-39550000I150000J0D01*
G01*
X64950000Y-33550000D02*
G75*
G02*
X64650000Y-33550000I-150000J0D01*
G01*
X64650000Y-33550000D02*
G75*
G02*
X64950000Y-33550000I150000J0D01*
G01*
X82950000Y-38050000D02*
G75*
G02*
X82650000Y-38050000I-150000J0D01*
G01*
X82650000Y-38050000D02*
G75*
G02*
X82950000Y-38050000I150000J0D01*
G01*
X27450000Y-48550000D02*
G75*
G02*
X27150000Y-48550000I-150000J0D01*
G01*
X27150000Y-48550000D02*
G75*
G02*
X27450000Y-48550000I150000J0D01*
G01*
X70950000Y-51550000D02*
G75*
G02*
X70650000Y-51550000I-150000J0D01*
G01*
X70650000Y-51550000D02*
G75*
G02*
X70950000Y-51550000I150000J0D01*
G01*
X39450000Y-36550000D02*
G75*
G02*
X39150000Y-36550000I-150000J0D01*
G01*
X39150000Y-36550000D02*
G75*
G02*
X39450000Y-36550000I150000J0D01*
G01*
X33450000Y-44050000D02*
G75*
G02*
X33150000Y-44050000I-150000J0D01*
G01*
X33150000Y-44050000D02*
G75*
G02*
X33450000Y-44050000I150000J0D01*
G01*
X36450000Y-45550000D02*
G75*
G02*
X36150000Y-45550000I-150000J0D01*
G01*
X36150000Y-45550000D02*
G75*
G02*
X36450000Y-45550000I150000J0D01*
G01*
X63450000Y-21550000D02*
G75*
G02*
X63150000Y-21550000I-150000J0D01*
G01*
X63150000Y-21550000D02*
G75*
G02*
X63450000Y-21550000I150000J0D01*
G01*
X37950000Y-23050000D02*
G75*
G02*
X37650000Y-23050000I-150000J0D01*
G01*
X37650000Y-23050000D02*
G75*
G02*
X37950000Y-23050000I150000J0D01*
G01*
X64950000Y-56050000D02*
G75*
G02*
X64650000Y-56050000I-150000J0D01*
G01*
X64650000Y-56050000D02*
G75*
G02*
X64950000Y-56050000I150000J0D01*
G01*
X54450000Y-47050000D02*
G75*
G02*
X54150000Y-47050000I-150000J0D01*
G01*
X54150000Y-47050000D02*
G75*
G02*
X54450000Y-47050000I150000J0D01*
G01*
X79950000Y-56050000D02*
G75*
G02*
X79650000Y-56050000I-150000J0D01*
G01*
X79650000Y-56050000D02*
G75*
G02*
X79950000Y-56050000I150000J0D01*
G01*
X49950000Y-39550000D02*
G75*
G02*
X49650000Y-39550000I-150000J0D01*
G01*
X49650000Y-39550000D02*
G75*
G02*
X49950000Y-39550000I150000J0D01*
G01*
X81450000Y-36550000D02*
G75*
G02*
X81150000Y-36550000I-150000J0D01*
G01*
X81150000Y-36550000D02*
G75*
G02*
X81450000Y-36550000I150000J0D01*
G01*
X61950000Y-33550000D02*
G75*
G02*
X61650000Y-33550000I-150000J0D01*
G01*
X61650000Y-33550000D02*
G75*
G02*
X61950000Y-33550000I150000J0D01*
G01*
X40950000Y-50050000D02*
G75*
G02*
X40650000Y-50050000I-150000J0D01*
G01*
X40650000Y-50050000D02*
G75*
G02*
X40950000Y-50050000I150000J0D01*
G01*
X48450000Y-29050000D02*
G75*
G02*
X48150000Y-29050000I-150000J0D01*
G01*
X48150000Y-29050000D02*
G75*
G02*
X48450000Y-29050000I150000J0D01*
G01*
X43950000Y-51550000D02*
G75*
G02*
X43650000Y-51550000I-150000J0D01*
G01*
X43650000Y-51550000D02*
G75*
G02*
X43950000Y-51550000I150000J0D01*
G01*
X51450000Y-53050000D02*
G75*
G02*
X51150000Y-53050000I-150000J0D01*
G01*
X51150000Y-53050000D02*
G75*
G02*
X51450000Y-53050000I150000J0D01*
G01*
X85950000Y-39550000D02*
G75*
G02*
X85650000Y-39550000I-150000J0D01*
G01*
X85650000Y-39550000D02*
G75*
G02*
X85950000Y-39550000I150000J0D01*
G01*
X51450000Y-35050000D02*
G75*
G02*
X51150000Y-35050000I-150000J0D01*
G01*
X51150000Y-35050000D02*
G75*
G02*
X51450000Y-35050000I150000J0D01*
G01*
X84450000Y-54550000D02*
G75*
G02*
X84150000Y-54550000I-150000J0D01*
G01*
X84150000Y-54550000D02*
G75*
G02*
X84450000Y-54550000I150000J0D01*
G01*
X54450000Y-29050000D02*
G75*
G02*
X54150000Y-29050000I-150000J0D01*
G01*
X54150000Y-29050000D02*
G75*
G02*
X54450000Y-29050000I150000J0D01*
G01*
X70950000Y-24550000D02*
G75*
G02*
X70650000Y-24550000I-150000J0D01*
G01*
X70650000Y-24550000D02*
G75*
G02*
X70950000Y-24550000I150000J0D01*
G01*
X79950000Y-53050000D02*
G75*
G02*
X79650000Y-53050000I-150000J0D01*
G01*
X79650000Y-53050000D02*
G75*
G02*
X79950000Y-53050000I150000J0D01*
G01*
X54450000Y-38050000D02*
G75*
G02*
X54150000Y-38050000I-150000J0D01*
G01*
X54150000Y-38050000D02*
G75*
G02*
X54450000Y-38050000I150000J0D01*
G01*
X28950000Y-45550000D02*
G75*
G02*
X28650000Y-45550000I-150000J0D01*
G01*
X28650000Y-45550000D02*
G75*
G02*
X28950000Y-45550000I150000J0D01*
G01*
X76950000Y-45550000D02*
G75*
G02*
X76650000Y-45550000I-150000J0D01*
G01*
X76650000Y-45550000D02*
G75*
G02*
X76950000Y-45550000I150000J0D01*
G01*
X42450000Y-33550000D02*
G75*
G02*
X42150000Y-33550000I-150000J0D01*
G01*
X42150000Y-33550000D02*
G75*
G02*
X42450000Y-33550000I150000J0D01*
G01*
X31950000Y-18550000D02*
G75*
G02*
X31650000Y-18550000I-150000J0D01*
G01*
X31650000Y-18550000D02*
G75*
G02*
X31950000Y-18550000I150000J0D01*
G01*
X76950000Y-26050000D02*
G75*
G02*
X76650000Y-26050000I-150000J0D01*
G01*
X76650000Y-26050000D02*
G75*
G02*
X76950000Y-26050000I150000J0D01*
G01*
X79950000Y-21550000D02*
G75*
G02*
X79650000Y-21550000I-150000J0D01*
G01*
X79650000Y-21550000D02*
G75*
G02*
X79950000Y-21550000I150000J0D01*
G01*
X46950000Y-36550000D02*
G75*
G02*
X46650000Y-36550000I-150000J0D01*
G01*
X46650000Y-36550000D02*
G75*
G02*
X46950000Y-36550000I150000J0D01*
G01*
X54450000Y-51550000D02*
G75*
G02*
X54150000Y-51550000I-150000J0D01*
G01*
X54150000Y-51550000D02*
G75*
G02*
X54450000Y-51550000I150000J0D01*
G01*
X45450000Y-57550000D02*
G75*
G02*
X45150000Y-57550000I-150000J0D01*
G01*
X45150000Y-57550000D02*
G75*
G02*
X45450000Y-57550000I150000J0D01*
G01*
X24450000Y-39550000D02*
G75*
G02*
X24150000Y-39550000I-150000J0D01*
G01*
X24150000Y-39550000D02*
G75*
G02*
X24450000Y-39550000I150000J0D01*
G01*
X57450000Y-36550000D02*
G75*
G02*
X57150000Y-36550000I-150000J0D01*
G01*
X57150000Y-36550000D02*
G75*
G02*
X57450000Y-36550000I150000J0D01*
G01*
X45450000Y-24550000D02*
G75*
G02*
X45150000Y-24550000I-150000J0D01*
G01*
X45150000Y-24550000D02*
G75*
G02*
X45450000Y-24550000I150000J0D01*
G01*
X82950000Y-54550000D02*
G75*
G02*
X82650000Y-54550000I-150000J0D01*
G01*
X82650000Y-54550000D02*
G75*
G02*
X82950000Y-54550000I150000J0D01*
G01*
X81450000Y-39550000D02*
G75*
G02*
X81150000Y-39550000I-150000J0D01*
G01*
X81150000Y-39550000D02*
G75*
G02*
X81450000Y-39550000I150000J0D01*
G01*
X34950000Y-39550000D02*
G75*
G02*
X34650000Y-39550000I-150000J0D01*
G01*
X34650000Y-39550000D02*
G75*
G02*
X34950000Y-39550000I150000J0D01*
G01*
X34950000Y-29050000D02*
G75*
G02*
X34650000Y-29050000I-150000J0D01*
G01*
X34650000Y-29050000D02*
G75*
G02*
X34950000Y-29050000I150000J0D01*
G01*
X36450000Y-39550000D02*
G75*
G02*
X36150000Y-39550000I-150000J0D01*
G01*
X36150000Y-39550000D02*
G75*
G02*
X36450000Y-39550000I150000J0D01*
G01*
X37950000Y-29050000D02*
G75*
G02*
X37650000Y-29050000I-150000J0D01*
G01*
X37650000Y-29050000D02*
G75*
G02*
X37950000Y-29050000I150000J0D01*
G01*
X79950000Y-20050000D02*
G75*
G02*
X79650000Y-20050000I-150000J0D01*
G01*
X79650000Y-20050000D02*
G75*
G02*
X79950000Y-20050000I150000J0D01*
G01*
X75450000Y-44050000D02*
G75*
G02*
X75150000Y-44050000I-150000J0D01*
G01*
X75150000Y-44050000D02*
G75*
G02*
X75450000Y-44050000I150000J0D01*
G01*
X37950000Y-30550000D02*
G75*
G02*
X37650000Y-30550000I-150000J0D01*
G01*
X37650000Y-30550000D02*
G75*
G02*
X37950000Y-30550000I150000J0D01*
G01*
X34950000Y-48550000D02*
G75*
G02*
X34650000Y-48550000I-150000J0D01*
G01*
X34650000Y-48550000D02*
G75*
G02*
X34950000Y-48550000I150000J0D01*
G01*
X67950000Y-47050000D02*
G75*
G02*
X67650000Y-47050000I-150000J0D01*
G01*
X67650000Y-47050000D02*
G75*
G02*
X67950000Y-47050000I150000J0D01*
G01*
X55950000Y-24550000D02*
G75*
G02*
X55650000Y-24550000I-150000J0D01*
G01*
X55650000Y-24550000D02*
G75*
G02*
X55950000Y-24550000I150000J0D01*
G01*
X70950000Y-21550000D02*
G75*
G02*
X70650000Y-21550000I-150000J0D01*
G01*
X70650000Y-21550000D02*
G75*
G02*
X70950000Y-21550000I150000J0D01*
G01*
X30450000Y-51550000D02*
G75*
G02*
X30150000Y-51550000I-150000J0D01*
G01*
X30150000Y-51550000D02*
G75*
G02*
X30450000Y-51550000I150000J0D01*
G01*
X78450000Y-53050000D02*
G75*
G02*
X78150000Y-53050000I-150000J0D01*
G01*
X78150000Y-53050000D02*
G75*
G02*
X78450000Y-53050000I150000J0D01*
G01*
X52950000Y-50050000D02*
G75*
G02*
X52650000Y-50050000I-150000J0D01*
G01*
X52650000Y-50050000D02*
G75*
G02*
X52950000Y-50050000I150000J0D01*
G01*
X70950000Y-48550000D02*
G75*
G02*
X70650000Y-48550000I-150000J0D01*
G01*
X70650000Y-48550000D02*
G75*
G02*
X70950000Y-48550000I150000J0D01*
G01*
X42450000Y-38050000D02*
G75*
G02*
X42150000Y-38050000I-150000J0D01*
G01*
X42150000Y-38050000D02*
G75*
G02*
X42450000Y-38050000I150000J0D01*
G01*
X58950000Y-56050000D02*
G75*
G02*
X58650000Y-56050000I-150000J0D01*
G01*
X58650000Y-56050000D02*
G75*
G02*
X58950000Y-56050000I150000J0D01*
G01*
X79950000Y-18550000D02*
G75*
G02*
X79650000Y-18550000I-150000J0D01*
G01*
X79650000Y-18550000D02*
G75*
G02*
X79950000Y-18550000I150000J0D01*
G01*
X58950000Y-45550000D02*
G75*
G02*
X58650000Y-45550000I-150000J0D01*
G01*
X58650000Y-45550000D02*
G75*
G02*
X58950000Y-45550000I150000J0D01*
G01*
X66450000Y-53050000D02*
G75*
G02*
X66150000Y-53050000I-150000J0D01*
G01*
X66150000Y-53050000D02*
G75*
G02*
X66450000Y-53050000I150000J0D01*
G01*
X85950000Y-36550000D02*
G75*
G02*
X85650000Y-36550000I-150000J0D01*
G01*
X85650000Y-36550000D02*
G75*
G02*
X85950000Y-36550000I150000J0D01*
G01*
X61950000Y-51550000D02*
G75*
G02*
X61650000Y-51550000I-150000J0D01*
G01*
X61650000Y-51550000D02*
G75*
G02*
X61950000Y-51550000I150000J0D01*
G01*
X67950000Y-48550000D02*
G75*
G02*
X67650000Y-48550000I-150000J0D01*
G01*
X67650000Y-48550000D02*
G75*
G02*
X67950000Y-48550000I150000J0D01*
G01*
X57450000Y-54550000D02*
G75*
G02*
X57150000Y-54550000I-150000J0D01*
G01*
X57150000Y-54550000D02*
G75*
G02*
X57450000Y-54550000I150000J0D01*
G01*
X42450000Y-39550000D02*
G75*
G02*
X42150000Y-39550000I-150000J0D01*
G01*
X42150000Y-39550000D02*
G75*
G02*
X42450000Y-39550000I150000J0D01*
G01*
X27450000Y-20050000D02*
G75*
G02*
X27150000Y-20050000I-150000J0D01*
G01*
X27150000Y-20050000D02*
G75*
G02*
X27450000Y-20050000I150000J0D01*
G01*
X31950000Y-45550000D02*
G75*
G02*
X31650000Y-45550000I-150000J0D01*
G01*
X31650000Y-45550000D02*
G75*
G02*
X31950000Y-45550000I150000J0D01*
G01*
X84450000Y-29050000D02*
G75*
G02*
X84150000Y-29050000I-150000J0D01*
G01*
X84150000Y-29050000D02*
G75*
G02*
X84450000Y-29050000I150000J0D01*
G01*
X81450000Y-41050000D02*
G75*
G02*
X81150000Y-41050000I-150000J0D01*
G01*
X81150000Y-41050000D02*
G75*
G02*
X81450000Y-41050000I150000J0D01*
G01*
X70950000Y-36550000D02*
G75*
G02*
X70650000Y-36550000I-150000J0D01*
G01*
X70650000Y-36550000D02*
G75*
G02*
X70950000Y-36550000I150000J0D01*
G01*
X72450000Y-29050000D02*
G75*
G02*
X72150000Y-29050000I-150000J0D01*
G01*
X72150000Y-29050000D02*
G75*
G02*
X72450000Y-29050000I150000J0D01*
G01*
X30450000Y-50050000D02*
G75*
G02*
X30150000Y-50050000I-150000J0D01*
G01*
X30150000Y-50050000D02*
G75*
G02*
X30450000Y-50050000I150000J0D01*
G01*
X42450000Y-27550000D02*
G75*
G02*
X42150000Y-27550000I-150000J0D01*
G01*
X42150000Y-27550000D02*
G75*
G02*
X42450000Y-27550000I150000J0D01*
G01*
X69450000Y-24550000D02*
G75*
G02*
X69150000Y-24550000I-150000J0D01*
G01*
X69150000Y-24550000D02*
G75*
G02*
X69450000Y-24550000I150000J0D01*
G01*
X85950000Y-32050000D02*
G75*
G02*
X85650000Y-32050000I-150000J0D01*
G01*
X85650000Y-32050000D02*
G75*
G02*
X85950000Y-32050000I150000J0D01*
G01*
X57450000Y-29050000D02*
G75*
G02*
X57150000Y-29050000I-150000J0D01*
G01*
X57150000Y-29050000D02*
G75*
G02*
X57450000Y-29050000I150000J0D01*
G01*
X37950000Y-18550000D02*
G75*
G02*
X37650000Y-18550000I-150000J0D01*
G01*
X37650000Y-18550000D02*
G75*
G02*
X37950000Y-18550000I150000J0D01*
G01*
X30450000Y-41050000D02*
G75*
G02*
X30150000Y-41050000I-150000J0D01*
G01*
X30150000Y-41050000D02*
G75*
G02*
X30450000Y-41050000I150000J0D01*
G01*
X78450000Y-24550000D02*
G75*
G02*
X78150000Y-24550000I-150000J0D01*
G01*
X78150000Y-24550000D02*
G75*
G02*
X78450000Y-24550000I150000J0D01*
G01*
X34950000Y-32050000D02*
G75*
G02*
X34650000Y-32050000I-150000J0D01*
G01*
X34650000Y-32050000D02*
G75*
G02*
X34950000Y-32050000I150000J0D01*
G01*
X57450000Y-20050000D02*
G75*
G02*
X57150000Y-20050000I-150000J0D01*
G01*
X57150000Y-20050000D02*
G75*
G02*
X57450000Y-20050000I150000J0D01*
G01*
X70950000Y-23050000D02*
G75*
G02*
X70650000Y-23050000I-150000J0D01*
G01*
X70650000Y-23050000D02*
G75*
G02*
X70950000Y-23050000I150000J0D01*
G01*
X43950000Y-20050000D02*
G75*
G02*
X43650000Y-20050000I-150000J0D01*
G01*
X43650000Y-20050000D02*
G75*
G02*
X43950000Y-20050000I150000J0D01*
G01*
X85950000Y-29050000D02*
G75*
G02*
X85650000Y-29050000I-150000J0D01*
G01*
X85650000Y-29050000D02*
G75*
G02*
X85950000Y-29050000I150000J0D01*
G01*
X75450000Y-50050000D02*
G75*
G02*
X75150000Y-50050000I-150000J0D01*
G01*
X75150000Y-50050000D02*
G75*
G02*
X75450000Y-50050000I150000J0D01*
G01*
X30450000Y-42550000D02*
G75*
G02*
X30150000Y-42550000I-150000J0D01*
G01*
X30150000Y-42550000D02*
G75*
G02*
X30450000Y-42550000I150000J0D01*
G01*
X55950000Y-50050000D02*
G75*
G02*
X55650000Y-50050000I-150000J0D01*
G01*
X55650000Y-50050000D02*
G75*
G02*
X55950000Y-50050000I150000J0D01*
G01*
X45450000Y-23050000D02*
G75*
G02*
X45150000Y-23050000I-150000J0D01*
G01*
X45150000Y-23050000D02*
G75*
G02*
X45450000Y-23050000I150000J0D01*
G01*
X49950000Y-24550000D02*
G75*
G02*
X49650000Y-24550000I-150000J0D01*
G01*
X49650000Y-24550000D02*
G75*
G02*
X49950000Y-24550000I150000J0D01*
G01*
X24450000Y-44050000D02*
G75*
G02*
X24150000Y-44050000I-150000J0D01*
G01*
X24150000Y-44050000D02*
G75*
G02*
X24450000Y-44050000I150000J0D01*
G01*
X28950000Y-39550000D02*
G75*
G02*
X28650000Y-39550000I-150000J0D01*
G01*
X28650000Y-39550000D02*
G75*
G02*
X28950000Y-39550000I150000J0D01*
G01*
X51450000Y-41050000D02*
G75*
G02*
X51150000Y-41050000I-150000J0D01*
G01*
X51150000Y-41050000D02*
G75*
G02*
X51450000Y-41050000I150000J0D01*
G01*
X39450000Y-32050000D02*
G75*
G02*
X39150000Y-32050000I-150000J0D01*
G01*
X39150000Y-32050000D02*
G75*
G02*
X39450000Y-32050000I150000J0D01*
G01*
X43950000Y-44050000D02*
G75*
G02*
X43650000Y-44050000I-150000J0D01*
G01*
X43650000Y-44050000D02*
G75*
G02*
X43950000Y-44050000I150000J0D01*
G01*
X55950000Y-23050000D02*
G75*
G02*
X55650000Y-23050000I-150000J0D01*
G01*
X55650000Y-23050000D02*
G75*
G02*
X55950000Y-23050000I150000J0D01*
G01*
X52950000Y-20050000D02*
G75*
G02*
X52650000Y-20050000I-150000J0D01*
G01*
X52650000Y-20050000D02*
G75*
G02*
X52950000Y-20050000I150000J0D01*
G01*
X54450000Y-57550000D02*
G75*
G02*
X54150000Y-57550000I-150000J0D01*
G01*
X54150000Y-57550000D02*
G75*
G02*
X54450000Y-57550000I150000J0D01*
G01*
X27450000Y-23050000D02*
G75*
G02*
X27150000Y-23050000I-150000J0D01*
G01*
X27150000Y-23050000D02*
G75*
G02*
X27450000Y-23050000I150000J0D01*
G01*
X48450000Y-56050000D02*
G75*
G02*
X48150000Y-56050000I-150000J0D01*
G01*
X48150000Y-56050000D02*
G75*
G02*
X48450000Y-56050000I150000J0D01*
G01*
X42450000Y-20050000D02*
G75*
G02*
X42150000Y-20050000I-150000J0D01*
G01*
X42150000Y-20050000D02*
G75*
G02*
X42450000Y-20050000I150000J0D01*
G01*
X31950000Y-36550000D02*
G75*
G02*
X31650000Y-36550000I-150000J0D01*
G01*
X31650000Y-36550000D02*
G75*
G02*
X31950000Y-36550000I150000J0D01*
G01*
X84450000Y-47050000D02*
G75*
G02*
X84150000Y-47050000I-150000J0D01*
G01*
X84150000Y-47050000D02*
G75*
G02*
X84450000Y-47050000I150000J0D01*
G01*
X61950000Y-27550000D02*
G75*
G02*
X61650000Y-27550000I-150000J0D01*
G01*
X61650000Y-27550000D02*
G75*
G02*
X61950000Y-27550000I150000J0D01*
G01*
X25950000Y-48550000D02*
G75*
G02*
X25650000Y-48550000I-150000J0D01*
G01*
X25650000Y-48550000D02*
G75*
G02*
X25950000Y-48550000I150000J0D01*
G01*
X49950000Y-26050000D02*
G75*
G02*
X49650000Y-26050000I-150000J0D01*
G01*
X49650000Y-26050000D02*
G75*
G02*
X49950000Y-26050000I150000J0D01*
G01*
X31950000Y-38050000D02*
G75*
G02*
X31650000Y-38050000I-150000J0D01*
G01*
X31650000Y-38050000D02*
G75*
G02*
X31950000Y-38050000I150000J0D01*
G01*
X45450000Y-35050000D02*
G75*
G02*
X45150000Y-35050000I-150000J0D01*
G01*
X45150000Y-35050000D02*
G75*
G02*
X45450000Y-35050000I150000J0D01*
G01*
X81450000Y-54550000D02*
G75*
G02*
X81150000Y-54550000I-150000J0D01*
G01*
X81150000Y-54550000D02*
G75*
G02*
X81450000Y-54550000I150000J0D01*
G01*
X51450000Y-51550000D02*
G75*
G02*
X51150000Y-51550000I-150000J0D01*
G01*
X51150000Y-51550000D02*
G75*
G02*
X51450000Y-51550000I150000J0D01*
G01*
X39450000Y-33550000D02*
G75*
G02*
X39150000Y-33550000I-150000J0D01*
G01*
X39150000Y-33550000D02*
G75*
G02*
X39450000Y-33550000I150000J0D01*
G01*
X67950000Y-27550000D02*
G75*
G02*
X67650000Y-27550000I-150000J0D01*
G01*
X67650000Y-27550000D02*
G75*
G02*
X67950000Y-27550000I150000J0D01*
G01*
X61950000Y-36550000D02*
G75*
G02*
X61650000Y-36550000I-150000J0D01*
G01*
X61650000Y-36550000D02*
G75*
G02*
X61950000Y-36550000I150000J0D01*
G01*
X85950000Y-57550000D02*
G75*
G02*
X85650000Y-57550000I-150000J0D01*
G01*
X85650000Y-57550000D02*
G75*
G02*
X85950000Y-57550000I150000J0D01*
G01*
X57450000Y-33550000D02*
G75*
G02*
X57150000Y-33550000I-150000J0D01*
G01*
X57150000Y-33550000D02*
G75*
G02*
X57450000Y-33550000I150000J0D01*
G01*
X70950000Y-57550000D02*
G75*
G02*
X70650000Y-57550000I-150000J0D01*
G01*
X70650000Y-57550000D02*
G75*
G02*
X70950000Y-57550000I150000J0D01*
G01*
X67950000Y-53050000D02*
G75*
G02*
X67650000Y-53050000I-150000J0D01*
G01*
X67650000Y-53050000D02*
G75*
G02*
X67950000Y-53050000I150000J0D01*
G01*
X25950000Y-57550000D02*
G75*
G02*
X25650000Y-57550000I-150000J0D01*
G01*
X25650000Y-57550000D02*
G75*
G02*
X25950000Y-57550000I150000J0D01*
G01*
X49950000Y-18550000D02*
G75*
G02*
X49650000Y-18550000I-150000J0D01*
G01*
X49650000Y-18550000D02*
G75*
G02*
X49950000Y-18550000I150000J0D01*
G01*
X34950000Y-54550000D02*
G75*
G02*
X34650000Y-54550000I-150000J0D01*
G01*
X34650000Y-54550000D02*
G75*
G02*
X34950000Y-54550000I150000J0D01*
G01*
X67950000Y-41050000D02*
G75*
G02*
X67650000Y-41050000I-150000J0D01*
G01*
X67650000Y-41050000D02*
G75*
G02*
X67950000Y-41050000I150000J0D01*
G01*
X57450000Y-30550000D02*
G75*
G02*
X57150000Y-30550000I-150000J0D01*
G01*
X57150000Y-30550000D02*
G75*
G02*
X57450000Y-30550000I150000J0D01*
G01*
X75450000Y-21550000D02*
G75*
G02*
X75150000Y-21550000I-150000J0D01*
G01*
X75150000Y-21550000D02*
G75*
G02*
X75450000Y-21550000I150000J0D01*
G01*
X39450000Y-21550000D02*
G75*
G02*
X39150000Y-21550000I-150000J0D01*
G01*
X39150000Y-21550000D02*
G75*
G02*
X39450000Y-21550000I150000J0D01*
G01*
X43950000Y-32050000D02*
G75*
G02*
X43650000Y-32050000I-150000J0D01*
G01*
X43650000Y-32050000D02*
G75*
G02*
X43950000Y-32050000I150000J0D01*
G01*
X36450000Y-50050000D02*
G75*
G02*
X36150000Y-50050000I-150000J0D01*
G01*
X36150000Y-50050000D02*
G75*
G02*
X36450000Y-50050000I150000J0D01*
G01*
X52950000Y-42550000D02*
G75*
G02*
X52650000Y-42550000I-150000J0D01*
G01*
X52650000Y-42550000D02*
G75*
G02*
X52950000Y-42550000I150000J0D01*
G01*
X33450000Y-35050000D02*
G75*
G02*
X33150000Y-35050000I-150000J0D01*
G01*
X33150000Y-35050000D02*
G75*
G02*
X33450000Y-35050000I150000J0D01*
G01*
X73950000Y-32050000D02*
G75*
G02*
X73650000Y-32050000I-150000J0D01*
G01*
X73650000Y-32050000D02*
G75*
G02*
X73950000Y-32050000I150000J0D01*
G01*
X72450000Y-27550000D02*
G75*
G02*
X72150000Y-27550000I-150000J0D01*
G01*
X72150000Y-27550000D02*
G75*
G02*
X72450000Y-27550000I150000J0D01*
G01*
X61950000Y-47050000D02*
G75*
G02*
X61650000Y-47050000I-150000J0D01*
G01*
X61650000Y-47050000D02*
G75*
G02*
X61950000Y-47050000I150000J0D01*
G01*
X60450000Y-27550000D02*
G75*
G02*
X60150000Y-27550000I-150000J0D01*
G01*
X60150000Y-27550000D02*
G75*
G02*
X60450000Y-27550000I150000J0D01*
G01*
X25950000Y-56050000D02*
G75*
G02*
X25650000Y-56050000I-150000J0D01*
G01*
X25650000Y-56050000D02*
G75*
G02*
X25950000Y-56050000I150000J0D01*
G01*
X39450000Y-30550000D02*
G75*
G02*
X39150000Y-30550000I-150000J0D01*
G01*
X39150000Y-30550000D02*
G75*
G02*
X39450000Y-30550000I150000J0D01*
G01*
X54450000Y-44050000D02*
G75*
G02*
X54150000Y-44050000I-150000J0D01*
G01*
X54150000Y-44050000D02*
G75*
G02*
X54450000Y-44050000I150000J0D01*
G01*
X58950000Y-36550000D02*
G75*
G02*
X58650000Y-36550000I-150000J0D01*
G01*
X58650000Y-36550000D02*
G75*
G02*
X58950000Y-36550000I150000J0D01*
G01*
X79950000Y-50050000D02*
G75*
G02*
X79650000Y-50050000I-150000J0D01*
G01*
X79650000Y-50050000D02*
G75*
G02*
X79950000Y-50050000I150000J0D01*
G01*
X55950000Y-41050000D02*
G75*
G02*
X55650000Y-41050000I-150000J0D01*
G01*
X55650000Y-41050000D02*
G75*
G02*
X55950000Y-41050000I150000J0D01*
G01*
X45770000Y-37500000D02*
G75*
G02*
X45850000Y-37580000I0J-80000D01*
G01*
X75450000Y-33550000D02*
G75*
G02*
X75150000Y-33550000I-150000J0D01*
G01*
X75150000Y-33550000D02*
G75*
G02*
X75450000Y-33550000I150000J0D01*
G01*
X40950000Y-42550000D02*
G75*
G02*
X40650000Y-42550000I-150000J0D01*
G01*
X40650000Y-42550000D02*
G75*
G02*
X40950000Y-42550000I150000J0D01*
G01*
X28950000Y-57550000D02*
G75*
G02*
X28650000Y-57550000I-150000J0D01*
G01*
X28650000Y-57550000D02*
G75*
G02*
X28950000Y-57550000I150000J0D01*
G01*
X64950000Y-50050000D02*
G75*
G02*
X64650000Y-50050000I-150000J0D01*
G01*
X64650000Y-50050000D02*
G75*
G02*
X64950000Y-50050000I150000J0D01*
G01*
X40950000Y-44050000D02*
G75*
G02*
X40650000Y-44050000I-150000J0D01*
G01*
X40650000Y-44050000D02*
G75*
G02*
X40950000Y-44050000I150000J0D01*
G01*
X75450000Y-42550000D02*
G75*
G02*
X75150000Y-42550000I-150000J0D01*
G01*
X75150000Y-42550000D02*
G75*
G02*
X75450000Y-42550000I150000J0D01*
G01*
X43950000Y-26050000D02*
G75*
G02*
X43650000Y-26050000I-150000J0D01*
G01*
X43650000Y-26050000D02*
G75*
G02*
X43950000Y-26050000I150000J0D01*
G01*
X64950000Y-20050000D02*
G75*
G02*
X64650000Y-20050000I-150000J0D01*
G01*
X64650000Y-20050000D02*
G75*
G02*
X64950000Y-20050000I150000J0D01*
G01*
X42450000Y-18550000D02*
G75*
G02*
X42150000Y-18550000I-150000J0D01*
G01*
X42150000Y-18550000D02*
G75*
G02*
X42450000Y-18550000I150000J0D01*
G01*
X42450000Y-50050000D02*
G75*
G02*
X42150000Y-50050000I-150000J0D01*
G01*
X42150000Y-50050000D02*
G75*
G02*
X42450000Y-50050000I150000J0D01*
G01*
X78450000Y-21550000D02*
G75*
G02*
X78150000Y-21550000I-150000J0D01*
G01*
X78150000Y-21550000D02*
G75*
G02*
X78450000Y-21550000I150000J0D01*
G01*
X52950000Y-47050000D02*
G75*
G02*
X52650000Y-47050000I-150000J0D01*
G01*
X52650000Y-47050000D02*
G75*
G02*
X52950000Y-47050000I150000J0D01*
G01*
X85950000Y-44050000D02*
G75*
G02*
X85650000Y-44050000I-150000J0D01*
G01*
X85650000Y-44050000D02*
G75*
G02*
X85950000Y-44050000I150000J0D01*
G01*
X49950000Y-54550000D02*
G75*
G02*
X49650000Y-54550000I-150000J0D01*
G01*
X49650000Y-54550000D02*
G75*
G02*
X49950000Y-54550000I150000J0D01*
G01*
X39450000Y-26050000D02*
G75*
G02*
X39150000Y-26050000I-150000J0D01*
G01*
X39150000Y-26050000D02*
G75*
G02*
X39450000Y-26050000I150000J0D01*
G01*
X72450000Y-26050000D02*
G75*
G02*
X72150000Y-26050000I-150000J0D01*
G01*
X72150000Y-26050000D02*
G75*
G02*
X72450000Y-26050000I150000J0D01*
G01*
X78450000Y-41050000D02*
G75*
G02*
X78150000Y-41050000I-150000J0D01*
G01*
X78150000Y-41050000D02*
G75*
G02*
X78450000Y-41050000I150000J0D01*
G01*
X27450000Y-35050000D02*
G75*
G02*
X27150000Y-35050000I-150000J0D01*
G01*
X27150000Y-35050000D02*
G75*
G02*
X27450000Y-35050000I150000J0D01*
G01*
X69450000Y-26050000D02*
G75*
G02*
X69150000Y-26050000I-150000J0D01*
G01*
X69150000Y-26050000D02*
G75*
G02*
X69450000Y-26050000I150000J0D01*
G01*
X24450000Y-23050000D02*
G75*
G02*
X24150000Y-23050000I-150000J0D01*
G01*
X24150000Y-23050000D02*
G75*
G02*
X24450000Y-23050000I150000J0D01*
G01*
X57450000Y-24550000D02*
G75*
G02*
X57150000Y-24550000I-150000J0D01*
G01*
X57150000Y-24550000D02*
G75*
G02*
X57450000Y-24550000I150000J0D01*
G01*
X40950000Y-20050000D02*
G75*
G02*
X40650000Y-20050000I-150000J0D01*
G01*
X40650000Y-20050000D02*
G75*
G02*
X40950000Y-20050000I150000J0D01*
G01*
X66450000Y-24550000D02*
G75*
G02*
X66150000Y-24550000I-150000J0D01*
G01*
X66150000Y-24550000D02*
G75*
G02*
X66450000Y-24550000I150000J0D01*
G01*
X33450000Y-57550000D02*
G75*
G02*
X33150000Y-57550000I-150000J0D01*
G01*
X33150000Y-57550000D02*
G75*
G02*
X33450000Y-57550000I150000J0D01*
G01*
X43330000Y-38600000D02*
X45770000Y-38600000D01*
X78450000Y-32050000D02*
G75*
G02*
X78150000Y-32050000I-150000J0D01*
G01*
X78150000Y-32050000D02*
G75*
G02*
X78450000Y-32050000I150000J0D01*
G01*
X67950000Y-26050000D02*
G75*
G02*
X67650000Y-26050000I-150000J0D01*
G01*
X67650000Y-26050000D02*
G75*
G02*
X67950000Y-26050000I150000J0D01*
G01*
X58950000Y-54550000D02*
G75*
G02*
X58650000Y-54550000I-150000J0D01*
G01*
X58650000Y-54550000D02*
G75*
G02*
X58950000Y-54550000I150000J0D01*
G01*
X43250000Y-37580000D02*
X43250000Y-38520000D01*
X31950000Y-24550000D02*
G75*
G02*
X31650000Y-24550000I-150000J0D01*
G01*
X31650000Y-24550000D02*
G75*
G02*
X31950000Y-24550000I150000J0D01*
G01*
X66450000Y-39550000D02*
G75*
G02*
X66150000Y-39550000I-150000J0D01*
G01*
X66150000Y-39550000D02*
G75*
G02*
X66450000Y-39550000I150000J0D01*
G01*
X24450000Y-24550000D02*
G75*
G02*
X24150000Y-24550000I-150000J0D01*
G01*
X24150000Y-24550000D02*
G75*
G02*
X24450000Y-24550000I150000J0D01*
G01*
X73950000Y-23050000D02*
G75*
G02*
X73650000Y-23050000I-150000J0D01*
G01*
X73650000Y-23050000D02*
G75*
G02*
X73950000Y-23050000I150000J0D01*
G01*
X45450000Y-45550000D02*
G75*
G02*
X45150000Y-45550000I-150000J0D01*
G01*
X45150000Y-45550000D02*
G75*
G02*
X45450000Y-45550000I150000J0D01*
G01*
X82950000Y-56050000D02*
G75*
G02*
X82650000Y-56050000I-150000J0D01*
G01*
X82650000Y-56050000D02*
G75*
G02*
X82950000Y-56050000I150000J0D01*
G01*
X73950000Y-45550000D02*
G75*
G02*
X73650000Y-45550000I-150000J0D01*
G01*
X73650000Y-45550000D02*
G75*
G02*
X73950000Y-45550000I150000J0D01*
G01*
X34950000Y-57550000D02*
G75*
G02*
X34650000Y-57550000I-150000J0D01*
G01*
X34650000Y-57550000D02*
G75*
G02*
X34950000Y-57550000I150000J0D01*
G01*
X40950000Y-29050000D02*
G75*
G02*
X40650000Y-29050000I-150000J0D01*
G01*
X40650000Y-29050000D02*
G75*
G02*
X40950000Y-29050000I150000J0D01*
G01*
X72450000Y-38050000D02*
G75*
G02*
X72150000Y-38050000I-150000J0D01*
G01*
X72150000Y-38050000D02*
G75*
G02*
X72450000Y-38050000I150000J0D01*
G01*
X49950000Y-27550000D02*
G75*
G02*
X49650000Y-27550000I-150000J0D01*
G01*
X49650000Y-27550000D02*
G75*
G02*
X49950000Y-27550000I150000J0D01*
G01*
X48450000Y-47050000D02*
G75*
G02*
X48150000Y-47050000I-150000J0D01*
G01*
X48150000Y-47050000D02*
G75*
G02*
X48450000Y-47050000I150000J0D01*
G01*
X45450000Y-39550000D02*
G75*
G02*
X45150000Y-39550000I-150000J0D01*
G01*
X45150000Y-39550000D02*
G75*
G02*
X45450000Y-39550000I150000J0D01*
G01*
X40950000Y-45550000D02*
G75*
G02*
X40650000Y-45550000I-150000J0D01*
G01*
X40650000Y-45550000D02*
G75*
G02*
X40950000Y-45550000I150000J0D01*
G01*
X72450000Y-24550000D02*
G75*
G02*
X72150000Y-24550000I-150000J0D01*
G01*
X72150000Y-24550000D02*
G75*
G02*
X72450000Y-24550000I150000J0D01*
G01*
X33450000Y-53050000D02*
G75*
G02*
X33150000Y-53050000I-150000J0D01*
G01*
X33150000Y-53050000D02*
G75*
G02*
X33450000Y-53050000I150000J0D01*
G01*
X49950000Y-33550000D02*
G75*
G02*
X49650000Y-33550000I-150000J0D01*
G01*
X49650000Y-33550000D02*
G75*
G02*
X49950000Y-33550000I150000J0D01*
G01*
X51450000Y-57550000D02*
G75*
G02*
X51150000Y-57550000I-150000J0D01*
G01*
X51150000Y-57550000D02*
G75*
G02*
X51450000Y-57550000I150000J0D01*
G01*
X46950000Y-56050000D02*
G75*
G02*
X46650000Y-56050000I-150000J0D01*
G01*
X46650000Y-56050000D02*
G75*
G02*
X46950000Y-56050000I150000J0D01*
G01*
X58950000Y-39550000D02*
G75*
G02*
X58650000Y-39550000I-150000J0D01*
G01*
X58650000Y-39550000D02*
G75*
G02*
X58950000Y-39550000I150000J0D01*
G01*
X81525000Y-53050000D02*
G75*
G02*
X81075000Y-53050000I-225000J0D01*
G01*
X81075000Y-53050000D02*
G75*
G02*
X81525000Y-53050000I225000J0D01*
G01*
X33450000Y-41050000D02*
G75*
G02*
X33150000Y-41050000I-150000J0D01*
G01*
X33150000Y-41050000D02*
G75*
G02*
X33450000Y-41050000I150000J0D01*
G01*
X82950000Y-51550000D02*
G75*
G02*
X82650000Y-51550000I-150000J0D01*
G01*
X82650000Y-51550000D02*
G75*
G02*
X82950000Y-51550000I150000J0D01*
G01*
X39450000Y-54550000D02*
G75*
G02*
X39150000Y-54550000I-150000J0D01*
G01*
X39150000Y-54550000D02*
G75*
G02*
X39450000Y-54550000I150000J0D01*
G01*
X24450000Y-38050000D02*
G75*
G02*
X24150000Y-38050000I-150000J0D01*
G01*
X24150000Y-38050000D02*
G75*
G02*
X24450000Y-38050000I150000J0D01*
G01*
X48450000Y-51550000D02*
G75*
G02*
X48150000Y-51550000I-150000J0D01*
G01*
X48150000Y-51550000D02*
G75*
G02*
X48450000Y-51550000I150000J0D01*
G01*
X34950000Y-50050000D02*
G75*
G02*
X34650000Y-50050000I-150000J0D01*
G01*
X34650000Y-50050000D02*
G75*
G02*
X34950000Y-50050000I150000J0D01*
G01*
X47025000Y-23050000D02*
G75*
G02*
X46575000Y-23050000I-225000J0D01*
G01*
X46575000Y-23050000D02*
G75*
G02*
X47025000Y-23050000I225000J0D01*
G01*
X67950000Y-39550000D02*
G75*
G02*
X67650000Y-39550000I-150000J0D01*
G01*
X67650000Y-39550000D02*
G75*
G02*
X67950000Y-39550000I150000J0D01*
G01*
X54450000Y-56050000D02*
G75*
G02*
X54150000Y-56050000I-150000J0D01*
G01*
X54150000Y-56050000D02*
G75*
G02*
X54450000Y-56050000I150000J0D01*
G01*
X63450000Y-39550000D02*
G75*
G02*
X63150000Y-39550000I-150000J0D01*
G01*
X63150000Y-39550000D02*
G75*
G02*
X63450000Y-39550000I150000J0D01*
G01*
X82950000Y-53050000D02*
G75*
G02*
X82650000Y-53050000I-150000J0D01*
G01*
X82650000Y-53050000D02*
G75*
G02*
X82950000Y-53050000I150000J0D01*
G01*
X63450000Y-47050000D02*
G75*
G02*
X63150000Y-47050000I-150000J0D01*
G01*
X63150000Y-47050000D02*
G75*
G02*
X63450000Y-47050000I150000J0D01*
G01*
X88350000Y-18150000D02*
X21750000Y-18150000D01*
X31950000Y-42550000D02*
G75*
G02*
X31650000Y-42550000I-150000J0D01*
G01*
X31650000Y-42550000D02*
G75*
G02*
X31950000Y-42550000I150000J0D01*
G01*
X24450000Y-45550000D02*
G75*
G02*
X24150000Y-45550000I-150000J0D01*
G01*
X24150000Y-45550000D02*
G75*
G02*
X24450000Y-45550000I150000J0D01*
G01*
X63525000Y-38050000D02*
G75*
G02*
X63075000Y-38050000I-225000J0D01*
G01*
X63075000Y-38050000D02*
G75*
G02*
X63525000Y-38050000I225000J0D01*
G01*
X72450000Y-30550000D02*
G75*
G02*
X72150000Y-30550000I-150000J0D01*
G01*
X72150000Y-30550000D02*
G75*
G02*
X72450000Y-30550000I150000J0D01*
G01*
X79950000Y-42550000D02*
G75*
G02*
X79650000Y-42550000I-150000J0D01*
G01*
X79650000Y-42550000D02*
G75*
G02*
X79950000Y-42550000I150000J0D01*
G01*
X43950000Y-18550000D02*
G75*
G02*
X43650000Y-18550000I-150000J0D01*
G01*
X43650000Y-18550000D02*
G75*
G02*
X43950000Y-18550000I150000J0D01*
G01*
X60450000Y-53050000D02*
G75*
G02*
X60150000Y-53050000I-150000J0D01*
G01*
X60150000Y-53050000D02*
G75*
G02*
X60450000Y-53050000I150000J0D01*
G01*
X67950000Y-42550000D02*
G75*
G02*
X67650000Y-42550000I-150000J0D01*
G01*
X67650000Y-42550000D02*
G75*
G02*
X67950000Y-42550000I150000J0D01*
G01*
X33450000Y-38050000D02*
G75*
G02*
X33150000Y-38050000I-150000J0D01*
G01*
X33150000Y-38050000D02*
G75*
G02*
X33450000Y-38050000I150000J0D01*
G01*
X64330000Y-38600000D02*
G75*
G02*
X64250000Y-38520000I0J80000D01*
G01*
X25950000Y-20050000D02*
G75*
G02*
X25650000Y-20050000I-150000J0D01*
G01*
X25650000Y-20050000D02*
G75*
G02*
X25950000Y-20050000I150000J0D01*
G01*
X54450000Y-20050000D02*
G75*
G02*
X54150000Y-20050000I-150000J0D01*
G01*
X54150000Y-20050000D02*
G75*
G02*
X54450000Y-20050000I150000J0D01*
G01*
X72450000Y-39550000D02*
G75*
G02*
X72150000Y-39550000I-150000J0D01*
G01*
X72150000Y-39550000D02*
G75*
G02*
X72450000Y-39550000I150000J0D01*
G01*
X55950000Y-18550000D02*
G75*
G02*
X55650000Y-18550000I-150000J0D01*
G01*
X55650000Y-18550000D02*
G75*
G02*
X55950000Y-18550000I150000J0D01*
G01*
X76950000Y-23050000D02*
G75*
G02*
X76650000Y-23050000I-150000J0D01*
G01*
X76650000Y-23050000D02*
G75*
G02*
X76950000Y-23050000I150000J0D01*
G01*
X40950000Y-21550000D02*
G75*
G02*
X40650000Y-21550000I-150000J0D01*
G01*
X40650000Y-21550000D02*
G75*
G02*
X40950000Y-21550000I150000J0D01*
G01*
X52950000Y-41050000D02*
G75*
G02*
X52650000Y-41050000I-150000J0D01*
G01*
X52650000Y-41050000D02*
G75*
G02*
X52950000Y-41050000I150000J0D01*
G01*
X75450000Y-45550000D02*
G75*
G02*
X75150000Y-45550000I-150000J0D01*
G01*
X75150000Y-45550000D02*
G75*
G02*
X75450000Y-45550000I150000J0D01*
G01*
X25950000Y-53050000D02*
G75*
G02*
X25650000Y-53050000I-150000J0D01*
G01*
X25650000Y-53050000D02*
G75*
G02*
X25950000Y-53050000I150000J0D01*
G01*
X67950000Y-20050000D02*
G75*
G02*
X67650000Y-20050000I-150000J0D01*
G01*
X67650000Y-20050000D02*
G75*
G02*
X67950000Y-20050000I150000J0D01*
G01*
X51450000Y-20050000D02*
G75*
G02*
X51150000Y-20050000I-150000J0D01*
G01*
X51150000Y-20050000D02*
G75*
G02*
X51450000Y-20050000I150000J0D01*
G01*
X81450000Y-45550000D02*
G75*
G02*
X81150000Y-45550000I-150000J0D01*
G01*
X81150000Y-45550000D02*
G75*
G02*
X81450000Y-45550000I150000J0D01*
G01*
X51450000Y-18550000D02*
G75*
G02*
X51150000Y-18550000I-150000J0D01*
G01*
X51150000Y-18550000D02*
G75*
G02*
X51450000Y-18550000I150000J0D01*
G01*
X46950000Y-54550000D02*
G75*
G02*
X46650000Y-54550000I-150000J0D01*
G01*
X46650000Y-54550000D02*
G75*
G02*
X46950000Y-54550000I150000J0D01*
G01*
X67950000Y-32050000D02*
G75*
G02*
X67650000Y-32050000I-150000J0D01*
G01*
X67650000Y-32050000D02*
G75*
G02*
X67950000Y-32050000I150000J0D01*
G01*
X24450000Y-41050000D02*
G75*
G02*
X24150000Y-41050000I-150000J0D01*
G01*
X24150000Y-41050000D02*
G75*
G02*
X24450000Y-41050000I150000J0D01*
G01*
X36450000Y-48550000D02*
G75*
G02*
X36150000Y-48550000I-150000J0D01*
G01*
X36150000Y-48550000D02*
G75*
G02*
X36450000Y-48550000I150000J0D01*
G01*
X66450000Y-56050000D02*
G75*
G02*
X66150000Y-56050000I-150000J0D01*
G01*
X66150000Y-56050000D02*
G75*
G02*
X66450000Y-56050000I150000J0D01*
G01*
X54450000Y-42550000D02*
G75*
G02*
X54150000Y-42550000I-150000J0D01*
G01*
X54150000Y-42550000D02*
G75*
G02*
X54450000Y-42550000I150000J0D01*
G01*
X61950000Y-21550000D02*
G75*
G02*
X61650000Y-21550000I-150000J0D01*
G01*
X61650000Y-21550000D02*
G75*
G02*
X61950000Y-21550000I150000J0D01*
G01*
X85950000Y-48550000D02*
G75*
G02*
X85650000Y-48550000I-150000J0D01*
G01*
X85650000Y-48550000D02*
G75*
G02*
X85950000Y-48550000I150000J0D01*
G01*
X55950000Y-53050000D02*
G75*
G02*
X55650000Y-53050000I-150000J0D01*
G01*
X55650000Y-53050000D02*
G75*
G02*
X55950000Y-53050000I150000J0D01*
G01*
X40950000Y-47050000D02*
G75*
G02*
X40650000Y-47050000I-150000J0D01*
G01*
X40650000Y-47050000D02*
G75*
G02*
X40950000Y-47050000I150000J0D01*
G01*
X28950000Y-30550000D02*
G75*
G02*
X28650000Y-30550000I-150000J0D01*
G01*
X28650000Y-30550000D02*
G75*
G02*
X28950000Y-30550000I150000J0D01*
G01*
X60450000Y-44050000D02*
G75*
G02*
X60150000Y-44050000I-150000J0D01*
G01*
X60150000Y-44050000D02*
G75*
G02*
X60450000Y-44050000I150000J0D01*
G01*
X57450000Y-51550000D02*
G75*
G02*
X57150000Y-51550000I-150000J0D01*
G01*
X57150000Y-51550000D02*
G75*
G02*
X57450000Y-51550000I150000J0D01*
G01*
X45450000Y-20050000D02*
G75*
G02*
X45150000Y-20050000I-150000J0D01*
G01*
X45150000Y-20050000D02*
G75*
G02*
X45450000Y-20050000I150000J0D01*
G01*
X67950000Y-56050000D02*
G75*
G02*
X67650000Y-56050000I-150000J0D01*
G01*
X67650000Y-56050000D02*
G75*
G02*
X67950000Y-56050000I150000J0D01*
G01*
X51450000Y-26050000D02*
G75*
G02*
X51150000Y-26050000I-150000J0D01*
G01*
X51150000Y-26050000D02*
G75*
G02*
X51450000Y-26050000I150000J0D01*
G01*
X64950000Y-57550000D02*
G75*
G02*
X64650000Y-57550000I-150000J0D01*
G01*
X64650000Y-57550000D02*
G75*
G02*
X64950000Y-57550000I150000J0D01*
G01*
X57450000Y-57550000D02*
G75*
G02*
X57150000Y-57550000I-150000J0D01*
G01*
X57150000Y-57550000D02*
G75*
G02*
X57450000Y-57550000I150000J0D01*
G01*
X49950000Y-45550000D02*
G75*
G02*
X49650000Y-45550000I-150000J0D01*
G01*
X49650000Y-45550000D02*
G75*
G02*
X49950000Y-45550000I150000J0D01*
G01*
X64250000Y-37580000D02*
G75*
G02*
X64330000Y-37500000I80000J0D01*
G01*
X57450000Y-48550000D02*
G75*
G02*
X57150000Y-48550000I-150000J0D01*
G01*
X57150000Y-48550000D02*
G75*
G02*
X57450000Y-48550000I150000J0D01*
G01*
X61950000Y-29050000D02*
G75*
G02*
X61650000Y-29050000I-150000J0D01*
G01*
X61650000Y-29050000D02*
G75*
G02*
X61950000Y-29050000I150000J0D01*
G01*
X58950000Y-21550000D02*
G75*
G02*
X58650000Y-21550000I-150000J0D01*
G01*
X58650000Y-21550000D02*
G75*
G02*
X58950000Y-21550000I150000J0D01*
G01*
X45450000Y-32050000D02*
G75*
G02*
X45150000Y-32050000I-150000J0D01*
G01*
X45150000Y-32050000D02*
G75*
G02*
X45450000Y-32050000I150000J0D01*
G01*
X48450000Y-48550000D02*
G75*
G02*
X48150000Y-48550000I-150000J0D01*
G01*
X48150000Y-48550000D02*
G75*
G02*
X48450000Y-48550000I150000J0D01*
G01*
X72450000Y-53050000D02*
G75*
G02*
X72150000Y-53050000I-150000J0D01*
G01*
X72150000Y-53050000D02*
G75*
G02*
X72450000Y-53050000I150000J0D01*
G01*
X25950000Y-54550000D02*
G75*
G02*
X25650000Y-54550000I-150000J0D01*
G01*
X25650000Y-54550000D02*
G75*
G02*
X25950000Y-54550000I150000J0D01*
G01*
X61950000Y-23050000D02*
G75*
G02*
X61650000Y-23050000I-150000J0D01*
G01*
X61650000Y-23050000D02*
G75*
G02*
X61950000Y-23050000I150000J0D01*
G01*
X36450000Y-26050000D02*
G75*
G02*
X36150000Y-26050000I-150000J0D01*
G01*
X36150000Y-26050000D02*
G75*
G02*
X36450000Y-26050000I150000J0D01*
G01*
X63525000Y-53050000D02*
G75*
G02*
X63075000Y-53050000I-225000J0D01*
G01*
X63075000Y-53050000D02*
G75*
G02*
X63525000Y-53050000I225000J0D01*
G01*
X46950000Y-47050000D02*
G75*
G02*
X46650000Y-47050000I-150000J0D01*
G01*
X46650000Y-47050000D02*
G75*
G02*
X46950000Y-47050000I150000J0D01*
G01*
X40950000Y-23050000D02*
G75*
G02*
X40650000Y-23050000I-150000J0D01*
G01*
X40650000Y-23050000D02*
G75*
G02*
X40950000Y-23050000I150000J0D01*
G01*
X40950000Y-18550000D02*
G75*
G02*
X40650000Y-18550000I-150000J0D01*
G01*
X40650000Y-18550000D02*
G75*
G02*
X40950000Y-18550000I150000J0D01*
G01*
X30450000Y-30550000D02*
G75*
G02*
X30150000Y-30550000I-150000J0D01*
G01*
X30150000Y-30550000D02*
G75*
G02*
X30450000Y-30550000I150000J0D01*
G01*
X34950000Y-47050000D02*
G75*
G02*
X34650000Y-47050000I-150000J0D01*
G01*
X34650000Y-47050000D02*
G75*
G02*
X34950000Y-47050000I150000J0D01*
G01*
X57450000Y-26050000D02*
G75*
G02*
X57150000Y-26050000I-150000J0D01*
G01*
X57150000Y-26050000D02*
G75*
G02*
X57450000Y-26050000I150000J0D01*
G01*
X79950000Y-27550000D02*
G75*
G02*
X79650000Y-27550000I-150000J0D01*
G01*
X79650000Y-27550000D02*
G75*
G02*
X79950000Y-27550000I150000J0D01*
G01*
X57450000Y-50050000D02*
G75*
G02*
X57150000Y-50050000I-150000J0D01*
G01*
X57150000Y-50050000D02*
G75*
G02*
X57450000Y-50050000I150000J0D01*
G01*
X78450000Y-29050000D02*
G75*
G02*
X78150000Y-29050000I-150000J0D01*
G01*
X78150000Y-29050000D02*
G75*
G02*
X78450000Y-29050000I150000J0D01*
G01*
X84450000Y-30550000D02*
G75*
G02*
X84150000Y-30550000I-150000J0D01*
G01*
X84150000Y-30550000D02*
G75*
G02*
X84450000Y-30550000I150000J0D01*
G01*
X37950000Y-44050000D02*
G75*
G02*
X37650000Y-44050000I-150000J0D01*
G01*
X37650000Y-44050000D02*
G75*
G02*
X37950000Y-44050000I150000J0D01*
G01*
X30450000Y-53050000D02*
G75*
G02*
X30150000Y-53050000I-150000J0D01*
G01*
X30150000Y-53050000D02*
G75*
G02*
X30450000Y-53050000I150000J0D01*
G01*
X43950000Y-35050000D02*
G75*
G02*
X43650000Y-35050000I-150000J0D01*
G01*
X43650000Y-35050000D02*
G75*
G02*
X43950000Y-35050000I150000J0D01*
G01*
X66450000Y-57550000D02*
G75*
G02*
X66150000Y-57550000I-150000J0D01*
G01*
X66150000Y-57550000D02*
G75*
G02*
X66450000Y-57550000I150000J0D01*
G01*
X66450000Y-23050000D02*
G75*
G02*
X66150000Y-23050000I-150000J0D01*
G01*
X66150000Y-23050000D02*
G75*
G02*
X66450000Y-23050000I150000J0D01*
G01*
X34950000Y-38050000D02*
G75*
G02*
X34650000Y-38050000I-150000J0D01*
G01*
X34650000Y-38050000D02*
G75*
G02*
X34950000Y-38050000I150000J0D01*
G01*
X76950000Y-56050000D02*
G75*
G02*
X76650000Y-56050000I-150000J0D01*
G01*
X76650000Y-56050000D02*
G75*
G02*
X76950000Y-56050000I150000J0D01*
G01*
X36450000Y-42550000D02*
G75*
G02*
X36150000Y-42550000I-150000J0D01*
G01*
X36150000Y-42550000D02*
G75*
G02*
X36450000Y-42550000I150000J0D01*
G01*
X37950000Y-26050000D02*
G75*
G02*
X37650000Y-26050000I-150000J0D01*
G01*
X37650000Y-26050000D02*
G75*
G02*
X37950000Y-26050000I150000J0D01*
G01*
X84450000Y-20050000D02*
G75*
G02*
X84150000Y-20050000I-150000J0D01*
G01*
X84150000Y-20050000D02*
G75*
G02*
X84450000Y-20050000I150000J0D01*
G01*
X42450000Y-54550000D02*
G75*
G02*
X42150000Y-54550000I-150000J0D01*
G01*
X42150000Y-54550000D02*
G75*
G02*
X42450000Y-54550000I150000J0D01*
G01*
X67950000Y-33550000D02*
G75*
G02*
X67650000Y-33550000I-150000J0D01*
G01*
X67650000Y-33550000D02*
G75*
G02*
X67950000Y-33550000I150000J0D01*
G01*
X39450000Y-35050000D02*
G75*
G02*
X39150000Y-35050000I-150000J0D01*
G01*
X39150000Y-35050000D02*
G75*
G02*
X39450000Y-35050000I150000J0D01*
G01*
X27450000Y-27550000D02*
G75*
G02*
X27150000Y-27550000I-150000J0D01*
G01*
X27150000Y-27550000D02*
G75*
G02*
X27450000Y-27550000I150000J0D01*
G01*
X49950000Y-56050000D02*
G75*
G02*
X49650000Y-56050000I-150000J0D01*
G01*
X49650000Y-56050000D02*
G75*
G02*
X49950000Y-56050000I150000J0D01*
G01*
X48450000Y-30550000D02*
G75*
G02*
X48150000Y-30550000I-150000J0D01*
G01*
X48150000Y-30550000D02*
G75*
G02*
X48450000Y-30550000I150000J0D01*
G01*
X24450000Y-35050000D02*
G75*
G02*
X24150000Y-35050000I-150000J0D01*
G01*
X24150000Y-35050000D02*
G75*
G02*
X24450000Y-35050000I150000J0D01*
G01*
X40950000Y-33550000D02*
G75*
G02*
X40650000Y-33550000I-150000J0D01*
G01*
X40650000Y-33550000D02*
G75*
G02*
X40950000Y-33550000I150000J0D01*
G01*
X61950000Y-50050000D02*
G75*
G02*
X61650000Y-50050000I-150000J0D01*
G01*
X61650000Y-50050000D02*
G75*
G02*
X61950000Y-50050000I150000J0D01*
G01*
X70950000Y-47050000D02*
G75*
G02*
X70650000Y-47050000I-150000J0D01*
G01*
X70650000Y-47050000D02*
G75*
G02*
X70950000Y-47050000I150000J0D01*
G01*
X82950000Y-33550000D02*
G75*
G02*
X82650000Y-33550000I-150000J0D01*
G01*
X82650000Y-33550000D02*
G75*
G02*
X82950000Y-33550000I150000J0D01*
G01*
X82950000Y-32050000D02*
G75*
G02*
X82650000Y-32050000I-150000J0D01*
G01*
X82650000Y-32050000D02*
G75*
G02*
X82950000Y-32050000I150000J0D01*
G01*
X72450000Y-47050000D02*
G75*
G02*
X72150000Y-47050000I-150000J0D01*
G01*
X72150000Y-47050000D02*
G75*
G02*
X72450000Y-47050000I150000J0D01*
G01*
X60450000Y-39550000D02*
G75*
G02*
X60150000Y-39550000I-150000J0D01*
G01*
X60150000Y-39550000D02*
G75*
G02*
X60450000Y-39550000I150000J0D01*
G01*
X75450000Y-32050000D02*
G75*
G02*
X75150000Y-32050000I-150000J0D01*
G01*
X75150000Y-32050000D02*
G75*
G02*
X75450000Y-32050000I150000J0D01*
G01*
X84450000Y-48550000D02*
G75*
G02*
X84150000Y-48550000I-150000J0D01*
G01*
X84150000Y-48550000D02*
G75*
G02*
X84450000Y-48550000I150000J0D01*
G01*
X78450000Y-50050000D02*
G75*
G02*
X78150000Y-50050000I-150000J0D01*
G01*
X78150000Y-50050000D02*
G75*
G02*
X78450000Y-50050000I150000J0D01*
G01*
X21650000Y-18250000D02*
X21650000Y-57850000D01*
X45450000Y-44050000D02*
G75*
G02*
X45150000Y-44050000I-150000J0D01*
G01*
X45150000Y-44050000D02*
G75*
G02*
X45450000Y-44050000I150000J0D01*
G01*
X55950000Y-21550000D02*
G75*
G02*
X55650000Y-21550000I-150000J0D01*
G01*
X55650000Y-21550000D02*
G75*
G02*
X55950000Y-21550000I150000J0D01*
G01*
X60450000Y-23050000D02*
G75*
G02*
X60150000Y-23050000I-150000J0D01*
G01*
X60150000Y-23050000D02*
G75*
G02*
X60450000Y-23050000I150000J0D01*
G01*
X73950000Y-56050000D02*
G75*
G02*
X73650000Y-56050000I-150000J0D01*
G01*
X73650000Y-56050000D02*
G75*
G02*
X73950000Y-56050000I150000J0D01*
G01*
X36450000Y-41050000D02*
G75*
G02*
X36150000Y-41050000I-150000J0D01*
G01*
X36150000Y-41050000D02*
G75*
G02*
X36450000Y-41050000I150000J0D01*
G01*
X51450000Y-50050000D02*
G75*
G02*
X51150000Y-50050000I-150000J0D01*
G01*
X51150000Y-50050000D02*
G75*
G02*
X51450000Y-50050000I150000J0D01*
G01*
X33450000Y-39550000D02*
G75*
G02*
X33150000Y-39550000I-150000J0D01*
G01*
X33150000Y-39550000D02*
G75*
G02*
X33450000Y-39550000I150000J0D01*
G01*
X64250000Y-37580000D02*
X64250000Y-38520000D01*
X78450000Y-44050000D02*
G75*
G02*
X78150000Y-44050000I-150000J0D01*
G01*
X78150000Y-44050000D02*
G75*
G02*
X78450000Y-44050000I150000J0D01*
G01*
X37950000Y-35050000D02*
G75*
G02*
X37650000Y-35050000I-150000J0D01*
G01*
X37650000Y-35050000D02*
G75*
G02*
X37950000Y-35050000I150000J0D01*
G01*
X64950000Y-44050000D02*
G75*
G02*
X64650000Y-44050000I-150000J0D01*
G01*
X64650000Y-44050000D02*
G75*
G02*
X64950000Y-44050000I150000J0D01*
G01*
X58950000Y-53050000D02*
G75*
G02*
X58650000Y-53050000I-150000J0D01*
G01*
X58650000Y-53050000D02*
G75*
G02*
X58950000Y-53050000I150000J0D01*
G01*
X70950000Y-50050000D02*
G75*
G02*
X70650000Y-50050000I-150000J0D01*
G01*
X70650000Y-50050000D02*
G75*
G02*
X70950000Y-50050000I150000J0D01*
G01*
X51450000Y-54550000D02*
G75*
G02*
X51150000Y-54550000I-150000J0D01*
G01*
X51150000Y-54550000D02*
G75*
G02*
X51450000Y-54550000I150000J0D01*
G01*
X46950000Y-24550000D02*
G75*
G02*
X46650000Y-24550000I-150000J0D01*
G01*
X46650000Y-24550000D02*
G75*
G02*
X46950000Y-24550000I150000J0D01*
G01*
X25950000Y-33550000D02*
G75*
G02*
X25650000Y-33550000I-150000J0D01*
G01*
X25650000Y-33550000D02*
G75*
G02*
X25950000Y-33550000I150000J0D01*
G01*
X37950000Y-53050000D02*
G75*
G02*
X37650000Y-53050000I-150000J0D01*
G01*
X37650000Y-53050000D02*
G75*
G02*
X37950000Y-53050000I150000J0D01*
G01*
X75450000Y-24550000D02*
G75*
G02*
X75150000Y-24550000I-150000J0D01*
G01*
X75150000Y-24550000D02*
G75*
G02*
X75450000Y-24550000I150000J0D01*
G01*
X34950000Y-18550000D02*
G75*
G02*
X34650000Y-18550000I-150000J0D01*
G01*
X34650000Y-18550000D02*
G75*
G02*
X34950000Y-18550000I150000J0D01*
G01*
X40950000Y-48550000D02*
G75*
G02*
X40650000Y-48550000I-150000J0D01*
G01*
X40650000Y-48550000D02*
G75*
G02*
X40950000Y-48550000I150000J0D01*
G01*
X64950000Y-41050000D02*
G75*
G02*
X64650000Y-41050000I-150000J0D01*
G01*
X64650000Y-41050000D02*
G75*
G02*
X64950000Y-41050000I150000J0D01*
G01*
X24450000Y-32050000D02*
G75*
G02*
X24150000Y-32050000I-150000J0D01*
G01*
X24150000Y-32050000D02*
G75*
G02*
X24450000Y-32050000I150000J0D01*
G01*
X58950000Y-30550000D02*
G75*
G02*
X58650000Y-30550000I-150000J0D01*
G01*
X58650000Y-30550000D02*
G75*
G02*
X58950000Y-30550000I150000J0D01*
G01*
X51450000Y-47050000D02*
G75*
G02*
X51150000Y-47050000I-150000J0D01*
G01*
X51150000Y-47050000D02*
G75*
G02*
X51450000Y-47050000I150000J0D01*
G01*
X33450000Y-21550000D02*
G75*
G02*
X33150000Y-21550000I-150000J0D01*
G01*
X33150000Y-21550000D02*
G75*
G02*
X33450000Y-21550000I150000J0D01*
G01*
X49950000Y-35050000D02*
G75*
G02*
X49650000Y-35050000I-150000J0D01*
G01*
X49650000Y-35050000D02*
G75*
G02*
X49950000Y-35050000I150000J0D01*
G01*
X30450000Y-33550000D02*
G75*
G02*
X30150000Y-33550000I-150000J0D01*
G01*
X30150000Y-33550000D02*
G75*
G02*
X30450000Y-33550000I150000J0D01*
G01*
X81450000Y-24550000D02*
G75*
G02*
X81150000Y-24550000I-150000J0D01*
G01*
X81150000Y-24550000D02*
G75*
G02*
X81450000Y-24550000I150000J0D01*
G01*
X72450000Y-57550000D02*
G75*
G02*
X72150000Y-57550000I-150000J0D01*
G01*
X72150000Y-57550000D02*
G75*
G02*
X72450000Y-57550000I150000J0D01*
G01*
X39450000Y-39550000D02*
G75*
G02*
X39150000Y-39550000I-150000J0D01*
G01*
X39150000Y-39550000D02*
G75*
G02*
X39450000Y-39550000I150000J0D01*
G01*
X82950000Y-26050000D02*
G75*
G02*
X82650000Y-26050000I-150000J0D01*
G01*
X82650000Y-26050000D02*
G75*
G02*
X82950000Y-26050000I150000J0D01*
G01*
X33450000Y-45550000D02*
G75*
G02*
X33150000Y-45550000I-150000J0D01*
G01*
X33150000Y-45550000D02*
G75*
G02*
X33450000Y-45550000I150000J0D01*
G01*
X52950000Y-29050000D02*
G75*
G02*
X52650000Y-29050000I-150000J0D01*
G01*
X52650000Y-29050000D02*
G75*
G02*
X52950000Y-29050000I150000J0D01*
G01*
X72450000Y-50050000D02*
G75*
G02*
X72150000Y-50050000I-150000J0D01*
G01*
X72150000Y-50050000D02*
G75*
G02*
X72450000Y-50050000I150000J0D01*
G01*
X33450000Y-30550000D02*
G75*
G02*
X33150000Y-30550000I-150000J0D01*
G01*
X33150000Y-30550000D02*
G75*
G02*
X33450000Y-30550000I150000J0D01*
G01*
X81450000Y-56050000D02*
G75*
G02*
X81150000Y-56050000I-150000J0D01*
G01*
X81150000Y-56050000D02*
G75*
G02*
X81450000Y-56050000I150000J0D01*
G01*
X60450000Y-35050000D02*
G75*
G02*
X60150000Y-35050000I-150000J0D01*
G01*
X60150000Y-35050000D02*
G75*
G02*
X60450000Y-35050000I150000J0D01*
G01*
X52950000Y-30550000D02*
G75*
G02*
X52650000Y-30550000I-150000J0D01*
G01*
X52650000Y-30550000D02*
G75*
G02*
X52950000Y-30550000I150000J0D01*
G01*
X57450000Y-35050000D02*
G75*
G02*
X57150000Y-35050000I-150000J0D01*
G01*
X57150000Y-35050000D02*
G75*
G02*
X57450000Y-35050000I150000J0D01*
G01*
X31950000Y-33550000D02*
G75*
G02*
X31650000Y-33550000I-150000J0D01*
G01*
X31650000Y-33550000D02*
G75*
G02*
X31950000Y-33550000I150000J0D01*
G01*
X36450000Y-44050000D02*
G75*
G02*
X36150000Y-44050000I-150000J0D01*
G01*
X36150000Y-44050000D02*
G75*
G02*
X36450000Y-44050000I150000J0D01*
G01*
X54450000Y-21550000D02*
G75*
G02*
X54150000Y-21550000I-150000J0D01*
G01*
X54150000Y-21550000D02*
G75*
G02*
X54450000Y-21550000I150000J0D01*
G01*
X31950000Y-51550000D02*
G75*
G02*
X31650000Y-51550000I-150000J0D01*
G01*
X31650000Y-51550000D02*
G75*
G02*
X31950000Y-51550000I150000J0D01*
G01*
X25950000Y-38050000D02*
G75*
G02*
X25650000Y-38050000I-150000J0D01*
G01*
X25650000Y-38050000D02*
G75*
G02*
X25950000Y-38050000I150000J0D01*
G01*
X30450000Y-48550000D02*
G75*
G02*
X30150000Y-48550000I-150000J0D01*
G01*
X30150000Y-48550000D02*
G75*
G02*
X30450000Y-48550000I150000J0D01*
G01*
X66450000Y-21550000D02*
G75*
G02*
X66150000Y-21550000I-150000J0D01*
G01*
X66150000Y-21550000D02*
G75*
G02*
X66450000Y-21550000I150000J0D01*
G01*
X43950000Y-56050000D02*
G75*
G02*
X43650000Y-56050000I-150000J0D01*
G01*
X43650000Y-56050000D02*
G75*
G02*
X43950000Y-56050000I150000J0D01*
G01*
X60450000Y-18550000D02*
G75*
G02*
X60150000Y-18550000I-150000J0D01*
G01*
X60150000Y-18550000D02*
G75*
G02*
X60450000Y-18550000I150000J0D01*
G01*
X55950000Y-47050000D02*
G75*
G02*
X55650000Y-47050000I-150000J0D01*
G01*
X55650000Y-47050000D02*
G75*
G02*
X55950000Y-47050000I150000J0D01*
G01*
X36450000Y-54550000D02*
G75*
G02*
X36150000Y-54550000I-150000J0D01*
G01*
X36150000Y-54550000D02*
G75*
G02*
X36450000Y-54550000I150000J0D01*
G01*
X36450000Y-29050000D02*
G75*
G02*
X36150000Y-29050000I-150000J0D01*
G01*
X36150000Y-29050000D02*
G75*
G02*
X36450000Y-29050000I150000J0D01*
G01*
X54450000Y-33550000D02*
G75*
G02*
X54150000Y-33550000I-150000J0D01*
G01*
X54150000Y-33550000D02*
G75*
G02*
X54450000Y-33550000I150000J0D01*
G01*
X66770000Y-37500000D02*
X64330000Y-37500000D01*
X49950000Y-21550000D02*
G75*
G02*
X49650000Y-21550000I-150000J0D01*
G01*
X49650000Y-21550000D02*
G75*
G02*
X49950000Y-21550000I150000J0D01*
G01*
X81450000Y-30550000D02*
G75*
G02*
X81150000Y-30550000I-150000J0D01*
G01*
X81150000Y-30550000D02*
G75*
G02*
X81450000Y-30550000I150000J0D01*
G01*
X34950000Y-42550000D02*
G75*
G02*
X34650000Y-42550000I-150000J0D01*
G01*
X34650000Y-42550000D02*
G75*
G02*
X34950000Y-42550000I150000J0D01*
G01*
X48450000Y-50050000D02*
G75*
G02*
X48150000Y-50050000I-150000J0D01*
G01*
X48150000Y-50050000D02*
G75*
G02*
X48450000Y-50050000I150000J0D01*
G01*
X43250000Y-37580000D02*
G75*
G02*
X43330000Y-37500000I80000J0D01*
G01*
X30450000Y-54550000D02*
G75*
G02*
X30150000Y-54550000I-150000J0D01*
G01*
X30150000Y-54550000D02*
G75*
G02*
X30450000Y-54550000I150000J0D01*
G01*
X85950000Y-42550000D02*
G75*
G02*
X85650000Y-42550000I-150000J0D01*
G01*
X85650000Y-42550000D02*
G75*
G02*
X85950000Y-42550000I150000J0D01*
G01*
X66450000Y-47050000D02*
G75*
G02*
X66150000Y-47050000I-150000J0D01*
G01*
X66150000Y-47050000D02*
G75*
G02*
X66450000Y-47050000I150000J0D01*
G01*
X31950000Y-41050000D02*
G75*
G02*
X31650000Y-41050000I-150000J0D01*
G01*
X31650000Y-41050000D02*
G75*
G02*
X31950000Y-41050000I150000J0D01*
G01*
X46950000Y-33550000D02*
G75*
G02*
X46650000Y-33550000I-150000J0D01*
G01*
X46650000Y-33550000D02*
G75*
G02*
X46950000Y-33550000I150000J0D01*
G01*
X70950000Y-18550000D02*
G75*
G02*
X70650000Y-18550000I-150000J0D01*
G01*
X70650000Y-18550000D02*
G75*
G02*
X70950000Y-18550000I150000J0D01*
G01*
X25950000Y-45550000D02*
G75*
G02*
X25650000Y-45550000I-150000J0D01*
G01*
X25650000Y-45550000D02*
G75*
G02*
X25950000Y-45550000I150000J0D01*
G01*
X43950000Y-39550000D02*
G75*
G02*
X43650000Y-39550000I-150000J0D01*
G01*
X43650000Y-39550000D02*
G75*
G02*
X43950000Y-39550000I150000J0D01*
G01*
X78450000Y-35050000D02*
G75*
G02*
X78150000Y-35050000I-150000J0D01*
G01*
X78150000Y-35050000D02*
G75*
G02*
X78450000Y-35050000I150000J0D01*
G01*
X49950000Y-32050000D02*
G75*
G02*
X49650000Y-32050000I-150000J0D01*
G01*
X49650000Y-32050000D02*
G75*
G02*
X49950000Y-32050000I150000J0D01*
G01*
X43950000Y-57550000D02*
G75*
G02*
X43650000Y-57550000I-150000J0D01*
G01*
X43650000Y-57550000D02*
G75*
G02*
X43950000Y-57550000I150000J0D01*
G01*
X69450000Y-21550000D02*
G75*
G02*
X69150000Y-21550000I-150000J0D01*
G01*
X69150000Y-21550000D02*
G75*
G02*
X69450000Y-21550000I150000J0D01*
G01*
X75450000Y-20050000D02*
G75*
G02*
X75150000Y-20050000I-150000J0D01*
G01*
X75150000Y-20050000D02*
G75*
G02*
X75450000Y-20050000I150000J0D01*
G01*
X73950000Y-53050000D02*
G75*
G02*
X73650000Y-53050000I-150000J0D01*
G01*
X73650000Y-53050000D02*
G75*
G02*
X73950000Y-53050000I150000J0D01*
G01*
X75450000Y-29050000D02*
G75*
G02*
X75150000Y-29050000I-150000J0D01*
G01*
X75150000Y-29050000D02*
G75*
G02*
X75450000Y-29050000I150000J0D01*
G01*
X55950000Y-51550000D02*
G75*
G02*
X55650000Y-51550000I-150000J0D01*
G01*
X55650000Y-51550000D02*
G75*
G02*
X55950000Y-51550000I150000J0D01*
G01*
X39450000Y-24550000D02*
G75*
G02*
X39150000Y-24550000I-150000J0D01*
G01*
X39150000Y-24550000D02*
G75*
G02*
X39450000Y-24550000I150000J0D01*
G01*
X28950000Y-33550000D02*
G75*
G02*
X28650000Y-33550000I-150000J0D01*
G01*
X28650000Y-33550000D02*
G75*
G02*
X28950000Y-33550000I150000J0D01*
G01*
X69450000Y-38050000D02*
G75*
G02*
X69150000Y-38050000I-150000J0D01*
G01*
X69150000Y-38050000D02*
G75*
G02*
X69450000Y-38050000I150000J0D01*
G01*
X45770000Y-37500000D02*
X43330000Y-37500000D01*
X72450000Y-44050000D02*
G75*
G02*
X72150000Y-44050000I-150000J0D01*
G01*
X72150000Y-44050000D02*
G75*
G02*
X72450000Y-44050000I150000J0D01*
G01*
X79950000Y-30550000D02*
G75*
G02*
X79650000Y-30550000I-150000J0D01*
G01*
X79650000Y-30550000D02*
G75*
G02*
X79950000Y-30550000I150000J0D01*
G01*
X45450000Y-53050000D02*
G75*
G02*
X45150000Y-53050000I-150000J0D01*
G01*
X45150000Y-53050000D02*
G75*
G02*
X45450000Y-53050000I150000J0D01*
G01*
X63450000Y-42550000D02*
G75*
G02*
X63150000Y-42550000I-150000J0D01*
G01*
X63150000Y-42550000D02*
G75*
G02*
X63450000Y-42550000I150000J0D01*
G01*
X45450000Y-42550000D02*
G75*
G02*
X45150000Y-42550000I-150000J0D01*
G01*
X45150000Y-42550000D02*
G75*
G02*
X45450000Y-42550000I150000J0D01*
G01*
X69450000Y-30550000D02*
G75*
G02*
X69150000Y-30550000I-150000J0D01*
G01*
X69150000Y-30550000D02*
G75*
G02*
X69450000Y-30550000I150000J0D01*
G01*
X69450000Y-54550000D02*
G75*
G02*
X69150000Y-54550000I-150000J0D01*
G01*
X69150000Y-54550000D02*
G75*
G02*
X69450000Y-54550000I150000J0D01*
G01*
X49950000Y-50050000D02*
G75*
G02*
X49650000Y-50050000I-150000J0D01*
G01*
X49650000Y-50050000D02*
G75*
G02*
X49950000Y-50050000I150000J0D01*
G01*
X66450000Y-51550000D02*
G75*
G02*
X66150000Y-51550000I-150000J0D01*
G01*
X66150000Y-51550000D02*
G75*
G02*
X66450000Y-51550000I150000J0D01*
G01*
X24450000Y-36550000D02*
G75*
G02*
X24150000Y-36550000I-150000J0D01*
G01*
X24150000Y-36550000D02*
G75*
G02*
X24450000Y-36550000I150000J0D01*
G01*
X52950000Y-35050000D02*
G75*
G02*
X52650000Y-35050000I-150000J0D01*
G01*
X52650000Y-35050000D02*
G75*
G02*
X52950000Y-35050000I150000J0D01*
G01*
X37950000Y-21550000D02*
G75*
G02*
X37650000Y-21550000I-150000J0D01*
G01*
X37650000Y-21550000D02*
G75*
G02*
X37950000Y-21550000I150000J0D01*
G01*
X47025000Y-38050000D02*
G75*
G02*
X46575000Y-38050000I-225000J0D01*
G01*
X46575000Y-38050000D02*
G75*
G02*
X47025000Y-38050000I225000J0D01*
G01*
X70950000Y-26050000D02*
G75*
G02*
X70650000Y-26050000I-150000J0D01*
G01*
X70650000Y-26050000D02*
G75*
G02*
X70950000Y-26050000I150000J0D01*
G01*
X69450000Y-20050000D02*
G75*
G02*
X69150000Y-20050000I-150000J0D01*
G01*
X69150000Y-20050000D02*
G75*
G02*
X69450000Y-20050000I150000J0D01*
G01*
X27450000Y-45550000D02*
G75*
G02*
X27150000Y-45550000I-150000J0D01*
G01*
X27150000Y-45550000D02*
G75*
G02*
X27450000Y-45550000I150000J0D01*
G01*
X78450000Y-33550000D02*
G75*
G02*
X78150000Y-33550000I-150000J0D01*
G01*
X78150000Y-33550000D02*
G75*
G02*
X78450000Y-33550000I150000J0D01*
G01*
X85950000Y-54550000D02*
G75*
G02*
X85650000Y-54550000I-150000J0D01*
G01*
X85650000Y-54550000D02*
G75*
G02*
X85950000Y-54550000I150000J0D01*
G01*
X36450000Y-18550000D02*
G75*
G02*
X36150000Y-18550000I-150000J0D01*
G01*
X36150000Y-18550000D02*
G75*
G02*
X36450000Y-18550000I150000J0D01*
G01*
X52950000Y-45550000D02*
G75*
G02*
X52650000Y-45550000I-150000J0D01*
G01*
X52650000Y-45550000D02*
G75*
G02*
X52950000Y-45550000I150000J0D01*
G01*
X43950000Y-47050000D02*
G75*
G02*
X43650000Y-47050000I-150000J0D01*
G01*
X43650000Y-47050000D02*
G75*
G02*
X43950000Y-47050000I150000J0D01*
G01*
X54450000Y-27550000D02*
G75*
G02*
X54150000Y-27550000I-150000J0D01*
G01*
X54150000Y-27550000D02*
G75*
G02*
X54450000Y-27550000I150000J0D01*
G01*
X43950000Y-24550000D02*
G75*
G02*
X43650000Y-24550000I-150000J0D01*
G01*
X43650000Y-24550000D02*
G75*
G02*
X43950000Y-24550000I150000J0D01*
G01*
X34950000Y-53050000D02*
G75*
G02*
X34650000Y-53050000I-150000J0D01*
G01*
X34650000Y-53050000D02*
G75*
G02*
X34950000Y-53050000I150000J0D01*
G01*
X73950000Y-54550000D02*
G75*
G02*
X73650000Y-54550000I-150000J0D01*
G01*
X73650000Y-54550000D02*
G75*
G02*
X73950000Y-54550000I150000J0D01*
G01*
X40950000Y-57550000D02*
G75*
G02*
X40650000Y-57550000I-150000J0D01*
G01*
X40650000Y-57550000D02*
G75*
G02*
X40950000Y-57550000I150000J0D01*
G01*
X85950000Y-27550000D02*
G75*
G02*
X85650000Y-27550000I-150000J0D01*
G01*
X85650000Y-27550000D02*
G75*
G02*
X85950000Y-27550000I150000J0D01*
G01*
X73950000Y-44050000D02*
G75*
G02*
X73650000Y-44050000I-150000J0D01*
G01*
X73650000Y-44050000D02*
G75*
G02*
X73950000Y-44050000I150000J0D01*
G01*
X72450000Y-18550000D02*
G75*
G02*
X72150000Y-18550000I-150000J0D01*
G01*
X72150000Y-18550000D02*
G75*
G02*
X72450000Y-18550000I150000J0D01*
G01*
X48450000Y-42550000D02*
G75*
G02*
X48150000Y-42550000I-150000J0D01*
G01*
X48150000Y-42550000D02*
G75*
G02*
X48450000Y-42550000I150000J0D01*
G01*
X57450000Y-41050000D02*
G75*
G02*
X57150000Y-41050000I-150000J0D01*
G01*
X57150000Y-41050000D02*
G75*
G02*
X57450000Y-41050000I150000J0D01*
G01*
X60450000Y-32050000D02*
G75*
G02*
X60150000Y-32050000I-150000J0D01*
G01*
X60150000Y-32050000D02*
G75*
G02*
X60450000Y-32050000I150000J0D01*
G01*
X60450000Y-57550000D02*
G75*
G02*
X60150000Y-57550000I-150000J0D01*
G01*
X60150000Y-57550000D02*
G75*
G02*
X60450000Y-57550000I150000J0D01*
G01*
X43950000Y-50050000D02*
G75*
G02*
X43650000Y-50050000I-150000J0D01*
G01*
X43650000Y-50050000D02*
G75*
G02*
X43950000Y-50050000I150000J0D01*
G01*
X45450000Y-54550000D02*
G75*
G02*
X45150000Y-54550000I-150000J0D01*
G01*
X45150000Y-54550000D02*
G75*
G02*
X45450000Y-54550000I150000J0D01*
G01*
X40950000Y-51550000D02*
G75*
G02*
X40650000Y-51550000I-150000J0D01*
G01*
X40650000Y-51550000D02*
G75*
G02*
X40950000Y-51550000I150000J0D01*
G01*
X69450000Y-35050000D02*
G75*
G02*
X69150000Y-35050000I-150000J0D01*
G01*
X69150000Y-35050000D02*
G75*
G02*
X69450000Y-35050000I150000J0D01*
G01*
X61950000Y-20050000D02*
G75*
G02*
X61650000Y-20050000I-150000J0D01*
G01*
X61650000Y-20050000D02*
G75*
G02*
X61950000Y-20050000I150000J0D01*
G01*
X28950000Y-29050000D02*
G75*
G02*
X28650000Y-29050000I-150000J0D01*
G01*
X28650000Y-29050000D02*
G75*
G02*
X28950000Y-29050000I150000J0D01*
G01*
X64950000Y-51550000D02*
G75*
G02*
X64650000Y-51550000I-150000J0D01*
G01*
X64650000Y-51550000D02*
G75*
G02*
X64950000Y-51550000I150000J0D01*
G01*
X82950000Y-18550000D02*
G75*
G02*
X82650000Y-18550000I-150000J0D01*
G01*
X82650000Y-18550000D02*
G75*
G02*
X82950000Y-18550000I150000J0D01*
G01*
X46950000Y-42550000D02*
G75*
G02*
X46650000Y-42550000I-150000J0D01*
G01*
X46650000Y-42550000D02*
G75*
G02*
X46950000Y-42550000I150000J0D01*
G01*
X84450000Y-53050000D02*
G75*
G02*
X84150000Y-53050000I-150000J0D01*
G01*
X84150000Y-53050000D02*
G75*
G02*
X84450000Y-53050000I150000J0D01*
G01*
X72450000Y-21550000D02*
G75*
G02*
X72150000Y-21550000I-150000J0D01*
G01*
X72150000Y-21550000D02*
G75*
G02*
X72450000Y-21550000I150000J0D01*
G01*
X55950000Y-30550000D02*
G75*
G02*
X55650000Y-30550000I-150000J0D01*
G01*
X55650000Y-30550000D02*
G75*
G02*
X55950000Y-30550000I150000J0D01*
G01*
X69450000Y-18550000D02*
G75*
G02*
X69150000Y-18550000I-150000J0D01*
G01*
X69150000Y-18550000D02*
G75*
G02*
X69450000Y-18550000I150000J0D01*
G01*
X42450000Y-29050000D02*
G75*
G02*
X42150000Y-29050000I-150000J0D01*
G01*
X42150000Y-29050000D02*
G75*
G02*
X42450000Y-29050000I150000J0D01*
G01*
X67950000Y-45550000D02*
G75*
G02*
X67650000Y-45550000I-150000J0D01*
G01*
X67650000Y-45550000D02*
G75*
G02*
X67950000Y-45550000I150000J0D01*
G01*
X57450000Y-23050000D02*
G75*
G02*
X57150000Y-23050000I-150000J0D01*
G01*
X57150000Y-23050000D02*
G75*
G02*
X57450000Y-23050000I150000J0D01*
G01*
X69450000Y-39550000D02*
G75*
G02*
X69150000Y-39550000I-150000J0D01*
G01*
X69150000Y-39550000D02*
G75*
G02*
X69450000Y-39550000I150000J0D01*
G01*
X21650000Y-18250000D02*
G75*
G02*
X21750000Y-18150000I100000J0D01*
G01*
X45450000Y-26050000D02*
G75*
G02*
X45150000Y-26050000I-150000J0D01*
G01*
X45150000Y-26050000D02*
G75*
G02*
X45450000Y-26050000I150000J0D01*
G01*
X52950000Y-18550000D02*
G75*
G02*
X52650000Y-18550000I-150000J0D01*
G01*
X52650000Y-18550000D02*
G75*
G02*
X52950000Y-18550000I150000J0D01*
G01*
X79950000Y-38050000D02*
G75*
G02*
X79650000Y-38050000I-150000J0D01*
G01*
X79650000Y-38050000D02*
G75*
G02*
X79950000Y-38050000I150000J0D01*
G01*
X84450000Y-42550000D02*
G75*
G02*
X84150000Y-42550000I-150000J0D01*
G01*
X84150000Y-42550000D02*
G75*
G02*
X84450000Y-42550000I150000J0D01*
G01*
X31950000Y-26050000D02*
G75*
G02*
X31650000Y-26050000I-150000J0D01*
G01*
X31650000Y-26050000D02*
G75*
G02*
X31950000Y-26050000I150000J0D01*
G01*
X75450000Y-48550000D02*
G75*
G02*
X75150000Y-48550000I-150000J0D01*
G01*
X75150000Y-48550000D02*
G75*
G02*
X75450000Y-48550000I150000J0D01*
G01*
X24450000Y-29050000D02*
G75*
G02*
X24150000Y-29050000I-150000J0D01*
G01*
X24150000Y-29050000D02*
G75*
G02*
X24450000Y-29050000I150000J0D01*
G01*
X36450000Y-21550000D02*
G75*
G02*
X36150000Y-21550000I-150000J0D01*
G01*
X36150000Y-21550000D02*
G75*
G02*
X36450000Y-21550000I150000J0D01*
G01*
X63450000Y-29050000D02*
G75*
G02*
X63150000Y-29050000I-150000J0D01*
G01*
X63150000Y-29050000D02*
G75*
G02*
X63450000Y-29050000I150000J0D01*
G01*
X66770000Y-37500000D02*
G75*
G02*
X66850000Y-37580000I0J-80000D01*
G01*
X28950000Y-48550000D02*
G75*
G02*
X28650000Y-48550000I-150000J0D01*
G01*
X28650000Y-48550000D02*
G75*
G02*
X28950000Y-48550000I150000J0D01*
G01*
X52950000Y-38050000D02*
G75*
G02*
X52650000Y-38050000I-150000J0D01*
G01*
X52650000Y-38050000D02*
G75*
G02*
X52950000Y-38050000I150000J0D01*
G01*
X64950000Y-42550000D02*
G75*
G02*
X64650000Y-42550000I-150000J0D01*
G01*
X64650000Y-42550000D02*
G75*
G02*
X64950000Y-42550000I150000J0D01*
G01*
X66450000Y-20050000D02*
G75*
G02*
X66150000Y-20050000I-150000J0D01*
G01*
X66150000Y-20050000D02*
G75*
G02*
X66450000Y-20050000I150000J0D01*
G01*
X66450000Y-26050000D02*
G75*
G02*
X66150000Y-26050000I-150000J0D01*
G01*
X66150000Y-26050000D02*
G75*
G02*
X66450000Y-26050000I150000J0D01*
G01*
X25950000Y-23050000D02*
G75*
G02*
X25650000Y-23050000I-150000J0D01*
G01*
X25650000Y-23050000D02*
G75*
G02*
X25950000Y-23050000I150000J0D01*
G01*
X25950000Y-27550000D02*
G75*
G02*
X25650000Y-27550000I-150000J0D01*
G01*
X25650000Y-27550000D02*
G75*
G02*
X25950000Y-27550000I150000J0D01*
G01*
X70950000Y-54550000D02*
G75*
G02*
X70650000Y-54550000I-150000J0D01*
G01*
X70650000Y-54550000D02*
G75*
G02*
X70950000Y-54550000I150000J0D01*
G01*
X46950000Y-30550000D02*
G75*
G02*
X46650000Y-30550000I-150000J0D01*
G01*
X46650000Y-30550000D02*
G75*
G02*
X46950000Y-30550000I150000J0D01*
G01*
X27450000Y-36550000D02*
G75*
G02*
X27150000Y-36550000I-150000J0D01*
G01*
X27150000Y-36550000D02*
G75*
G02*
X27450000Y-36550000I150000J0D01*
G01*
X42450000Y-21550000D02*
G75*
G02*
X42150000Y-21550000I-150000J0D01*
G01*
X42150000Y-21550000D02*
G75*
G02*
X42450000Y-21550000I150000J0D01*
G01*
X67950000Y-54550000D02*
G75*
G02*
X67650000Y-54550000I-150000J0D01*
G01*
X67650000Y-54550000D02*
G75*
G02*
X67950000Y-54550000I150000J0D01*
G01*
X42450000Y-57550000D02*
G75*
G02*
X42150000Y-57550000I-150000J0D01*
G01*
X42150000Y-57550000D02*
G75*
G02*
X42450000Y-57550000I150000J0D01*
G01*
X85950000Y-20050000D02*
G75*
G02*
X85650000Y-20050000I-150000J0D01*
G01*
X85650000Y-20050000D02*
G75*
G02*
X85950000Y-20050000I150000J0D01*
G01*
X75450000Y-18550000D02*
G75*
G02*
X75150000Y-18550000I-150000J0D01*
G01*
X75150000Y-18550000D02*
G75*
G02*
X75450000Y-18550000I150000J0D01*
G01*
X42450000Y-32050000D02*
G75*
G02*
X42150000Y-32050000I-150000J0D01*
G01*
X42150000Y-32050000D02*
G75*
G02*
X42450000Y-32050000I150000J0D01*
G01*
X73950000Y-51550000D02*
G75*
G02*
X73650000Y-51550000I-150000J0D01*
G01*
X73650000Y-51550000D02*
G75*
G02*
X73950000Y-51550000I150000J0D01*
G01*
X72450000Y-56050000D02*
G75*
G02*
X72150000Y-56050000I-150000J0D01*
G01*
X72150000Y-56050000D02*
G75*
G02*
X72450000Y-56050000I150000J0D01*
G01*
X78450000Y-48550000D02*
G75*
G02*
X78150000Y-48550000I-150000J0D01*
G01*
X78150000Y-48550000D02*
G75*
G02*
X78450000Y-48550000I150000J0D01*
G01*
X85950000Y-51550000D02*
G75*
G02*
X85650000Y-51550000I-150000J0D01*
G01*
X85650000Y-51550000D02*
G75*
G02*
X85950000Y-51550000I150000J0D01*
G01*
X40950000Y-32050000D02*
G75*
G02*
X40650000Y-32050000I-150000J0D01*
G01*
X40650000Y-32050000D02*
G75*
G02*
X40950000Y-32050000I150000J0D01*
G01*
X36450000Y-35050000D02*
G75*
G02*
X36150000Y-35050000I-150000J0D01*
G01*
X36150000Y-35050000D02*
G75*
G02*
X36450000Y-35050000I150000J0D01*
G01*
X36450000Y-36550000D02*
G75*
G02*
X36150000Y-36550000I-150000J0D01*
G01*
X36150000Y-36550000D02*
G75*
G02*
X36450000Y-36550000I150000J0D01*
G01*
X39450000Y-53050000D02*
G75*
G02*
X39150000Y-53050000I-150000J0D01*
G01*
X39150000Y-53050000D02*
G75*
G02*
X39450000Y-53050000I150000J0D01*
G01*
X75450000Y-26050000D02*
G75*
G02*
X75150000Y-26050000I-150000J0D01*
G01*
X75150000Y-26050000D02*
G75*
G02*
X75450000Y-26050000I150000J0D01*
G01*
X30450000Y-56050000D02*
G75*
G02*
X30150000Y-56050000I-150000J0D01*
G01*
X30150000Y-56050000D02*
G75*
G02*
X30450000Y-56050000I150000J0D01*
G01*
X54450000Y-35050000D02*
G75*
G02*
X54150000Y-35050000I-150000J0D01*
G01*
X54150000Y-35050000D02*
G75*
G02*
X54450000Y-35050000I150000J0D01*
G01*
X60450000Y-24550000D02*
G75*
G02*
X60150000Y-24550000I-150000J0D01*
G01*
X60150000Y-24550000D02*
G75*
G02*
X60450000Y-24550000I150000J0D01*
G01*
X69450000Y-23050000D02*
G75*
G02*
X69150000Y-23050000I-150000J0D01*
G01*
X69150000Y-23050000D02*
G75*
G02*
X69450000Y-23050000I150000J0D01*
G01*
X40950000Y-41050000D02*
G75*
G02*
X40650000Y-41050000I-150000J0D01*
G01*
X40650000Y-41050000D02*
G75*
G02*
X40950000Y-41050000I150000J0D01*
G01*
X69450000Y-48550000D02*
G75*
G02*
X69150000Y-48550000I-150000J0D01*
G01*
X69150000Y-48550000D02*
G75*
G02*
X69450000Y-48550000I150000J0D01*
G01*
X76950000Y-41050000D02*
G75*
G02*
X76650000Y-41050000I-150000J0D01*
G01*
X76650000Y-41050000D02*
G75*
G02*
X76950000Y-41050000I150000J0D01*
G01*
X69450000Y-44050000D02*
G75*
G02*
X69150000Y-44050000I-150000J0D01*
G01*
X69150000Y-44050000D02*
G75*
G02*
X69450000Y-44050000I150000J0D01*
G01*
X84450000Y-26050000D02*
G75*
G02*
X84150000Y-26050000I-150000J0D01*
G01*
X84150000Y-26050000D02*
G75*
G02*
X84450000Y-26050000I150000J0D01*
G01*
X42450000Y-45550000D02*
G75*
G02*
X42150000Y-45550000I-150000J0D01*
G01*
X42150000Y-45550000D02*
G75*
G02*
X42450000Y-45550000I150000J0D01*
G01*
X49950000Y-42550000D02*
G75*
G02*
X49650000Y-42550000I-150000J0D01*
G01*
X49650000Y-42550000D02*
G75*
G02*
X49950000Y-42550000I150000J0D01*
G01*
X43950000Y-29050000D02*
G75*
G02*
X43650000Y-29050000I-150000J0D01*
G01*
X43650000Y-29050000D02*
G75*
G02*
X43950000Y-29050000I150000J0D01*
G01*
X82950000Y-42550000D02*
G75*
G02*
X82650000Y-42550000I-150000J0D01*
G01*
X82650000Y-42550000D02*
G75*
G02*
X82950000Y-42550000I150000J0D01*
G01*
X31950000Y-35050000D02*
G75*
G02*
X31650000Y-35050000I-150000J0D01*
G01*
X31650000Y-35050000D02*
G75*
G02*
X31950000Y-35050000I150000J0D01*
G01*
X37950000Y-54550000D02*
G75*
G02*
X37650000Y-54550000I-150000J0D01*
G01*
X37650000Y-54550000D02*
G75*
G02*
X37950000Y-54550000I150000J0D01*
G01*
X70950000Y-32050000D02*
G75*
G02*
X70650000Y-32050000I-150000J0D01*
G01*
X70650000Y-32050000D02*
G75*
G02*
X70950000Y-32050000I150000J0D01*
G01*
X60450000Y-20050000D02*
G75*
G02*
X60150000Y-20050000I-150000J0D01*
G01*
X60150000Y-20050000D02*
G75*
G02*
X60450000Y-20050000I150000J0D01*
G01*
X60450000Y-48550000D02*
G75*
G02*
X60150000Y-48550000I-150000J0D01*
G01*
X60150000Y-48550000D02*
G75*
G02*
X60450000Y-48550000I150000J0D01*
G01*
X84450000Y-44050000D02*
G75*
G02*
X84150000Y-44050000I-150000J0D01*
G01*
X84150000Y-44050000D02*
G75*
G02*
X84450000Y-44050000I150000J0D01*
G01*
X45450000Y-48550000D02*
G75*
G02*
X45150000Y-48550000I-150000J0D01*
G01*
X45150000Y-48550000D02*
G75*
G02*
X45450000Y-48550000I150000J0D01*
G01*
X61950000Y-30550000D02*
G75*
G02*
X61650000Y-30550000I-150000J0D01*
G01*
X61650000Y-30550000D02*
G75*
G02*
X61950000Y-30550000I150000J0D01*
G01*
X84450000Y-24550000D02*
G75*
G02*
X84150000Y-24550000I-150000J0D01*
G01*
X84150000Y-24550000D02*
G75*
G02*
X84450000Y-24550000I150000J0D01*
G01*
X42450000Y-47050000D02*
G75*
G02*
X42150000Y-47050000I-150000J0D01*
G01*
X42150000Y-47050000D02*
G75*
G02*
X42450000Y-47050000I150000J0D01*
G01*
X25950000Y-18550000D02*
G75*
G02*
X25650000Y-18550000I-150000J0D01*
G01*
X25650000Y-18550000D02*
G75*
G02*
X25950000Y-18550000I150000J0D01*
G01*
X76950000Y-39550000D02*
G75*
G02*
X76650000Y-39550000I-150000J0D01*
G01*
X76650000Y-39550000D02*
G75*
G02*
X76950000Y-39550000I150000J0D01*
G01*
X25950000Y-39550000D02*
G75*
G02*
X25650000Y-39550000I-150000J0D01*
G01*
X25650000Y-39550000D02*
G75*
G02*
X25950000Y-39550000I150000J0D01*
G01*
X60450000Y-45550000D02*
G75*
G02*
X60150000Y-45550000I-150000J0D01*
G01*
X60150000Y-45550000D02*
G75*
G02*
X60450000Y-45550000I150000J0D01*
G01*
X79950000Y-57550000D02*
G75*
G02*
X79650000Y-57550000I-150000J0D01*
G01*
X79650000Y-57550000D02*
G75*
G02*
X79950000Y-57550000I150000J0D01*
G01*
X33450000Y-48550000D02*
G75*
G02*
X33150000Y-48550000I-150000J0D01*
G01*
X33150000Y-48550000D02*
G75*
G02*
X33450000Y-48550000I150000J0D01*
G01*
X76950000Y-38050000D02*
G75*
G02*
X76650000Y-38050000I-150000J0D01*
G01*
X76650000Y-38050000D02*
G75*
G02*
X76950000Y-38050000I150000J0D01*
G01*
X54450000Y-53050000D02*
G75*
G02*
X54150000Y-53050000I-150000J0D01*
G01*
X54150000Y-53050000D02*
G75*
G02*
X54450000Y-53050000I150000J0D01*
G01*
X51450000Y-23050000D02*
G75*
G02*
X51150000Y-23050000I-150000J0D01*
G01*
X51150000Y-23050000D02*
G75*
G02*
X51450000Y-23050000I150000J0D01*
G01*
X66450000Y-27550000D02*
G75*
G02*
X66150000Y-27550000I-150000J0D01*
G01*
X66150000Y-27550000D02*
G75*
G02*
X66450000Y-27550000I150000J0D01*
G01*
X45850000Y-38520000D02*
X45850000Y-37580000D01*
X60450000Y-47050000D02*
G75*
G02*
X60150000Y-47050000I-150000J0D01*
G01*
X60150000Y-47050000D02*
G75*
G02*
X60450000Y-47050000I150000J0D01*
G01*
X27450000Y-38050000D02*
G75*
G02*
X27150000Y-38050000I-150000J0D01*
G01*
X27150000Y-38050000D02*
G75*
G02*
X27450000Y-38050000I150000J0D01*
G01*
X49950000Y-20050000D02*
G75*
G02*
X49650000Y-20050000I-150000J0D01*
G01*
X49650000Y-20050000D02*
G75*
G02*
X49950000Y-20050000I150000J0D01*
G01*
X60450000Y-33550000D02*
G75*
G02*
X60150000Y-33550000I-150000J0D01*
G01*
X60150000Y-33550000D02*
G75*
G02*
X60450000Y-33550000I150000J0D01*
G01*
X48450000Y-44050000D02*
G75*
G02*
X48150000Y-44050000I-150000J0D01*
G01*
X48150000Y-44050000D02*
G75*
G02*
X48450000Y-44050000I150000J0D01*
G01*
X28950000Y-32050000D02*
G75*
G02*
X28650000Y-32050000I-150000J0D01*
G01*
X28650000Y-32050000D02*
G75*
G02*
X28950000Y-32050000I150000J0D01*
G01*
X33450000Y-51550000D02*
G75*
G02*
X33150000Y-51550000I-150000J0D01*
G01*
X33150000Y-51550000D02*
G75*
G02*
X33450000Y-51550000I150000J0D01*
G01*
X64950000Y-35050000D02*
G75*
G02*
X64650000Y-35050000I-150000J0D01*
G01*
X64650000Y-35050000D02*
G75*
G02*
X64950000Y-35050000I150000J0D01*
G01*
X58950000Y-57550000D02*
G75*
G02*
X58650000Y-57550000I-150000J0D01*
G01*
X58650000Y-57550000D02*
G75*
G02*
X58950000Y-57550000I150000J0D01*
G01*
X79950000Y-26050000D02*
G75*
G02*
X79650000Y-26050000I-150000J0D01*
G01*
X79650000Y-26050000D02*
G75*
G02*
X79950000Y-26050000I150000J0D01*
G01*
X39450000Y-50050000D02*
G75*
G02*
X39150000Y-50050000I-150000J0D01*
G01*
X39150000Y-50050000D02*
G75*
G02*
X39450000Y-50050000I150000J0D01*
G01*
X46950000Y-32050000D02*
G75*
G02*
X46650000Y-32050000I-150000J0D01*
G01*
X46650000Y-32050000D02*
G75*
G02*
X46950000Y-32050000I150000J0D01*
G01*
X78450000Y-26050000D02*
G75*
G02*
X78150000Y-26050000I-150000J0D01*
G01*
X78150000Y-26050000D02*
G75*
G02*
X78450000Y-26050000I150000J0D01*
G01*
X75450000Y-39550000D02*
G75*
G02*
X75150000Y-39550000I-150000J0D01*
G01*
X75150000Y-39550000D02*
G75*
G02*
X75450000Y-39550000I150000J0D01*
G01*
X64950000Y-45550000D02*
G75*
G02*
X64650000Y-45550000I-150000J0D01*
G01*
X64650000Y-45550000D02*
G75*
G02*
X64950000Y-45550000I150000J0D01*
G01*
X25950000Y-26050000D02*
G75*
G02*
X25650000Y-26050000I-150000J0D01*
G01*
X25650000Y-26050000D02*
G75*
G02*
X25950000Y-26050000I150000J0D01*
G01*
X66450000Y-48550000D02*
G75*
G02*
X66150000Y-48550000I-150000J0D01*
G01*
X66150000Y-48550000D02*
G75*
G02*
X66450000Y-48550000I150000J0D01*
G01*
X42450000Y-48550000D02*
G75*
G02*
X42150000Y-48550000I-150000J0D01*
G01*
X42150000Y-48550000D02*
G75*
G02*
X42450000Y-48550000I150000J0D01*
G01*
X25950000Y-36550000D02*
G75*
G02*
X25650000Y-36550000I-150000J0D01*
G01*
X25650000Y-36550000D02*
G75*
G02*
X25950000Y-36550000I150000J0D01*
G01*
X49950000Y-57550000D02*
G75*
G02*
X49650000Y-57550000I-150000J0D01*
G01*
X49650000Y-57550000D02*
G75*
G02*
X49950000Y-57550000I150000J0D01*
G01*
X69450000Y-51550000D02*
G75*
G02*
X69150000Y-51550000I-150000J0D01*
G01*
X69150000Y-51550000D02*
G75*
G02*
X69450000Y-51550000I150000J0D01*
G01*
X30450000Y-24550000D02*
G75*
G02*
X30150000Y-24550000I-150000J0D01*
G01*
X30150000Y-24550000D02*
G75*
G02*
X30450000Y-24550000I150000J0D01*
G01*
X75450000Y-54550000D02*
G75*
G02*
X75150000Y-54550000I-150000J0D01*
G01*
X75150000Y-54550000D02*
G75*
G02*
X75450000Y-54550000I150000J0D01*
G01*
X36450000Y-20050000D02*
G75*
G02*
X36150000Y-20050000I-150000J0D01*
G01*
X36150000Y-20050000D02*
G75*
G02*
X36450000Y-20050000I150000J0D01*
G01*
X67950000Y-18550000D02*
G75*
G02*
X67650000Y-18550000I-150000J0D01*
G01*
X67650000Y-18550000D02*
G75*
G02*
X67950000Y-18550000I150000J0D01*
G01*
X33450000Y-33550000D02*
G75*
G02*
X33150000Y-33550000I-150000J0D01*
G01*
X33150000Y-33550000D02*
G75*
G02*
X33450000Y-33550000I150000J0D01*
G01*
X85950000Y-18550000D02*
G75*
G02*
X85650000Y-18550000I-150000J0D01*
G01*
X85650000Y-18550000D02*
G75*
G02*
X85950000Y-18550000I150000J0D01*
G01*
X67950000Y-57550000D02*
G75*
G02*
X67650000Y-57550000I-150000J0D01*
G01*
X67650000Y-57550000D02*
G75*
G02*
X67950000Y-57550000I150000J0D01*
G01*
X79950000Y-29050000D02*
G75*
G02*
X79650000Y-29050000I-150000J0D01*
G01*
X79650000Y-29050000D02*
G75*
G02*
X79950000Y-29050000I150000J0D01*
G01*
X66450000Y-35050000D02*
G75*
G02*
X66150000Y-35050000I-150000J0D01*
G01*
X66150000Y-35050000D02*
G75*
G02*
X66450000Y-35050000I150000J0D01*
G01*
X54450000Y-54550000D02*
G75*
G02*
X54150000Y-54550000I-150000J0D01*
G01*
X54150000Y-54550000D02*
G75*
G02*
X54450000Y-54550000I150000J0D01*
G01*
X34950000Y-23050000D02*
G75*
G02*
X34650000Y-23050000I-150000J0D01*
G01*
X34650000Y-23050000D02*
G75*
G02*
X34950000Y-23050000I150000J0D01*
G01*
X48450000Y-32050000D02*
G75*
G02*
X48150000Y-32050000I-150000J0D01*
G01*
X48150000Y-32050000D02*
G75*
G02*
X48450000Y-32050000I150000J0D01*
G01*
X48450000Y-24550000D02*
G75*
G02*
X48150000Y-24550000I-150000J0D01*
G01*
X48150000Y-24550000D02*
G75*
G02*
X48450000Y-24550000I150000J0D01*
G01*
X27450000Y-32050000D02*
G75*
G02*
X27150000Y-32050000I-150000J0D01*
G01*
X27150000Y-32050000D02*
G75*
G02*
X27450000Y-32050000I150000J0D01*
G01*
X78450000Y-47050000D02*
G75*
G02*
X78150000Y-47050000I-150000J0D01*
G01*
X78150000Y-47050000D02*
G75*
G02*
X78450000Y-47050000I150000J0D01*
G01*
X27450000Y-18550000D02*
G75*
G02*
X27150000Y-18550000I-150000J0D01*
G01*
X27150000Y-18550000D02*
G75*
G02*
X27450000Y-18550000I150000J0D01*
G01*
X31950000Y-53050000D02*
G75*
G02*
X31650000Y-53050000I-150000J0D01*
G01*
X31650000Y-53050000D02*
G75*
G02*
X31950000Y-53050000I150000J0D01*
G01*
X72450000Y-33550000D02*
G75*
G02*
X72150000Y-33550000I-150000J0D01*
G01*
X72150000Y-33550000D02*
G75*
G02*
X72450000Y-33550000I150000J0D01*
G01*
X81450000Y-35050000D02*
G75*
G02*
X81150000Y-35050000I-150000J0D01*
G01*
X81150000Y-35050000D02*
G75*
G02*
X81450000Y-35050000I150000J0D01*
G01*
X42450000Y-30550000D02*
G75*
G02*
X42150000Y-30550000I-150000J0D01*
G01*
X42150000Y-30550000D02*
G75*
G02*
X42450000Y-30550000I150000J0D01*
G01*
X46950000Y-48550000D02*
G75*
G02*
X46650000Y-48550000I-150000J0D01*
G01*
X46650000Y-48550000D02*
G75*
G02*
X46950000Y-48550000I150000J0D01*
G01*
X81450000Y-20050000D02*
G75*
G02*
X81150000Y-20050000I-150000J0D01*
G01*
X81150000Y-20050000D02*
G75*
G02*
X81450000Y-20050000I150000J0D01*
G01*
X39450000Y-51550000D02*
G75*
G02*
X39150000Y-51550000I-150000J0D01*
G01*
X39150000Y-51550000D02*
G75*
G02*
X39450000Y-51550000I150000J0D01*
G01*
X75450000Y-57550000D02*
G75*
G02*
X75150000Y-57550000I-150000J0D01*
G01*
X75150000Y-57550000D02*
G75*
G02*
X75450000Y-57550000I150000J0D01*
G01*
X75450000Y-53050000D02*
G75*
G02*
X75150000Y-53050000I-150000J0D01*
G01*
X75150000Y-53050000D02*
G75*
G02*
X75450000Y-53050000I150000J0D01*
G01*
X63450000Y-56050000D02*
G75*
G02*
X63150000Y-56050000I-150000J0D01*
G01*
X63150000Y-56050000D02*
G75*
G02*
X63450000Y-56050000I150000J0D01*
G01*
X37950000Y-51550000D02*
G75*
G02*
X37650000Y-51550000I-150000J0D01*
G01*
X37650000Y-51550000D02*
G75*
G02*
X37950000Y-51550000I150000J0D01*
G01*
X37950000Y-45550000D02*
G75*
G02*
X37650000Y-45550000I-150000J0D01*
G01*
X37650000Y-45550000D02*
G75*
G02*
X37950000Y-45550000I150000J0D01*
G01*
X78450000Y-23050000D02*
G75*
G02*
X78150000Y-23050000I-150000J0D01*
G01*
X78150000Y-23050000D02*
G75*
G02*
X78450000Y-23050000I150000J0D01*
G01*
X72450000Y-20050000D02*
G75*
G02*
X72150000Y-20050000I-150000J0D01*
G01*
X72150000Y-20050000D02*
G75*
G02*
X72450000Y-20050000I150000J0D01*
G01*
X60450000Y-50050000D02*
G75*
G02*
X60150000Y-50050000I-150000J0D01*
G01*
X60150000Y-50050000D02*
G75*
G02*
X60450000Y-50050000I150000J0D01*
G01*
X58950000Y-51550000D02*
G75*
G02*
X58650000Y-51550000I-150000J0D01*
G01*
X58650000Y-51550000D02*
G75*
G02*
X58950000Y-51550000I150000J0D01*
G01*
X64950000Y-30550000D02*
G75*
G02*
X64650000Y-30550000I-150000J0D01*
G01*
X64650000Y-30550000D02*
G75*
G02*
X64950000Y-30550000I150000J0D01*
G01*
X72450000Y-36550000D02*
G75*
G02*
X72150000Y-36550000I-150000J0D01*
G01*
X72150000Y-36550000D02*
G75*
G02*
X72450000Y-36550000I150000J0D01*
G01*
X30450000Y-35050000D02*
G75*
G02*
X30150000Y-35050000I-150000J0D01*
G01*
X30150000Y-35050000D02*
G75*
G02*
X30450000Y-35050000I150000J0D01*
G01*
X85950000Y-41050000D02*
G75*
G02*
X85650000Y-41050000I-150000J0D01*
G01*
X85650000Y-41050000D02*
G75*
G02*
X85950000Y-41050000I150000J0D01*
G01*
X78450000Y-30550000D02*
G75*
G02*
X78150000Y-30550000I-150000J0D01*
G01*
X78150000Y-30550000D02*
G75*
G02*
X78450000Y-30550000I150000J0D01*
G01*
X73950000Y-24550000D02*
G75*
G02*
X73650000Y-24550000I-150000J0D01*
G01*
X73650000Y-24550000D02*
G75*
G02*
X73950000Y-24550000I150000J0D01*
G01*
X52950000Y-32050000D02*
G75*
G02*
X52650000Y-32050000I-150000J0D01*
G01*
X52650000Y-32050000D02*
G75*
G02*
X52950000Y-32050000I150000J0D01*
G01*
X75450000Y-38050000D02*
G75*
G02*
X75150000Y-38050000I-150000J0D01*
G01*
X75150000Y-38050000D02*
G75*
G02*
X75450000Y-38050000I150000J0D01*
G01*
X70950000Y-29050000D02*
G75*
G02*
X70650000Y-29050000I-150000J0D01*
G01*
X70650000Y-29050000D02*
G75*
G02*
X70950000Y-29050000I150000J0D01*
G01*
X40950000Y-36550000D02*
G75*
G02*
X40650000Y-36550000I-150000J0D01*
G01*
X40650000Y-36550000D02*
G75*
G02*
X40950000Y-36550000I150000J0D01*
G01*
X64950000Y-26050000D02*
G75*
G02*
X64650000Y-26050000I-150000J0D01*
G01*
X64650000Y-26050000D02*
G75*
G02*
X64950000Y-26050000I150000J0D01*
G01*
X42450000Y-26050000D02*
G75*
G02*
X42150000Y-26050000I-150000J0D01*
G01*
X42150000Y-26050000D02*
G75*
G02*
X42450000Y-26050000I150000J0D01*
G01*
X84450000Y-23050000D02*
G75*
G02*
X84150000Y-23050000I-150000J0D01*
G01*
X84150000Y-23050000D02*
G75*
G02*
X84450000Y-23050000I150000J0D01*
G01*
X31950000Y-39550000D02*
G75*
G02*
X31650000Y-39550000I-150000J0D01*
G01*
X31650000Y-39550000D02*
G75*
G02*
X31950000Y-39550000I150000J0D01*
G01*
X79950000Y-47050000D02*
G75*
G02*
X79650000Y-47050000I-150000J0D01*
G01*
X79650000Y-47050000D02*
G75*
G02*
X79950000Y-47050000I150000J0D01*
G01*
X61950000Y-53050000D02*
G75*
G02*
X61650000Y-53050000I-150000J0D01*
G01*
X61650000Y-53050000D02*
G75*
G02*
X61950000Y-53050000I150000J0D01*
G01*
X79950000Y-48550000D02*
G75*
G02*
X79650000Y-48550000I-150000J0D01*
G01*
X79650000Y-48550000D02*
G75*
G02*
X79950000Y-48550000I150000J0D01*
G01*
X33450000Y-50050000D02*
G75*
G02*
X33150000Y-50050000I-150000J0D01*
G01*
X33150000Y-50050000D02*
G75*
G02*
X33450000Y-50050000I150000J0D01*
G01*
X78450000Y-20050000D02*
G75*
G02*
X78150000Y-20050000I-150000J0D01*
G01*
X78150000Y-20050000D02*
G75*
G02*
X78450000Y-20050000I150000J0D01*
G01*
X73950000Y-20050000D02*
G75*
G02*
X73650000Y-20050000I-150000J0D01*
G01*
X73650000Y-20050000D02*
G75*
G02*
X73950000Y-20050000I150000J0D01*
G01*
X84450000Y-32050000D02*
G75*
G02*
X84150000Y-32050000I-150000J0D01*
G01*
X84150000Y-32050000D02*
G75*
G02*
X84450000Y-32050000I150000J0D01*
G01*
X36450000Y-51550000D02*
G75*
G02*
X36150000Y-51550000I-150000J0D01*
G01*
X36150000Y-51550000D02*
G75*
G02*
X36450000Y-51550000I150000J0D01*
G01*
X30450000Y-26050000D02*
G75*
G02*
X30150000Y-26050000I-150000J0D01*
G01*
X30150000Y-26050000D02*
G75*
G02*
X30450000Y-26050000I150000J0D01*
G01*
X45450000Y-30550000D02*
G75*
G02*
X45150000Y-30550000I-150000J0D01*
G01*
X45150000Y-30550000D02*
G75*
G02*
X45450000Y-30550000I150000J0D01*
G01*
X69450000Y-50050000D02*
G75*
G02*
X69150000Y-50050000I-150000J0D01*
G01*
X69150000Y-50050000D02*
G75*
G02*
X69450000Y-50050000I150000J0D01*
G01*
X40950000Y-30550000D02*
G75*
G02*
X40650000Y-30550000I-150000J0D01*
G01*
X40650000Y-30550000D02*
G75*
G02*
X40950000Y-30550000I150000J0D01*
G01*
X69450000Y-56050000D02*
G75*
G02*
X69150000Y-56050000I-150000J0D01*
G01*
X69150000Y-56050000D02*
G75*
G02*
X69450000Y-56050000I150000J0D01*
G01*
X52950000Y-33550000D02*
G75*
G02*
X52650000Y-33550000I-150000J0D01*
G01*
X52650000Y-33550000D02*
G75*
G02*
X52950000Y-33550000I150000J0D01*
G01*
X52950000Y-26050000D02*
G75*
G02*
X52650000Y-26050000I-150000J0D01*
G01*
X52650000Y-26050000D02*
G75*
G02*
X52950000Y-26050000I150000J0D01*
G01*
X63450000Y-41050000D02*
G75*
G02*
X63150000Y-41050000I-150000J0D01*
G01*
X63150000Y-41050000D02*
G75*
G02*
X63450000Y-41050000I150000J0D01*
G01*
X55950000Y-27550000D02*
G75*
G02*
X55650000Y-27550000I-150000J0D01*
G01*
X55650000Y-27550000D02*
G75*
G02*
X55950000Y-27550000I150000J0D01*
G01*
X33450000Y-23050000D02*
G75*
G02*
X33150000Y-23050000I-150000J0D01*
G01*
X33150000Y-23050000D02*
G75*
G02*
X33450000Y-23050000I150000J0D01*
G01*
X31950000Y-54550000D02*
G75*
G02*
X31650000Y-54550000I-150000J0D01*
G01*
X31650000Y-54550000D02*
G75*
G02*
X31950000Y-54550000I150000J0D01*
G01*
X85950000Y-24550000D02*
G75*
G02*
X85650000Y-24550000I-150000J0D01*
G01*
X85650000Y-24550000D02*
G75*
G02*
X85950000Y-24550000I150000J0D01*
G01*
X57450000Y-53050000D02*
G75*
G02*
X57150000Y-53050000I-150000J0D01*
G01*
X57150000Y-53050000D02*
G75*
G02*
X57450000Y-53050000I150000J0D01*
G01*
X42450000Y-24550000D02*
G75*
G02*
X42150000Y-24550000I-150000J0D01*
G01*
X42150000Y-24550000D02*
G75*
G02*
X42450000Y-24550000I150000J0D01*
G01*
X61950000Y-48550000D02*
G75*
G02*
X61650000Y-48550000I-150000J0D01*
G01*
X61650000Y-48550000D02*
G75*
G02*
X61950000Y-48550000I150000J0D01*
G01*
X37950000Y-47050000D02*
G75*
G02*
X37650000Y-47050000I-150000J0D01*
G01*
X37650000Y-47050000D02*
G75*
G02*
X37950000Y-47050000I150000J0D01*
G01*
X46950000Y-44050000D02*
G75*
G02*
X46650000Y-44050000I-150000J0D01*
G01*
X46650000Y-44050000D02*
G75*
G02*
X46950000Y-44050000I150000J0D01*
G01*
X55950000Y-38050000D02*
G75*
G02*
X55650000Y-38050000I-150000J0D01*
G01*
X55650000Y-38050000D02*
G75*
G02*
X55950000Y-38050000I150000J0D01*
G01*
X49950000Y-23050000D02*
G75*
G02*
X49650000Y-23050000I-150000J0D01*
G01*
X49650000Y-23050000D02*
G75*
G02*
X49950000Y-23050000I150000J0D01*
G01*
X30450000Y-39550000D02*
G75*
G02*
X30150000Y-39550000I-150000J0D01*
G01*
X30150000Y-39550000D02*
G75*
G02*
X30450000Y-39550000I150000J0D01*
G01*
X61950000Y-18550000D02*
G75*
G02*
X61650000Y-18550000I-150000J0D01*
G01*
X61650000Y-18550000D02*
G75*
G02*
X61950000Y-18550000I150000J0D01*
G01*
X58950000Y-47050000D02*
G75*
G02*
X58650000Y-47050000I-150000J0D01*
G01*
X58650000Y-47050000D02*
G75*
G02*
X58950000Y-47050000I150000J0D01*
G01*
X31950000Y-21550000D02*
G75*
G02*
X31650000Y-21550000I-150000J0D01*
G01*
X31650000Y-21550000D02*
G75*
G02*
X31950000Y-21550000I150000J0D01*
G01*
X84450000Y-35050000D02*
G75*
G02*
X84150000Y-35050000I-150000J0D01*
G01*
X84150000Y-35050000D02*
G75*
G02*
X84450000Y-35050000I150000J0D01*
G01*
X81450000Y-26050000D02*
G75*
G02*
X81150000Y-26050000I-150000J0D01*
G01*
X81150000Y-26050000D02*
G75*
G02*
X81450000Y-26050000I150000J0D01*
G01*
X30450000Y-27550000D02*
G75*
G02*
X30150000Y-27550000I-150000J0D01*
G01*
X30150000Y-27550000D02*
G75*
G02*
X30450000Y-27550000I150000J0D01*
G01*
X69450000Y-53050000D02*
G75*
G02*
X69150000Y-53050000I-150000J0D01*
G01*
X69150000Y-53050000D02*
G75*
G02*
X69450000Y-53050000I150000J0D01*
G01*
X64950000Y-39550000D02*
G75*
G02*
X64650000Y-39550000I-150000J0D01*
G01*
X64650000Y-39550000D02*
G75*
G02*
X64950000Y-39550000I150000J0D01*
G01*
X61950000Y-56050000D02*
G75*
G02*
X61650000Y-56050000I-150000J0D01*
G01*
X61650000Y-56050000D02*
G75*
G02*
X61950000Y-56050000I150000J0D01*
G01*
X60450000Y-30550000D02*
G75*
G02*
X60150000Y-30550000I-150000J0D01*
G01*
X60150000Y-30550000D02*
G75*
G02*
X60450000Y-30550000I150000J0D01*
G01*
X81450000Y-48550000D02*
G75*
G02*
X81150000Y-48550000I-150000J0D01*
G01*
X81150000Y-48550000D02*
G75*
G02*
X81450000Y-48550000I150000J0D01*
G01*
X24450000Y-56050000D02*
G75*
G02*
X24150000Y-56050000I-150000J0D01*
G01*
X24150000Y-56050000D02*
G75*
G02*
X24450000Y-56050000I150000J0D01*
G01*
X85950000Y-21550000D02*
G75*
G02*
X85650000Y-21550000I-150000J0D01*
G01*
X85650000Y-21550000D02*
G75*
G02*
X85950000Y-21550000I150000J0D01*
G01*
X48450000Y-33550000D02*
G75*
G02*
X48150000Y-33550000I-150000J0D01*
G01*
X48150000Y-33550000D02*
G75*
G02*
X48450000Y-33550000I150000J0D01*
G01*
X27450000Y-21550000D02*
G75*
G02*
X27150000Y-21550000I-150000J0D01*
G01*
X27150000Y-21550000D02*
G75*
G02*
X27450000Y-21550000I150000J0D01*
G01*
X43950000Y-33550000D02*
G75*
G02*
X43650000Y-33550000I-150000J0D01*
G01*
X43650000Y-33550000D02*
G75*
G02*
X43950000Y-33550000I150000J0D01*
G01*
X63450000Y-33550000D02*
G75*
G02*
X63150000Y-33550000I-150000J0D01*
G01*
X63150000Y-33550000D02*
G75*
G02*
X63450000Y-33550000I150000J0D01*
G01*
X79950000Y-51550000D02*
G75*
G02*
X79650000Y-51550000I-150000J0D01*
G01*
X79650000Y-51550000D02*
G75*
G02*
X79950000Y-51550000I150000J0D01*
G01*
X39450000Y-57550000D02*
G75*
G02*
X39150000Y-57550000I-150000J0D01*
G01*
X39150000Y-57550000D02*
G75*
G02*
X39450000Y-57550000I150000J0D01*
G01*
X82950000Y-27550000D02*
G75*
G02*
X82650000Y-27550000I-150000J0D01*
G01*
X82650000Y-27550000D02*
G75*
G02*
X82950000Y-27550000I150000J0D01*
G01*
X49950000Y-51550000D02*
G75*
G02*
X49650000Y-51550000I-150000J0D01*
G01*
X49650000Y-51550000D02*
G75*
G02*
X49950000Y-51550000I150000J0D01*
G01*
X72450000Y-51550000D02*
G75*
G02*
X72150000Y-51550000I-150000J0D01*
G01*
X72150000Y-51550000D02*
G75*
G02*
X72450000Y-51550000I150000J0D01*
G01*
X69450000Y-45550000D02*
G75*
G02*
X69150000Y-45550000I-150000J0D01*
G01*
X69150000Y-45550000D02*
G75*
G02*
X69450000Y-45550000I150000J0D01*
G01*
X43950000Y-27550000D02*
G75*
G02*
X43650000Y-27550000I-150000J0D01*
G01*
X43650000Y-27550000D02*
G75*
G02*
X43950000Y-27550000I150000J0D01*
G01*
X81450000Y-50050000D02*
G75*
G02*
X81150000Y-50050000I-150000J0D01*
G01*
X81150000Y-50050000D02*
G75*
G02*
X81450000Y-50050000I150000J0D01*
G01*
X51450000Y-38050000D02*
G75*
G02*
X51150000Y-38050000I-150000J0D01*
G01*
X51150000Y-38050000D02*
G75*
G02*
X51450000Y-38050000I150000J0D01*
G01*
X64950000Y-29050000D02*
G75*
G02*
X64650000Y-29050000I-150000J0D01*
G01*
X64650000Y-29050000D02*
G75*
G02*
X64950000Y-29050000I150000J0D01*
G01*
X45450000Y-41050000D02*
G75*
G02*
X45150000Y-41050000I-150000J0D01*
G01*
X45150000Y-41050000D02*
G75*
G02*
X45450000Y-41050000I150000J0D01*
G01*
X49950000Y-47050000D02*
G75*
G02*
X49650000Y-47050000I-150000J0D01*
G01*
X49650000Y-47050000D02*
G75*
G02*
X49950000Y-47050000I150000J0D01*
G01*
X51450000Y-42550000D02*
G75*
G02*
X51150000Y-42550000I-150000J0D01*
G01*
X51150000Y-42550000D02*
G75*
G02*
X51450000Y-42550000I150000J0D01*
G01*
X42450000Y-42550000D02*
G75*
G02*
X42150000Y-42550000I-150000J0D01*
G01*
X42150000Y-42550000D02*
G75*
G02*
X42450000Y-42550000I150000J0D01*
G01*
X58950000Y-50050000D02*
G75*
G02*
X58650000Y-50050000I-150000J0D01*
G01*
X58650000Y-50050000D02*
G75*
G02*
X58950000Y-50050000I150000J0D01*
G01*
X78450000Y-56050000D02*
G75*
G02*
X78150000Y-56050000I-150000J0D01*
G01*
X78150000Y-56050000D02*
G75*
G02*
X78450000Y-56050000I150000J0D01*
G01*
X33450000Y-32050000D02*
G75*
G02*
X33150000Y-32050000I-150000J0D01*
G01*
X33150000Y-32050000D02*
G75*
G02*
X33450000Y-32050000I150000J0D01*
G01*
X84450000Y-36550000D02*
G75*
G02*
X84150000Y-36550000I-150000J0D01*
G01*
X84150000Y-36550000D02*
G75*
G02*
X84450000Y-36550000I150000J0D01*
G01*
X28950000Y-50050000D02*
G75*
G02*
X28650000Y-50050000I-150000J0D01*
G01*
X28650000Y-50050000D02*
G75*
G02*
X28950000Y-50050000I150000J0D01*
G01*
X82950000Y-39550000D02*
G75*
G02*
X82650000Y-39550000I-150000J0D01*
G01*
X82650000Y-39550000D02*
G75*
G02*
X82950000Y-39550000I150000J0D01*
G01*
X52950000Y-56050000D02*
G75*
G02*
X52650000Y-56050000I-150000J0D01*
G01*
X52650000Y-56050000D02*
G75*
G02*
X52950000Y-56050000I150000J0D01*
G01*
X70950000Y-53050000D02*
G75*
G02*
X70650000Y-53050000I-150000J0D01*
G01*
X70650000Y-53050000D02*
G75*
G02*
X70950000Y-53050000I150000J0D01*
G01*
X24450000Y-21550000D02*
G75*
G02*
X24150000Y-21550000I-150000J0D01*
G01*
X24150000Y-21550000D02*
G75*
G02*
X24450000Y-21550000I150000J0D01*
G01*
X79950000Y-32050000D02*
G75*
G02*
X79650000Y-32050000I-150000J0D01*
G01*
X79650000Y-32050000D02*
G75*
G02*
X79950000Y-32050000I150000J0D01*
G01*
X45450000Y-47050000D02*
G75*
G02*
X45150000Y-47050000I-150000J0D01*
G01*
X45150000Y-47050000D02*
G75*
G02*
X45450000Y-47050000I150000J0D01*
G01*
X37950000Y-24550000D02*
G75*
G02*
X37650000Y-24550000I-150000J0D01*
G01*
X37650000Y-24550000D02*
G75*
G02*
X37950000Y-24550000I150000J0D01*
G01*
X52950000Y-51550000D02*
G75*
G02*
X52650000Y-51550000I-150000J0D01*
G01*
X52650000Y-51550000D02*
G75*
G02*
X52950000Y-51550000I150000J0D01*
G01*
X57450000Y-21550000D02*
G75*
G02*
X57150000Y-21550000I-150000J0D01*
G01*
X57150000Y-21550000D02*
G75*
G02*
X57450000Y-21550000I150000J0D01*
G01*
X36450000Y-38050000D02*
G75*
G02*
X36150000Y-38050000I-150000J0D01*
G01*
X36150000Y-38050000D02*
G75*
G02*
X36450000Y-38050000I150000J0D01*
G01*
X66850000Y-38520000D02*
X66850000Y-37580000D01*
X78450000Y-51550000D02*
G75*
G02*
X78150000Y-51550000I-150000J0D01*
G01*
X78150000Y-51550000D02*
G75*
G02*
X78450000Y-51550000I150000J0D01*
G01*
X52950000Y-39550000D02*
G75*
G02*
X52650000Y-39550000I-150000J0D01*
G01*
X52650000Y-39550000D02*
G75*
G02*
X52950000Y-39550000I150000J0D01*
G01*
X75450000Y-51550000D02*
G75*
G02*
X75150000Y-51550000I-150000J0D01*
G01*
X75150000Y-51550000D02*
G75*
G02*
X75450000Y-51550000I150000J0D01*
G01*
X28950000Y-24550000D02*
G75*
G02*
X28650000Y-24550000I-150000J0D01*
G01*
X28650000Y-24550000D02*
G75*
G02*
X28950000Y-24550000I150000J0D01*
G01*
X78450000Y-57550000D02*
G75*
G02*
X78150000Y-57550000I-150000J0D01*
G01*
X78150000Y-57550000D02*
G75*
G02*
X78450000Y-57550000I150000J0D01*
G01*
X63450000Y-50050000D02*
G75*
G02*
X63150000Y-50050000I-150000J0D01*
G01*
X63150000Y-50050000D02*
G75*
G02*
X63450000Y-50050000I150000J0D01*
G01*
X67950000Y-50050000D02*
G75*
G02*
X67650000Y-50050000I-150000J0D01*
G01*
X67650000Y-50050000D02*
G75*
G02*
X67950000Y-50050000I150000J0D01*
G01*
X40950000Y-53050000D02*
G75*
G02*
X40650000Y-53050000I-150000J0D01*
G01*
X40650000Y-53050000D02*
G75*
G02*
X40950000Y-53050000I150000J0D01*
G01*
X43950000Y-53050000D02*
G75*
G02*
X43650000Y-53050000I-150000J0D01*
G01*
X43650000Y-53050000D02*
G75*
G02*
X43950000Y-53050000I150000J0D01*
G01*
X76950000Y-53050000D02*
G75*
G02*
X76650000Y-53050000I-150000J0D01*
G01*
X76650000Y-53050000D02*
G75*
G02*
X76950000Y-53050000I150000J0D01*
G01*
X84450000Y-51550000D02*
G75*
G02*
X84150000Y-51550000I-150000J0D01*
G01*
X84150000Y-51550000D02*
G75*
G02*
X84450000Y-51550000I150000J0D01*
G01*
X42450000Y-35050000D02*
G75*
G02*
X42150000Y-35050000I-150000J0D01*
G01*
X42150000Y-35050000D02*
G75*
G02*
X42450000Y-35050000I150000J0D01*
G01*
X30450000Y-38050000D02*
G75*
G02*
X30150000Y-38050000I-150000J0D01*
G01*
X30150000Y-38050000D02*
G75*
G02*
X30450000Y-38050000I150000J0D01*
G01*
X36450000Y-30550000D02*
G75*
G02*
X36150000Y-30550000I-150000J0D01*
G01*
X36150000Y-30550000D02*
G75*
G02*
X36450000Y-30550000I150000J0D01*
G01*
X49950000Y-44050000D02*
G75*
G02*
X49650000Y-44050000I-150000J0D01*
G01*
X49650000Y-44050000D02*
G75*
G02*
X49950000Y-44050000I150000J0D01*
G01*
X37950000Y-32050000D02*
G75*
G02*
X37650000Y-32050000I-150000J0D01*
G01*
X37650000Y-32050000D02*
G75*
G02*
X37950000Y-32050000I150000J0D01*
G01*
X82950000Y-29050000D02*
G75*
G02*
X82650000Y-29050000I-150000J0D01*
G01*
X82650000Y-29050000D02*
G75*
G02*
X82950000Y-29050000I150000J0D01*
G01*
X64950000Y-36550000D02*
G75*
G02*
X64650000Y-36550000I-150000J0D01*
G01*
X64650000Y-36550000D02*
G75*
G02*
X64950000Y-36550000I150000J0D01*
G01*
X76950000Y-27550000D02*
G75*
G02*
X76650000Y-27550000I-150000J0D01*
G01*
X76650000Y-27550000D02*
G75*
G02*
X76950000Y-27550000I150000J0D01*
G01*
X43950000Y-54550000D02*
G75*
G02*
X43650000Y-54550000I-150000J0D01*
G01*
X43650000Y-54550000D02*
G75*
G02*
X43950000Y-54550000I150000J0D01*
G01*
X63450000Y-24550000D02*
G75*
G02*
X63150000Y-24550000I-150000J0D01*
G01*
X63150000Y-24550000D02*
G75*
G02*
X63450000Y-24550000I150000J0D01*
G01*
X73950000Y-41050000D02*
G75*
G02*
X73650000Y-41050000I-150000J0D01*
G01*
X73650000Y-41050000D02*
G75*
G02*
X73950000Y-41050000I150000J0D01*
G01*
X31950000Y-56050000D02*
G75*
G02*
X31650000Y-56050000I-150000J0D01*
G01*
X31650000Y-56050000D02*
G75*
G02*
X31950000Y-56050000I150000J0D01*
G01*
X82950000Y-30550000D02*
G75*
G02*
X82650000Y-30550000I-150000J0D01*
G01*
X82650000Y-30550000D02*
G75*
G02*
X82950000Y-30550000I150000J0D01*
G01*
X64330000Y-38600000D02*
X66770000Y-38600000D01*
X69450000Y-32050000D02*
G75*
G02*
X69150000Y-32050000I-150000J0D01*
G01*
X69150000Y-32050000D02*
G75*
G02*
X69450000Y-32050000I150000J0D01*
G01*
X73950000Y-39550000D02*
G75*
G02*
X73650000Y-39550000I-150000J0D01*
G01*
X73650000Y-39550000D02*
G75*
G02*
X73950000Y-39550000I150000J0D01*
G01*
X76950000Y-47050000D02*
G75*
G02*
X76650000Y-47050000I-150000J0D01*
G01*
X76650000Y-47050000D02*
G75*
G02*
X76950000Y-47050000I150000J0D01*
G01*
X63450000Y-27550000D02*
G75*
G02*
X63150000Y-27550000I-150000J0D01*
G01*
X63150000Y-27550000D02*
G75*
G02*
X63450000Y-27550000I150000J0D01*
G01*
X70950000Y-30550000D02*
G75*
G02*
X70650000Y-30550000I-150000J0D01*
G01*
X70650000Y-30550000D02*
G75*
G02*
X70950000Y-30550000I150000J0D01*
G01*
X82950000Y-21550000D02*
G75*
G02*
X82650000Y-21550000I-150000J0D01*
G01*
X82650000Y-21550000D02*
G75*
G02*
X82950000Y-21550000I150000J0D01*
G01*
X69450000Y-41050000D02*
G75*
G02*
X69150000Y-41050000I-150000J0D01*
G01*
X69150000Y-41050000D02*
G75*
G02*
X69450000Y-41050000I150000J0D01*
G01*
X37950000Y-50050000D02*
G75*
G02*
X37650000Y-50050000I-150000J0D01*
G01*
X37650000Y-50050000D02*
G75*
G02*
X37950000Y-50050000I150000J0D01*
G01*
X33450000Y-20050000D02*
G75*
G02*
X33150000Y-20050000I-150000J0D01*
G01*
X33150000Y-20050000D02*
G75*
G02*
X33450000Y-20050000I150000J0D01*
G01*
X58950000Y-20050000D02*
G75*
G02*
X58650000Y-20050000I-150000J0D01*
G01*
X58650000Y-20050000D02*
G75*
G02*
X58950000Y-20050000I150000J0D01*
G01*
X48450000Y-41050000D02*
G75*
G02*
X48150000Y-41050000I-150000J0D01*
G01*
X48150000Y-41050000D02*
G75*
G02*
X48450000Y-41050000I150000J0D01*
G01*
X70950000Y-44050000D02*
G75*
G02*
X70650000Y-44050000I-150000J0D01*
G01*
X70650000Y-44050000D02*
G75*
G02*
X70950000Y-44050000I150000J0D01*
G01*
X30450000Y-45550000D02*
G75*
G02*
X30150000Y-45550000I-150000J0D01*
G01*
X30150000Y-45550000D02*
G75*
G02*
X30450000Y-45550000I150000J0D01*
G01*
X72450000Y-48550000D02*
G75*
G02*
X72150000Y-48550000I-150000J0D01*
G01*
X72150000Y-48550000D02*
G75*
G02*
X72450000Y-48550000I150000J0D01*
G01*
X51450000Y-21550000D02*
G75*
G02*
X51150000Y-21550000I-150000J0D01*
G01*
X51150000Y-21550000D02*
G75*
G02*
X51450000Y-21550000I150000J0D01*
G01*
X75450000Y-56050000D02*
G75*
G02*
X75150000Y-56050000I-150000J0D01*
G01*
X75150000Y-56050000D02*
G75*
G02*
X75450000Y-56050000I150000J0D01*
G01*
X84450000Y-18550000D02*
G75*
G02*
X84150000Y-18550000I-150000J0D01*
G01*
X84150000Y-18550000D02*
G75*
G02*
X84450000Y-18550000I150000J0D01*
G01*
X55950000Y-54550000D02*
G75*
G02*
X55650000Y-54550000I-150000J0D01*
G01*
X55650000Y-54550000D02*
G75*
G02*
X55950000Y-54550000I150000J0D01*
G01*
X34950000Y-26050000D02*
G75*
G02*
X34650000Y-26050000I-150000J0D01*
G01*
X34650000Y-26050000D02*
G75*
G02*
X34950000Y-26050000I150000J0D01*
G01*
X70950000Y-39550000D02*
G75*
G02*
X70650000Y-39550000I-150000J0D01*
G01*
X70650000Y-39550000D02*
G75*
G02*
X70950000Y-39550000I150000J0D01*
G01*
X84450000Y-56050000D02*
G75*
G02*
X84150000Y-56050000I-150000J0D01*
G01*
X84150000Y-56050000D02*
G75*
G02*
X84450000Y-56050000I150000J0D01*
G01*
X63450000Y-20050000D02*
G75*
G02*
X63150000Y-20050000I-150000J0D01*
G01*
X63150000Y-20050000D02*
G75*
G02*
X63450000Y-20050000I150000J0D01*
G01*
X30450000Y-36550000D02*
G75*
G02*
X30150000Y-36550000I-150000J0D01*
G01*
X30150000Y-36550000D02*
G75*
G02*
X30450000Y-36550000I150000J0D01*
G01*
X40950000Y-24550000D02*
G75*
G02*
X40650000Y-24550000I-150000J0D01*
G01*
X40650000Y-24550000D02*
G75*
G02*
X40950000Y-24550000I150000J0D01*
G01*
X79950000Y-45550000D02*
G75*
G02*
X79650000Y-45550000I-150000J0D01*
G01*
X79650000Y-45550000D02*
G75*
G02*
X79950000Y-45550000I150000J0D01*
G01*
X82950000Y-20050000D02*
G75*
G02*
X82650000Y-20050000I-150000J0D01*
G01*
X82650000Y-20050000D02*
G75*
G02*
X82950000Y-20050000I150000J0D01*
G01*
X72450000Y-41050000D02*
G75*
G02*
X72150000Y-41050000I-150000J0D01*
G01*
X72150000Y-41050000D02*
G75*
G02*
X72450000Y-41050000I150000J0D01*
G01*
X33450000Y-18550000D02*
G75*
G02*
X33150000Y-18550000I-150000J0D01*
G01*
X33150000Y-18550000D02*
G75*
G02*
X33450000Y-18550000I150000J0D01*
G01*
X27450000Y-24550000D02*
G75*
G02*
X27150000Y-24550000I-150000J0D01*
G01*
X27150000Y-24550000D02*
G75*
G02*
X27450000Y-24550000I150000J0D01*
G01*
X31950000Y-50050000D02*
G75*
G02*
X31650000Y-50050000I-150000J0D01*
G01*
X31650000Y-50050000D02*
G75*
G02*
X31950000Y-50050000I150000J0D01*
G01*
X63450000Y-54550000D02*
G75*
G02*
X63150000Y-54550000I-150000J0D01*
G01*
X63150000Y-54550000D02*
G75*
G02*
X63450000Y-54550000I150000J0D01*
G01*
X27450000Y-29050000D02*
G75*
G02*
X27150000Y-29050000I-150000J0D01*
G01*
X27150000Y-29050000D02*
G75*
G02*
X27450000Y-29050000I150000J0D01*
G01*
X75450000Y-27550000D02*
G75*
G02*
X75150000Y-27550000I-150000J0D01*
G01*
X75150000Y-27550000D02*
G75*
G02*
X75450000Y-27550000I150000J0D01*
G01*
X85950000Y-23050000D02*
G75*
G02*
X85650000Y-23050000I-150000J0D01*
G01*
X85650000Y-23050000D02*
G75*
G02*
X85950000Y-23050000I150000J0D01*
G01*
X81450000Y-51550000D02*
G75*
G02*
X81150000Y-51550000I-150000J0D01*
G01*
X81150000Y-51550000D02*
G75*
G02*
X81450000Y-51550000I150000J0D01*
G01*
X84450000Y-45550000D02*
G75*
G02*
X84150000Y-45550000I-150000J0D01*
G01*
X84150000Y-45550000D02*
G75*
G02*
X84450000Y-45550000I150000J0D01*
G01*
X72450000Y-35050000D02*
G75*
G02*
X72150000Y-35050000I-150000J0D01*
G01*
X72150000Y-35050000D02*
G75*
G02*
X72450000Y-35050000I150000J0D01*
G01*
X76950000Y-44050000D02*
G75*
G02*
X76650000Y-44050000I-150000J0D01*
G01*
X76650000Y-44050000D02*
G75*
G02*
X76950000Y-44050000I150000J0D01*
G01*
X47025000Y-53050000D02*
G75*
G02*
X46575000Y-53050000I-225000J0D01*
G01*
X46575000Y-53050000D02*
G75*
G02*
X47025000Y-53050000I225000J0D01*
G01*
X36450000Y-47050000D02*
G75*
G02*
X36150000Y-47050000I-150000J0D01*
G01*
X36150000Y-47050000D02*
G75*
G02*
X36450000Y-47050000I150000J0D01*
G01*
X31950000Y-48550000D02*
G75*
G02*
X31650000Y-48550000I-150000J0D01*
G01*
X31650000Y-48550000D02*
G75*
G02*
X31950000Y-48550000I150000J0D01*
G01*
X55950000Y-39550000D02*
G75*
G02*
X55650000Y-39550000I-150000J0D01*
G01*
X55650000Y-39550000D02*
G75*
G02*
X55950000Y-39550000I150000J0D01*
G01*
X66450000Y-44050000D02*
G75*
G02*
X66150000Y-44050000I-150000J0D01*
G01*
X66150000Y-44050000D02*
G75*
G02*
X66450000Y-44050000I150000J0D01*
G01*
X40950000Y-35050000D02*
G75*
G02*
X40650000Y-35050000I-150000J0D01*
G01*
X40650000Y-35050000D02*
G75*
G02*
X40950000Y-35050000I150000J0D01*
G01*
X39450000Y-18550000D02*
G75*
G02*
X39150000Y-18550000I-150000J0D01*
G01*
X39150000Y-18550000D02*
G75*
G02*
X39450000Y-18550000I150000J0D01*
G01*
X61950000Y-41050000D02*
G75*
G02*
X61650000Y-41050000I-150000J0D01*
G01*
X61650000Y-41050000D02*
G75*
G02*
X61950000Y-41050000I150000J0D01*
G01*
X88350000Y-18150000D02*
G75*
G02*
X88450000Y-18250000I0J-100000D01*
G01*
X46950000Y-29050000D02*
G75*
G02*
X46650000Y-29050000I-150000J0D01*
G01*
X46650000Y-29050000D02*
G75*
G02*
X46950000Y-29050000I150000J0D01*
G01*
X24450000Y-57550000D02*
G75*
G02*
X24150000Y-57550000I-150000J0D01*
G01*
X24150000Y-57550000D02*
G75*
G02*
X24450000Y-57550000I150000J0D01*
G01*
X57450000Y-44050000D02*
G75*
G02*
X57150000Y-44050000I-150000J0D01*
G01*
X57150000Y-44050000D02*
G75*
G02*
X57450000Y-44050000I150000J0D01*
G01*
X46950000Y-41050000D02*
G75*
G02*
X46650000Y-41050000I-150000J0D01*
G01*
X46650000Y-41050000D02*
G75*
G02*
X46950000Y-41050000I150000J0D01*
G01*
X24450000Y-47050000D02*
G75*
G02*
X24150000Y-47050000I-150000J0D01*
G01*
X24150000Y-47050000D02*
G75*
G02*
X24450000Y-47050000I150000J0D01*
G01*
X46950000Y-21550000D02*
G75*
G02*
X46650000Y-21550000I-150000J0D01*
G01*
X46650000Y-21550000D02*
G75*
G02*
X46950000Y-21550000I150000J0D01*
G01*
X63525000Y-23050000D02*
G75*
G02*
X63075000Y-23050000I-225000J0D01*
G01*
X63075000Y-23050000D02*
G75*
G02*
X63525000Y-23050000I225000J0D01*
G01*
X70950000Y-38050000D02*
G75*
G02*
X70650000Y-38050000I-150000J0D01*
G01*
X70650000Y-38050000D02*
G75*
G02*
X70950000Y-38050000I150000J0D01*
G01*
X33450000Y-29050000D02*
G75*
G02*
X33150000Y-29050000I-150000J0D01*
G01*
X33150000Y-29050000D02*
G75*
G02*
X33450000Y-29050000I150000J0D01*
G01*
X73950000Y-38050000D02*
G75*
G02*
X73650000Y-38050000I-150000J0D01*
G01*
X73650000Y-38050000D02*
G75*
G02*
X73950000Y-38050000I150000J0D01*
G01*
X52950000Y-24550000D02*
G75*
G02*
X52650000Y-24550000I-150000J0D01*
G01*
X52650000Y-24550000D02*
G75*
G02*
X52950000Y-24550000I150000J0D01*
G01*
X46950000Y-57550000D02*
G75*
G02*
X46650000Y-57550000I-150000J0D01*
G01*
X46650000Y-57550000D02*
G75*
G02*
X46950000Y-57550000I150000J0D01*
G01*
X76950000Y-35050000D02*
G75*
G02*
X76650000Y-35050000I-150000J0D01*
G01*
X76650000Y-35050000D02*
G75*
G02*
X76950000Y-35050000I150000J0D01*
G01*
X55950000Y-45550000D02*
G75*
G02*
X55650000Y-45550000I-150000J0D01*
G01*
X55650000Y-45550000D02*
G75*
G02*
X55950000Y-45550000I150000J0D01*
G01*
X27450000Y-57550000D02*
G75*
G02*
X27150000Y-57550000I-150000J0D01*
G01*
X27150000Y-57550000D02*
G75*
G02*
X27450000Y-57550000I150000J0D01*
G01*
X78450000Y-18550000D02*
G75*
G02*
X78150000Y-18550000I-150000J0D01*
G01*
X78150000Y-18550000D02*
G75*
G02*
X78450000Y-18550000I150000J0D01*
G01*
X37950000Y-27550000D02*
G75*
G02*
X37650000Y-27550000I-150000J0D01*
G01*
X37650000Y-27550000D02*
G75*
G02*
X37950000Y-27550000I150000J0D01*
G01*
X73950000Y-21550000D02*
G75*
G02*
X73650000Y-21550000I-150000J0D01*
G01*
X73650000Y-21550000D02*
G75*
G02*
X73950000Y-21550000I150000J0D01*
G01*
X81525000Y-23050000D02*
G75*
G02*
X81075000Y-23050000I-225000J0D01*
G01*
X81075000Y-23050000D02*
G75*
G02*
X81525000Y-23050000I225000J0D01*
G01*
X57450000Y-39550000D02*
G75*
G02*
X57150000Y-39550000I-150000J0D01*
G01*
X57150000Y-39550000D02*
G75*
G02*
X57450000Y-39550000I150000J0D01*
G01*
X49950000Y-38050000D02*
G75*
G02*
X49650000Y-38050000I-150000J0D01*
G01*
X49650000Y-38050000D02*
G75*
G02*
X49950000Y-38050000I150000J0D01*
G01*
X73950000Y-48550000D02*
G75*
G02*
X73650000Y-48550000I-150000J0D01*
G01*
X73650000Y-48550000D02*
G75*
G02*
X73950000Y-48550000I150000J0D01*
G01*
X82950000Y-47050000D02*
G75*
G02*
X82650000Y-47050000I-150000J0D01*
G01*
X82650000Y-47050000D02*
G75*
G02*
X82950000Y-47050000I150000J0D01*
G01*
X39450000Y-27550000D02*
G75*
G02*
X39150000Y-27550000I-150000J0D01*
G01*
X39150000Y-27550000D02*
G75*
G02*
X39450000Y-27550000I150000J0D01*
G01*
X27450000Y-44050000D02*
G75*
G02*
X27150000Y-44050000I-150000J0D01*
G01*
X27150000Y-44050000D02*
G75*
G02*
X27450000Y-44050000I150000J0D01*
G01*
X54450000Y-23050000D02*
G75*
G02*
X54150000Y-23050000I-150000J0D01*
G01*
X54150000Y-23050000D02*
G75*
G02*
X54450000Y-23050000I150000J0D01*
G01*
X39450000Y-29050000D02*
G75*
G02*
X39150000Y-29050000I-150000J0D01*
G01*
X39150000Y-29050000D02*
G75*
G02*
X39450000Y-29050000I150000J0D01*
G01*
X48450000Y-45550000D02*
G75*
G02*
X48150000Y-45550000I-150000J0D01*
G01*
X48150000Y-45550000D02*
G75*
G02*
X48450000Y-45550000I150000J0D01*
G01*
X67950000Y-30550000D02*
G75*
G02*
X67650000Y-30550000I-150000J0D01*
G01*
X67650000Y-30550000D02*
G75*
G02*
X67950000Y-30550000I150000J0D01*
G01*
X76950000Y-32050000D02*
G75*
G02*
X76650000Y-32050000I-150000J0D01*
G01*
X76650000Y-32050000D02*
G75*
G02*
X76950000Y-32050000I150000J0D01*
G01*
X31950000Y-29050000D02*
G75*
G02*
X31650000Y-29050000I-150000J0D01*
G01*
X31650000Y-29050000D02*
G75*
G02*
X31950000Y-29050000I150000J0D01*
G01*
X24450000Y-51550000D02*
G75*
G02*
X24150000Y-51550000I-150000J0D01*
G01*
X24150000Y-51550000D02*
G75*
G02*
X24450000Y-51550000I150000J0D01*
G01*
X66450000Y-54550000D02*
G75*
G02*
X66150000Y-54550000I-150000J0D01*
G01*
X66150000Y-54550000D02*
G75*
G02*
X66450000Y-54550000I150000J0D01*
G01*
X64950000Y-23050000D02*
G75*
G02*
X64650000Y-23050000I-150000J0D01*
G01*
X64650000Y-23050000D02*
G75*
G02*
X64950000Y-23050000I150000J0D01*
G01*
X73950000Y-36550000D02*
G75*
G02*
X73650000Y-36550000I-150000J0D01*
G01*
X73650000Y-36550000D02*
G75*
G02*
X73950000Y-36550000I150000J0D01*
G01*
X57450000Y-38050000D02*
G75*
G02*
X57150000Y-38050000I-150000J0D01*
G01*
X57150000Y-38050000D02*
G75*
G02*
X57450000Y-38050000I150000J0D01*
G01*
X25950000Y-35050000D02*
G75*
G02*
X25650000Y-35050000I-150000J0D01*
G01*
X25650000Y-35050000D02*
G75*
G02*
X25950000Y-35050000I150000J0D01*
G01*
X39450000Y-56050000D02*
G75*
G02*
X39150000Y-56050000I-150000J0D01*
G01*
X39150000Y-56050000D02*
G75*
G02*
X39450000Y-56050000I150000J0D01*
G01*
X73950000Y-50050000D02*
G75*
G02*
X73650000Y-50050000I-150000J0D01*
G01*
X73650000Y-50050000D02*
G75*
G02*
X73950000Y-50050000I150000J0D01*
G01*
X45450000Y-33550000D02*
G75*
G02*
X45150000Y-33550000I-150000J0D01*
G01*
X45150000Y-33550000D02*
G75*
G02*
X45450000Y-33550000I150000J0D01*
G01*
X42450000Y-41050000D02*
G75*
G02*
X42150000Y-41050000I-150000J0D01*
G01*
X42150000Y-41050000D02*
G75*
G02*
X42450000Y-41050000I150000J0D01*
G01*
X81450000Y-18550000D02*
G75*
G02*
X81150000Y-18550000I-150000J0D01*
G01*
X81150000Y-18550000D02*
G75*
G02*
X81450000Y-18550000I150000J0D01*
G01*
X28950000Y-35050000D02*
G75*
G02*
X28650000Y-35050000I-150000J0D01*
G01*
X28650000Y-35050000D02*
G75*
G02*
X28950000Y-35050000I150000J0D01*
G01*
X51450000Y-45550000D02*
G75*
G02*
X51150000Y-45550000I-150000J0D01*
G01*
X51150000Y-45550000D02*
G75*
G02*
X51450000Y-45550000I150000J0D01*
G01*
X58950000Y-18550000D02*
G75*
G02*
X58650000Y-18550000I-150000J0D01*
G01*
X58650000Y-18550000D02*
G75*
G02*
X58950000Y-18550000I150000J0D01*
G01*
X46950000Y-18550000D02*
G75*
G02*
X46650000Y-18550000I-150000J0D01*
G01*
X46650000Y-18550000D02*
G75*
G02*
X46950000Y-18550000I150000J0D01*
G01*
X61950000Y-32050000D02*
G75*
G02*
X61650000Y-32050000I-150000J0D01*
G01*
X61650000Y-32050000D02*
G75*
G02*
X61950000Y-32050000I150000J0D01*
G01*
X76950000Y-24550000D02*
G75*
G02*
X76650000Y-24550000I-150000J0D01*
G01*
X76650000Y-24550000D02*
G75*
G02*
X76950000Y-24550000I150000J0D01*
G01*
X60450000Y-29050000D02*
G75*
G02*
X60150000Y-29050000I-150000J0D01*
G01*
X60150000Y-29050000D02*
G75*
G02*
X60450000Y-29050000I150000J0D01*
G01*
X46950000Y-27550000D02*
G75*
G02*
X46650000Y-27550000I-150000J0D01*
G01*
X46650000Y-27550000D02*
G75*
G02*
X46950000Y-27550000I150000J0D01*
G01*
X30450000Y-47050000D02*
G75*
G02*
X30150000Y-47050000I-150000J0D01*
G01*
X30150000Y-47050000D02*
G75*
G02*
X30450000Y-47050000I150000J0D01*
G01*
X85950000Y-47050000D02*
G75*
G02*
X85650000Y-47050000I-150000J0D01*
G01*
X85650000Y-47050000D02*
G75*
G02*
X85950000Y-47050000I150000J0D01*
G01*
X48450000Y-35050000D02*
G75*
G02*
X48150000Y-35050000I-150000J0D01*
G01*
X48150000Y-35050000D02*
G75*
G02*
X48450000Y-35050000I150000J0D01*
G01*
X24450000Y-50050000D02*
G75*
G02*
X24150000Y-50050000I-150000J0D01*
G01*
X24150000Y-50050000D02*
G75*
G02*
X24450000Y-50050000I150000J0D01*
G01*
X51450000Y-32050000D02*
G75*
G02*
X51150000Y-32050000I-150000J0D01*
G01*
X51150000Y-32050000D02*
G75*
G02*
X51450000Y-32050000I150000J0D01*
G01*
X28950000Y-18550000D02*
G75*
G02*
X28650000Y-18550000I-150000J0D01*
G01*
X28650000Y-18550000D02*
G75*
G02*
X28950000Y-18550000I150000J0D01*
G01*
X55950000Y-20050000D02*
G75*
G02*
X55650000Y-20050000I-150000J0D01*
G01*
X55650000Y-20050000D02*
G75*
G02*
X55950000Y-20050000I150000J0D01*
G01*
X34950000Y-24550000D02*
G75*
G02*
X34650000Y-24550000I-150000J0D01*
G01*
X34650000Y-24550000D02*
G75*
G02*
X34950000Y-24550000I150000J0D01*
G01*
X27450000Y-56050000D02*
G75*
G02*
X27150000Y-56050000I-150000J0D01*
G01*
X27150000Y-56050000D02*
G75*
G02*
X27450000Y-56050000I150000J0D01*
G01*
X51450000Y-44050000D02*
G75*
G02*
X51150000Y-44050000I-150000J0D01*
G01*
X51150000Y-44050000D02*
G75*
G02*
X51450000Y-44050000I150000J0D01*
G01*
X33450000Y-42550000D02*
G75*
G02*
X33150000Y-42550000I-150000J0D01*
G01*
X33150000Y-42550000D02*
G75*
G02*
X33450000Y-42550000I150000J0D01*
G01*
X27450000Y-47050000D02*
G75*
G02*
X27150000Y-47050000I-150000J0D01*
G01*
X27150000Y-47050000D02*
G75*
G02*
X27450000Y-47050000I150000J0D01*
G01*
X76950000Y-48550000D02*
G75*
G02*
X76650000Y-48550000I-150000J0D01*
G01*
X76650000Y-48550000D02*
G75*
G02*
X76950000Y-48550000I150000J0D01*
G01*
X67950000Y-23050000D02*
G75*
G02*
X67650000Y-23050000I-150000J0D01*
G01*
X67650000Y-23050000D02*
G75*
G02*
X67950000Y-23050000I150000J0D01*
G01*
X78450000Y-36550000D02*
G75*
G02*
X78150000Y-36550000I-150000J0D01*
G01*
X78150000Y-36550000D02*
G75*
G02*
X78450000Y-36550000I150000J0D01*
G01*
X88450000Y-57850000D02*
G75*
G02*
X88350000Y-57950000I-100000J0D01*
G01*
X58950000Y-32050000D02*
G75*
G02*
X58650000Y-32050000I-150000J0D01*
G01*
X58650000Y-32050000D02*
G75*
G02*
X58950000Y-32050000I150000J0D01*
G01*
X79950000Y-23050000D02*
G75*
G02*
X79650000Y-23050000I-150000J0D01*
G01*
X79650000Y-23050000D02*
G75*
G02*
X79950000Y-23050000I150000J0D01*
G01*
X48450000Y-26050000D02*
G75*
G02*
X48150000Y-26050000I-150000J0D01*
G01*
X48150000Y-26050000D02*
G75*
G02*
X48450000Y-26050000I150000J0D01*
G01*
X45450000Y-21550000D02*
G75*
G02*
X45150000Y-21550000I-150000J0D01*
G01*
X45150000Y-21550000D02*
G75*
G02*
X45450000Y-21550000I150000J0D01*
G01*
X49950000Y-36550000D02*
G75*
G02*
X49650000Y-36550000I-150000J0D01*
G01*
X49650000Y-36550000D02*
G75*
G02*
X49950000Y-36550000I150000J0D01*
G01*
X24450000Y-42550000D02*
G75*
G02*
X24150000Y-42550000I-150000J0D01*
G01*
X24150000Y-42550000D02*
G75*
G02*
X24450000Y-42550000I150000J0D01*
G01*
X48450000Y-53050000D02*
G75*
G02*
X48150000Y-53050000I-150000J0D01*
G01*
X48150000Y-53050000D02*
G75*
G02*
X48450000Y-53050000I150000J0D01*
G01*
X82950000Y-41050000D02*
G75*
G02*
X82650000Y-41050000I-150000J0D01*
G01*
X82650000Y-41050000D02*
G75*
G02*
X82950000Y-41050000I150000J0D01*
G01*
X21750000Y-57950000D02*
G75*
G02*
X21650000Y-57850000I0J100000D01*
G01*
X60450000Y-21550000D02*
G75*
G02*
X60150000Y-21550000I-150000J0D01*
G01*
X60150000Y-21550000D02*
G75*
G02*
X60450000Y-21550000I150000J0D01*
G01*
X78450000Y-39550000D02*
G75*
G02*
X78150000Y-39550000I-150000J0D01*
G01*
X78150000Y-39550000D02*
G75*
G02*
X78450000Y-39550000I150000J0D01*
G01*
X69450000Y-27550000D02*
G75*
G02*
X69150000Y-27550000I-150000J0D01*
G01*
X69150000Y-27550000D02*
G75*
G02*
X69450000Y-27550000I150000J0D01*
G01*
X72450000Y-42550000D02*
G75*
G02*
X72150000Y-42550000I-150000J0D01*
G01*
X72150000Y-42550000D02*
G75*
G02*
X72450000Y-42550000I150000J0D01*
G01*
X73950000Y-18550000D02*
G75*
G02*
X73650000Y-18550000I-150000J0D01*
G01*
X73650000Y-18550000D02*
G75*
G02*
X73950000Y-18550000I150000J0D01*
G01*
X49950000Y-29050000D02*
G75*
G02*
X49650000Y-29050000I-150000J0D01*
G01*
X49650000Y-29050000D02*
G75*
G02*
X49950000Y-29050000I150000J0D01*
G01*
X76950000Y-54550000D02*
G75*
G02*
X76650000Y-54550000I-150000J0D01*
G01*
X76650000Y-54550000D02*
G75*
G02*
X76950000Y-54550000I150000J0D01*
G01*
X31950000Y-20050000D02*
G75*
G02*
X31650000Y-20050000I-150000J0D01*
G01*
X31650000Y-20050000D02*
G75*
G02*
X31950000Y-20050000I150000J0D01*
G01*
X24450000Y-48550000D02*
G75*
G02*
X24150000Y-48550000I-150000J0D01*
G01*
X24150000Y-48550000D02*
G75*
G02*
X24450000Y-48550000I150000J0D01*
G01*
X57450000Y-56050000D02*
G75*
G02*
X57150000Y-56050000I-150000J0D01*
G01*
X57150000Y-56050000D02*
G75*
G02*
X57450000Y-56050000I150000J0D01*
G01*
X39450000Y-47050000D02*
G75*
G02*
X39150000Y-47050000I-150000J0D01*
G01*
X39150000Y-47050000D02*
G75*
G02*
X39450000Y-47050000I150000J0D01*
G01*
X33450000Y-56050000D02*
G75*
G02*
X33150000Y-56050000I-150000J0D01*
G01*
X33150000Y-56050000D02*
G75*
G02*
X33450000Y-56050000I150000J0D01*
G01*
X70950000Y-42550000D02*
G75*
G02*
X70650000Y-42550000I-150000J0D01*
G01*
X70650000Y-42550000D02*
G75*
G02*
X70950000Y-42550000I150000J0D01*
G01*
X76950000Y-42550000D02*
G75*
G02*
X76650000Y-42550000I-150000J0D01*
G01*
X76650000Y-42550000D02*
G75*
G02*
X76950000Y-42550000I150000J0D01*
G01*
X73950000Y-33550000D02*
G75*
G02*
X73650000Y-33550000I-150000J0D01*
G01*
X73650000Y-33550000D02*
G75*
G02*
X73950000Y-33550000I150000J0D01*
G01*
X30450000Y-23050000D02*
G75*
G02*
X30150000Y-23050000I-150000J0D01*
G01*
X30150000Y-23050000D02*
G75*
G02*
X30450000Y-23050000I150000J0D01*
G01*
X48450000Y-57550000D02*
G75*
G02*
X48150000Y-57550000I-150000J0D01*
G01*
X48150000Y-57550000D02*
G75*
G02*
X48450000Y-57550000I150000J0D01*
G01*
X79950000Y-36550000D02*
G75*
G02*
X79650000Y-36550000I-150000J0D01*
G01*
X79650000Y-36550000D02*
G75*
G02*
X79950000Y-36550000I150000J0D01*
G01*
X46950000Y-35050000D02*
G75*
G02*
X46650000Y-35050000I-150000J0D01*
G01*
X46650000Y-35050000D02*
G75*
G02*
X46950000Y-35050000I150000J0D01*
G01*
X37950000Y-20050000D02*
G75*
G02*
X37650000Y-20050000I-150000J0D01*
G01*
X37650000Y-20050000D02*
G75*
G02*
X37950000Y-20050000I150000J0D01*
G01*
X58950000Y-38050000D02*
G75*
G02*
X58650000Y-38050000I-150000J0D01*
G01*
X58650000Y-38050000D02*
G75*
G02*
X58950000Y-38050000I150000J0D01*
G01*
X34950000Y-33550000D02*
G75*
G02*
X34650000Y-33550000I-150000J0D01*
G01*
X34650000Y-33550000D02*
G75*
G02*
X34950000Y-33550000I150000J0D01*
G01*
X42450000Y-36550000D02*
G75*
G02*
X42150000Y-36550000I-150000J0D01*
G01*
X42150000Y-36550000D02*
G75*
G02*
X42450000Y-36550000I150000J0D01*
G01*
X61950000Y-54550000D02*
G75*
G02*
X61650000Y-54550000I-150000J0D01*
G01*
X61650000Y-54550000D02*
G75*
G02*
X61950000Y-54550000I150000J0D01*
G01*
X43330000Y-38600000D02*
G75*
G02*
X43250000Y-38520000I0J80000D01*
G01*
X43950000Y-23050000D02*
G75*
G02*
X43650000Y-23050000I-150000J0D01*
G01*
X43650000Y-23050000D02*
G75*
G02*
X43950000Y-23050000I150000J0D01*
G01*
X28950000Y-41050000D02*
G75*
G02*
X28650000Y-41050000I-150000J0D01*
G01*
X28650000Y-41050000D02*
G75*
G02*
X28950000Y-41050000I150000J0D01*
G01*
D11*
X21898277Y-58273984D02*
X21898277Y-58073984D01*
X21898277Y-58073984D02*
X21945896Y-58073984D01*
X21945896Y-58073984D02*
X21974467Y-58083507D01*
X21974467Y-58083507D02*
X21993515Y-58102555D01*
X21993515Y-58102555D02*
X22003039Y-58121603D01*
X22003039Y-58121603D02*
X22012562Y-58159698D01*
X22012562Y-58159698D02*
X22012562Y-58188269D01*
X22012562Y-58188269D02*
X22003039Y-58226365D01*
X22003039Y-58226365D02*
X21993515Y-58245412D01*
X21993515Y-58245412D02*
X21974467Y-58264460D01*
X21974467Y-58264460D02*
X21945896Y-58273984D01*
X21945896Y-58273984D02*
X21898277Y-58273984D01*
X22098277Y-58273984D02*
X22098277Y-58140650D01*
X22098277Y-58178746D02*
X22107801Y-58159698D01*
X22107801Y-58159698D02*
X22117324Y-58150174D01*
X22117324Y-58150174D02*
X22136372Y-58140650D01*
X22136372Y-58140650D02*
X22155420Y-58140650D01*
X22222086Y-58273984D02*
X22222086Y-58140650D01*
X22222086Y-58073984D02*
X22212562Y-58083507D01*
X22212562Y-58083507D02*
X22222086Y-58093031D01*
X22222086Y-58093031D02*
X22231610Y-58083507D01*
X22231610Y-58083507D02*
X22222086Y-58073984D01*
X22222086Y-58073984D02*
X22222086Y-58093031D01*
X22345896Y-58273984D02*
X22326848Y-58264460D01*
X22326848Y-58264460D02*
X22317324Y-58245412D01*
X22317324Y-58245412D02*
X22317324Y-58073984D01*
X22450658Y-58273984D02*
X22431610Y-58264460D01*
X22431610Y-58264460D02*
X22422086Y-58245412D01*
X22422086Y-58245412D02*
X22422086Y-58073984D01*
X22679229Y-58273984D02*
X22679229Y-58073984D01*
X22679229Y-58073984D02*
X22745896Y-58216841D01*
X22745896Y-58216841D02*
X22812562Y-58073984D01*
X22812562Y-58073984D02*
X22812562Y-58273984D01*
X22993515Y-58273984D02*
X22993515Y-58169222D01*
X22993515Y-58169222D02*
X22983991Y-58150174D01*
X22983991Y-58150174D02*
X22964943Y-58140650D01*
X22964943Y-58140650D02*
X22926848Y-58140650D01*
X22926848Y-58140650D02*
X22907800Y-58150174D01*
X22993515Y-58264460D02*
X22974467Y-58273984D01*
X22974467Y-58273984D02*
X22926848Y-58273984D01*
X22926848Y-58273984D02*
X22907800Y-58264460D01*
X22907800Y-58264460D02*
X22898277Y-58245412D01*
X22898277Y-58245412D02*
X22898277Y-58226365D01*
X22898277Y-58226365D02*
X22907800Y-58207317D01*
X22907800Y-58207317D02*
X22926848Y-58197793D01*
X22926848Y-58197793D02*
X22974467Y-58197793D01*
X22974467Y-58197793D02*
X22993515Y-58188269D01*
X23088753Y-58140650D02*
X23088753Y-58340650D01*
X23088753Y-58150174D02*
X23107800Y-58140650D01*
X23107800Y-58140650D02*
X23145896Y-58140650D01*
X23145896Y-58140650D02*
X23164943Y-58150174D01*
X23164943Y-58150174D02*
X23174467Y-58159698D01*
X23174467Y-58159698D02*
X23183991Y-58178746D01*
X23183991Y-58178746D02*
X23183991Y-58235888D01*
X23183991Y-58235888D02*
X23174467Y-58254936D01*
X23174467Y-58254936D02*
X23164943Y-58264460D01*
X23164943Y-58264460D02*
X23145896Y-58273984D01*
X23145896Y-58273984D02*
X23107800Y-58273984D01*
X23107800Y-58273984D02*
X23088753Y-58264460D01*
X23269705Y-58254936D02*
X23279229Y-58264460D01*
X23279229Y-58264460D02*
X23269705Y-58273984D01*
X23269705Y-58273984D02*
X23260181Y-58264460D01*
X23260181Y-58264460D02*
X23269705Y-58254936D01*
X23269705Y-58254936D02*
X23269705Y-58273984D01*
X23269705Y-58150174D02*
X23279229Y-58159698D01*
X23279229Y-58159698D02*
X23269705Y-58169222D01*
X23269705Y-58169222D02*
X23260181Y-58159698D01*
X23260181Y-58159698D02*
X23269705Y-58150174D01*
X23269705Y-58150174D02*
X23269705Y-58169222D01*
M02*
