%TF.GenerationSoftware,KiCad,Pcbnew,9.0.5*%
%TF.CreationDate,2025-11-12T08:21:00+01:00*%
%TF.ProjectId,test01,74657374-3031-42e6-9b69-6361645f7063,rev?*%
%TF.SameCoordinates,Original*%
%TF.FileFunction,Profile,NP*%
%FSLAX46Y46*%
G04 Gerber Fmt 4.6, Leading zero omitted, Abs format (unit mm)*
G04 Created by KiCad (PCBNEW 9.0.5) date 2025-11-12 08:21:00*
%MOMM*%
%LPD*%
G01*
G04 APERTURE LIST*
%TA.AperFunction,Profile*%
%ADD10C,0.250000*%
%TD*%
G04 APERTURE END LIST*
D10*
X424499999Y-440499999D02*
G75*
G02*
X421499999Y-440499999I-1500000J0D01*
G01*
X421499999Y-440499999D02*
G75*
G02*
X424499999Y-440499999I1500000J0D01*
G01*
X829499999Y-455499999D02*
G75*
G02*
X826499999Y-455499999I-1500000J0D01*
G01*
X826499999Y-455499999D02*
G75*
G02*
X829499999Y-455499999I1500000J0D01*
G01*
X619499999Y-425499999D02*
G75*
G02*
X616499999Y-425499999I-1500000J0D01*
G01*
X616499999Y-425499999D02*
G75*
G02*
X619499999Y-425499999I1500000J0D01*
G01*
X664499999Y-290499999D02*
G75*
G02*
X661499999Y-290499999I-1500000J0D01*
G01*
X661499999Y-290499999D02*
G75*
G02*
X664499999Y-290499999I1500000J0D01*
G01*
X739499999Y-470499999D02*
G75*
G02*
X736499999Y-470499999I-1500000J0D01*
G01*
X736499999Y-470499999D02*
G75*
G02*
X739499999Y-470499999I1500000J0D01*
G01*
X274499999Y-395499999D02*
G75*
G02*
X271499999Y-395499999I-1500000J0D01*
G01*
X271499999Y-395499999D02*
G75*
G02*
X274499999Y-395499999I1500000J0D01*
G01*
X709499999Y-410499999D02*
G75*
G02*
X706499999Y-410499999I-1500000J0D01*
G01*
X706499999Y-410499999D02*
G75*
G02*
X709499999Y-410499999I1500000J0D01*
G01*
X589499999Y-425499999D02*
G75*
G02*
X586499999Y-425499999I-1500000J0D01*
G01*
X586499999Y-425499999D02*
G75*
G02*
X589499999Y-425499999I1500000J0D01*
G01*
X290249999Y-380499999D02*
G75*
G02*
X285749999Y-380499999I-2250000J0D01*
G01*
X285749999Y-380499999D02*
G75*
G02*
X290249999Y-380499999I2250000J0D01*
G01*
X544499999Y-485499999D02*
G75*
G02*
X541499999Y-485499999I-1500000J0D01*
G01*
X541499999Y-485499999D02*
G75*
G02*
X544499999Y-485499999I1500000J0D01*
G01*
X724499999Y-545499999D02*
G75*
G02*
X721499999Y-545499999I-1500000J0D01*
G01*
X721499999Y-545499999D02*
G75*
G02*
X724499999Y-545499999I1500000J0D01*
G01*
X859499999Y-530499999D02*
G75*
G02*
X856499999Y-530499999I-1500000J0D01*
G01*
X856499999Y-530499999D02*
G75*
G02*
X859499999Y-530499999I1500000J0D01*
G01*
X668499999Y-385199998D02*
G75*
G02*
X667699998Y-385999999I-799999J-2D01*
G01*
X379499999Y-425499999D02*
G75*
G02*
X376499999Y-425499999I-1500000J0D01*
G01*
X376499999Y-425499999D02*
G75*
G02*
X379499999Y-425499999I1500000J0D01*
G01*
X458499999Y-385199998D02*
G75*
G02*
X457699998Y-385999999I-799999J-2D01*
G01*
X829499999Y-440499999D02*
G75*
G02*
X826499999Y-440499999I-1500000J0D01*
G01*
X826499999Y-440499999D02*
G75*
G02*
X829499999Y-440499999I1500000J0D01*
G01*
X814499999Y-575499999D02*
G75*
G02*
X811499999Y-575499999I-1500000J0D01*
G01*
X811499999Y-575499999D02*
G75*
G02*
X814499999Y-575499999I1500000J0D01*
G01*
X409499999Y-275499999D02*
G75*
G02*
X406499999Y-275499999I-1500000J0D01*
G01*
X406499999Y-275499999D02*
G75*
G02*
X409499999Y-275499999I1500000J0D01*
G01*
X574499999Y-455499999D02*
G75*
G02*
X571499999Y-455499999I-1500000J0D01*
G01*
X571499999Y-455499999D02*
G75*
G02*
X574499999Y-455499999I1500000J0D01*
G01*
X394499999Y-440499999D02*
G75*
G02*
X391499999Y-440499999I-1500000J0D01*
G01*
X391499999Y-440499999D02*
G75*
G02*
X394499999Y-440499999I1500000J0D01*
G01*
X559499999Y-575499999D02*
G75*
G02*
X556499999Y-575499999I-1500000J0D01*
G01*
X556499999Y-575499999D02*
G75*
G02*
X559499999Y-575499999I1500000J0D01*
G01*
X859499999Y-260499999D02*
G75*
G02*
X856499999Y-260499999I-1500000J0D01*
G01*
X856499999Y-260499999D02*
G75*
G02*
X859499999Y-260499999I1500000J0D01*
G01*
X529499999Y-485499999D02*
G75*
G02*
X526499999Y-485499999I-1500000J0D01*
G01*
X526499999Y-485499999D02*
G75*
G02*
X529499999Y-485499999I1500000J0D01*
G01*
X844499999Y-395499999D02*
G75*
G02*
X841499999Y-395499999I-1500000J0D01*
G01*
X841499999Y-395499999D02*
G75*
G02*
X844499999Y-395499999I1500000J0D01*
G01*
X454499999Y-185499999D02*
G75*
G02*
X451499999Y-185499999I-1500000J0D01*
G01*
X451499999Y-185499999D02*
G75*
G02*
X454499999Y-185499999I1500000J0D01*
G01*
X769499999Y-500499999D02*
G75*
G02*
X766499999Y-500499999I-1500000J0D01*
G01*
X766499999Y-500499999D02*
G75*
G02*
X769499999Y-500499999I1500000J0D01*
G01*
X634499999Y-575499999D02*
G75*
G02*
X631499999Y-575499999I-1500000J0D01*
G01*
X631499999Y-575499999D02*
G75*
G02*
X634499999Y-575499999I1500000J0D01*
G01*
X844499999Y-500499999D02*
G75*
G02*
X841499999Y-500499999I-1500000J0D01*
G01*
X841499999Y-500499999D02*
G75*
G02*
X844499999Y-500499999I1500000J0D01*
G01*
X739499999Y-575499999D02*
G75*
G02*
X736499999Y-575499999I-1500000J0D01*
G01*
X736499999Y-575499999D02*
G75*
G02*
X739499999Y-575499999I1500000J0D01*
G01*
X259499999Y-515499999D02*
G75*
G02*
X256499999Y-515499999I-1500000J0D01*
G01*
X256499999Y-515499999D02*
G75*
G02*
X259499999Y-515499999I1500000J0D01*
G01*
X844499999Y-410499999D02*
G75*
G02*
X841499999Y-410499999I-1500000J0D01*
G01*
X841499999Y-410499999D02*
G75*
G02*
X844499999Y-410499999I1500000J0D01*
G01*
X604499999Y-545499999D02*
G75*
G02*
X601499999Y-545499999I-1500000J0D01*
G01*
X601499999Y-545499999D02*
G75*
G02*
X604499999Y-545499999I1500000J0D01*
G01*
X574499999Y-320499999D02*
G75*
G02*
X571499999Y-320499999I-1500000J0D01*
G01*
X571499999Y-320499999D02*
G75*
G02*
X574499999Y-320499999I1500000J0D01*
G01*
X379499999Y-335499999D02*
G75*
G02*
X376499999Y-335499999I-1500000J0D01*
G01*
X376499999Y-335499999D02*
G75*
G02*
X379499999Y-335499999I1500000J0D01*
G01*
X319499999Y-230499999D02*
G75*
G02*
X316499999Y-230499999I-1500000J0D01*
G01*
X316499999Y-230499999D02*
G75*
G02*
X319499999Y-230499999I1500000J0D01*
G01*
X454499999Y-515499999D02*
G75*
G02*
X451499999Y-515499999I-1500000J0D01*
G01*
X451499999Y-515499999D02*
G75*
G02*
X454499999Y-515499999I1500000J0D01*
G01*
X274499999Y-500499999D02*
G75*
G02*
X271499999Y-500499999I-1500000J0D01*
G01*
X271499999Y-500499999D02*
G75*
G02*
X274499999Y-500499999I1500000J0D01*
G01*
X364499999Y-335499999D02*
G75*
G02*
X361499999Y-335499999I-1500000J0D01*
G01*
X361499999Y-335499999D02*
G75*
G02*
X364499999Y-335499999I1500000J0D01*
G01*
X559499999Y-335499999D02*
G75*
G02*
X556499999Y-335499999I-1500000J0D01*
G01*
X556499999Y-335499999D02*
G75*
G02*
X559499999Y-335499999I1500000J0D01*
G01*
X259499999Y-245499999D02*
G75*
G02*
X256499999Y-245499999I-1500000J0D01*
G01*
X256499999Y-245499999D02*
G75*
G02*
X259499999Y-245499999I1500000J0D01*
G01*
X649499999Y-530499999D02*
G75*
G02*
X646499999Y-530499999I-1500000J0D01*
G01*
X646499999Y-530499999D02*
G75*
G02*
X649499999Y-530499999I1500000J0D01*
G01*
X217499998Y-579499999D02*
X883500000Y-579499999D01*
X349499999Y-410499999D02*
G75*
G02*
X346499999Y-410499999I-1500000J0D01*
G01*
X346499999Y-410499999D02*
G75*
G02*
X349499999Y-410499999I1500000J0D01*
G01*
X649499999Y-275499999D02*
G75*
G02*
X646499999Y-275499999I-1500000J0D01*
G01*
X646499999Y-275499999D02*
G75*
G02*
X649499999Y-275499999I1500000J0D01*
G01*
X484499999Y-380499999D02*
G75*
G02*
X481499999Y-380499999I-1500000J0D01*
G01*
X481499999Y-380499999D02*
G75*
G02*
X484499999Y-380499999I1500000J0D01*
G01*
X724499999Y-230499999D02*
G75*
G02*
X721499999Y-230499999I-1500000J0D01*
G01*
X721499999Y-230499999D02*
G75*
G02*
X724499999Y-230499999I1500000J0D01*
G01*
X754499999Y-230499999D02*
G75*
G02*
X751499999Y-230499999I-1500000J0D01*
G01*
X751499999Y-230499999D02*
G75*
G02*
X754499999Y-230499999I1500000J0D01*
G01*
X469499999Y-500499999D02*
G75*
G02*
X466499999Y-500499999I-1500000J0D01*
G01*
X466499999Y-500499999D02*
G75*
G02*
X469499999Y-500499999I1500000J0D01*
G01*
X469499999Y-200499999D02*
G75*
G02*
X466499999Y-200499999I-1500000J0D01*
G01*
X466499999Y-200499999D02*
G75*
G02*
X469499999Y-200499999I1500000J0D01*
G01*
X499499999Y-305499999D02*
G75*
G02*
X496499999Y-305499999I-1500000J0D01*
G01*
X496499999Y-305499999D02*
G75*
G02*
X499499999Y-305499999I1500000J0D01*
G01*
X754499999Y-350499999D02*
G75*
G02*
X751499999Y-350499999I-1500000J0D01*
G01*
X751499999Y-350499999D02*
G75*
G02*
X754499999Y-350499999I1500000J0D01*
G01*
X829499999Y-230499999D02*
G75*
G02*
X826499999Y-230499999I-1500000J0D01*
G01*
X826499999Y-230499999D02*
G75*
G02*
X829499999Y-230499999I1500000J0D01*
G01*
X814499999Y-470499999D02*
G75*
G02*
X811499999Y-470499999I-1500000J0D01*
G01*
X811499999Y-470499999D02*
G75*
G02*
X814499999Y-470499999I1500000J0D01*
G01*
X589499999Y-275499999D02*
G75*
G02*
X586499999Y-275499999I-1500000J0D01*
G01*
X586499999Y-275499999D02*
G75*
G02*
X589499999Y-275499999I1500000J0D01*
G01*
X559499999Y-485499999D02*
G75*
G02*
X556499999Y-485499999I-1500000J0D01*
G01*
X556499999Y-485499999D02*
G75*
G02*
X559499999Y-485499999I1500000J0D01*
G01*
X634499999Y-515499999D02*
G75*
G02*
X631499999Y-515499999I-1500000J0D01*
G01*
X631499999Y-515499999D02*
G75*
G02*
X634499999Y-515499999I1500000J0D01*
G01*
X859499999Y-350499999D02*
G75*
G02*
X856499999Y-350499999I-1500000J0D01*
G01*
X856499999Y-350499999D02*
G75*
G02*
X859499999Y-350499999I1500000J0D01*
G01*
X724499999Y-320499999D02*
G75*
G02*
X721499999Y-320499999I-1500000J0D01*
G01*
X721499999Y-320499999D02*
G75*
G02*
X724499999Y-320499999I1500000J0D01*
G01*
X884499999Y-578500000D02*
X884499999Y-182499999D01*
X484499999Y-395499999D02*
G75*
G02*
X481499999Y-395499999I-1500000J0D01*
G01*
X481499999Y-395499999D02*
G75*
G02*
X484499999Y-395499999I1500000J0D01*
G01*
X514499999Y-275499999D02*
G75*
G02*
X511499999Y-275499999I-1500000J0D01*
G01*
X511499999Y-275499999D02*
G75*
G02*
X514499999Y-275499999I1500000J0D01*
G01*
X499499999Y-530499999D02*
G75*
G02*
X496499999Y-530499999I-1500000J0D01*
G01*
X496499999Y-530499999D02*
G75*
G02*
X499499999Y-530499999I1500000J0D01*
G01*
X559499999Y-560499999D02*
G75*
G02*
X556499999Y-560499999I-1500000J0D01*
G01*
X556499999Y-560499999D02*
G75*
G02*
X559499999Y-560499999I1500000J0D01*
G01*
X394499999Y-410499999D02*
G75*
G02*
X391499999Y-410499999I-1500000J0D01*
G01*
X391499999Y-410499999D02*
G75*
G02*
X394499999Y-410499999I1500000J0D01*
G01*
X634499999Y-185499999D02*
G75*
G02*
X631499999Y-185499999I-1500000J0D01*
G01*
X631499999Y-185499999D02*
G75*
G02*
X634499999Y-185499999I1500000J0D01*
G01*
X664499999Y-410499999D02*
G75*
G02*
X661499999Y-410499999I-1500000J0D01*
G01*
X661499999Y-410499999D02*
G75*
G02*
X664499999Y-410499999I1500000J0D01*
G01*
X619499999Y-575499999D02*
G75*
G02*
X616499999Y-575499999I-1500000J0D01*
G01*
X616499999Y-575499999D02*
G75*
G02*
X619499999Y-575499999I1500000J0D01*
G01*
X604499999Y-425499999D02*
G75*
G02*
X601499999Y-425499999I-1500000J0D01*
G01*
X601499999Y-425499999D02*
G75*
G02*
X604499999Y-425499999I1500000J0D01*
G01*
X274499999Y-410499999D02*
G75*
G02*
X271499999Y-410499999I-1500000J0D01*
G01*
X271499999Y-410499999D02*
G75*
G02*
X274499999Y-410499999I1500000J0D01*
G01*
X484499999Y-365499999D02*
G75*
G02*
X481499999Y-365499999I-1500000J0D01*
G01*
X481499999Y-365499999D02*
G75*
G02*
X484499999Y-365499999I1500000J0D01*
G01*
X529499999Y-575499999D02*
G75*
G02*
X526499999Y-575499999I-1500000J0D01*
G01*
X526499999Y-575499999D02*
G75*
G02*
X529499999Y-575499999I1500000J0D01*
G01*
X709499999Y-560499999D02*
G75*
G02*
X706499999Y-560499999I-1500000J0D01*
G01*
X706499999Y-560499999D02*
G75*
G02*
X709499999Y-560499999I1500000J0D01*
G01*
X769499999Y-515499999D02*
G75*
G02*
X766499999Y-515499999I-1500000J0D01*
G01*
X766499999Y-515499999D02*
G75*
G02*
X769499999Y-515499999I1500000J0D01*
G01*
X409499999Y-395499999D02*
G75*
G02*
X406499999Y-395499999I-1500000J0D01*
G01*
X406499999Y-395499999D02*
G75*
G02*
X409499999Y-395499999I1500000J0D01*
G01*
X739499999Y-290499999D02*
G75*
G02*
X736499999Y-290499999I-1500000J0D01*
G01*
X736499999Y-290499999D02*
G75*
G02*
X739499999Y-290499999I1500000J0D01*
G01*
X409499999Y-260499999D02*
G75*
G02*
X406499999Y-260499999I-1500000J0D01*
G01*
X406499999Y-260499999D02*
G75*
G02*
X409499999Y-260499999I1500000J0D01*
G01*
X829499999Y-365499999D02*
G75*
G02*
X826499999Y-365499999I-1500000J0D01*
G01*
X826499999Y-365499999D02*
G75*
G02*
X829499999Y-365499999I1500000J0D01*
G01*
X274499999Y-305499999D02*
G75*
G02*
X271499999Y-305499999I-1500000J0D01*
G01*
X271499999Y-305499999D02*
G75*
G02*
X274499999Y-305499999I1500000J0D01*
G01*
X814499999Y-440499999D02*
G75*
G02*
X811499999Y-440499999I-1500000J0D01*
G01*
X811499999Y-440499999D02*
G75*
G02*
X814499999Y-440499999I1500000J0D01*
G01*
X604499999Y-380499999D02*
G75*
G02*
X601499999Y-380499999I-1500000J0D01*
G01*
X601499999Y-380499999D02*
G75*
G02*
X604499999Y-380499999I1500000J0D01*
G01*
X814499999Y-275499999D02*
G75*
G02*
X811499999Y-275499999I-1500000J0D01*
G01*
X811499999Y-275499999D02*
G75*
G02*
X814499999Y-275499999I1500000J0D01*
G01*
X769499999Y-290499999D02*
G75*
G02*
X766499999Y-290499999I-1500000J0D01*
G01*
X766499999Y-290499999D02*
G75*
G02*
X769499999Y-290499999I1500000J0D01*
G01*
X319499999Y-275499999D02*
G75*
G02*
X316499999Y-275499999I-1500000J0D01*
G01*
X316499999Y-275499999D02*
G75*
G02*
X319499999Y-275499999I1500000J0D01*
G01*
X664499999Y-425499999D02*
G75*
G02*
X661499999Y-425499999I-1500000J0D01*
G01*
X661499999Y-425499999D02*
G75*
G02*
X664499999Y-425499999I1500000J0D01*
G01*
X304499999Y-215499999D02*
G75*
G02*
X301499999Y-215499999I-1500000J0D01*
G01*
X301499999Y-215499999D02*
G75*
G02*
X304499999Y-215499999I1500000J0D01*
G01*
X439499999Y-455499999D02*
G75*
G02*
X436499999Y-455499999I-1500000J0D01*
G01*
X436499999Y-455499999D02*
G75*
G02*
X439499999Y-455499999I1500000J0D01*
G01*
X679499999Y-440499999D02*
G75*
G02*
X676499999Y-440499999I-1500000J0D01*
G01*
X676499999Y-440499999D02*
G75*
G02*
X679499999Y-440499999I1500000J0D01*
G01*
X859499999Y-335499999D02*
G75*
G02*
X856499999Y-335499999I-1500000J0D01*
G01*
X856499999Y-335499999D02*
G75*
G02*
X859499999Y-335499999I1500000J0D01*
G01*
X319499999Y-305499999D02*
G75*
G02*
X316499999Y-305499999I-1500000J0D01*
G01*
X316499999Y-305499999D02*
G75*
G02*
X319499999Y-305499999I1500000J0D01*
G01*
X244499999Y-260499999D02*
G75*
G02*
X241499999Y-260499999I-1500000J0D01*
G01*
X241499999Y-260499999D02*
G75*
G02*
X244499999Y-260499999I1500000J0D01*
G01*
X439499999Y-410499999D02*
G75*
G02*
X436499999Y-410499999I-1500000J0D01*
G01*
X436499999Y-410499999D02*
G75*
G02*
X439499999Y-410499999I1500000J0D01*
G01*
X739499999Y-305499999D02*
G75*
G02*
X736499999Y-305499999I-1500000J0D01*
G01*
X736499999Y-305499999D02*
G75*
G02*
X739499999Y-305499999I1500000J0D01*
G01*
X844499999Y-380499999D02*
G75*
G02*
X841499999Y-380499999I-1500000J0D01*
G01*
X841499999Y-380499999D02*
G75*
G02*
X844499999Y-380499999I1500000J0D01*
G01*
X769499999Y-200499999D02*
G75*
G02*
X766499999Y-200499999I-1500000J0D01*
G01*
X766499999Y-200499999D02*
G75*
G02*
X769499999Y-200499999I1500000J0D01*
G01*
X634499999Y-350499999D02*
G75*
G02*
X631499999Y-350499999I-1500000J0D01*
G01*
X631499999Y-350499999D02*
G75*
G02*
X634499999Y-350499999I1500000J0D01*
G01*
X829499999Y-500499999D02*
G75*
G02*
X826499999Y-500499999I-1500000J0D01*
G01*
X826499999Y-500499999D02*
G75*
G02*
X829499999Y-500499999I1500000J0D01*
G01*
X334499999Y-545499999D02*
G75*
G02*
X331499999Y-545499999I-1500000J0D01*
G01*
X331499999Y-545499999D02*
G75*
G02*
X334499999Y-545499999I1500000J0D01*
G01*
X574499999Y-425499999D02*
G75*
G02*
X571499999Y-425499999I-1500000J0D01*
G01*
X571499999Y-425499999D02*
G75*
G02*
X574499999Y-425499999I1500000J0D01*
G01*
X319499999Y-440499999D02*
G75*
G02*
X316499999Y-440499999I-1500000J0D01*
G01*
X316499999Y-440499999D02*
G75*
G02*
X319499999Y-440499999I1500000J0D01*
G01*
X469499999Y-455499999D02*
G75*
G02*
X466499999Y-455499999I-1500000J0D01*
G01*
X466499999Y-455499999D02*
G75*
G02*
X469499999Y-455499999I1500000J0D01*
G01*
X784499999Y-380499999D02*
G75*
G02*
X781499999Y-380499999I-1500000J0D01*
G01*
X781499999Y-380499999D02*
G75*
G02*
X784499999Y-380499999I1500000J0D01*
G01*
X814499999Y-290499999D02*
G75*
G02*
X811499999Y-290499999I-1500000J0D01*
G01*
X811499999Y-290499999D02*
G75*
G02*
X814499999Y-290499999I1500000J0D01*
G01*
X439499999Y-305499999D02*
G75*
G02*
X436499999Y-305499999I-1500000J0D01*
G01*
X436499999Y-305499999D02*
G75*
G02*
X439499999Y-305499999I1500000J0D01*
G01*
X559499999Y-320499999D02*
G75*
G02*
X556499999Y-320499999I-1500000J0D01*
G01*
X556499999Y-320499999D02*
G75*
G02*
X559499999Y-320499999I1500000J0D01*
G01*
X604499999Y-410499999D02*
G75*
G02*
X601499999Y-410499999I-1500000J0D01*
G01*
X601499999Y-410499999D02*
G75*
G02*
X604499999Y-410499999I1500000J0D01*
G01*
X484499999Y-230499999D02*
G75*
G02*
X481499999Y-230499999I-1500000J0D01*
G01*
X481499999Y-230499999D02*
G75*
G02*
X484499999Y-230499999I1500000J0D01*
G01*
X589499999Y-350499999D02*
G75*
G02*
X586499999Y-350499999I-1500000J0D01*
G01*
X586499999Y-350499999D02*
G75*
G02*
X589499999Y-350499999I1500000J0D01*
G01*
X709499999Y-455499999D02*
G75*
G02*
X706499999Y-455499999I-1500000J0D01*
G01*
X706499999Y-455499999D02*
G75*
G02*
X709499999Y-455499999I1500000J0D01*
G01*
X769499999Y-365499999D02*
G75*
G02*
X766499999Y-365499999I-1500000J0D01*
G01*
X766499999Y-365499999D02*
G75*
G02*
X769499999Y-365499999I1500000J0D01*
G01*
X724499999Y-455499999D02*
G75*
G02*
X721499999Y-455499999I-1500000J0D01*
G01*
X721499999Y-455499999D02*
G75*
G02*
X724499999Y-455499999I1500000J0D01*
G01*
X799499999Y-350499999D02*
G75*
G02*
X796499999Y-350499999I-1500000J0D01*
G01*
X796499999Y-350499999D02*
G75*
G02*
X799499999Y-350499999I1500000J0D01*
G01*
X769499999Y-215499999D02*
G75*
G02*
X766499999Y-215499999I-1500000J0D01*
G01*
X766499999Y-215499999D02*
G75*
G02*
X769499999Y-215499999I1500000J0D01*
G01*
X529499999Y-275499999D02*
G75*
G02*
X526499999Y-275499999I-1500000J0D01*
G01*
X526499999Y-275499999D02*
G75*
G02*
X529499999Y-275499999I1500000J0D01*
G01*
X784499999Y-275499999D02*
G75*
G02*
X781499999Y-275499999I-1500000J0D01*
G01*
X781499999Y-275499999D02*
G75*
G02*
X784499999Y-275499999I1500000J0D01*
G01*
X289499999Y-260499999D02*
G75*
G02*
X286499999Y-260499999I-1500000J0D01*
G01*
X286499999Y-260499999D02*
G75*
G02*
X289499999Y-260499999I1500000J0D01*
G01*
X544499999Y-260499999D02*
G75*
G02*
X541499999Y-260499999I-1500000J0D01*
G01*
X541499999Y-260499999D02*
G75*
G02*
X544499999Y-260499999I1500000J0D01*
G01*
X634499999Y-455499999D02*
G75*
G02*
X631499999Y-455499999I-1500000J0D01*
G01*
X631499999Y-455499999D02*
G75*
G02*
X634499999Y-455499999I1500000J0D01*
G01*
X439499999Y-425499999D02*
G75*
G02*
X436499999Y-425499999I-1500000J0D01*
G01*
X436499999Y-425499999D02*
G75*
G02*
X439499999Y-425499999I1500000J0D01*
G01*
X544499999Y-455499999D02*
G75*
G02*
X541499999Y-455499999I-1500000J0D01*
G01*
X541499999Y-455499999D02*
G75*
G02*
X544499999Y-455499999I1500000J0D01*
G01*
X634499999Y-365499999D02*
G75*
G02*
X631499999Y-365499999I-1500000J0D01*
G01*
X631499999Y-365499999D02*
G75*
G02*
X634499999Y-365499999I1500000J0D01*
G01*
X304499999Y-320499999D02*
G75*
G02*
X301499999Y-320499999I-1500000J0D01*
G01*
X301499999Y-320499999D02*
G75*
G02*
X304499999Y-320499999I1500000J0D01*
G01*
X769499999Y-575499999D02*
G75*
G02*
X766499999Y-575499999I-1500000J0D01*
G01*
X766499999Y-575499999D02*
G75*
G02*
X769499999Y-575499999I1500000J0D01*
G01*
X529499999Y-545499999D02*
G75*
G02*
X526499999Y-545499999I-1500000J0D01*
G01*
X526499999Y-545499999D02*
G75*
G02*
X529499999Y-545499999I1500000J0D01*
G01*
X514499999Y-290499999D02*
G75*
G02*
X511499999Y-290499999I-1500000J0D01*
G01*
X511499999Y-290499999D02*
G75*
G02*
X514499999Y-290499999I1500000J0D01*
G01*
X439499999Y-485499999D02*
G75*
G02*
X436499999Y-485499999I-1500000J0D01*
G01*
X436499999Y-485499999D02*
G75*
G02*
X439499999Y-485499999I1500000J0D01*
G01*
X289499999Y-515499999D02*
G75*
G02*
X286499999Y-515499999I-1500000J0D01*
G01*
X286499999Y-515499999D02*
G75*
G02*
X289499999Y-515499999I1500000J0D01*
G01*
X829499999Y-575499999D02*
G75*
G02*
X826499999Y-575499999I-1500000J0D01*
G01*
X826499999Y-575499999D02*
G75*
G02*
X829499999Y-575499999I1500000J0D01*
G01*
X514499999Y-365499999D02*
G75*
G02*
X511499999Y-365499999I-1500000J0D01*
G01*
X511499999Y-365499999D02*
G75*
G02*
X514499999Y-365499999I1500000J0D01*
G01*
X634499999Y-485499999D02*
G75*
G02*
X631499999Y-485499999I-1500000J0D01*
G01*
X631499999Y-485499999D02*
G75*
G02*
X634499999Y-485499999I1500000J0D01*
G01*
X364499999Y-230499999D02*
G75*
G02*
X361499999Y-230499999I-1500000J0D01*
G01*
X361499999Y-230499999D02*
G75*
G02*
X364499999Y-230499999I1500000J0D01*
G01*
X439499999Y-365499999D02*
G75*
G02*
X436499999Y-365499999I-1500000J0D01*
G01*
X436499999Y-365499999D02*
G75*
G02*
X439499999Y-365499999I1500000J0D01*
G01*
X664499999Y-320499999D02*
G75*
G02*
X661499999Y-320499999I-1500000J0D01*
G01*
X661499999Y-320499999D02*
G75*
G02*
X664499999Y-320499999I1500000J0D01*
G01*
X319499999Y-320499999D02*
G75*
G02*
X316499999Y-320499999I-1500000J0D01*
G01*
X316499999Y-320499999D02*
G75*
G02*
X319499999Y-320499999I1500000J0D01*
G01*
X424499999Y-515499999D02*
G75*
G02*
X421499999Y-515499999I-1500000J0D01*
G01*
X421499999Y-515499999D02*
G75*
G02*
X424499999Y-515499999I1500000J0D01*
G01*
X679499999Y-380499999D02*
G75*
G02*
X676499999Y-380499999I-1500000J0D01*
G01*
X676499999Y-380499999D02*
G75*
G02*
X679499999Y-380499999I1500000J0D01*
G01*
X544499999Y-365499999D02*
G75*
G02*
X541499999Y-365499999I-1500000J0D01*
G01*
X541499999Y-365499999D02*
G75*
G02*
X544499999Y-365499999I1500000J0D01*
G01*
X349499999Y-440499999D02*
G75*
G02*
X346499999Y-440499999I-1500000J0D01*
G01*
X346499999Y-440499999D02*
G75*
G02*
X349499999Y-440499999I1500000J0D01*
G01*
X364499999Y-530499999D02*
G75*
G02*
X361499999Y-530499999I-1500000J0D01*
G01*
X361499999Y-530499999D02*
G75*
G02*
X364499999Y-530499999I1500000J0D01*
G01*
X784499999Y-545499999D02*
G75*
G02*
X781499999Y-545499999I-1500000J0D01*
G01*
X781499999Y-545499999D02*
G75*
G02*
X784499999Y-545499999I1500000J0D01*
G01*
X634499999Y-440499999D02*
G75*
G02*
X631499999Y-440499999I-1500000J0D01*
G01*
X631499999Y-440499999D02*
G75*
G02*
X634499999Y-440499999I1500000J0D01*
G01*
X349499999Y-275499999D02*
G75*
G02*
X346499999Y-275499999I-1500000J0D01*
G01*
X346499999Y-275499999D02*
G75*
G02*
X349499999Y-275499999I1500000J0D01*
G01*
X364499999Y-275499999D02*
G75*
G02*
X361499999Y-275499999I-1500000J0D01*
G01*
X361499999Y-275499999D02*
G75*
G02*
X364499999Y-275499999I1500000J0D01*
G01*
X259499999Y-425499999D02*
G75*
G02*
X256499999Y-425499999I-1500000J0D01*
G01*
X256499999Y-425499999D02*
G75*
G02*
X259499999Y-425499999I1500000J0D01*
G01*
X454499999Y-560499999D02*
G75*
G02*
X451499999Y-560499999I-1500000J0D01*
G01*
X451499999Y-560499999D02*
G75*
G02*
X454499999Y-560499999I1500000J0D01*
G01*
X649499999Y-485499999D02*
G75*
G02*
X646499999Y-485499999I-1500000J0D01*
G01*
X646499999Y-485499999D02*
G75*
G02*
X649499999Y-485499999I1500000J0D01*
G01*
X559499999Y-260499999D02*
G75*
G02*
X556499999Y-260499999I-1500000J0D01*
G01*
X556499999Y-260499999D02*
G75*
G02*
X559499999Y-260499999I1500000J0D01*
G01*
X604499999Y-515499999D02*
G75*
G02*
X601499999Y-515499999I-1500000J0D01*
G01*
X601499999Y-515499999D02*
G75*
G02*
X604499999Y-515499999I1500000J0D01*
G01*
X589499999Y-260499999D02*
G75*
G02*
X586499999Y-260499999I-1500000J0D01*
G01*
X586499999Y-260499999D02*
G75*
G02*
X589499999Y-260499999I1500000J0D01*
G01*
X244499999Y-530499999D02*
G75*
G02*
X241499999Y-530499999I-1500000J0D01*
G01*
X241499999Y-530499999D02*
G75*
G02*
X244499999Y-530499999I1500000J0D01*
G01*
X589499999Y-290499999D02*
G75*
G02*
X586499999Y-290499999I-1500000J0D01*
G01*
X586499999Y-290499999D02*
G75*
G02*
X589499999Y-290499999I1500000J0D01*
G01*
X274499999Y-515499999D02*
G75*
G02*
X271499999Y-515499999I-1500000J0D01*
G01*
X271499999Y-515499999D02*
G75*
G02*
X274499999Y-515499999I1500000J0D01*
G01*
X409499999Y-380499999D02*
G75*
G02*
X406499999Y-380499999I-1500000J0D01*
G01*
X406499999Y-380499999D02*
G75*
G02*
X409499999Y-380499999I1500000J0D01*
G01*
X304499999Y-185499999D02*
G75*
G02*
X301499999Y-185499999I-1500000J0D01*
G01*
X301499999Y-185499999D02*
G75*
G02*
X304499999Y-185499999I1500000J0D01*
G01*
X859499999Y-500499999D02*
G75*
G02*
X856499999Y-500499999I-1500000J0D01*
G01*
X856499999Y-500499999D02*
G75*
G02*
X859499999Y-500499999I1500000J0D01*
G01*
X679499999Y-515499999D02*
G75*
G02*
X676499999Y-515499999I-1500000J0D01*
G01*
X676499999Y-515499999D02*
G75*
G02*
X679499999Y-515499999I1500000J0D01*
G01*
X694499999Y-470499999D02*
G75*
G02*
X691499999Y-470499999I-1500000J0D01*
G01*
X691499999Y-470499999D02*
G75*
G02*
X694499999Y-470499999I1500000J0D01*
G01*
X829499999Y-485499999D02*
G75*
G02*
X826499999Y-485499999I-1500000J0D01*
G01*
X826499999Y-485499999D02*
G75*
G02*
X829499999Y-485499999I1500000J0D01*
G01*
X799499999Y-245499999D02*
G75*
G02*
X796499999Y-245499999I-1500000J0D01*
G01*
X796499999Y-245499999D02*
G75*
G02*
X799499999Y-245499999I1500000J0D01*
G01*
X814499999Y-320499999D02*
G75*
G02*
X811499999Y-320499999I-1500000J0D01*
G01*
X811499999Y-320499999D02*
G75*
G02*
X814499999Y-320499999I1500000J0D01*
G01*
X379499999Y-410499999D02*
G75*
G02*
X376499999Y-410499999I-1500000J0D01*
G01*
X376499999Y-410499999D02*
G75*
G02*
X379499999Y-410499999I1500000J0D01*
G01*
X334499999Y-245499999D02*
G75*
G02*
X331499999Y-245499999I-1500000J0D01*
G01*
X331499999Y-245499999D02*
G75*
G02*
X334499999Y-245499999I1500000J0D01*
G01*
X784499999Y-455499999D02*
G75*
G02*
X781499999Y-455499999I-1500000J0D01*
G01*
X781499999Y-455499999D02*
G75*
G02*
X784499999Y-455499999I1500000J0D01*
G01*
X259499999Y-440499999D02*
G75*
G02*
X256499999Y-440499999I-1500000J0D01*
G01*
X256499999Y-440499999D02*
G75*
G02*
X259499999Y-440499999I1500000J0D01*
G01*
X514499999Y-245499999D02*
G75*
G02*
X511499999Y-245499999I-1500000J0D01*
G01*
X511499999Y-245499999D02*
G75*
G02*
X514499999Y-245499999I1500000J0D01*
G01*
X454499999Y-500499999D02*
G75*
G02*
X451499999Y-500499999I-1500000J0D01*
G01*
X451499999Y-500499999D02*
G75*
G02*
X454499999Y-500499999I1500000J0D01*
G01*
X289499999Y-365499999D02*
G75*
G02*
X286499999Y-365499999I-1500000J0D01*
G01*
X286499999Y-365499999D02*
G75*
G02*
X289499999Y-365499999I1500000J0D01*
G01*
X619499999Y-395499999D02*
G75*
G02*
X616499999Y-395499999I-1500000J0D01*
G01*
X616499999Y-395499999D02*
G75*
G02*
X619499999Y-395499999I1500000J0D01*
G01*
X799499999Y-395499999D02*
G75*
G02*
X796499999Y-395499999I-1500000J0D01*
G01*
X796499999Y-395499999D02*
G75*
G02*
X799499999Y-395499999I1500000J0D01*
G01*
X259499999Y-470499999D02*
G75*
G02*
X256499999Y-470499999I-1500000J0D01*
G01*
X256499999Y-470499999D02*
G75*
G02*
X259499999Y-470499999I1500000J0D01*
G01*
X829499999Y-350499999D02*
G75*
G02*
X826499999Y-350499999I-1500000J0D01*
G01*
X826499999Y-350499999D02*
G75*
G02*
X829499999Y-350499999I1500000J0D01*
G01*
X349499999Y-200499999D02*
G75*
G02*
X346499999Y-200499999I-1500000J0D01*
G01*
X346499999Y-200499999D02*
G75*
G02*
X349499999Y-200499999I1500000J0D01*
G01*
X559499999Y-365499999D02*
G75*
G02*
X556499999Y-365499999I-1500000J0D01*
G01*
X556499999Y-365499999D02*
G75*
G02*
X559499999Y-365499999I1500000J0D01*
G01*
X304499999Y-575499999D02*
G75*
G02*
X301499999Y-575499999I-1500000J0D01*
G01*
X301499999Y-575499999D02*
G75*
G02*
X304499999Y-575499999I1500000J0D01*
G01*
X709499999Y-335499999D02*
G75*
G02*
X706499999Y-335499999I-1500000J0D01*
G01*
X706499999Y-335499999D02*
G75*
G02*
X709499999Y-335499999I1500000J0D01*
G01*
X379499999Y-560499999D02*
G75*
G02*
X376499999Y-560499999I-1500000J0D01*
G01*
X376499999Y-560499999D02*
G75*
G02*
X379499999Y-560499999I1500000J0D01*
G01*
X544499999Y-410499999D02*
G75*
G02*
X541499999Y-410499999I-1500000J0D01*
G01*
X541499999Y-410499999D02*
G75*
G02*
X544499999Y-410499999I1500000J0D01*
G01*
X814499999Y-215499999D02*
G75*
G02*
X811499999Y-215499999I-1500000J0D01*
G01*
X811499999Y-215499999D02*
G75*
G02*
X814499999Y-215499999I1500000J0D01*
G01*
X859499999Y-305499999D02*
G75*
G02*
X856499999Y-305499999I-1500000J0D01*
G01*
X856499999Y-305499999D02*
G75*
G02*
X859499999Y-305499999I1500000J0D01*
G01*
X364499999Y-560499999D02*
G75*
G02*
X361499999Y-560499999I-1500000J0D01*
G01*
X361499999Y-560499999D02*
G75*
G02*
X364499999Y-560499999I1500000J0D01*
G01*
X679499999Y-215499999D02*
G75*
G02*
X676499999Y-215499999I-1500000J0D01*
G01*
X676499999Y-215499999D02*
G75*
G02*
X679499999Y-215499999I1500000J0D01*
G01*
X379499999Y-380499999D02*
G75*
G02*
X376499999Y-380499999I-1500000J0D01*
G01*
X376499999Y-380499999D02*
G75*
G02*
X379499999Y-380499999I1500000J0D01*
G01*
X619499999Y-350499999D02*
G75*
G02*
X616499999Y-350499999I-1500000J0D01*
G01*
X616499999Y-350499999D02*
G75*
G02*
X619499999Y-350499999I1500000J0D01*
G01*
X769499999Y-335499999D02*
G75*
G02*
X766499999Y-335499999I-1500000J0D01*
G01*
X766499999Y-335499999D02*
G75*
G02*
X769499999Y-335499999I1500000J0D01*
G01*
X244499999Y-305499999D02*
G75*
G02*
X241499999Y-305499999I-1500000J0D01*
G01*
X241499999Y-305499999D02*
G75*
G02*
X244499999Y-305499999I1500000J0D01*
G01*
X259499999Y-410499999D02*
G75*
G02*
X256499999Y-410499999I-1500000J0D01*
G01*
X256499999Y-410499999D02*
G75*
G02*
X259499999Y-410499999I1500000J0D01*
G01*
X349499999Y-350499999D02*
G75*
G02*
X346499999Y-350499999I-1500000J0D01*
G01*
X346499999Y-350499999D02*
G75*
G02*
X349499999Y-350499999I1500000J0D01*
G01*
X319499999Y-470499999D02*
G75*
G02*
X316499999Y-470499999I-1500000J0D01*
G01*
X316499999Y-470499999D02*
G75*
G02*
X319499999Y-470499999I1500000J0D01*
G01*
X649499999Y-215499999D02*
G75*
G02*
X646499999Y-215499999I-1500000J0D01*
G01*
X646499999Y-215499999D02*
G75*
G02*
X649499999Y-215499999I1500000J0D01*
G01*
X424499999Y-230499999D02*
G75*
G02*
X421499999Y-230499999I-1500000J0D01*
G01*
X421499999Y-230499999D02*
G75*
G02*
X424499999Y-230499999I1500000J0D01*
G01*
X799499999Y-440499999D02*
G75*
G02*
X796499999Y-440499999I-1500000J0D01*
G01*
X796499999Y-440499999D02*
G75*
G02*
X799499999Y-440499999I1500000J0D01*
G01*
X409499999Y-545499999D02*
G75*
G02*
X406499999Y-545499999I-1500000J0D01*
G01*
X406499999Y-545499999D02*
G75*
G02*
X409499999Y-545499999I1500000J0D01*
G01*
X529499999Y-440499999D02*
G75*
G02*
X526499999Y-440499999I-1500000J0D01*
G01*
X526499999Y-440499999D02*
G75*
G02*
X529499999Y-440499999I1500000J0D01*
G01*
X859499999Y-455499999D02*
G75*
G02*
X856499999Y-455499999I-1500000J0D01*
G01*
X856499999Y-455499999D02*
G75*
G02*
X859499999Y-455499999I1500000J0D01*
G01*
X274499999Y-260499999D02*
G75*
G02*
X271499999Y-260499999I-1500000J0D01*
G01*
X271499999Y-260499999D02*
G75*
G02*
X274499999Y-260499999I1500000J0D01*
G01*
X754499999Y-470499999D02*
G75*
G02*
X751499999Y-470499999I-1500000J0D01*
G01*
X751499999Y-470499999D02*
G75*
G02*
X754499999Y-470499999I1500000J0D01*
G01*
X364499999Y-320499999D02*
G75*
G02*
X361499999Y-320499999I-1500000J0D01*
G01*
X361499999Y-320499999D02*
G75*
G02*
X364499999Y-320499999I1500000J0D01*
G01*
X679499999Y-350499999D02*
G75*
G02*
X676499999Y-350499999I-1500000J0D01*
G01*
X676499999Y-350499999D02*
G75*
G02*
X679499999Y-350499999I1500000J0D01*
G01*
X544499999Y-305499999D02*
G75*
G02*
X541499999Y-305499999I-1500000J0D01*
G01*
X541499999Y-305499999D02*
G75*
G02*
X544499999Y-305499999I1500000J0D01*
G01*
X589499999Y-410499999D02*
G75*
G02*
X586499999Y-410499999I-1500000J0D01*
G01*
X586499999Y-410499999D02*
G75*
G02*
X589499999Y-410499999I1500000J0D01*
G01*
X349499999Y-560499999D02*
G75*
G02*
X346499999Y-560499999I-1500000J0D01*
G01*
X346499999Y-560499999D02*
G75*
G02*
X349499999Y-560499999I1500000J0D01*
G01*
X589499999Y-440499999D02*
G75*
G02*
X586499999Y-440499999I-1500000J0D01*
G01*
X586499999Y-440499999D02*
G75*
G02*
X589499999Y-440499999I1500000J0D01*
G01*
X634499999Y-320499999D02*
G75*
G02*
X631499999Y-320499999I-1500000J0D01*
G01*
X631499999Y-320499999D02*
G75*
G02*
X634499999Y-320499999I1500000J0D01*
G01*
X289499999Y-470499999D02*
G75*
G02*
X286499999Y-470499999I-1500000J0D01*
G01*
X286499999Y-470499999D02*
G75*
G02*
X289499999Y-470499999I1500000J0D01*
G01*
X334499999Y-260499999D02*
G75*
G02*
X331499999Y-260499999I-1500000J0D01*
G01*
X331499999Y-260499999D02*
G75*
G02*
X334499999Y-260499999I1500000J0D01*
G01*
X529499999Y-365499999D02*
G75*
G02*
X526499999Y-365499999I-1500000J0D01*
G01*
X526499999Y-365499999D02*
G75*
G02*
X529499999Y-365499999I1500000J0D01*
G01*
X649499999Y-470499999D02*
G75*
G02*
X646499999Y-470499999I-1500000J0D01*
G01*
X646499999Y-470499999D02*
G75*
G02*
X649499999Y-470499999I1500000J0D01*
G01*
X604499999Y-365499999D02*
G75*
G02*
X601499999Y-365499999I-1500000J0D01*
G01*
X601499999Y-365499999D02*
G75*
G02*
X604499999Y-365499999I1500000J0D01*
G01*
X544499999Y-320499999D02*
G75*
G02*
X541499999Y-320499999I-1500000J0D01*
G01*
X541499999Y-320499999D02*
G75*
G02*
X544499999Y-320499999I1500000J0D01*
G01*
X604499999Y-560499999D02*
G75*
G02*
X601499999Y-560499999I-1500000J0D01*
G01*
X601499999Y-560499999D02*
G75*
G02*
X604499999Y-560499999I1500000J0D01*
G01*
X815249999Y-380499999D02*
G75*
G02*
X810749999Y-380499999I-2250000J0D01*
G01*
X810749999Y-380499999D02*
G75*
G02*
X815249999Y-380499999I2250000J0D01*
G01*
X259499999Y-500499999D02*
G75*
G02*
X256499999Y-500499999I-1500000J0D01*
G01*
X256499999Y-500499999D02*
G75*
G02*
X259499999Y-500499999I1500000J0D01*
G01*
X664499999Y-185499999D02*
G75*
G02*
X661499999Y-185499999I-1500000J0D01*
G01*
X661499999Y-185499999D02*
G75*
G02*
X664499999Y-185499999I1500000J0D01*
G01*
X484499999Y-185499999D02*
G75*
G02*
X481499999Y-185499999I-1500000J0D01*
G01*
X481499999Y-185499999D02*
G75*
G02*
X484499999Y-185499999I1500000J0D01*
G01*
X484499999Y-200499999D02*
G75*
G02*
X481499999Y-200499999I-1500000J0D01*
G01*
X481499999Y-200499999D02*
G75*
G02*
X484499999Y-200499999I1500000J0D01*
G01*
X529499999Y-215499999D02*
G75*
G02*
X526499999Y-215499999I-1500000J0D01*
G01*
X526499999Y-215499999D02*
G75*
G02*
X529499999Y-215499999I1500000J0D01*
G01*
X694499999Y-425499999D02*
G75*
G02*
X691499999Y-425499999I-1500000J0D01*
G01*
X691499999Y-425499999D02*
G75*
G02*
X694499999Y-425499999I1500000J0D01*
G01*
X274499999Y-335499999D02*
G75*
G02*
X271499999Y-335499999I-1500000J0D01*
G01*
X271499999Y-335499999D02*
G75*
G02*
X274499999Y-335499999I1500000J0D01*
G01*
X319499999Y-575499999D02*
G75*
G02*
X316499999Y-575499999I-1500000J0D01*
G01*
X316499999Y-575499999D02*
G75*
G02*
X319499999Y-575499999I1500000J0D01*
G01*
X274499999Y-545499999D02*
G75*
G02*
X271499999Y-545499999I-1500000J0D01*
G01*
X271499999Y-545499999D02*
G75*
G02*
X274499999Y-545499999I1500000J0D01*
G01*
X664499999Y-455499999D02*
G75*
G02*
X661499999Y-455499999I-1500000J0D01*
G01*
X661499999Y-455499999D02*
G75*
G02*
X664499999Y-455499999I1500000J0D01*
G01*
X619499999Y-380499999D02*
G75*
G02*
X616499999Y-380499999I-1500000J0D01*
G01*
X616499999Y-380499999D02*
G75*
G02*
X619499999Y-380499999I1500000J0D01*
G01*
X514499999Y-335499999D02*
G75*
G02*
X511499999Y-335499999I-1500000J0D01*
G01*
X511499999Y-335499999D02*
G75*
G02*
X514499999Y-335499999I1500000J0D01*
G01*
X754499999Y-410499999D02*
G75*
G02*
X751499999Y-410499999I-1500000J0D01*
G01*
X751499999Y-410499999D02*
G75*
G02*
X754499999Y-410499999I1500000J0D01*
G01*
X814499999Y-335499999D02*
G75*
G02*
X811499999Y-335499999I-1500000J0D01*
G01*
X811499999Y-335499999D02*
G75*
G02*
X814499999Y-335499999I1500000J0D01*
G01*
X244499999Y-335499999D02*
G75*
G02*
X241499999Y-335499999I-1500000J0D01*
G01*
X241499999Y-335499999D02*
G75*
G02*
X244499999Y-335499999I1500000J0D01*
G01*
X664499999Y-500499999D02*
G75*
G02*
X661499999Y-500499999I-1500000J0D01*
G01*
X661499999Y-500499999D02*
G75*
G02*
X664499999Y-500499999I1500000J0D01*
G01*
X379499999Y-485499999D02*
G75*
G02*
X376499999Y-485499999I-1500000J0D01*
G01*
X376499999Y-485499999D02*
G75*
G02*
X379499999Y-485499999I1500000J0D01*
G01*
X499499999Y-410499999D02*
G75*
G02*
X496499999Y-410499999I-1500000J0D01*
G01*
X496499999Y-410499999D02*
G75*
G02*
X499499999Y-410499999I1500000J0D01*
G01*
X290249999Y-530499999D02*
G75*
G02*
X285749999Y-530499999I-2250000J0D01*
G01*
X285749999Y-530499999D02*
G75*
G02*
X290249999Y-530499999I2250000J0D01*
G01*
X289499999Y-545499999D02*
G75*
G02*
X286499999Y-545499999I-1500000J0D01*
G01*
X286499999Y-545499999D02*
G75*
G02*
X289499999Y-545499999I1500000J0D01*
G01*
X649499999Y-185499999D02*
G75*
G02*
X646499999Y-185499999I-1500000J0D01*
G01*
X646499999Y-185499999D02*
G75*
G02*
X649499999Y-185499999I1500000J0D01*
G01*
X289499999Y-215499999D02*
G75*
G02*
X286499999Y-215499999I-1500000J0D01*
G01*
X286499999Y-215499999D02*
G75*
G02*
X289499999Y-215499999I1500000J0D01*
G01*
X649499999Y-545499999D02*
G75*
G02*
X646499999Y-545499999I-1500000J0D01*
G01*
X646499999Y-545499999D02*
G75*
G02*
X649499999Y-545499999I1500000J0D01*
G01*
X604499999Y-260499999D02*
G75*
G02*
X601499999Y-260499999I-1500000J0D01*
G01*
X601499999Y-260499999D02*
G75*
G02*
X604499999Y-260499999I1500000J0D01*
G01*
X304499999Y-440499999D02*
G75*
G02*
X301499999Y-440499999I-1500000J0D01*
G01*
X301499999Y-440499999D02*
G75*
G02*
X304499999Y-440499999I1500000J0D01*
G01*
X394499999Y-485499999D02*
G75*
G02*
X391499999Y-485499999I-1500000J0D01*
G01*
X391499999Y-485499999D02*
G75*
G02*
X394499999Y-485499999I1500000J0D01*
G01*
X244499999Y-200499999D02*
G75*
G02*
X241499999Y-200499999I-1500000J0D01*
G01*
X241499999Y-200499999D02*
G75*
G02*
X244499999Y-200499999I1500000J0D01*
G01*
X394499999Y-455499999D02*
G75*
G02*
X391499999Y-455499999I-1500000J0D01*
G01*
X391499999Y-455499999D02*
G75*
G02*
X394499999Y-455499999I1500000J0D01*
G01*
X664499999Y-305499999D02*
G75*
G02*
X661499999Y-305499999I-1500000J0D01*
G01*
X661499999Y-305499999D02*
G75*
G02*
X664499999Y-305499999I1500000J0D01*
G01*
X439499999Y-215499999D02*
G75*
G02*
X436499999Y-215499999I-1500000J0D01*
G01*
X436499999Y-215499999D02*
G75*
G02*
X439499999Y-215499999I1500000J0D01*
G01*
X754499999Y-305499999D02*
G75*
G02*
X751499999Y-305499999I-1500000J0D01*
G01*
X751499999Y-305499999D02*
G75*
G02*
X754499999Y-305499999I1500000J0D01*
G01*
X469499999Y-260499999D02*
G75*
G02*
X466499999Y-260499999I-1500000J0D01*
G01*
X466499999Y-260499999D02*
G75*
G02*
X469499999Y-260499999I1500000J0D01*
G01*
X364499999Y-245499999D02*
G75*
G02*
X361499999Y-245499999I-1500000J0D01*
G01*
X361499999Y-245499999D02*
G75*
G02*
X364499999Y-245499999I1500000J0D01*
G01*
X844499999Y-215499999D02*
G75*
G02*
X841499999Y-215499999I-1500000J0D01*
G01*
X841499999Y-215499999D02*
G75*
G02*
X844499999Y-215499999I1500000J0D01*
G01*
X514499999Y-485499999D02*
G75*
G02*
X511499999Y-485499999I-1500000J0D01*
G01*
X511499999Y-485499999D02*
G75*
G02*
X514499999Y-485499999I1500000J0D01*
G01*
X454499999Y-290499999D02*
G75*
G02*
X451499999Y-290499999I-1500000J0D01*
G01*
X451499999Y-290499999D02*
G75*
G02*
X454499999Y-290499999I1500000J0D01*
G01*
X844499999Y-575499999D02*
G75*
G02*
X841499999Y-575499999I-1500000J0D01*
G01*
X841499999Y-575499999D02*
G75*
G02*
X844499999Y-575499999I1500000J0D01*
G01*
X290249999Y-230499999D02*
G75*
G02*
X285749999Y-230499999I-2250000J0D01*
G01*
X285749999Y-230499999D02*
G75*
G02*
X290249999Y-230499999I2250000J0D01*
G01*
X364499999Y-575499999D02*
G75*
G02*
X361499999Y-575499999I-1500000J0D01*
G01*
X361499999Y-575499999D02*
G75*
G02*
X364499999Y-575499999I1500000J0D01*
G01*
X769499999Y-305499999D02*
G75*
G02*
X766499999Y-305499999I-1500000J0D01*
G01*
X766499999Y-305499999D02*
G75*
G02*
X769499999Y-305499999I1500000J0D01*
G01*
X649499999Y-320499999D02*
G75*
G02*
X646499999Y-320499999I-1500000J0D01*
G01*
X646499999Y-320499999D02*
G75*
G02*
X649499999Y-320499999I1500000J0D01*
G01*
X529499999Y-230499999D02*
G75*
G02*
X526499999Y-230499999I-1500000J0D01*
G01*
X526499999Y-230499999D02*
G75*
G02*
X529499999Y-230499999I1500000J0D01*
G01*
X694499999Y-335499999D02*
G75*
G02*
X691499999Y-335499999I-1500000J0D01*
G01*
X691499999Y-335499999D02*
G75*
G02*
X694499999Y-335499999I1500000J0D01*
G01*
X424499999Y-530499999D02*
G75*
G02*
X421499999Y-530499999I-1500000J0D01*
G01*
X421499999Y-530499999D02*
G75*
G02*
X424499999Y-530499999I1500000J0D01*
G01*
X784499999Y-425499999D02*
G75*
G02*
X781499999Y-425499999I-1500000J0D01*
G01*
X781499999Y-425499999D02*
G75*
G02*
X784499999Y-425499999I1500000J0D01*
G01*
X349499999Y-365499999D02*
G75*
G02*
X346499999Y-365499999I-1500000J0D01*
G01*
X346499999Y-365499999D02*
G75*
G02*
X349499999Y-365499999I1500000J0D01*
G01*
X544499999Y-500499999D02*
G75*
G02*
X541499999Y-500499999I-1500000J0D01*
G01*
X541499999Y-500499999D02*
G75*
G02*
X544499999Y-500499999I1500000J0D01*
G01*
X394499999Y-380499999D02*
G75*
G02*
X391499999Y-380499999I-1500000J0D01*
G01*
X391499999Y-380499999D02*
G75*
G02*
X394499999Y-380499999I1500000J0D01*
G01*
X454499999Y-275499999D02*
G75*
G02*
X451499999Y-275499999I-1500000J0D01*
G01*
X451499999Y-275499999D02*
G75*
G02*
X454499999Y-275499999I1500000J0D01*
G01*
X334499999Y-365499999D02*
G75*
G02*
X331499999Y-365499999I-1500000J0D01*
G01*
X331499999Y-365499999D02*
G75*
G02*
X334499999Y-365499999I1500000J0D01*
G01*
X499499999Y-485499999D02*
G75*
G02*
X496499999Y-485499999I-1500000J0D01*
G01*
X496499999Y-485499999D02*
G75*
G02*
X499499999Y-485499999I1500000J0D01*
G01*
X544499999Y-245499999D02*
G75*
G02*
X541499999Y-245499999I-1500000J0D01*
G01*
X541499999Y-245499999D02*
G75*
G02*
X544499999Y-245499999I1500000J0D01*
G01*
X349499999Y-215499999D02*
G75*
G02*
X346499999Y-215499999I-1500000J0D01*
G01*
X346499999Y-215499999D02*
G75*
G02*
X349499999Y-215499999I1500000J0D01*
G01*
X799499999Y-410499999D02*
G75*
G02*
X796499999Y-410499999I-1500000J0D01*
G01*
X796499999Y-410499999D02*
G75*
G02*
X799499999Y-410499999I1500000J0D01*
G01*
X694499999Y-290499999D02*
G75*
G02*
X691499999Y-290499999I-1500000J0D01*
G01*
X691499999Y-290499999D02*
G75*
G02*
X694499999Y-290499999I1500000J0D01*
G01*
X844499999Y-275499999D02*
G75*
G02*
X841499999Y-275499999I-1500000J0D01*
G01*
X841499999Y-275499999D02*
G75*
G02*
X844499999Y-275499999I1500000J0D01*
G01*
X739499999Y-350499999D02*
G75*
G02*
X736499999Y-350499999I-1500000J0D01*
G01*
X736499999Y-350499999D02*
G75*
G02*
X739499999Y-350499999I1500000J0D01*
G01*
X679499999Y-245499999D02*
G75*
G02*
X676499999Y-245499999I-1500000J0D01*
G01*
X676499999Y-245499999D02*
G75*
G02*
X679499999Y-245499999I1500000J0D01*
G01*
X484499999Y-215499999D02*
G75*
G02*
X481499999Y-215499999I-1500000J0D01*
G01*
X481499999Y-215499999D02*
G75*
G02*
X484499999Y-215499999I1500000J0D01*
G01*
X289499999Y-440499999D02*
G75*
G02*
X286499999Y-440499999I-1500000J0D01*
G01*
X286499999Y-440499999D02*
G75*
G02*
X289499999Y-440499999I1500000J0D01*
G01*
X244499999Y-275499999D02*
G75*
G02*
X241499999Y-275499999I-1500000J0D01*
G01*
X241499999Y-275499999D02*
G75*
G02*
X244499999Y-275499999I1500000J0D01*
G01*
X859499999Y-560499999D02*
G75*
G02*
X856499999Y-560499999I-1500000J0D01*
G01*
X856499999Y-560499999D02*
G75*
G02*
X859499999Y-560499999I1500000J0D01*
G01*
X709499999Y-200499999D02*
G75*
G02*
X706499999Y-200499999I-1500000J0D01*
G01*
X706499999Y-200499999D02*
G75*
G02*
X709499999Y-200499999I1500000J0D01*
G01*
X679499999Y-365499999D02*
G75*
G02*
X676499999Y-365499999I-1500000J0D01*
G01*
X676499999Y-365499999D02*
G75*
G02*
X679499999Y-365499999I1500000J0D01*
G01*
X619499999Y-455499999D02*
G75*
G02*
X616499999Y-455499999I-1500000J0D01*
G01*
X616499999Y-455499999D02*
G75*
G02*
X619499999Y-455499999I1500000J0D01*
G01*
X619499999Y-245499999D02*
G75*
G02*
X616499999Y-245499999I-1500000J0D01*
G01*
X616499999Y-245499999D02*
G75*
G02*
X619499999Y-245499999I1500000J0D01*
G01*
X679499999Y-290499999D02*
G75*
G02*
X676499999Y-290499999I-1500000J0D01*
G01*
X676499999Y-290499999D02*
G75*
G02*
X679499999Y-290499999I1500000J0D01*
G01*
X619499999Y-440499999D02*
G75*
G02*
X616499999Y-440499999I-1500000J0D01*
G01*
X616499999Y-440499999D02*
G75*
G02*
X619499999Y-440499999I1500000J0D01*
G01*
X559499999Y-440499999D02*
G75*
G02*
X556499999Y-440499999I-1500000J0D01*
G01*
X556499999Y-440499999D02*
G75*
G02*
X559499999Y-440499999I1500000J0D01*
G01*
X259499999Y-320499999D02*
G75*
G02*
X256499999Y-320499999I-1500000J0D01*
G01*
X256499999Y-320499999D02*
G75*
G02*
X259499999Y-320499999I1500000J0D01*
G01*
X829499999Y-245499999D02*
G75*
G02*
X826499999Y-245499999I-1500000J0D01*
G01*
X826499999Y-245499999D02*
G75*
G02*
X829499999Y-245499999I1500000J0D01*
G01*
X574499999Y-185499999D02*
G75*
G02*
X571499999Y-185499999I-1500000J0D01*
G01*
X571499999Y-185499999D02*
G75*
G02*
X574499999Y-185499999I1500000J0D01*
G01*
X259499999Y-290499999D02*
G75*
G02*
X256499999Y-290499999I-1500000J0D01*
G01*
X256499999Y-290499999D02*
G75*
G02*
X259499999Y-290499999I1500000J0D01*
G01*
X574499999Y-275499999D02*
G75*
G02*
X571499999Y-275499999I-1500000J0D01*
G01*
X571499999Y-275499999D02*
G75*
G02*
X574499999Y-275499999I1500000J0D01*
G01*
X814499999Y-425499999D02*
G75*
G02*
X811499999Y-425499999I-1500000J0D01*
G01*
X811499999Y-425499999D02*
G75*
G02*
X814499999Y-425499999I1500000J0D01*
G01*
X454499999Y-365499999D02*
G75*
G02*
X451499999Y-365499999I-1500000J0D01*
G01*
X451499999Y-365499999D02*
G75*
G02*
X454499999Y-365499999I1500000J0D01*
G01*
X349499999Y-455499999D02*
G75*
G02*
X346499999Y-455499999I-1500000J0D01*
G01*
X346499999Y-455499999D02*
G75*
G02*
X349499999Y-455499999I1500000J0D01*
G01*
X589499999Y-335499999D02*
G75*
G02*
X586499999Y-335499999I-1500000J0D01*
G01*
X586499999Y-335499999D02*
G75*
G02*
X589499999Y-335499999I1500000J0D01*
G01*
X289499999Y-200499999D02*
G75*
G02*
X286499999Y-200499999I-1500000J0D01*
G01*
X286499999Y-200499999D02*
G75*
G02*
X289499999Y-200499999I1500000J0D01*
G01*
X514499999Y-560499999D02*
G75*
G02*
X511499999Y-560499999I-1500000J0D01*
G01*
X511499999Y-560499999D02*
G75*
G02*
X514499999Y-560499999I1500000J0D01*
G01*
X694499999Y-365499999D02*
G75*
G02*
X691499999Y-365499999I-1500000J0D01*
G01*
X691499999Y-365499999D02*
G75*
G02*
X694499999Y-365499999I1500000J0D01*
G01*
X244499999Y-185499999D02*
G75*
G02*
X241499999Y-185499999I-1500000J0D01*
G01*
X241499999Y-185499999D02*
G75*
G02*
X244499999Y-185499999I1500000J0D01*
G01*
X664499999Y-335499999D02*
G75*
G02*
X661499999Y-335499999I-1500000J0D01*
G01*
X661499999Y-335499999D02*
G75*
G02*
X664499999Y-335499999I1500000J0D01*
G01*
X379499999Y-365499999D02*
G75*
G02*
X376499999Y-365499999I-1500000J0D01*
G01*
X376499999Y-365499999D02*
G75*
G02*
X379499999Y-365499999I1500000J0D01*
G01*
X424499999Y-560499999D02*
G75*
G02*
X421499999Y-560499999I-1500000J0D01*
G01*
X421499999Y-560499999D02*
G75*
G02*
X424499999Y-560499999I1500000J0D01*
G01*
X559499999Y-350499999D02*
G75*
G02*
X556499999Y-350499999I-1500000J0D01*
G01*
X556499999Y-350499999D02*
G75*
G02*
X559499999Y-350499999I1500000J0D01*
G01*
X574499999Y-470499999D02*
G75*
G02*
X571499999Y-470499999I-1500000J0D01*
G01*
X571499999Y-470499999D02*
G75*
G02*
X574499999Y-470499999I1500000J0D01*
G01*
X559499999Y-425499999D02*
G75*
G02*
X556499999Y-425499999I-1500000J0D01*
G01*
X556499999Y-425499999D02*
G75*
G02*
X559499999Y-425499999I1500000J0D01*
G01*
X469499999Y-515499999D02*
G75*
G02*
X466499999Y-515499999I-1500000J0D01*
G01*
X466499999Y-515499999D02*
G75*
G02*
X469499999Y-515499999I1500000J0D01*
G01*
X859499999Y-380499999D02*
G75*
G02*
X856499999Y-380499999I-1500000J0D01*
G01*
X856499999Y-380499999D02*
G75*
G02*
X859499999Y-380499999I1500000J0D01*
G01*
X469499999Y-395499999D02*
G75*
G02*
X466499999Y-395499999I-1500000J0D01*
G01*
X466499999Y-395499999D02*
G75*
G02*
X469499999Y-395499999I1500000J0D01*
G01*
X529499999Y-530499999D02*
G75*
G02*
X526499999Y-530499999I-1500000J0D01*
G01*
X526499999Y-530499999D02*
G75*
G02*
X529499999Y-530499999I1500000J0D01*
G01*
X394499999Y-425499999D02*
G75*
G02*
X391499999Y-425499999I-1500000J0D01*
G01*
X391499999Y-425499999D02*
G75*
G02*
X394499999Y-425499999I1500000J0D01*
G01*
X694499999Y-575499999D02*
G75*
G02*
X691499999Y-575499999I-1500000J0D01*
G01*
X691499999Y-575499999D02*
G75*
G02*
X694499999Y-575499999I1500000J0D01*
G01*
X259499999Y-215499999D02*
G75*
G02*
X256499999Y-215499999I-1500000J0D01*
G01*
X256499999Y-215499999D02*
G75*
G02*
X259499999Y-215499999I1500000J0D01*
G01*
X799499999Y-335499999D02*
G75*
G02*
X796499999Y-335499999I-1500000J0D01*
G01*
X796499999Y-335499999D02*
G75*
G02*
X799499999Y-335499999I1500000J0D01*
G01*
X394499999Y-200499999D02*
G75*
G02*
X391499999Y-200499999I-1500000J0D01*
G01*
X391499999Y-200499999D02*
G75*
G02*
X394499999Y-200499999I1500000J0D01*
G01*
X409499999Y-560499999D02*
G75*
G02*
X406499999Y-560499999I-1500000J0D01*
G01*
X406499999Y-560499999D02*
G75*
G02*
X409499999Y-560499999I1500000J0D01*
G01*
X514499999Y-305499999D02*
G75*
G02*
X511499999Y-305499999I-1500000J0D01*
G01*
X511499999Y-305499999D02*
G75*
G02*
X514499999Y-305499999I1500000J0D01*
G01*
X334499999Y-470499999D02*
G75*
G02*
X331499999Y-470499999I-1500000J0D01*
G01*
X331499999Y-470499999D02*
G75*
G02*
X334499999Y-470499999I1500000J0D01*
G01*
X739499999Y-275499999D02*
G75*
G02*
X736499999Y-275499999I-1500000J0D01*
G01*
X736499999Y-275499999D02*
G75*
G02*
X739499999Y-275499999I1500000J0D01*
G01*
X649499999Y-245499999D02*
G75*
G02*
X646499999Y-245499999I-1500000J0D01*
G01*
X646499999Y-245499999D02*
G75*
G02*
X649499999Y-245499999I1500000J0D01*
G01*
X634499999Y-305499999D02*
G75*
G02*
X631499999Y-305499999I-1500000J0D01*
G01*
X631499999Y-305499999D02*
G75*
G02*
X634499999Y-305499999I1500000J0D01*
G01*
X484499999Y-545499999D02*
G75*
G02*
X481499999Y-545499999I-1500000J0D01*
G01*
X481499999Y-545499999D02*
G75*
G02*
X484499999Y-545499999I1500000J0D01*
G01*
X394499999Y-230499999D02*
G75*
G02*
X391499999Y-230499999I-1500000J0D01*
G01*
X391499999Y-230499999D02*
G75*
G02*
X394499999Y-230499999I1500000J0D01*
G01*
X349499999Y-515499999D02*
G75*
G02*
X346499999Y-515499999I-1500000J0D01*
G01*
X346499999Y-515499999D02*
G75*
G02*
X349499999Y-515499999I1500000J0D01*
G01*
X544499999Y-395499999D02*
G75*
G02*
X541499999Y-395499999I-1500000J0D01*
G01*
X541499999Y-395499999D02*
G75*
G02*
X544499999Y-395499999I1500000J0D01*
G01*
X589499999Y-230499999D02*
G75*
G02*
X586499999Y-230499999I-1500000J0D01*
G01*
X586499999Y-230499999D02*
G75*
G02*
X589499999Y-230499999I1500000J0D01*
G01*
X739499999Y-260499999D02*
G75*
G02*
X736499999Y-260499999I-1500000J0D01*
G01*
X736499999Y-260499999D02*
G75*
G02*
X739499999Y-260499999I1500000J0D01*
G01*
X709499999Y-350499999D02*
G75*
G02*
X706499999Y-350499999I-1500000J0D01*
G01*
X706499999Y-350499999D02*
G75*
G02*
X709499999Y-350499999I1500000J0D01*
G01*
X754499999Y-365499999D02*
G75*
G02*
X751499999Y-365499999I-1500000J0D01*
G01*
X751499999Y-365499999D02*
G75*
G02*
X754499999Y-365499999I1500000J0D01*
G01*
X664499999Y-365499999D02*
G75*
G02*
X661499999Y-365499999I-1500000J0D01*
G01*
X661499999Y-365499999D02*
G75*
G02*
X664499999Y-365499999I1500000J0D01*
G01*
X259499999Y-305499999D02*
G75*
G02*
X256499999Y-305499999I-1500000J0D01*
G01*
X256499999Y-305499999D02*
G75*
G02*
X259499999Y-305499999I1500000J0D01*
G01*
X739499999Y-425499999D02*
G75*
G02*
X736499999Y-425499999I-1500000J0D01*
G01*
X736499999Y-425499999D02*
G75*
G02*
X739499999Y-425499999I1500000J0D01*
G01*
X619499999Y-260499999D02*
G75*
G02*
X616499999Y-260499999I-1500000J0D01*
G01*
X616499999Y-260499999D02*
G75*
G02*
X619499999Y-260499999I1500000J0D01*
G01*
X484499999Y-275499999D02*
G75*
G02*
X481499999Y-275499999I-1500000J0D01*
G01*
X481499999Y-275499999D02*
G75*
G02*
X484499999Y-275499999I1500000J0D01*
G01*
X544499999Y-185499999D02*
G75*
G02*
X541499999Y-185499999I-1500000J0D01*
G01*
X541499999Y-185499999D02*
G75*
G02*
X544499999Y-185499999I1500000J0D01*
G01*
X289499999Y-560499999D02*
G75*
G02*
X286499999Y-560499999I-1500000J0D01*
G01*
X286499999Y-560499999D02*
G75*
G02*
X289499999Y-560499999I1500000J0D01*
G01*
X589499999Y-245499999D02*
G75*
G02*
X586499999Y-245499999I-1500000J0D01*
G01*
X586499999Y-245499999D02*
G75*
G02*
X589499999Y-245499999I1500000J0D01*
G01*
X769499999Y-185499999D02*
G75*
G02*
X766499999Y-185499999I-1500000J0D01*
G01*
X766499999Y-185499999D02*
G75*
G02*
X769499999Y-185499999I1500000J0D01*
G01*
X379499999Y-395499999D02*
G75*
G02*
X376499999Y-395499999I-1500000J0D01*
G01*
X376499999Y-395499999D02*
G75*
G02*
X379499999Y-395499999I1500000J0D01*
G01*
X289499999Y-425499999D02*
G75*
G02*
X286499999Y-425499999I-1500000J0D01*
G01*
X286499999Y-425499999D02*
G75*
G02*
X289499999Y-425499999I1500000J0D01*
G01*
X559499999Y-290499999D02*
G75*
G02*
X556499999Y-290499999I-1500000J0D01*
G01*
X556499999Y-290499999D02*
G75*
G02*
X559499999Y-290499999I1500000J0D01*
G01*
X589499999Y-485499999D02*
G75*
G02*
X586499999Y-485499999I-1500000J0D01*
G01*
X586499999Y-485499999D02*
G75*
G02*
X589499999Y-485499999I1500000J0D01*
G01*
X334499999Y-275499999D02*
G75*
G02*
X331499999Y-275499999I-1500000J0D01*
G01*
X331499999Y-275499999D02*
G75*
G02*
X334499999Y-275499999I1500000J0D01*
G01*
X304499999Y-290499999D02*
G75*
G02*
X301499999Y-290499999I-1500000J0D01*
G01*
X301499999Y-290499999D02*
G75*
G02*
X304499999Y-290499999I1500000J0D01*
G01*
X304499999Y-200499999D02*
G75*
G02*
X301499999Y-200499999I-1500000J0D01*
G01*
X301499999Y-200499999D02*
G75*
G02*
X304499999Y-200499999I1500000J0D01*
G01*
X379499999Y-575499999D02*
G75*
G02*
X376499999Y-575499999I-1500000J0D01*
G01*
X376499999Y-575499999D02*
G75*
G02*
X379499999Y-575499999I1500000J0D01*
G01*
X244499999Y-545499999D02*
G75*
G02*
X241499999Y-545499999I-1500000J0D01*
G01*
X241499999Y-545499999D02*
G75*
G02*
X244499999Y-545499999I1500000J0D01*
G01*
X799499999Y-545499999D02*
G75*
G02*
X796499999Y-545499999I-1500000J0D01*
G01*
X796499999Y-545499999D02*
G75*
G02*
X799499999Y-545499999I1500000J0D01*
G01*
X289499999Y-275499999D02*
G75*
G02*
X286499999Y-275499999I-1500000J0D01*
G01*
X286499999Y-275499999D02*
G75*
G02*
X289499999Y-275499999I1500000J0D01*
G01*
X844499999Y-335499999D02*
G75*
G02*
X841499999Y-335499999I-1500000J0D01*
G01*
X841499999Y-335499999D02*
G75*
G02*
X844499999Y-335499999I1500000J0D01*
G01*
X634499999Y-260499999D02*
G75*
G02*
X631499999Y-260499999I-1500000J0D01*
G01*
X631499999Y-260499999D02*
G75*
G02*
X634499999Y-260499999I1500000J0D01*
G01*
X349499999Y-305499999D02*
G75*
G02*
X346499999Y-305499999I-1500000J0D01*
G01*
X346499999Y-305499999D02*
G75*
G02*
X349499999Y-305499999I1500000J0D01*
G01*
X274499999Y-530499999D02*
G75*
G02*
X271499999Y-530499999I-1500000J0D01*
G01*
X271499999Y-530499999D02*
G75*
G02*
X274499999Y-530499999I1500000J0D01*
G01*
X274499999Y-425499999D02*
G75*
G02*
X271499999Y-425499999I-1500000J0D01*
G01*
X271499999Y-425499999D02*
G75*
G02*
X274499999Y-425499999I1500000J0D01*
G01*
X709499999Y-275499999D02*
G75*
G02*
X706499999Y-275499999I-1500000J0D01*
G01*
X706499999Y-275499999D02*
G75*
G02*
X709499999Y-275499999I1500000J0D01*
G01*
X514499999Y-395499999D02*
G75*
G02*
X511499999Y-395499999I-1500000J0D01*
G01*
X511499999Y-395499999D02*
G75*
G02*
X514499999Y-395499999I1500000J0D01*
G01*
X649499999Y-335499999D02*
G75*
G02*
X646499999Y-335499999I-1500000J0D01*
G01*
X646499999Y-335499999D02*
G75*
G02*
X649499999Y-335499999I1500000J0D01*
G01*
X829499999Y-380499999D02*
G75*
G02*
X826499999Y-380499999I-1500000J0D01*
G01*
X826499999Y-380499999D02*
G75*
G02*
X829499999Y-380499999I1500000J0D01*
G01*
X274499999Y-485499999D02*
G75*
G02*
X271499999Y-485499999I-1500000J0D01*
G01*
X271499999Y-485499999D02*
G75*
G02*
X274499999Y-485499999I1500000J0D01*
G01*
X709499999Y-515499999D02*
G75*
G02*
X706499999Y-515499999I-1500000J0D01*
G01*
X706499999Y-515499999D02*
G75*
G02*
X709499999Y-515499999I1500000J0D01*
G01*
X394499999Y-365499999D02*
G75*
G02*
X391499999Y-365499999I-1500000J0D01*
G01*
X391499999Y-365499999D02*
G75*
G02*
X394499999Y-365499999I1500000J0D01*
G01*
X334499999Y-440499999D02*
G75*
G02*
X331499999Y-440499999I-1500000J0D01*
G01*
X331499999Y-440499999D02*
G75*
G02*
X334499999Y-440499999I1500000J0D01*
G01*
X364499999Y-455499999D02*
G75*
G02*
X361499999Y-455499999I-1500000J0D01*
G01*
X361499999Y-455499999D02*
G75*
G02*
X364499999Y-455499999I1500000J0D01*
G01*
X634499999Y-215499999D02*
G75*
G02*
X631499999Y-215499999I-1500000J0D01*
G01*
X631499999Y-215499999D02*
G75*
G02*
X634499999Y-215499999I1500000J0D01*
G01*
X379499999Y-230499999D02*
G75*
G02*
X376499999Y-230499999I-1500000J0D01*
G01*
X376499999Y-230499999D02*
G75*
G02*
X379499999Y-230499999I1500000J0D01*
G01*
X649499999Y-560499999D02*
G75*
G02*
X646499999Y-560499999I-1500000J0D01*
G01*
X646499999Y-560499999D02*
G75*
G02*
X649499999Y-560499999I1500000J0D01*
G01*
X544499999Y-470499999D02*
G75*
G02*
X541499999Y-470499999I-1500000J0D01*
G01*
X541499999Y-470499999D02*
G75*
G02*
X544499999Y-470499999I1500000J0D01*
G01*
X799499999Y-560499999D02*
G75*
G02*
X796499999Y-560499999I-1500000J0D01*
G01*
X796499999Y-560499999D02*
G75*
G02*
X799499999Y-560499999I1500000J0D01*
G01*
X499499999Y-395499999D02*
G75*
G02*
X496499999Y-395499999I-1500000J0D01*
G01*
X496499999Y-395499999D02*
G75*
G02*
X499499999Y-395499999I1500000J0D01*
G01*
X814499999Y-365499999D02*
G75*
G02*
X811499999Y-365499999I-1500000J0D01*
G01*
X811499999Y-365499999D02*
G75*
G02*
X814499999Y-365499999I1500000J0D01*
G01*
X619499999Y-335499999D02*
G75*
G02*
X616499999Y-335499999I-1500000J0D01*
G01*
X616499999Y-335499999D02*
G75*
G02*
X619499999Y-335499999I1500000J0D01*
G01*
X409499999Y-500499999D02*
G75*
G02*
X406499999Y-500499999I-1500000J0D01*
G01*
X406499999Y-500499999D02*
G75*
G02*
X409499999Y-500499999I1500000J0D01*
G01*
X484499999Y-290499999D02*
G75*
G02*
X481499999Y-290499999I-1500000J0D01*
G01*
X481499999Y-290499999D02*
G75*
G02*
X484499999Y-290499999I1500000J0D01*
G01*
X439499999Y-515499999D02*
G75*
G02*
X436499999Y-515499999I-1500000J0D01*
G01*
X436499999Y-515499999D02*
G75*
G02*
X439499999Y-515499999I1500000J0D01*
G01*
X514499999Y-530499999D02*
G75*
G02*
X511499999Y-530499999I-1500000J0D01*
G01*
X511499999Y-530499999D02*
G75*
G02*
X514499999Y-530499999I1500000J0D01*
G01*
X859499999Y-395499999D02*
G75*
G02*
X856499999Y-395499999I-1500000J0D01*
G01*
X856499999Y-395499999D02*
G75*
G02*
X859499999Y-395499999I1500000J0D01*
G01*
X514499999Y-350499999D02*
G75*
G02*
X511499999Y-350499999I-1500000J0D01*
G01*
X511499999Y-350499999D02*
G75*
G02*
X514499999Y-350499999I1500000J0D01*
G01*
X844499999Y-545499999D02*
G75*
G02*
X841499999Y-545499999I-1500000J0D01*
G01*
X841499999Y-545499999D02*
G75*
G02*
X844499999Y-545499999I1500000J0D01*
G01*
X544499999Y-290499999D02*
G75*
G02*
X541499999Y-290499999I-1500000J0D01*
G01*
X541499999Y-290499999D02*
G75*
G02*
X544499999Y-290499999I1500000J0D01*
G01*
X709499999Y-245499999D02*
G75*
G02*
X706499999Y-245499999I-1500000J0D01*
G01*
X706499999Y-245499999D02*
G75*
G02*
X709499999Y-245499999I1500000J0D01*
G01*
X799499999Y-530499999D02*
G75*
G02*
X796499999Y-530499999I-1500000J0D01*
G01*
X796499999Y-530499999D02*
G75*
G02*
X799499999Y-530499999I1500000J0D01*
G01*
X544499999Y-380499999D02*
G75*
G02*
X541499999Y-380499999I-1500000J0D01*
G01*
X541499999Y-380499999D02*
G75*
G02*
X544499999Y-380499999I1500000J0D01*
G01*
X289499999Y-455499999D02*
G75*
G02*
X286499999Y-455499999I-1500000J0D01*
G01*
X286499999Y-455499999D02*
G75*
G02*
X289499999Y-455499999I1500000J0D01*
G01*
X769499999Y-455499999D02*
G75*
G02*
X766499999Y-455499999I-1500000J0D01*
G01*
X766499999Y-455499999D02*
G75*
G02*
X769499999Y-455499999I1500000J0D01*
G01*
X424499999Y-335499999D02*
G75*
G02*
X421499999Y-335499999I-1500000J0D01*
G01*
X421499999Y-335499999D02*
G75*
G02*
X424499999Y-335499999I1500000J0D01*
G01*
X319499999Y-185499999D02*
G75*
G02*
X316499999Y-185499999I-1500000J0D01*
G01*
X316499999Y-185499999D02*
G75*
G02*
X319499999Y-185499999I1500000J0D01*
G01*
X769499999Y-260499999D02*
G75*
G02*
X766499999Y-260499999I-1500000J0D01*
G01*
X766499999Y-260499999D02*
G75*
G02*
X769499999Y-260499999I1500000J0D01*
G01*
X799499999Y-215499999D02*
G75*
G02*
X796499999Y-215499999I-1500000J0D01*
G01*
X796499999Y-215499999D02*
G75*
G02*
X799499999Y-215499999I1500000J0D01*
G01*
X469499999Y-365499999D02*
G75*
G02*
X466499999Y-365499999I-1500000J0D01*
G01*
X466499999Y-365499999D02*
G75*
G02*
X469499999Y-365499999I1500000J0D01*
G01*
X544499999Y-515499999D02*
G75*
G02*
X541499999Y-515499999I-1500000J0D01*
G01*
X541499999Y-515499999D02*
G75*
G02*
X544499999Y-515499999I1500000J0D01*
G01*
X454499999Y-575499999D02*
G75*
G02*
X451499999Y-575499999I-1500000J0D01*
G01*
X451499999Y-575499999D02*
G75*
G02*
X454499999Y-575499999I1500000J0D01*
G01*
X244499999Y-395499999D02*
G75*
G02*
X241499999Y-395499999I-1500000J0D01*
G01*
X241499999Y-395499999D02*
G75*
G02*
X244499999Y-395499999I1500000J0D01*
G01*
X574499999Y-365499999D02*
G75*
G02*
X571499999Y-365499999I-1500000J0D01*
G01*
X571499999Y-365499999D02*
G75*
G02*
X574499999Y-365499999I1500000J0D01*
G01*
X454499999Y-245499999D02*
G75*
G02*
X451499999Y-245499999I-1500000J0D01*
G01*
X451499999Y-245499999D02*
G75*
G02*
X454499999Y-245499999I1500000J0D01*
G01*
X829499999Y-545499999D02*
G75*
G02*
X826499999Y-545499999I-1500000J0D01*
G01*
X826499999Y-545499999D02*
G75*
G02*
X829499999Y-545499999I1500000J0D01*
G01*
X814499999Y-395499999D02*
G75*
G02*
X811499999Y-395499999I-1500000J0D01*
G01*
X811499999Y-395499999D02*
G75*
G02*
X814499999Y-395499999I1500000J0D01*
G01*
X349499999Y-395499999D02*
G75*
G02*
X346499999Y-395499999I-1500000J0D01*
G01*
X346499999Y-395499999D02*
G75*
G02*
X349499999Y-395499999I1500000J0D01*
G01*
X349499999Y-290499999D02*
G75*
G02*
X346499999Y-290499999I-1500000J0D01*
G01*
X346499999Y-290499999D02*
G75*
G02*
X349499999Y-290499999I1500000J0D01*
G01*
X364499999Y-395499999D02*
G75*
G02*
X361499999Y-395499999I-1500000J0D01*
G01*
X361499999Y-395499999D02*
G75*
G02*
X364499999Y-395499999I1500000J0D01*
G01*
X379499999Y-290499999D02*
G75*
G02*
X376499999Y-290499999I-1500000J0D01*
G01*
X376499999Y-290499999D02*
G75*
G02*
X379499999Y-290499999I1500000J0D01*
G01*
X799499999Y-200499999D02*
G75*
G02*
X796499999Y-200499999I-1500000J0D01*
G01*
X796499999Y-200499999D02*
G75*
G02*
X799499999Y-200499999I1500000J0D01*
G01*
X754499999Y-440499999D02*
G75*
G02*
X751499999Y-440499999I-1500000J0D01*
G01*
X751499999Y-440499999D02*
G75*
G02*
X754499999Y-440499999I1500000J0D01*
G01*
X379499999Y-305499999D02*
G75*
G02*
X376499999Y-305499999I-1500000J0D01*
G01*
X376499999Y-305499999D02*
G75*
G02*
X379499999Y-305499999I1500000J0D01*
G01*
X349499999Y-485499999D02*
G75*
G02*
X346499999Y-485499999I-1500000J0D01*
G01*
X346499999Y-485499999D02*
G75*
G02*
X349499999Y-485499999I1500000J0D01*
G01*
X679499999Y-470499999D02*
G75*
G02*
X676499999Y-470499999I-1500000J0D01*
G01*
X676499999Y-470499999D02*
G75*
G02*
X679499999Y-470499999I1500000J0D01*
G01*
X559499999Y-245499999D02*
G75*
G02*
X556499999Y-245499999I-1500000J0D01*
G01*
X556499999Y-245499999D02*
G75*
G02*
X559499999Y-245499999I1500000J0D01*
G01*
X709499999Y-215499999D02*
G75*
G02*
X706499999Y-215499999I-1500000J0D01*
G01*
X706499999Y-215499999D02*
G75*
G02*
X709499999Y-215499999I1500000J0D01*
G01*
X304499999Y-515499999D02*
G75*
G02*
X301499999Y-515499999I-1500000J0D01*
G01*
X301499999Y-515499999D02*
G75*
G02*
X304499999Y-515499999I1500000J0D01*
G01*
X784499999Y-530499999D02*
G75*
G02*
X781499999Y-530499999I-1500000J0D01*
G01*
X781499999Y-530499999D02*
G75*
G02*
X784499999Y-530499999I1500000J0D01*
G01*
X529499999Y-500499999D02*
G75*
G02*
X526499999Y-500499999I-1500000J0D01*
G01*
X526499999Y-500499999D02*
G75*
G02*
X529499999Y-500499999I1500000J0D01*
G01*
X709499999Y-485499999D02*
G75*
G02*
X706499999Y-485499999I-1500000J0D01*
G01*
X706499999Y-485499999D02*
G75*
G02*
X709499999Y-485499999I1500000J0D01*
G01*
X424499999Y-380499999D02*
G75*
G02*
X421499999Y-380499999I-1500000J0D01*
G01*
X421499999Y-380499999D02*
G75*
G02*
X424499999Y-380499999I1500000J0D01*
G01*
X589499999Y-560499999D02*
G75*
G02*
X586499999Y-560499999I-1500000J0D01*
G01*
X586499999Y-560499999D02*
G75*
G02*
X589499999Y-560499999I1500000J0D01*
G01*
X799499999Y-185499999D02*
G75*
G02*
X796499999Y-185499999I-1500000J0D01*
G01*
X796499999Y-185499999D02*
G75*
G02*
X799499999Y-185499999I1500000J0D01*
G01*
X589499999Y-455499999D02*
G75*
G02*
X586499999Y-455499999I-1500000J0D01*
G01*
X586499999Y-455499999D02*
G75*
G02*
X589499999Y-455499999I1500000J0D01*
G01*
X664499999Y-530499999D02*
G75*
G02*
X661499999Y-530499999I-1500000J0D01*
G01*
X661499999Y-530499999D02*
G75*
G02*
X664499999Y-530499999I1500000J0D01*
G01*
X859499999Y-365499999D02*
G75*
G02*
X856499999Y-365499999I-1500000J0D01*
G01*
X856499999Y-365499999D02*
G75*
G02*
X859499999Y-365499999I1500000J0D01*
G01*
X619499999Y-515499999D02*
G75*
G02*
X616499999Y-515499999I-1500000J0D01*
G01*
X616499999Y-515499999D02*
G75*
G02*
X619499999Y-515499999I1500000J0D01*
G01*
X679499999Y-485499999D02*
G75*
G02*
X676499999Y-485499999I-1500000J0D01*
G01*
X676499999Y-485499999D02*
G75*
G02*
X679499999Y-485499999I1500000J0D01*
G01*
X574499999Y-545499999D02*
G75*
G02*
X571499999Y-545499999I-1500000J0D01*
G01*
X571499999Y-545499999D02*
G75*
G02*
X574499999Y-545499999I1500000J0D01*
G01*
X424499999Y-395499999D02*
G75*
G02*
X421499999Y-395499999I-1500000J0D01*
G01*
X421499999Y-395499999D02*
G75*
G02*
X424499999Y-395499999I1500000J0D01*
G01*
X274499999Y-200499999D02*
G75*
G02*
X271499999Y-200499999I-1500000J0D01*
G01*
X271499999Y-200499999D02*
G75*
G02*
X274499999Y-200499999I1500000J0D01*
G01*
X319499999Y-455499999D02*
G75*
G02*
X316499999Y-455499999I-1500000J0D01*
G01*
X316499999Y-455499999D02*
G75*
G02*
X319499999Y-455499999I1500000J0D01*
G01*
X844499999Y-290499999D02*
G75*
G02*
X841499999Y-290499999I-1500000J0D01*
G01*
X841499999Y-290499999D02*
G75*
G02*
X844499999Y-290499999I1500000J0D01*
G01*
X814499999Y-410499999D02*
G75*
G02*
X811499999Y-410499999I-1500000J0D01*
G01*
X811499999Y-410499999D02*
G75*
G02*
X814499999Y-410499999I1500000J0D01*
G01*
X709499999Y-365499999D02*
G75*
G02*
X706499999Y-365499999I-1500000J0D01*
G01*
X706499999Y-365499999D02*
G75*
G02*
X709499999Y-365499999I1500000J0D01*
G01*
X724499999Y-290499999D02*
G75*
G02*
X721499999Y-290499999I-1500000J0D01*
G01*
X721499999Y-290499999D02*
G75*
G02*
X724499999Y-290499999I1500000J0D01*
G01*
X304499999Y-500499999D02*
G75*
G02*
X301499999Y-500499999I-1500000J0D01*
G01*
X301499999Y-500499999D02*
G75*
G02*
X304499999Y-500499999I1500000J0D01*
G01*
X424499999Y-275499999D02*
G75*
G02*
X421499999Y-275499999I-1500000J0D01*
G01*
X421499999Y-275499999D02*
G75*
G02*
X424499999Y-275499999I1500000J0D01*
G01*
X694499999Y-245499999D02*
G75*
G02*
X691499999Y-245499999I-1500000J0D01*
G01*
X691499999Y-245499999D02*
G75*
G02*
X694499999Y-245499999I1500000J0D01*
G01*
X859499999Y-320499999D02*
G75*
G02*
X856499999Y-320499999I-1500000J0D01*
G01*
X856499999Y-320499999D02*
G75*
G02*
X859499999Y-320499999I1500000J0D01*
G01*
X574499999Y-290499999D02*
G75*
G02*
X571499999Y-290499999I-1500000J0D01*
G01*
X571499999Y-290499999D02*
G75*
G02*
X574499999Y-290499999I1500000J0D01*
G01*
X379499999Y-185499999D02*
G75*
G02*
X376499999Y-185499999I-1500000J0D01*
G01*
X376499999Y-185499999D02*
G75*
G02*
X379499999Y-185499999I1500000J0D01*
G01*
X304499999Y-410499999D02*
G75*
G02*
X301499999Y-410499999I-1500000J0D01*
G01*
X301499999Y-410499999D02*
G75*
G02*
X304499999Y-410499999I1500000J0D01*
G01*
X784499999Y-245499999D02*
G75*
G02*
X781499999Y-245499999I-1500000J0D01*
G01*
X781499999Y-245499999D02*
G75*
G02*
X784499999Y-245499999I1500000J0D01*
G01*
X349499999Y-320499999D02*
G75*
G02*
X346499999Y-320499999I-1500000J0D01*
G01*
X346499999Y-320499999D02*
G75*
G02*
X349499999Y-320499999I1500000J0D01*
G01*
X574499999Y-200499999D02*
G75*
G02*
X571499999Y-200499999I-1500000J0D01*
G01*
X571499999Y-200499999D02*
G75*
G02*
X574499999Y-200499999I1500000J0D01*
G01*
X709499999Y-230499999D02*
G75*
G02*
X706499999Y-230499999I-1500000J0D01*
G01*
X706499999Y-230499999D02*
G75*
G02*
X709499999Y-230499999I1500000J0D01*
G01*
X439499999Y-200499999D02*
G75*
G02*
X436499999Y-200499999I-1500000J0D01*
G01*
X436499999Y-200499999D02*
G75*
G02*
X439499999Y-200499999I1500000J0D01*
G01*
X859499999Y-290499999D02*
G75*
G02*
X856499999Y-290499999I-1500000J0D01*
G01*
X856499999Y-290499999D02*
G75*
G02*
X859499999Y-290499999I1500000J0D01*
G01*
X754499999Y-500499999D02*
G75*
G02*
X751499999Y-500499999I-1500000J0D01*
G01*
X751499999Y-500499999D02*
G75*
G02*
X754499999Y-500499999I1500000J0D01*
G01*
X304499999Y-425499999D02*
G75*
G02*
X301499999Y-425499999I-1500000J0D01*
G01*
X301499999Y-425499999D02*
G75*
G02*
X304499999Y-425499999I1500000J0D01*
G01*
X559499999Y-500499999D02*
G75*
G02*
X556499999Y-500499999I-1500000J0D01*
G01*
X556499999Y-500499999D02*
G75*
G02*
X559499999Y-500499999I1500000J0D01*
G01*
X454499999Y-230499999D02*
G75*
G02*
X451499999Y-230499999I-1500000J0D01*
G01*
X451499999Y-230499999D02*
G75*
G02*
X454499999Y-230499999I1500000J0D01*
G01*
X499499999Y-245499999D02*
G75*
G02*
X496499999Y-245499999I-1500000J0D01*
G01*
X496499999Y-245499999D02*
G75*
G02*
X499499999Y-245499999I1500000J0D01*
G01*
X244499999Y-440499999D02*
G75*
G02*
X241499999Y-440499999I-1500000J0D01*
G01*
X241499999Y-440499999D02*
G75*
G02*
X244499999Y-440499999I1500000J0D01*
G01*
X289499999Y-395499999D02*
G75*
G02*
X286499999Y-395499999I-1500000J0D01*
G01*
X286499999Y-395499999D02*
G75*
G02*
X289499999Y-395499999I1500000J0D01*
G01*
X514499999Y-410499999D02*
G75*
G02*
X511499999Y-410499999I-1500000J0D01*
G01*
X511499999Y-410499999D02*
G75*
G02*
X514499999Y-410499999I1500000J0D01*
G01*
X394499999Y-320499999D02*
G75*
G02*
X391499999Y-320499999I-1500000J0D01*
G01*
X391499999Y-320499999D02*
G75*
G02*
X394499999Y-320499999I1500000J0D01*
G01*
X439499999Y-440499999D02*
G75*
G02*
X436499999Y-440499999I-1500000J0D01*
G01*
X436499999Y-440499999D02*
G75*
G02*
X439499999Y-440499999I1500000J0D01*
G01*
X559499999Y-230499999D02*
G75*
G02*
X556499999Y-230499999I-1500000J0D01*
G01*
X556499999Y-230499999D02*
G75*
G02*
X559499999Y-230499999I1500000J0D01*
G01*
X529499999Y-200499999D02*
G75*
G02*
X526499999Y-200499999I-1500000J0D01*
G01*
X526499999Y-200499999D02*
G75*
G02*
X529499999Y-200499999I1500000J0D01*
G01*
X544499999Y-575499999D02*
G75*
G02*
X541499999Y-575499999I-1500000J0D01*
G01*
X541499999Y-575499999D02*
G75*
G02*
X544499999Y-575499999I1500000J0D01*
G01*
X274499999Y-230499999D02*
G75*
G02*
X271499999Y-230499999I-1500000J0D01*
G01*
X271499999Y-230499999D02*
G75*
G02*
X274499999Y-230499999I1500000J0D01*
G01*
X484499999Y-560499999D02*
G75*
G02*
X481499999Y-560499999I-1500000J0D01*
G01*
X481499999Y-560499999D02*
G75*
G02*
X484499999Y-560499999I1500000J0D01*
G01*
X424499999Y-200499999D02*
G75*
G02*
X421499999Y-200499999I-1500000J0D01*
G01*
X421499999Y-200499999D02*
G75*
G02*
X424499999Y-200499999I1500000J0D01*
G01*
X319499999Y-365499999D02*
G75*
G02*
X316499999Y-365499999I-1500000J0D01*
G01*
X316499999Y-365499999D02*
G75*
G02*
X319499999Y-365499999I1500000J0D01*
G01*
X844499999Y-470499999D02*
G75*
G02*
X841499999Y-470499999I-1500000J0D01*
G01*
X841499999Y-470499999D02*
G75*
G02*
X844499999Y-470499999I1500000J0D01*
G01*
X619499999Y-275499999D02*
G75*
G02*
X616499999Y-275499999I-1500000J0D01*
G01*
X616499999Y-275499999D02*
G75*
G02*
X619499999Y-275499999I1500000J0D01*
G01*
X259499999Y-485499999D02*
G75*
G02*
X256499999Y-485499999I-1500000J0D01*
G01*
X256499999Y-485499999D02*
G75*
G02*
X259499999Y-485499999I1500000J0D01*
G01*
X499499999Y-260499999D02*
G75*
G02*
X496499999Y-260499999I-1500000J0D01*
G01*
X496499999Y-260499999D02*
G75*
G02*
X499499999Y-260499999I1500000J0D01*
G01*
X319499999Y-380499999D02*
G75*
G02*
X316499999Y-380499999I-1500000J0D01*
G01*
X316499999Y-380499999D02*
G75*
G02*
X319499999Y-380499999I1500000J0D01*
G01*
X454499999Y-350499999D02*
G75*
G02*
X451499999Y-350499999I-1500000J0D01*
G01*
X451499999Y-350499999D02*
G75*
G02*
X454499999Y-350499999I1500000J0D01*
G01*
X814499999Y-545499999D02*
G75*
G02*
X811499999Y-545499999I-1500000J0D01*
G01*
X811499999Y-545499999D02*
G75*
G02*
X814499999Y-545499999I1500000J0D01*
G01*
X514499999Y-515499999D02*
G75*
G02*
X511499999Y-515499999I-1500000J0D01*
G01*
X511499999Y-515499999D02*
G75*
G02*
X514499999Y-515499999I1500000J0D01*
G01*
X394499999Y-335499999D02*
G75*
G02*
X391499999Y-335499999I-1500000J0D01*
G01*
X391499999Y-335499999D02*
G75*
G02*
X394499999Y-335499999I1500000J0D01*
G01*
X679499999Y-275499999D02*
G75*
G02*
X676499999Y-275499999I-1500000J0D01*
G01*
X676499999Y-275499999D02*
G75*
G02*
X679499999Y-275499999I1500000J0D01*
G01*
X619499999Y-365499999D02*
G75*
G02*
X616499999Y-365499999I-1500000J0D01*
G01*
X616499999Y-365499999D02*
G75*
G02*
X619499999Y-365499999I1500000J0D01*
G01*
X859499999Y-575499999D02*
G75*
G02*
X856499999Y-575499999I-1500000J0D01*
G01*
X856499999Y-575499999D02*
G75*
G02*
X859499999Y-575499999I1500000J0D01*
G01*
X574499999Y-335499999D02*
G75*
G02*
X571499999Y-335499999I-1500000J0D01*
G01*
X571499999Y-335499999D02*
G75*
G02*
X574499999Y-335499999I1500000J0D01*
G01*
X709499999Y-575499999D02*
G75*
G02*
X706499999Y-575499999I-1500000J0D01*
G01*
X706499999Y-575499999D02*
G75*
G02*
X709499999Y-575499999I1500000J0D01*
G01*
X679499999Y-530499999D02*
G75*
G02*
X676499999Y-530499999I-1500000J0D01*
G01*
X676499999Y-530499999D02*
G75*
G02*
X679499999Y-530499999I1500000J0D01*
G01*
X259499999Y-575499999D02*
G75*
G02*
X256499999Y-575499999I-1500000J0D01*
G01*
X256499999Y-575499999D02*
G75*
G02*
X259499999Y-575499999I1500000J0D01*
G01*
X499499999Y-185499999D02*
G75*
G02*
X496499999Y-185499999I-1500000J0D01*
G01*
X496499999Y-185499999D02*
G75*
G02*
X499499999Y-185499999I1500000J0D01*
G01*
X349499999Y-545499999D02*
G75*
G02*
X346499999Y-545499999I-1500000J0D01*
G01*
X346499999Y-545499999D02*
G75*
G02*
X349499999Y-545499999I1500000J0D01*
G01*
X679499999Y-410499999D02*
G75*
G02*
X676499999Y-410499999I-1500000J0D01*
G01*
X676499999Y-410499999D02*
G75*
G02*
X679499999Y-410499999I1500000J0D01*
G01*
X574499999Y-305499999D02*
G75*
G02*
X571499999Y-305499999I-1500000J0D01*
G01*
X571499999Y-305499999D02*
G75*
G02*
X574499999Y-305499999I1500000J0D01*
G01*
X754499999Y-215499999D02*
G75*
G02*
X751499999Y-215499999I-1500000J0D01*
G01*
X751499999Y-215499999D02*
G75*
G02*
X754499999Y-215499999I1500000J0D01*
G01*
X394499999Y-215499999D02*
G75*
G02*
X391499999Y-215499999I-1500000J0D01*
G01*
X391499999Y-215499999D02*
G75*
G02*
X394499999Y-215499999I1500000J0D01*
G01*
X439499999Y-320499999D02*
G75*
G02*
X436499999Y-320499999I-1500000J0D01*
G01*
X436499999Y-320499999D02*
G75*
G02*
X439499999Y-320499999I1500000J0D01*
G01*
X364499999Y-500499999D02*
G75*
G02*
X361499999Y-500499999I-1500000J0D01*
G01*
X361499999Y-500499999D02*
G75*
G02*
X364499999Y-500499999I1500000J0D01*
G01*
X529499999Y-425499999D02*
G75*
G02*
X526499999Y-425499999I-1500000J0D01*
G01*
X526499999Y-425499999D02*
G75*
G02*
X529499999Y-425499999I1500000J0D01*
G01*
X334499999Y-350499999D02*
G75*
G02*
X331499999Y-350499999I-1500000J0D01*
G01*
X331499999Y-350499999D02*
G75*
G02*
X334499999Y-350499999I1500000J0D01*
G01*
X739499999Y-320499999D02*
G75*
G02*
X736499999Y-320499999I-1500000J0D01*
G01*
X736499999Y-320499999D02*
G75*
G02*
X739499999Y-320499999I1500000J0D01*
G01*
X724499999Y-275499999D02*
G75*
G02*
X721499999Y-275499999I-1500000J0D01*
G01*
X721499999Y-275499999D02*
G75*
G02*
X724499999Y-275499999I1500000J0D01*
G01*
X619499999Y-470499999D02*
G75*
G02*
X616499999Y-470499999I-1500000J0D01*
G01*
X616499999Y-470499999D02*
G75*
G02*
X619499999Y-470499999I1500000J0D01*
G01*
X604499999Y-275499999D02*
G75*
G02*
X601499999Y-275499999I-1500000J0D01*
G01*
X601499999Y-275499999D02*
G75*
G02*
X604499999Y-275499999I1500000J0D01*
G01*
X259499999Y-560499999D02*
G75*
G02*
X256499999Y-560499999I-1500000J0D01*
G01*
X256499999Y-560499999D02*
G75*
G02*
X259499999Y-560499999I1500000J0D01*
G01*
X394499999Y-305499999D02*
G75*
G02*
X391499999Y-305499999I-1500000J0D01*
G01*
X391499999Y-305499999D02*
G75*
G02*
X394499999Y-305499999I1500000J0D01*
G01*
X544499999Y-440499999D02*
G75*
G02*
X541499999Y-440499999I-1500000J0D01*
G01*
X541499999Y-440499999D02*
G75*
G02*
X544499999Y-440499999I1500000J0D01*
G01*
X589499999Y-365499999D02*
G75*
G02*
X586499999Y-365499999I-1500000J0D01*
G01*
X586499999Y-365499999D02*
G75*
G02*
X589499999Y-365499999I1500000J0D01*
G01*
X799499999Y-500499999D02*
G75*
G02*
X796499999Y-500499999I-1500000J0D01*
G01*
X796499999Y-500499999D02*
G75*
G02*
X799499999Y-500499999I1500000J0D01*
G01*
X559499999Y-410499999D02*
G75*
G02*
X556499999Y-410499999I-1500000J0D01*
G01*
X556499999Y-410499999D02*
G75*
G02*
X559499999Y-410499999I1500000J0D01*
G01*
X457699999Y-374999999D02*
G75*
G02*
X458500001Y-375799999I1J-800001D01*
G01*
X754499999Y-335499999D02*
G75*
G02*
X751499999Y-335499999I-1500000J0D01*
G01*
X751499999Y-335499999D02*
G75*
G02*
X754499999Y-335499999I1500000J0D01*
G01*
X409499999Y-425499999D02*
G75*
G02*
X406499999Y-425499999I-1500000J0D01*
G01*
X406499999Y-425499999D02*
G75*
G02*
X409499999Y-425499999I1500000J0D01*
G01*
X289499999Y-575499999D02*
G75*
G02*
X286499999Y-575499999I-1500000J0D01*
G01*
X286499999Y-575499999D02*
G75*
G02*
X289499999Y-575499999I1500000J0D01*
G01*
X649499999Y-500499999D02*
G75*
G02*
X646499999Y-500499999I-1500000J0D01*
G01*
X646499999Y-500499999D02*
G75*
G02*
X649499999Y-500499999I1500000J0D01*
G01*
X409499999Y-440499999D02*
G75*
G02*
X406499999Y-440499999I-1500000J0D01*
G01*
X406499999Y-440499999D02*
G75*
G02*
X409499999Y-440499999I1500000J0D01*
G01*
X754499999Y-425499999D02*
G75*
G02*
X751499999Y-425499999I-1500000J0D01*
G01*
X751499999Y-425499999D02*
G75*
G02*
X754499999Y-425499999I1500000J0D01*
G01*
X439499999Y-260499999D02*
G75*
G02*
X436499999Y-260499999I-1500000J0D01*
G01*
X436499999Y-260499999D02*
G75*
G02*
X439499999Y-260499999I1500000J0D01*
G01*
X649499999Y-200499999D02*
G75*
G02*
X646499999Y-200499999I-1500000J0D01*
G01*
X646499999Y-200499999D02*
G75*
G02*
X649499999Y-200499999I1500000J0D01*
G01*
X424499999Y-185499999D02*
G75*
G02*
X421499999Y-185499999I-1500000J0D01*
G01*
X421499999Y-185499999D02*
G75*
G02*
X424499999Y-185499999I1500000J0D01*
G01*
X424499999Y-500499999D02*
G75*
G02*
X421499999Y-500499999I-1500000J0D01*
G01*
X421499999Y-500499999D02*
G75*
G02*
X424499999Y-500499999I1500000J0D01*
G01*
X784499999Y-215499999D02*
G75*
G02*
X781499999Y-215499999I-1500000J0D01*
G01*
X781499999Y-215499999D02*
G75*
G02*
X784499999Y-215499999I1500000J0D01*
G01*
X529499999Y-470499999D02*
G75*
G02*
X526499999Y-470499999I-1500000J0D01*
G01*
X526499999Y-470499999D02*
G75*
G02*
X529499999Y-470499999I1500000J0D01*
G01*
X859499999Y-440499999D02*
G75*
G02*
X856499999Y-440499999I-1500000J0D01*
G01*
X856499999Y-440499999D02*
G75*
G02*
X859499999Y-440499999I1500000J0D01*
G01*
X499499999Y-545499999D02*
G75*
G02*
X496499999Y-545499999I-1500000J0D01*
G01*
X496499999Y-545499999D02*
G75*
G02*
X499499999Y-545499999I1500000J0D01*
G01*
X394499999Y-260499999D02*
G75*
G02*
X391499999Y-260499999I-1500000J0D01*
G01*
X391499999Y-260499999D02*
G75*
G02*
X394499999Y-260499999I1500000J0D01*
G01*
X724499999Y-260499999D02*
G75*
G02*
X721499999Y-260499999I-1500000J0D01*
G01*
X721499999Y-260499999D02*
G75*
G02*
X724499999Y-260499999I1500000J0D01*
G01*
X784499999Y-410499999D02*
G75*
G02*
X781499999Y-410499999I-1500000J0D01*
G01*
X781499999Y-410499999D02*
G75*
G02*
X784499999Y-410499999I1500000J0D01*
G01*
X274499999Y-350499999D02*
G75*
G02*
X271499999Y-350499999I-1500000J0D01*
G01*
X271499999Y-350499999D02*
G75*
G02*
X274499999Y-350499999I1500000J0D01*
G01*
X694499999Y-260499999D02*
G75*
G02*
X691499999Y-260499999I-1500000J0D01*
G01*
X691499999Y-260499999D02*
G75*
G02*
X694499999Y-260499999I1500000J0D01*
G01*
X244499999Y-230499999D02*
G75*
G02*
X241499999Y-230499999I-1500000J0D01*
G01*
X241499999Y-230499999D02*
G75*
G02*
X244499999Y-230499999I1500000J0D01*
G01*
X574499999Y-245499999D02*
G75*
G02*
X571499999Y-245499999I-1500000J0D01*
G01*
X571499999Y-245499999D02*
G75*
G02*
X574499999Y-245499999I1500000J0D01*
G01*
X409499999Y-200499999D02*
G75*
G02*
X406499999Y-200499999I-1500000J0D01*
G01*
X406499999Y-200499999D02*
G75*
G02*
X409499999Y-200499999I1500000J0D01*
G01*
X664499999Y-245499999D02*
G75*
G02*
X661499999Y-245499999I-1500000J0D01*
G01*
X661499999Y-245499999D02*
G75*
G02*
X664499999Y-245499999I1500000J0D01*
G01*
X334499999Y-575499999D02*
G75*
G02*
X331499999Y-575499999I-1500000J0D01*
G01*
X331499999Y-575499999D02*
G75*
G02*
X334499999Y-575499999I1500000J0D01*
G01*
X433300000Y-385999999D02*
X457699998Y-385999999D01*
X784499999Y-320499999D02*
G75*
G02*
X781499999Y-320499999I-1500000J0D01*
G01*
X781499999Y-320499999D02*
G75*
G02*
X784499999Y-320499999I1500000J0D01*
G01*
X679499999Y-260499999D02*
G75*
G02*
X676499999Y-260499999I-1500000J0D01*
G01*
X676499999Y-260499999D02*
G75*
G02*
X679499999Y-260499999I1500000J0D01*
G01*
X589499999Y-545499999D02*
G75*
G02*
X586499999Y-545499999I-1500000J0D01*
G01*
X586499999Y-545499999D02*
G75*
G02*
X589499999Y-545499999I1500000J0D01*
G01*
X432499999Y-375799999D02*
X432499999Y-385199998D01*
X319499999Y-245499999D02*
G75*
G02*
X316499999Y-245499999I-1500000J0D01*
G01*
X316499999Y-245499999D02*
G75*
G02*
X319499999Y-245499999I1500000J0D01*
G01*
X664499999Y-395499999D02*
G75*
G02*
X661499999Y-395499999I-1500000J0D01*
G01*
X661499999Y-395499999D02*
G75*
G02*
X664499999Y-395499999I1500000J0D01*
G01*
X244499999Y-245499999D02*
G75*
G02*
X241499999Y-245499999I-1500000J0D01*
G01*
X241499999Y-245499999D02*
G75*
G02*
X244499999Y-245499999I1500000J0D01*
G01*
X739499999Y-230499999D02*
G75*
G02*
X736499999Y-230499999I-1500000J0D01*
G01*
X736499999Y-230499999D02*
G75*
G02*
X739499999Y-230499999I1500000J0D01*
G01*
X454499999Y-455499999D02*
G75*
G02*
X451499999Y-455499999I-1500000J0D01*
G01*
X451499999Y-455499999D02*
G75*
G02*
X454499999Y-455499999I1500000J0D01*
G01*
X829499999Y-560499999D02*
G75*
G02*
X826499999Y-560499999I-1500000J0D01*
G01*
X826499999Y-560499999D02*
G75*
G02*
X829499999Y-560499999I1500000J0D01*
G01*
X739499999Y-455499999D02*
G75*
G02*
X736499999Y-455499999I-1500000J0D01*
G01*
X736499999Y-455499999D02*
G75*
G02*
X739499999Y-455499999I1500000J0D01*
G01*
X349499999Y-575499999D02*
G75*
G02*
X346499999Y-575499999I-1500000J0D01*
G01*
X346499999Y-575499999D02*
G75*
G02*
X349499999Y-575499999I1500000J0D01*
G01*
X409499999Y-290499999D02*
G75*
G02*
X406499999Y-290499999I-1500000J0D01*
G01*
X406499999Y-290499999D02*
G75*
G02*
X409499999Y-290499999I1500000J0D01*
G01*
X724499999Y-380499999D02*
G75*
G02*
X721499999Y-380499999I-1500000J0D01*
G01*
X721499999Y-380499999D02*
G75*
G02*
X724499999Y-380499999I1500000J0D01*
G01*
X499499999Y-275499999D02*
G75*
G02*
X496499999Y-275499999I-1500000J0D01*
G01*
X496499999Y-275499999D02*
G75*
G02*
X499499999Y-275499999I1500000J0D01*
G01*
X484499999Y-470499999D02*
G75*
G02*
X481499999Y-470499999I-1500000J0D01*
G01*
X481499999Y-470499999D02*
G75*
G02*
X484499999Y-470499999I1500000J0D01*
G01*
X454499999Y-395499999D02*
G75*
G02*
X451499999Y-395499999I-1500000J0D01*
G01*
X451499999Y-395499999D02*
G75*
G02*
X454499999Y-395499999I1500000J0D01*
G01*
X409499999Y-455499999D02*
G75*
G02*
X406499999Y-455499999I-1500000J0D01*
G01*
X406499999Y-455499999D02*
G75*
G02*
X409499999Y-455499999I1500000J0D01*
G01*
X724499999Y-245499999D02*
G75*
G02*
X721499999Y-245499999I-1500000J0D01*
G01*
X721499999Y-245499999D02*
G75*
G02*
X724499999Y-245499999I1500000J0D01*
G01*
X334499999Y-530499999D02*
G75*
G02*
X331499999Y-530499999I-1500000J0D01*
G01*
X331499999Y-530499999D02*
G75*
G02*
X334499999Y-530499999I1500000J0D01*
G01*
X499499999Y-335499999D02*
G75*
G02*
X496499999Y-335499999I-1500000J0D01*
G01*
X496499999Y-335499999D02*
G75*
G02*
X499499999Y-335499999I1500000J0D01*
G01*
X514499999Y-575499999D02*
G75*
G02*
X511499999Y-575499999I-1500000J0D01*
G01*
X511499999Y-575499999D02*
G75*
G02*
X514499999Y-575499999I1500000J0D01*
G01*
X469499999Y-560499999D02*
G75*
G02*
X466499999Y-560499999I-1500000J0D01*
G01*
X466499999Y-560499999D02*
G75*
G02*
X469499999Y-560499999I1500000J0D01*
G01*
X589499999Y-395499999D02*
G75*
G02*
X586499999Y-395499999I-1500000J0D01*
G01*
X586499999Y-395499999D02*
G75*
G02*
X589499999Y-395499999I1500000J0D01*
G01*
X815249999Y-530499999D02*
G75*
G02*
X810749999Y-530499999I-2250000J0D01*
G01*
X810749999Y-530499999D02*
G75*
G02*
X815249999Y-530499999I2250000J0D01*
G01*
X334499999Y-410499999D02*
G75*
G02*
X331499999Y-410499999I-1500000J0D01*
G01*
X331499999Y-410499999D02*
G75*
G02*
X334499999Y-410499999I1500000J0D01*
G01*
X829499999Y-515499999D02*
G75*
G02*
X826499999Y-515499999I-1500000J0D01*
G01*
X826499999Y-515499999D02*
G75*
G02*
X829499999Y-515499999I1500000J0D01*
G01*
X394499999Y-545499999D02*
G75*
G02*
X391499999Y-545499999I-1500000J0D01*
G01*
X391499999Y-545499999D02*
G75*
G02*
X394499999Y-545499999I1500000J0D01*
G01*
X244499999Y-380499999D02*
G75*
G02*
X241499999Y-380499999I-1500000J0D01*
G01*
X241499999Y-380499999D02*
G75*
G02*
X244499999Y-380499999I1500000J0D01*
G01*
X484499999Y-515499999D02*
G75*
G02*
X481499999Y-515499999I-1500000J0D01*
G01*
X481499999Y-515499999D02*
G75*
G02*
X484499999Y-515499999I1500000J0D01*
G01*
X349499999Y-500499999D02*
G75*
G02*
X346499999Y-500499999I-1500000J0D01*
G01*
X346499999Y-500499999D02*
G75*
G02*
X349499999Y-500499999I1500000J0D01*
G01*
X470249999Y-230499999D02*
G75*
G02*
X465749999Y-230499999I-2250000J0D01*
G01*
X465749999Y-230499999D02*
G75*
G02*
X470249999Y-230499999I2250000J0D01*
G01*
X679499999Y-395499999D02*
G75*
G02*
X676499999Y-395499999I-1500000J0D01*
G01*
X676499999Y-395499999D02*
G75*
G02*
X679499999Y-395499999I1500000J0D01*
G01*
X544499999Y-560499999D02*
G75*
G02*
X541499999Y-560499999I-1500000J0D01*
G01*
X541499999Y-560499999D02*
G75*
G02*
X544499999Y-560499999I1500000J0D01*
G01*
X634499999Y-395499999D02*
G75*
G02*
X631499999Y-395499999I-1500000J0D01*
G01*
X631499999Y-395499999D02*
G75*
G02*
X634499999Y-395499999I1500000J0D01*
G01*
X829499999Y-530499999D02*
G75*
G02*
X826499999Y-530499999I-1500000J0D01*
G01*
X826499999Y-530499999D02*
G75*
G02*
X829499999Y-530499999I1500000J0D01*
G01*
X634499999Y-470499999D02*
G75*
G02*
X631499999Y-470499999I-1500000J0D01*
G01*
X631499999Y-470499999D02*
G75*
G02*
X634499999Y-470499999I1500000J0D01*
G01*
X883499999Y-181499999D02*
X217499999Y-181499999D01*
X319499999Y-425499999D02*
G75*
G02*
X316499999Y-425499999I-1500000J0D01*
G01*
X316499999Y-425499999D02*
G75*
G02*
X319499999Y-425499999I1500000J0D01*
G01*
X244499999Y-455499999D02*
G75*
G02*
X241499999Y-455499999I-1500000J0D01*
G01*
X241499999Y-455499999D02*
G75*
G02*
X244499999Y-455499999I1500000J0D01*
G01*
X635249999Y-380499999D02*
G75*
G02*
X630749999Y-380499999I-2250000J0D01*
G01*
X630749999Y-380499999D02*
G75*
G02*
X635249999Y-380499999I2250000J0D01*
G01*
X724499999Y-305499999D02*
G75*
G02*
X721499999Y-305499999I-1500000J0D01*
G01*
X721499999Y-305499999D02*
G75*
G02*
X724499999Y-305499999I1500000J0D01*
G01*
X799499999Y-425499999D02*
G75*
G02*
X796499999Y-425499999I-1500000J0D01*
G01*
X796499999Y-425499999D02*
G75*
G02*
X799499999Y-425499999I1500000J0D01*
G01*
X439499999Y-185499999D02*
G75*
G02*
X436499999Y-185499999I-1500000J0D01*
G01*
X436499999Y-185499999D02*
G75*
G02*
X439499999Y-185499999I1500000J0D01*
G01*
X604499999Y-530499999D02*
G75*
G02*
X601499999Y-530499999I-1500000J0D01*
G01*
X601499999Y-530499999D02*
G75*
G02*
X604499999Y-530499999I1500000J0D01*
G01*
X679499999Y-425499999D02*
G75*
G02*
X676499999Y-425499999I-1500000J0D01*
G01*
X676499999Y-425499999D02*
G75*
G02*
X679499999Y-425499999I1500000J0D01*
G01*
X334499999Y-380499999D02*
G75*
G02*
X331499999Y-380499999I-1500000J0D01*
G01*
X331499999Y-380499999D02*
G75*
G02*
X334499999Y-380499999I1500000J0D01*
G01*
X643300000Y-385999999D02*
G75*
G02*
X642500001Y-385199998I0J799999D01*
G01*
X259499999Y-200499999D02*
G75*
G02*
X256499999Y-200499999I-1500000J0D01*
G01*
X256499999Y-200499999D02*
G75*
G02*
X259499999Y-200499999I1500000J0D01*
G01*
X544499999Y-200499999D02*
G75*
G02*
X541499999Y-200499999I-1500000J0D01*
G01*
X541499999Y-200499999D02*
G75*
G02*
X544499999Y-200499999I1500000J0D01*
G01*
X724499999Y-395499999D02*
G75*
G02*
X721499999Y-395499999I-1500000J0D01*
G01*
X721499999Y-395499999D02*
G75*
G02*
X724499999Y-395499999I1500000J0D01*
G01*
X559499999Y-185499999D02*
G75*
G02*
X556499999Y-185499999I-1500000J0D01*
G01*
X556499999Y-185499999D02*
G75*
G02*
X559499999Y-185499999I1500000J0D01*
G01*
X769499999Y-230499999D02*
G75*
G02*
X766499999Y-230499999I-1500000J0D01*
G01*
X766499999Y-230499999D02*
G75*
G02*
X769499999Y-230499999I1500000J0D01*
G01*
X409499999Y-215499999D02*
G75*
G02*
X406499999Y-215499999I-1500000J0D01*
G01*
X406499999Y-215499999D02*
G75*
G02*
X409499999Y-215499999I1500000J0D01*
G01*
X529499999Y-410499999D02*
G75*
G02*
X526499999Y-410499999I-1500000J0D01*
G01*
X526499999Y-410499999D02*
G75*
G02*
X529499999Y-410499999I1500000J0D01*
G01*
X754499999Y-455499999D02*
G75*
G02*
X751499999Y-455499999I-1500000J0D01*
G01*
X751499999Y-455499999D02*
G75*
G02*
X754499999Y-455499999I1500000J0D01*
G01*
X259499999Y-530499999D02*
G75*
G02*
X256499999Y-530499999I-1500000J0D01*
G01*
X256499999Y-530499999D02*
G75*
G02*
X259499999Y-530499999I1500000J0D01*
G01*
X679499999Y-200499999D02*
G75*
G02*
X676499999Y-200499999I-1500000J0D01*
G01*
X676499999Y-200499999D02*
G75*
G02*
X679499999Y-200499999I1500000J0D01*
G01*
X514499999Y-200499999D02*
G75*
G02*
X511499999Y-200499999I-1500000J0D01*
G01*
X511499999Y-200499999D02*
G75*
G02*
X514499999Y-200499999I1500000J0D01*
G01*
X814499999Y-455499999D02*
G75*
G02*
X811499999Y-455499999I-1500000J0D01*
G01*
X811499999Y-455499999D02*
G75*
G02*
X814499999Y-455499999I1500000J0D01*
G01*
X514499999Y-185499999D02*
G75*
G02*
X511499999Y-185499999I-1500000J0D01*
G01*
X511499999Y-185499999D02*
G75*
G02*
X514499999Y-185499999I1500000J0D01*
G01*
X469499999Y-545499999D02*
G75*
G02*
X466499999Y-545499999I-1500000J0D01*
G01*
X466499999Y-545499999D02*
G75*
G02*
X469499999Y-545499999I1500000J0D01*
G01*
X679499999Y-320499999D02*
G75*
G02*
X676499999Y-320499999I-1500000J0D01*
G01*
X676499999Y-320499999D02*
G75*
G02*
X679499999Y-320499999I1500000J0D01*
G01*
X244499999Y-410499999D02*
G75*
G02*
X241499999Y-410499999I-1500000J0D01*
G01*
X241499999Y-410499999D02*
G75*
G02*
X244499999Y-410499999I1500000J0D01*
G01*
X364499999Y-485499999D02*
G75*
G02*
X361499999Y-485499999I-1500000J0D01*
G01*
X361499999Y-485499999D02*
G75*
G02*
X364499999Y-485499999I1500000J0D01*
G01*
X664499999Y-560499999D02*
G75*
G02*
X661499999Y-560499999I-1500000J0D01*
G01*
X661499999Y-560499999D02*
G75*
G02*
X664499999Y-560499999I1500000J0D01*
G01*
X544499999Y-425499999D02*
G75*
G02*
X541499999Y-425499999I-1500000J0D01*
G01*
X541499999Y-425499999D02*
G75*
G02*
X544499999Y-425499999I1500000J0D01*
G01*
X619499999Y-215499999D02*
G75*
G02*
X616499999Y-215499999I-1500000J0D01*
G01*
X616499999Y-215499999D02*
G75*
G02*
X619499999Y-215499999I1500000J0D01*
G01*
X859499999Y-485499999D02*
G75*
G02*
X856499999Y-485499999I-1500000J0D01*
G01*
X856499999Y-485499999D02*
G75*
G02*
X859499999Y-485499999I1500000J0D01*
G01*
X559499999Y-530499999D02*
G75*
G02*
X556499999Y-530499999I-1500000J0D01*
G01*
X556499999Y-530499999D02*
G75*
G02*
X559499999Y-530499999I1500000J0D01*
G01*
X409499999Y-470499999D02*
G75*
G02*
X406499999Y-470499999I-1500000J0D01*
G01*
X406499999Y-470499999D02*
G75*
G02*
X409499999Y-470499999I1500000J0D01*
G01*
X289499999Y-305499999D02*
G75*
G02*
X286499999Y-305499999I-1500000J0D01*
G01*
X286499999Y-305499999D02*
G75*
G02*
X289499999Y-305499999I1500000J0D01*
G01*
X604499999Y-440499999D02*
G75*
G02*
X601499999Y-440499999I-1500000J0D01*
G01*
X601499999Y-440499999D02*
G75*
G02*
X604499999Y-440499999I1500000J0D01*
G01*
X574499999Y-515499999D02*
G75*
G02*
X571499999Y-515499999I-1500000J0D01*
G01*
X571499999Y-515499999D02*
G75*
G02*
X574499999Y-515499999I1500000J0D01*
G01*
X454499999Y-200499999D02*
G75*
G02*
X451499999Y-200499999I-1500000J0D01*
G01*
X451499999Y-200499999D02*
G75*
G02*
X454499999Y-200499999I1500000J0D01*
G01*
X679499999Y-560499999D02*
G75*
G02*
X676499999Y-560499999I-1500000J0D01*
G01*
X676499999Y-560499999D02*
G75*
G02*
X679499999Y-560499999I1500000J0D01*
G01*
X514499999Y-260499999D02*
G75*
G02*
X511499999Y-260499999I-1500000J0D01*
G01*
X511499999Y-260499999D02*
G75*
G02*
X514499999Y-260499999I1500000J0D01*
G01*
X649499999Y-575499999D02*
G75*
G02*
X646499999Y-575499999I-1500000J0D01*
G01*
X646499999Y-575499999D02*
G75*
G02*
X649499999Y-575499999I1500000J0D01*
G01*
X574499999Y-575499999D02*
G75*
G02*
X571499999Y-575499999I-1500000J0D01*
G01*
X571499999Y-575499999D02*
G75*
G02*
X574499999Y-575499999I1500000J0D01*
G01*
X499499999Y-455499999D02*
G75*
G02*
X496499999Y-455499999I-1500000J0D01*
G01*
X496499999Y-455499999D02*
G75*
G02*
X499499999Y-455499999I1500000J0D01*
G01*
X642499999Y-375799999D02*
G75*
G02*
X643299999Y-374999999I800001J-1D01*
G01*
X574499999Y-485499999D02*
G75*
G02*
X571499999Y-485499999I-1500000J0D01*
G01*
X571499999Y-485499999D02*
G75*
G02*
X574499999Y-485499999I1500000J0D01*
G01*
X619499999Y-290499999D02*
G75*
G02*
X616499999Y-290499999I-1500000J0D01*
G01*
X616499999Y-290499999D02*
G75*
G02*
X619499999Y-290499999I1500000J0D01*
G01*
X589499999Y-215499999D02*
G75*
G02*
X586499999Y-215499999I-1500000J0D01*
G01*
X586499999Y-215499999D02*
G75*
G02*
X589499999Y-215499999I1500000J0D01*
G01*
X454499999Y-320499999D02*
G75*
G02*
X451499999Y-320499999I-1500000J0D01*
G01*
X451499999Y-320499999D02*
G75*
G02*
X454499999Y-320499999I1500000J0D01*
G01*
X484499999Y-485499999D02*
G75*
G02*
X481499999Y-485499999I-1500000J0D01*
G01*
X481499999Y-485499999D02*
G75*
G02*
X484499999Y-485499999I1500000J0D01*
G01*
X724499999Y-530499999D02*
G75*
G02*
X721499999Y-530499999I-1500000J0D01*
G01*
X721499999Y-530499999D02*
G75*
G02*
X724499999Y-530499999I1500000J0D01*
G01*
X259499999Y-545499999D02*
G75*
G02*
X256499999Y-545499999I-1500000J0D01*
G01*
X256499999Y-545499999D02*
G75*
G02*
X259499999Y-545499999I1500000J0D01*
G01*
X619499999Y-230499999D02*
G75*
G02*
X616499999Y-230499999I-1500000J0D01*
G01*
X616499999Y-230499999D02*
G75*
G02*
X619499999Y-230499999I1500000J0D01*
G01*
X364499999Y-260499999D02*
G75*
G02*
X361499999Y-260499999I-1500000J0D01*
G01*
X361499999Y-260499999D02*
G75*
G02*
X364499999Y-260499999I1500000J0D01*
G01*
X635249999Y-530499999D02*
G75*
G02*
X630749999Y-530499999I-2250000J0D01*
G01*
X630749999Y-530499999D02*
G75*
G02*
X635249999Y-530499999I2250000J0D01*
G01*
X469499999Y-470499999D02*
G75*
G02*
X466499999Y-470499999I-1500000J0D01*
G01*
X466499999Y-470499999D02*
G75*
G02*
X469499999Y-470499999I1500000J0D01*
G01*
X409499999Y-230499999D02*
G75*
G02*
X406499999Y-230499999I-1500000J0D01*
G01*
X406499999Y-230499999D02*
G75*
G02*
X409499999Y-230499999I1500000J0D01*
G01*
X409499999Y-185499999D02*
G75*
G02*
X406499999Y-185499999I-1500000J0D01*
G01*
X406499999Y-185499999D02*
G75*
G02*
X409499999Y-185499999I1500000J0D01*
G01*
X304499999Y-305499999D02*
G75*
G02*
X301499999Y-305499999I-1500000J0D01*
G01*
X301499999Y-305499999D02*
G75*
G02*
X304499999Y-305499999I1500000J0D01*
G01*
X349499999Y-470499999D02*
G75*
G02*
X346499999Y-470499999I-1500000J0D01*
G01*
X346499999Y-470499999D02*
G75*
G02*
X349499999Y-470499999I1500000J0D01*
G01*
X574499999Y-260499999D02*
G75*
G02*
X571499999Y-260499999I-1500000J0D01*
G01*
X571499999Y-260499999D02*
G75*
G02*
X574499999Y-260499999I1500000J0D01*
G01*
X799499999Y-275499999D02*
G75*
G02*
X796499999Y-275499999I-1500000J0D01*
G01*
X796499999Y-275499999D02*
G75*
G02*
X799499999Y-275499999I1500000J0D01*
G01*
X574499999Y-500499999D02*
G75*
G02*
X571499999Y-500499999I-1500000J0D01*
G01*
X571499999Y-500499999D02*
G75*
G02*
X574499999Y-500499999I1500000J0D01*
G01*
X784499999Y-290499999D02*
G75*
G02*
X781499999Y-290499999I-1500000J0D01*
G01*
X781499999Y-290499999D02*
G75*
G02*
X784499999Y-290499999I1500000J0D01*
G01*
X844499999Y-305499999D02*
G75*
G02*
X841499999Y-305499999I-1500000J0D01*
G01*
X841499999Y-305499999D02*
G75*
G02*
X844499999Y-305499999I1500000J0D01*
G01*
X379499999Y-440499999D02*
G75*
G02*
X376499999Y-440499999I-1500000J0D01*
G01*
X376499999Y-440499999D02*
G75*
G02*
X379499999Y-440499999I1500000J0D01*
G01*
X304499999Y-530499999D02*
G75*
G02*
X301499999Y-530499999I-1500000J0D01*
G01*
X301499999Y-530499999D02*
G75*
G02*
X304499999Y-530499999I1500000J0D01*
G01*
X439499999Y-350499999D02*
G75*
G02*
X436499999Y-350499999I-1500000J0D01*
G01*
X436499999Y-350499999D02*
G75*
G02*
X439499999Y-350499999I1500000J0D01*
G01*
X664499999Y-575499999D02*
G75*
G02*
X661499999Y-575499999I-1500000J0D01*
G01*
X661499999Y-575499999D02*
G75*
G02*
X664499999Y-575499999I1500000J0D01*
G01*
X664499999Y-230499999D02*
G75*
G02*
X661499999Y-230499999I-1500000J0D01*
G01*
X661499999Y-230499999D02*
G75*
G02*
X664499999Y-230499999I1500000J0D01*
G01*
X349499999Y-380499999D02*
G75*
G02*
X346499999Y-380499999I-1500000J0D01*
G01*
X346499999Y-380499999D02*
G75*
G02*
X349499999Y-380499999I1500000J0D01*
G01*
X769499999Y-560499999D02*
G75*
G02*
X766499999Y-560499999I-1500000J0D01*
G01*
X766499999Y-560499999D02*
G75*
G02*
X769499999Y-560499999I1500000J0D01*
G01*
X364499999Y-425499999D02*
G75*
G02*
X361499999Y-425499999I-1500000J0D01*
G01*
X361499999Y-425499999D02*
G75*
G02*
X364499999Y-425499999I1500000J0D01*
G01*
X379499999Y-260499999D02*
G75*
G02*
X376499999Y-260499999I-1500000J0D01*
G01*
X376499999Y-260499999D02*
G75*
G02*
X379499999Y-260499999I1500000J0D01*
G01*
X844499999Y-200499999D02*
G75*
G02*
X841499999Y-200499999I-1500000J0D01*
G01*
X841499999Y-200499999D02*
G75*
G02*
X844499999Y-200499999I1500000J0D01*
G01*
X424499999Y-545499999D02*
G75*
G02*
X421499999Y-545499999I-1500000J0D01*
G01*
X421499999Y-545499999D02*
G75*
G02*
X424499999Y-545499999I1500000J0D01*
G01*
X679499999Y-335499999D02*
G75*
G02*
X676499999Y-335499999I-1500000J0D01*
G01*
X676499999Y-335499999D02*
G75*
G02*
X679499999Y-335499999I1500000J0D01*
G01*
X394499999Y-350499999D02*
G75*
G02*
X391499999Y-350499999I-1500000J0D01*
G01*
X391499999Y-350499999D02*
G75*
G02*
X394499999Y-350499999I1500000J0D01*
G01*
X274499999Y-275499999D02*
G75*
G02*
X271499999Y-275499999I-1500000J0D01*
G01*
X271499999Y-275499999D02*
G75*
G02*
X274499999Y-275499999I1500000J0D01*
G01*
X499499999Y-560499999D02*
G75*
G02*
X496499999Y-560499999I-1500000J0D01*
G01*
X496499999Y-560499999D02*
G75*
G02*
X499499999Y-560499999I1500000J0D01*
G01*
X484499999Y-305499999D02*
G75*
G02*
X481499999Y-305499999I-1500000J0D01*
G01*
X481499999Y-305499999D02*
G75*
G02*
X484499999Y-305499999I1500000J0D01*
G01*
X244499999Y-350499999D02*
G75*
G02*
X241499999Y-350499999I-1500000J0D01*
G01*
X241499999Y-350499999D02*
G75*
G02*
X244499999Y-350499999I1500000J0D01*
G01*
X409499999Y-335499999D02*
G75*
G02*
X406499999Y-335499999I-1500000J0D01*
G01*
X406499999Y-335499999D02*
G75*
G02*
X409499999Y-335499999I1500000J0D01*
G01*
X619499999Y-500499999D02*
G75*
G02*
X616499999Y-500499999I-1500000J0D01*
G01*
X616499999Y-500499999D02*
G75*
G02*
X619499999Y-500499999I1500000J0D01*
G01*
X709499999Y-470499999D02*
G75*
G02*
X706499999Y-470499999I-1500000J0D01*
G01*
X706499999Y-470499999D02*
G75*
G02*
X709499999Y-470499999I1500000J0D01*
G01*
X829499999Y-335499999D02*
G75*
G02*
X826499999Y-335499999I-1500000J0D01*
G01*
X826499999Y-335499999D02*
G75*
G02*
X829499999Y-335499999I1500000J0D01*
G01*
X829499999Y-320499999D02*
G75*
G02*
X826499999Y-320499999I-1500000J0D01*
G01*
X826499999Y-320499999D02*
G75*
G02*
X829499999Y-320499999I1500000J0D01*
G01*
X724499999Y-470499999D02*
G75*
G02*
X721499999Y-470499999I-1500000J0D01*
G01*
X721499999Y-470499999D02*
G75*
G02*
X724499999Y-470499999I1500000J0D01*
G01*
X604499999Y-395499999D02*
G75*
G02*
X601499999Y-395499999I-1500000J0D01*
G01*
X601499999Y-395499999D02*
G75*
G02*
X604499999Y-395499999I1500000J0D01*
G01*
X754499999Y-320499999D02*
G75*
G02*
X751499999Y-320499999I-1500000J0D01*
G01*
X751499999Y-320499999D02*
G75*
G02*
X754499999Y-320499999I1500000J0D01*
G01*
X844499999Y-485499999D02*
G75*
G02*
X841499999Y-485499999I-1500000J0D01*
G01*
X841499999Y-485499999D02*
G75*
G02*
X844499999Y-485499999I1500000J0D01*
G01*
X784499999Y-500499999D02*
G75*
G02*
X781499999Y-500499999I-1500000J0D01*
G01*
X781499999Y-500499999D02*
G75*
G02*
X784499999Y-500499999I1500000J0D01*
G01*
X216499999Y-182499999D02*
X216499999Y-578500000D01*
X454499999Y-440499999D02*
G75*
G02*
X451499999Y-440499999I-1500000J0D01*
G01*
X451499999Y-440499999D02*
G75*
G02*
X454499999Y-440499999I1500000J0D01*
G01*
X559499999Y-215499999D02*
G75*
G02*
X556499999Y-215499999I-1500000J0D01*
G01*
X556499999Y-215499999D02*
G75*
G02*
X559499999Y-215499999I1500000J0D01*
G01*
X604499999Y-230499999D02*
G75*
G02*
X601499999Y-230499999I-1500000J0D01*
G01*
X601499999Y-230499999D02*
G75*
G02*
X604499999Y-230499999I1500000J0D01*
G01*
X739499999Y-560499999D02*
G75*
G02*
X736499999Y-560499999I-1500000J0D01*
G01*
X736499999Y-560499999D02*
G75*
G02*
X739499999Y-560499999I1500000J0D01*
G01*
X364499999Y-410499999D02*
G75*
G02*
X361499999Y-410499999I-1500000J0D01*
G01*
X361499999Y-410499999D02*
G75*
G02*
X364499999Y-410499999I1500000J0D01*
G01*
X514499999Y-500499999D02*
G75*
G02*
X511499999Y-500499999I-1500000J0D01*
G01*
X511499999Y-500499999D02*
G75*
G02*
X514499999Y-500499999I1500000J0D01*
G01*
X334499999Y-395499999D02*
G75*
G02*
X331499999Y-395499999I-1500000J0D01*
G01*
X331499999Y-395499999D02*
G75*
G02*
X334499999Y-395499999I1500000J0D01*
G01*
X642499999Y-375799999D02*
X642499999Y-385199998D01*
X784499999Y-440499999D02*
G75*
G02*
X781499999Y-440499999I-1500000J0D01*
G01*
X781499999Y-440499999D02*
G75*
G02*
X784499999Y-440499999I1500000J0D01*
G01*
X379499999Y-350499999D02*
G75*
G02*
X376499999Y-350499999I-1500000J0D01*
G01*
X376499999Y-350499999D02*
G75*
G02*
X379499999Y-350499999I1500000J0D01*
G01*
X649499999Y-440499999D02*
G75*
G02*
X646499999Y-440499999I-1500000J0D01*
G01*
X646499999Y-440499999D02*
G75*
G02*
X649499999Y-440499999I1500000J0D01*
G01*
X589499999Y-530499999D02*
G75*
G02*
X586499999Y-530499999I-1500000J0D01*
G01*
X586499999Y-530499999D02*
G75*
G02*
X589499999Y-530499999I1500000J0D01*
G01*
X709499999Y-500499999D02*
G75*
G02*
X706499999Y-500499999I-1500000J0D01*
G01*
X706499999Y-500499999D02*
G75*
G02*
X709499999Y-500499999I1500000J0D01*
G01*
X514499999Y-545499999D02*
G75*
G02*
X511499999Y-545499999I-1500000J0D01*
G01*
X511499999Y-545499999D02*
G75*
G02*
X514499999Y-545499999I1500000J0D01*
G01*
X469499999Y-245499999D02*
G75*
G02*
X466499999Y-245499999I-1500000J0D01*
G01*
X466499999Y-245499999D02*
G75*
G02*
X469499999Y-245499999I1500000J0D01*
G01*
X259499999Y-335499999D02*
G75*
G02*
X256499999Y-335499999I-1500000J0D01*
G01*
X256499999Y-335499999D02*
G75*
G02*
X259499999Y-335499999I1500000J0D01*
G01*
X379499999Y-530499999D02*
G75*
G02*
X376499999Y-530499999I-1500000J0D01*
G01*
X376499999Y-530499999D02*
G75*
G02*
X379499999Y-530499999I1500000J0D01*
G01*
X754499999Y-245499999D02*
G75*
G02*
X751499999Y-245499999I-1500000J0D01*
G01*
X751499999Y-245499999D02*
G75*
G02*
X754499999Y-245499999I1500000J0D01*
G01*
X349499999Y-185499999D02*
G75*
G02*
X346499999Y-185499999I-1500000J0D01*
G01*
X346499999Y-185499999D02*
G75*
G02*
X349499999Y-185499999I1500000J0D01*
G01*
X409499999Y-485499999D02*
G75*
G02*
X406499999Y-485499999I-1500000J0D01*
G01*
X406499999Y-485499999D02*
G75*
G02*
X409499999Y-485499999I1500000J0D01*
G01*
X649499999Y-410499999D02*
G75*
G02*
X646499999Y-410499999I-1500000J0D01*
G01*
X646499999Y-410499999D02*
G75*
G02*
X649499999Y-410499999I1500000J0D01*
G01*
X244499999Y-320499999D02*
G75*
G02*
X241499999Y-320499999I-1500000J0D01*
G01*
X241499999Y-320499999D02*
G75*
G02*
X244499999Y-320499999I1500000J0D01*
G01*
X589499999Y-305499999D02*
G75*
G02*
X586499999Y-305499999I-1500000J0D01*
G01*
X586499999Y-305499999D02*
G75*
G02*
X589499999Y-305499999I1500000J0D01*
G01*
X514499999Y-470499999D02*
G75*
G02*
X511499999Y-470499999I-1500000J0D01*
G01*
X511499999Y-470499999D02*
G75*
G02*
X514499999Y-470499999I1500000J0D01*
G01*
X334499999Y-215499999D02*
G75*
G02*
X331499999Y-215499999I-1500000J0D01*
G01*
X331499999Y-215499999D02*
G75*
G02*
X334499999Y-215499999I1500000J0D01*
G01*
X499499999Y-350499999D02*
G75*
G02*
X496499999Y-350499999I-1500000J0D01*
G01*
X496499999Y-350499999D02*
G75*
G02*
X499499999Y-350499999I1500000J0D01*
G01*
X304499999Y-335499999D02*
G75*
G02*
X301499999Y-335499999I-1500000J0D01*
G01*
X301499999Y-335499999D02*
G75*
G02*
X304499999Y-335499999I1500000J0D01*
G01*
X814499999Y-245499999D02*
G75*
G02*
X811499999Y-245499999I-1500000J0D01*
G01*
X811499999Y-245499999D02*
G75*
G02*
X814499999Y-245499999I1500000J0D01*
G01*
X724499999Y-575499999D02*
G75*
G02*
X721499999Y-575499999I-1500000J0D01*
G01*
X721499999Y-575499999D02*
G75*
G02*
X724499999Y-575499999I1500000J0D01*
G01*
X394499999Y-395499999D02*
G75*
G02*
X391499999Y-395499999I-1500000J0D01*
G01*
X391499999Y-395499999D02*
G75*
G02*
X394499999Y-395499999I1500000J0D01*
G01*
X829499999Y-260499999D02*
G75*
G02*
X826499999Y-260499999I-1500000J0D01*
G01*
X826499999Y-260499999D02*
G75*
G02*
X829499999Y-260499999I1500000J0D01*
G01*
X334499999Y-455499999D02*
G75*
G02*
X331499999Y-455499999I-1500000J0D01*
G01*
X331499999Y-455499999D02*
G75*
G02*
X334499999Y-455499999I1500000J0D01*
G01*
X529499999Y-290499999D02*
G75*
G02*
X526499999Y-290499999I-1500000J0D01*
G01*
X526499999Y-290499999D02*
G75*
G02*
X529499999Y-290499999I1500000J0D01*
G01*
X724499999Y-500499999D02*
G75*
G02*
X721499999Y-500499999I-1500000J0D01*
G01*
X721499999Y-500499999D02*
G75*
G02*
X724499999Y-500499999I1500000J0D01*
G01*
X334499999Y-305499999D02*
G75*
G02*
X331499999Y-305499999I-1500000J0D01*
G01*
X331499999Y-305499999D02*
G75*
G02*
X334499999Y-305499999I1500000J0D01*
G01*
X814499999Y-560499999D02*
G75*
G02*
X811499999Y-560499999I-1500000J0D01*
G01*
X811499999Y-560499999D02*
G75*
G02*
X814499999Y-560499999I1500000J0D01*
G01*
X604499999Y-350499999D02*
G75*
G02*
X601499999Y-350499999I-1500000J0D01*
G01*
X601499999Y-350499999D02*
G75*
G02*
X604499999Y-350499999I1500000J0D01*
G01*
X529499999Y-305499999D02*
G75*
G02*
X526499999Y-305499999I-1500000J0D01*
G01*
X526499999Y-305499999D02*
G75*
G02*
X529499999Y-305499999I1500000J0D01*
G01*
X574499999Y-350499999D02*
G75*
G02*
X571499999Y-350499999I-1500000J0D01*
G01*
X571499999Y-350499999D02*
G75*
G02*
X574499999Y-350499999I1500000J0D01*
G01*
X319499999Y-335499999D02*
G75*
G02*
X316499999Y-335499999I-1500000J0D01*
G01*
X316499999Y-335499999D02*
G75*
G02*
X319499999Y-335499999I1500000J0D01*
G01*
X364499999Y-440499999D02*
G75*
G02*
X361499999Y-440499999I-1500000J0D01*
G01*
X361499999Y-440499999D02*
G75*
G02*
X364499999Y-440499999I1500000J0D01*
G01*
X544499999Y-215499999D02*
G75*
G02*
X541499999Y-215499999I-1500000J0D01*
G01*
X541499999Y-215499999D02*
G75*
G02*
X544499999Y-215499999I1500000J0D01*
G01*
X319499999Y-515499999D02*
G75*
G02*
X316499999Y-515499999I-1500000J0D01*
G01*
X316499999Y-515499999D02*
G75*
G02*
X319499999Y-515499999I1500000J0D01*
G01*
X259499999Y-380499999D02*
G75*
G02*
X256499999Y-380499999I-1500000J0D01*
G01*
X256499999Y-380499999D02*
G75*
G02*
X259499999Y-380499999I1500000J0D01*
G01*
X304499999Y-485499999D02*
G75*
G02*
X301499999Y-485499999I-1500000J0D01*
G01*
X301499999Y-485499999D02*
G75*
G02*
X304499999Y-485499999I1500000J0D01*
G01*
X664499999Y-215499999D02*
G75*
G02*
X661499999Y-215499999I-1500000J0D01*
G01*
X661499999Y-215499999D02*
G75*
G02*
X664499999Y-215499999I1500000J0D01*
G01*
X439499999Y-560499999D02*
G75*
G02*
X436499999Y-560499999I-1500000J0D01*
G01*
X436499999Y-560499999D02*
G75*
G02*
X439499999Y-560499999I1500000J0D01*
G01*
X604499999Y-185499999D02*
G75*
G02*
X601499999Y-185499999I-1500000J0D01*
G01*
X601499999Y-185499999D02*
G75*
G02*
X604499999Y-185499999I1500000J0D01*
G01*
X559499999Y-470499999D02*
G75*
G02*
X556499999Y-470499999I-1500000J0D01*
G01*
X556499999Y-470499999D02*
G75*
G02*
X559499999Y-470499999I1500000J0D01*
G01*
X364499999Y-545499999D02*
G75*
G02*
X361499999Y-545499999I-1500000J0D01*
G01*
X361499999Y-545499999D02*
G75*
G02*
X364499999Y-545499999I1500000J0D01*
G01*
X364499999Y-290499999D02*
G75*
G02*
X361499999Y-290499999I-1500000J0D01*
G01*
X361499999Y-290499999D02*
G75*
G02*
X364499999Y-290499999I1500000J0D01*
G01*
X544499999Y-335499999D02*
G75*
G02*
X541499999Y-335499999I-1500000J0D01*
G01*
X541499999Y-335499999D02*
G75*
G02*
X544499999Y-335499999I1500000J0D01*
G01*
X667699999Y-374999999D02*
X643299999Y-374999999D01*
X499499999Y-215499999D02*
G75*
G02*
X496499999Y-215499999I-1500000J0D01*
G01*
X496499999Y-215499999D02*
G75*
G02*
X499499999Y-215499999I1500000J0D01*
G01*
X814499999Y-305499999D02*
G75*
G02*
X811499999Y-305499999I-1500000J0D01*
G01*
X811499999Y-305499999D02*
G75*
G02*
X814499999Y-305499999I1500000J0D01*
G01*
X349499999Y-425499999D02*
G75*
G02*
X346499999Y-425499999I-1500000J0D01*
G01*
X346499999Y-425499999D02*
G75*
G02*
X349499999Y-425499999I1500000J0D01*
G01*
X484499999Y-500499999D02*
G75*
G02*
X481499999Y-500499999I-1500000J0D01*
G01*
X481499999Y-500499999D02*
G75*
G02*
X484499999Y-500499999I1500000J0D01*
G01*
X432499999Y-375799999D02*
G75*
G02*
X433299999Y-374999999I800001J-1D01*
G01*
X304499999Y-545499999D02*
G75*
G02*
X301499999Y-545499999I-1500000J0D01*
G01*
X301499999Y-545499999D02*
G75*
G02*
X304499999Y-545499999I1500000J0D01*
G01*
X859499999Y-425499999D02*
G75*
G02*
X856499999Y-425499999I-1500000J0D01*
G01*
X856499999Y-425499999D02*
G75*
G02*
X859499999Y-425499999I1500000J0D01*
G01*
X664499999Y-470499999D02*
G75*
G02*
X661499999Y-470499999I-1500000J0D01*
G01*
X661499999Y-470499999D02*
G75*
G02*
X664499999Y-470499999I1500000J0D01*
G01*
X319499999Y-410499999D02*
G75*
G02*
X316499999Y-410499999I-1500000J0D01*
G01*
X316499999Y-410499999D02*
G75*
G02*
X319499999Y-410499999I1500000J0D01*
G01*
X469499999Y-335499999D02*
G75*
G02*
X466499999Y-335499999I-1500000J0D01*
G01*
X466499999Y-335499999D02*
G75*
G02*
X469499999Y-335499999I1500000J0D01*
G01*
X709499999Y-185499999D02*
G75*
G02*
X706499999Y-185499999I-1500000J0D01*
G01*
X706499999Y-185499999D02*
G75*
G02*
X709499999Y-185499999I1500000J0D01*
G01*
X259499999Y-455499999D02*
G75*
G02*
X256499999Y-455499999I-1500000J0D01*
G01*
X256499999Y-455499999D02*
G75*
G02*
X259499999Y-455499999I1500000J0D01*
G01*
X439499999Y-395499999D02*
G75*
G02*
X436499999Y-395499999I-1500000J0D01*
G01*
X436499999Y-395499999D02*
G75*
G02*
X439499999Y-395499999I1500000J0D01*
G01*
X784499999Y-350499999D02*
G75*
G02*
X781499999Y-350499999I-1500000J0D01*
G01*
X781499999Y-350499999D02*
G75*
G02*
X784499999Y-350499999I1500000J0D01*
G01*
X499499999Y-320499999D02*
G75*
G02*
X496499999Y-320499999I-1500000J0D01*
G01*
X496499999Y-320499999D02*
G75*
G02*
X499499999Y-320499999I1500000J0D01*
G01*
X439499999Y-575499999D02*
G75*
G02*
X436499999Y-575499999I-1500000J0D01*
G01*
X436499999Y-575499999D02*
G75*
G02*
X439499999Y-575499999I1500000J0D01*
G01*
X694499999Y-215499999D02*
G75*
G02*
X691499999Y-215499999I-1500000J0D01*
G01*
X691499999Y-215499999D02*
G75*
G02*
X694499999Y-215499999I1500000J0D01*
G01*
X754499999Y-200499999D02*
G75*
G02*
X751499999Y-200499999I-1500000J0D01*
G01*
X751499999Y-200499999D02*
G75*
G02*
X754499999Y-200499999I1500000J0D01*
G01*
X739499999Y-530499999D02*
G75*
G02*
X736499999Y-530499999I-1500000J0D01*
G01*
X736499999Y-530499999D02*
G75*
G02*
X739499999Y-530499999I1500000J0D01*
G01*
X754499999Y-290499999D02*
G75*
G02*
X751499999Y-290499999I-1500000J0D01*
G01*
X751499999Y-290499999D02*
G75*
G02*
X754499999Y-290499999I1500000J0D01*
G01*
X559499999Y-515499999D02*
G75*
G02*
X556499999Y-515499999I-1500000J0D01*
G01*
X556499999Y-515499999D02*
G75*
G02*
X559499999Y-515499999I1500000J0D01*
G01*
X394499999Y-245499999D02*
G75*
G02*
X391499999Y-245499999I-1500000J0D01*
G01*
X391499999Y-245499999D02*
G75*
G02*
X394499999Y-245499999I1500000J0D01*
G01*
X289499999Y-335499999D02*
G75*
G02*
X286499999Y-335499999I-1500000J0D01*
G01*
X286499999Y-335499999D02*
G75*
G02*
X289499999Y-335499999I1500000J0D01*
G01*
X694499999Y-380499999D02*
G75*
G02*
X691499999Y-380499999I-1500000J0D01*
G01*
X691499999Y-380499999D02*
G75*
G02*
X694499999Y-380499999I1500000J0D01*
G01*
X457699999Y-374999999D02*
X433299999Y-374999999D01*
X724499999Y-440499999D02*
G75*
G02*
X721499999Y-440499999I-1500000J0D01*
G01*
X721499999Y-440499999D02*
G75*
G02*
X724499999Y-440499999I1500000J0D01*
G01*
X799499999Y-305499999D02*
G75*
G02*
X796499999Y-305499999I-1500000J0D01*
G01*
X796499999Y-305499999D02*
G75*
G02*
X799499999Y-305499999I1500000J0D01*
G01*
X454499999Y-530499999D02*
G75*
G02*
X451499999Y-530499999I-1500000J0D01*
G01*
X451499999Y-530499999D02*
G75*
G02*
X454499999Y-530499999I1500000J0D01*
G01*
X634499999Y-425499999D02*
G75*
G02*
X631499999Y-425499999I-1500000J0D01*
G01*
X631499999Y-425499999D02*
G75*
G02*
X634499999Y-425499999I1500000J0D01*
G01*
X454499999Y-425499999D02*
G75*
G02*
X451499999Y-425499999I-1500000J0D01*
G01*
X451499999Y-425499999D02*
G75*
G02*
X454499999Y-425499999I1500000J0D01*
G01*
X694499999Y-305499999D02*
G75*
G02*
X691499999Y-305499999I-1500000J0D01*
G01*
X691499999Y-305499999D02*
G75*
G02*
X694499999Y-305499999I1500000J0D01*
G01*
X694499999Y-545499999D02*
G75*
G02*
X691499999Y-545499999I-1500000J0D01*
G01*
X691499999Y-545499999D02*
G75*
G02*
X694499999Y-545499999I1500000J0D01*
G01*
X499499999Y-500499999D02*
G75*
G02*
X496499999Y-500499999I-1500000J0D01*
G01*
X496499999Y-500499999D02*
G75*
G02*
X499499999Y-500499999I1500000J0D01*
G01*
X664499999Y-515499999D02*
G75*
G02*
X661499999Y-515499999I-1500000J0D01*
G01*
X661499999Y-515499999D02*
G75*
G02*
X664499999Y-515499999I1500000J0D01*
G01*
X244499999Y-365499999D02*
G75*
G02*
X241499999Y-365499999I-1500000J0D01*
G01*
X241499999Y-365499999D02*
G75*
G02*
X244499999Y-365499999I1500000J0D01*
G01*
X529499999Y-350499999D02*
G75*
G02*
X526499999Y-350499999I-1500000J0D01*
G01*
X526499999Y-350499999D02*
G75*
G02*
X529499999Y-350499999I1500000J0D01*
G01*
X379499999Y-215499999D02*
G75*
G02*
X376499999Y-215499999I-1500000J0D01*
G01*
X376499999Y-215499999D02*
G75*
G02*
X379499999Y-215499999I1500000J0D01*
G01*
X470249999Y-380499999D02*
G75*
G02*
X465749999Y-380499999I-2250000J0D01*
G01*
X465749999Y-380499999D02*
G75*
G02*
X470249999Y-380499999I2250000J0D01*
G01*
X709499999Y-260499999D02*
G75*
G02*
X706499999Y-260499999I-1500000J0D01*
G01*
X706499999Y-260499999D02*
G75*
G02*
X709499999Y-260499999I1500000J0D01*
G01*
X694499999Y-200499999D02*
G75*
G02*
X691499999Y-200499999I-1500000J0D01*
G01*
X691499999Y-200499999D02*
G75*
G02*
X694499999Y-200499999I1500000J0D01*
G01*
X274499999Y-455499999D02*
G75*
G02*
X271499999Y-455499999I-1500000J0D01*
G01*
X271499999Y-455499999D02*
G75*
G02*
X274499999Y-455499999I1500000J0D01*
G01*
X784499999Y-335499999D02*
G75*
G02*
X781499999Y-335499999I-1500000J0D01*
G01*
X781499999Y-335499999D02*
G75*
G02*
X784499999Y-335499999I1500000J0D01*
G01*
X859499999Y-545499999D02*
G75*
G02*
X856499999Y-545499999I-1500000J0D01*
G01*
X856499999Y-545499999D02*
G75*
G02*
X859499999Y-545499999I1500000J0D01*
G01*
X364499999Y-185499999D02*
G75*
G02*
X361499999Y-185499999I-1500000J0D01*
G01*
X361499999Y-185499999D02*
G75*
G02*
X364499999Y-185499999I1500000J0D01*
G01*
X529499999Y-455499999D02*
G75*
G02*
X526499999Y-455499999I-1500000J0D01*
G01*
X526499999Y-455499999D02*
G75*
G02*
X529499999Y-455499999I1500000J0D01*
G01*
X439499999Y-470499999D02*
G75*
G02*
X436499999Y-470499999I-1500000J0D01*
G01*
X436499999Y-470499999D02*
G75*
G02*
X439499999Y-470499999I1500000J0D01*
G01*
X544499999Y-275499999D02*
G75*
G02*
X541499999Y-275499999I-1500000J0D01*
G01*
X541499999Y-275499999D02*
G75*
G02*
X544499999Y-275499999I1500000J0D01*
G01*
X439499999Y-245499999D02*
G75*
G02*
X436499999Y-245499999I-1500000J0D01*
G01*
X436499999Y-245499999D02*
G75*
G02*
X439499999Y-245499999I1500000J0D01*
G01*
X349499999Y-530499999D02*
G75*
G02*
X346499999Y-530499999I-1500000J0D01*
G01*
X346499999Y-530499999D02*
G75*
G02*
X349499999Y-530499999I1500000J0D01*
G01*
X739499999Y-545499999D02*
G75*
G02*
X736499999Y-545499999I-1500000J0D01*
G01*
X736499999Y-545499999D02*
G75*
G02*
X739499999Y-545499999I1500000J0D01*
G01*
X409499999Y-575499999D02*
G75*
G02*
X406499999Y-575499999I-1500000J0D01*
G01*
X406499999Y-575499999D02*
G75*
G02*
X409499999Y-575499999I1500000J0D01*
G01*
X859499999Y-275499999D02*
G75*
G02*
X856499999Y-275499999I-1500000J0D01*
G01*
X856499999Y-275499999D02*
G75*
G02*
X859499999Y-275499999I1500000J0D01*
G01*
X739499999Y-440499999D02*
G75*
G02*
X736499999Y-440499999I-1500000J0D01*
G01*
X736499999Y-440499999D02*
G75*
G02*
X739499999Y-440499999I1500000J0D01*
G01*
X724499999Y-185499999D02*
G75*
G02*
X721499999Y-185499999I-1500000J0D01*
G01*
X721499999Y-185499999D02*
G75*
G02*
X724499999Y-185499999I1500000J0D01*
G01*
X484499999Y-425499999D02*
G75*
G02*
X481499999Y-425499999I-1500000J0D01*
G01*
X481499999Y-425499999D02*
G75*
G02*
X484499999Y-425499999I1500000J0D01*
G01*
X574499999Y-410499999D02*
G75*
G02*
X571499999Y-410499999I-1500000J0D01*
G01*
X571499999Y-410499999D02*
G75*
G02*
X574499999Y-410499999I1500000J0D01*
G01*
X604499999Y-320499999D02*
G75*
G02*
X601499999Y-320499999I-1500000J0D01*
G01*
X601499999Y-320499999D02*
G75*
G02*
X604499999Y-320499999I1500000J0D01*
G01*
X604499999Y-575499999D02*
G75*
G02*
X601499999Y-575499999I-1500000J0D01*
G01*
X601499999Y-575499999D02*
G75*
G02*
X604499999Y-575499999I1500000J0D01*
G01*
X439499999Y-500499999D02*
G75*
G02*
X436499999Y-500499999I-1500000J0D01*
G01*
X436499999Y-500499999D02*
G75*
G02*
X439499999Y-500499999I1500000J0D01*
G01*
X454499999Y-545499999D02*
G75*
G02*
X451499999Y-545499999I-1500000J0D01*
G01*
X451499999Y-545499999D02*
G75*
G02*
X454499999Y-545499999I1500000J0D01*
G01*
X409499999Y-515499999D02*
G75*
G02*
X406499999Y-515499999I-1500000J0D01*
G01*
X406499999Y-515499999D02*
G75*
G02*
X409499999Y-515499999I1500000J0D01*
G01*
X694499999Y-350499999D02*
G75*
G02*
X691499999Y-350499999I-1500000J0D01*
G01*
X691499999Y-350499999D02*
G75*
G02*
X694499999Y-350499999I1500000J0D01*
G01*
X619499999Y-200499999D02*
G75*
G02*
X616499999Y-200499999I-1500000J0D01*
G01*
X616499999Y-200499999D02*
G75*
G02*
X619499999Y-200499999I1500000J0D01*
G01*
X289499999Y-290499999D02*
G75*
G02*
X286499999Y-290499999I-1500000J0D01*
G01*
X286499999Y-290499999D02*
G75*
G02*
X289499999Y-290499999I1500000J0D01*
G01*
X649499999Y-515499999D02*
G75*
G02*
X646499999Y-515499999I-1500000J0D01*
G01*
X646499999Y-515499999D02*
G75*
G02*
X649499999Y-515499999I1500000J0D01*
G01*
X829499999Y-185499999D02*
G75*
G02*
X826499999Y-185499999I-1500000J0D01*
G01*
X826499999Y-185499999D02*
G75*
G02*
X829499999Y-185499999I1500000J0D01*
G01*
X469499999Y-425499999D02*
G75*
G02*
X466499999Y-425499999I-1500000J0D01*
G01*
X466499999Y-425499999D02*
G75*
G02*
X469499999Y-425499999I1500000J0D01*
G01*
X844499999Y-530499999D02*
G75*
G02*
X841499999Y-530499999I-1500000J0D01*
G01*
X841499999Y-530499999D02*
G75*
G02*
X844499999Y-530499999I1500000J0D01*
G01*
X724499999Y-215499999D02*
G75*
G02*
X721499999Y-215499999I-1500000J0D01*
G01*
X721499999Y-215499999D02*
G75*
G02*
X724499999Y-215499999I1500000J0D01*
G01*
X559499999Y-305499999D02*
G75*
G02*
X556499999Y-305499999I-1500000J0D01*
G01*
X556499999Y-305499999D02*
G75*
G02*
X559499999Y-305499999I1500000J0D01*
G01*
X694499999Y-185499999D02*
G75*
G02*
X691499999Y-185499999I-1500000J0D01*
G01*
X691499999Y-185499999D02*
G75*
G02*
X694499999Y-185499999I1500000J0D01*
G01*
X424499999Y-290499999D02*
G75*
G02*
X421499999Y-290499999I-1500000J0D01*
G01*
X421499999Y-290499999D02*
G75*
G02*
X424499999Y-290499999I1500000J0D01*
G01*
X679499999Y-455499999D02*
G75*
G02*
X676499999Y-455499999I-1500000J0D01*
G01*
X676499999Y-455499999D02*
G75*
G02*
X679499999Y-455499999I1500000J0D01*
G01*
X574499999Y-230499999D02*
G75*
G02*
X571499999Y-230499999I-1500000J0D01*
G01*
X571499999Y-230499999D02*
G75*
G02*
X574499999Y-230499999I1500000J0D01*
G01*
X694499999Y-395499999D02*
G75*
G02*
X691499999Y-395499999I-1500000J0D01*
G01*
X691499999Y-395499999D02*
G75*
G02*
X694499999Y-395499999I1500000J0D01*
G01*
X216499999Y-182499999D02*
G75*
G02*
X217499999Y-181499999I1000001J-1D01*
G01*
X454499999Y-260499999D02*
G75*
G02*
X451499999Y-260499999I-1500000J0D01*
G01*
X451499999Y-260499999D02*
G75*
G02*
X454499999Y-260499999I1500000J0D01*
G01*
X529499999Y-185499999D02*
G75*
G02*
X526499999Y-185499999I-1500000J0D01*
G01*
X526499999Y-185499999D02*
G75*
G02*
X529499999Y-185499999I1500000J0D01*
G01*
X799499999Y-380499999D02*
G75*
G02*
X796499999Y-380499999I-1500000J0D01*
G01*
X796499999Y-380499999D02*
G75*
G02*
X799499999Y-380499999I1500000J0D01*
G01*
X844499999Y-425499999D02*
G75*
G02*
X841499999Y-425499999I-1500000J0D01*
G01*
X841499999Y-425499999D02*
G75*
G02*
X844499999Y-425499999I1500000J0D01*
G01*
X319499999Y-260499999D02*
G75*
G02*
X316499999Y-260499999I-1500000J0D01*
G01*
X316499999Y-260499999D02*
G75*
G02*
X319499999Y-260499999I1500000J0D01*
G01*
X754499999Y-485499999D02*
G75*
G02*
X751499999Y-485499999I-1500000J0D01*
G01*
X751499999Y-485499999D02*
G75*
G02*
X754499999Y-485499999I1500000J0D01*
G01*
X244499999Y-290499999D02*
G75*
G02*
X241499999Y-290499999I-1500000J0D01*
G01*
X241499999Y-290499999D02*
G75*
G02*
X244499999Y-290499999I1500000J0D01*
G01*
X364499999Y-215499999D02*
G75*
G02*
X361499999Y-215499999I-1500000J0D01*
G01*
X361499999Y-215499999D02*
G75*
G02*
X364499999Y-215499999I1500000J0D01*
G01*
X634499999Y-290499999D02*
G75*
G02*
X631499999Y-290499999I-1500000J0D01*
G01*
X631499999Y-290499999D02*
G75*
G02*
X634499999Y-290499999I1500000J0D01*
G01*
X667699999Y-374999999D02*
G75*
G02*
X668500001Y-375799999I1J-800001D01*
G01*
X289499999Y-485499999D02*
G75*
G02*
X286499999Y-485499999I-1500000J0D01*
G01*
X286499999Y-485499999D02*
G75*
G02*
X289499999Y-485499999I1500000J0D01*
G01*
X529499999Y-380499999D02*
G75*
G02*
X526499999Y-380499999I-1500000J0D01*
G01*
X526499999Y-380499999D02*
G75*
G02*
X529499999Y-380499999I1500000J0D01*
G01*
X649499999Y-425499999D02*
G75*
G02*
X646499999Y-425499999I-1500000J0D01*
G01*
X646499999Y-425499999D02*
G75*
G02*
X649499999Y-425499999I1500000J0D01*
G01*
X664499999Y-200499999D02*
G75*
G02*
X661499999Y-200499999I-1500000J0D01*
G01*
X661499999Y-200499999D02*
G75*
G02*
X664499999Y-200499999I1500000J0D01*
G01*
X664499999Y-260499999D02*
G75*
G02*
X661499999Y-260499999I-1500000J0D01*
G01*
X661499999Y-260499999D02*
G75*
G02*
X664499999Y-260499999I1500000J0D01*
G01*
X259499999Y-230499999D02*
G75*
G02*
X256499999Y-230499999I-1500000J0D01*
G01*
X256499999Y-230499999D02*
G75*
G02*
X259499999Y-230499999I1500000J0D01*
G01*
X259499999Y-275499999D02*
G75*
G02*
X256499999Y-275499999I-1500000J0D01*
G01*
X256499999Y-275499999D02*
G75*
G02*
X259499999Y-275499999I1500000J0D01*
G01*
X709499999Y-545499999D02*
G75*
G02*
X706499999Y-545499999I-1500000J0D01*
G01*
X706499999Y-545499999D02*
G75*
G02*
X709499999Y-545499999I1500000J0D01*
G01*
X469499999Y-305499999D02*
G75*
G02*
X466499999Y-305499999I-1500000J0D01*
G01*
X466499999Y-305499999D02*
G75*
G02*
X469499999Y-305499999I1500000J0D01*
G01*
X274499999Y-365499999D02*
G75*
G02*
X271499999Y-365499999I-1500000J0D01*
G01*
X271499999Y-365499999D02*
G75*
G02*
X274499999Y-365499999I1500000J0D01*
G01*
X424499999Y-215499999D02*
G75*
G02*
X421499999Y-215499999I-1500000J0D01*
G01*
X421499999Y-215499999D02*
G75*
G02*
X424499999Y-215499999I1500000J0D01*
G01*
X679499999Y-545499999D02*
G75*
G02*
X676499999Y-545499999I-1500000J0D01*
G01*
X676499999Y-545499999D02*
G75*
G02*
X679499999Y-545499999I1500000J0D01*
G01*
X424499999Y-575499999D02*
G75*
G02*
X421499999Y-575499999I-1500000J0D01*
G01*
X421499999Y-575499999D02*
G75*
G02*
X424499999Y-575499999I1500000J0D01*
G01*
X859499999Y-200499999D02*
G75*
G02*
X856499999Y-200499999I-1500000J0D01*
G01*
X856499999Y-200499999D02*
G75*
G02*
X859499999Y-200499999I1500000J0D01*
G01*
X754499999Y-185499999D02*
G75*
G02*
X751499999Y-185499999I-1500000J0D01*
G01*
X751499999Y-185499999D02*
G75*
G02*
X754499999Y-185499999I1500000J0D01*
G01*
X424499999Y-320499999D02*
G75*
G02*
X421499999Y-320499999I-1500000J0D01*
G01*
X421499999Y-320499999D02*
G75*
G02*
X424499999Y-320499999I1500000J0D01*
G01*
X739499999Y-515499999D02*
G75*
G02*
X736499999Y-515499999I-1500000J0D01*
G01*
X736499999Y-515499999D02*
G75*
G02*
X739499999Y-515499999I1500000J0D01*
G01*
X724499999Y-560499999D02*
G75*
G02*
X721499999Y-560499999I-1500000J0D01*
G01*
X721499999Y-560499999D02*
G75*
G02*
X724499999Y-560499999I1500000J0D01*
G01*
X784499999Y-485499999D02*
G75*
G02*
X781499999Y-485499999I-1500000J0D01*
G01*
X781499999Y-485499999D02*
G75*
G02*
X784499999Y-485499999I1500000J0D01*
G01*
X859499999Y-515499999D02*
G75*
G02*
X856499999Y-515499999I-1500000J0D01*
G01*
X856499999Y-515499999D02*
G75*
G02*
X859499999Y-515499999I1500000J0D01*
G01*
X409499999Y-320499999D02*
G75*
G02*
X406499999Y-320499999I-1500000J0D01*
G01*
X406499999Y-320499999D02*
G75*
G02*
X409499999Y-320499999I1500000J0D01*
G01*
X364499999Y-350499999D02*
G75*
G02*
X361499999Y-350499999I-1500000J0D01*
G01*
X361499999Y-350499999D02*
G75*
G02*
X364499999Y-350499999I1500000J0D01*
G01*
X364499999Y-365499999D02*
G75*
G02*
X361499999Y-365499999I-1500000J0D01*
G01*
X361499999Y-365499999D02*
G75*
G02*
X364499999Y-365499999I1500000J0D01*
G01*
X394499999Y-530499999D02*
G75*
G02*
X391499999Y-530499999I-1500000J0D01*
G01*
X391499999Y-530499999D02*
G75*
G02*
X394499999Y-530499999I1500000J0D01*
G01*
X754499999Y-260499999D02*
G75*
G02*
X751499999Y-260499999I-1500000J0D01*
G01*
X751499999Y-260499999D02*
G75*
G02*
X754499999Y-260499999I1500000J0D01*
G01*
X304499999Y-560499999D02*
G75*
G02*
X301499999Y-560499999I-1500000J0D01*
G01*
X301499999Y-560499999D02*
G75*
G02*
X304499999Y-560499999I1500000J0D01*
G01*
X544499999Y-350499999D02*
G75*
G02*
X541499999Y-350499999I-1500000J0D01*
G01*
X541499999Y-350499999D02*
G75*
G02*
X544499999Y-350499999I1500000J0D01*
G01*
X604499999Y-245499999D02*
G75*
G02*
X601499999Y-245499999I-1500000J0D01*
G01*
X601499999Y-245499999D02*
G75*
G02*
X604499999Y-245499999I1500000J0D01*
G01*
X694499999Y-230499999D02*
G75*
G02*
X691499999Y-230499999I-1500000J0D01*
G01*
X691499999Y-230499999D02*
G75*
G02*
X694499999Y-230499999I1500000J0D01*
G01*
X409499999Y-410499999D02*
G75*
G02*
X406499999Y-410499999I-1500000J0D01*
G01*
X406499999Y-410499999D02*
G75*
G02*
X409499999Y-410499999I1500000J0D01*
G01*
X694499999Y-485499999D02*
G75*
G02*
X691499999Y-485499999I-1500000J0D01*
G01*
X691499999Y-485499999D02*
G75*
G02*
X694499999Y-485499999I1500000J0D01*
G01*
X769499999Y-410499999D02*
G75*
G02*
X766499999Y-410499999I-1500000J0D01*
G01*
X766499999Y-410499999D02*
G75*
G02*
X769499999Y-410499999I1500000J0D01*
G01*
X694499999Y-440499999D02*
G75*
G02*
X691499999Y-440499999I-1500000J0D01*
G01*
X691499999Y-440499999D02*
G75*
G02*
X694499999Y-440499999I1500000J0D01*
G01*
X844499999Y-260499999D02*
G75*
G02*
X841499999Y-260499999I-1500000J0D01*
G01*
X841499999Y-260499999D02*
G75*
G02*
X844499999Y-260499999I1500000J0D01*
G01*
X424499999Y-455499999D02*
G75*
G02*
X421499999Y-455499999I-1500000J0D01*
G01*
X421499999Y-455499999D02*
G75*
G02*
X424499999Y-455499999I1500000J0D01*
G01*
X499499999Y-425499999D02*
G75*
G02*
X496499999Y-425499999I-1500000J0D01*
G01*
X496499999Y-425499999D02*
G75*
G02*
X499499999Y-425499999I1500000J0D01*
G01*
X439499999Y-290499999D02*
G75*
G02*
X436499999Y-290499999I-1500000J0D01*
G01*
X436499999Y-290499999D02*
G75*
G02*
X439499999Y-290499999I1500000J0D01*
G01*
X829499999Y-425499999D02*
G75*
G02*
X826499999Y-425499999I-1500000J0D01*
G01*
X826499999Y-425499999D02*
G75*
G02*
X829499999Y-425499999I1500000J0D01*
G01*
X319499999Y-350499999D02*
G75*
G02*
X316499999Y-350499999I-1500000J0D01*
G01*
X316499999Y-350499999D02*
G75*
G02*
X319499999Y-350499999I1500000J0D01*
G01*
X379499999Y-545499999D02*
G75*
G02*
X376499999Y-545499999I-1500000J0D01*
G01*
X376499999Y-545499999D02*
G75*
G02*
X379499999Y-545499999I1500000J0D01*
G01*
X709499999Y-320499999D02*
G75*
G02*
X706499999Y-320499999I-1500000J0D01*
G01*
X706499999Y-320499999D02*
G75*
G02*
X709499999Y-320499999I1500000J0D01*
G01*
X604499999Y-200499999D02*
G75*
G02*
X601499999Y-200499999I-1500000J0D01*
G01*
X601499999Y-200499999D02*
G75*
G02*
X604499999Y-200499999I1500000J0D01*
G01*
X604499999Y-485499999D02*
G75*
G02*
X601499999Y-485499999I-1500000J0D01*
G01*
X601499999Y-485499999D02*
G75*
G02*
X604499999Y-485499999I1500000J0D01*
G01*
X844499999Y-440499999D02*
G75*
G02*
X841499999Y-440499999I-1500000J0D01*
G01*
X841499999Y-440499999D02*
G75*
G02*
X844499999Y-440499999I1500000J0D01*
G01*
X454499999Y-485499999D02*
G75*
G02*
X451499999Y-485499999I-1500000J0D01*
G01*
X451499999Y-485499999D02*
G75*
G02*
X454499999Y-485499999I1500000J0D01*
G01*
X619499999Y-305499999D02*
G75*
G02*
X616499999Y-305499999I-1500000J0D01*
G01*
X616499999Y-305499999D02*
G75*
G02*
X619499999Y-305499999I1500000J0D01*
G01*
X844499999Y-245499999D02*
G75*
G02*
X841499999Y-245499999I-1500000J0D01*
G01*
X841499999Y-245499999D02*
G75*
G02*
X844499999Y-245499999I1500000J0D01*
G01*
X424499999Y-470499999D02*
G75*
G02*
X421499999Y-470499999I-1500000J0D01*
G01*
X421499999Y-470499999D02*
G75*
G02*
X424499999Y-470499999I1500000J0D01*
G01*
X259499999Y-185499999D02*
G75*
G02*
X256499999Y-185499999I-1500000J0D01*
G01*
X256499999Y-185499999D02*
G75*
G02*
X259499999Y-185499999I1500000J0D01*
G01*
X769499999Y-395499999D02*
G75*
G02*
X766499999Y-395499999I-1500000J0D01*
G01*
X766499999Y-395499999D02*
G75*
G02*
X769499999Y-395499999I1500000J0D01*
G01*
X259499999Y-395499999D02*
G75*
G02*
X256499999Y-395499999I-1500000J0D01*
G01*
X256499999Y-395499999D02*
G75*
G02*
X259499999Y-395499999I1500000J0D01*
G01*
X604499999Y-455499999D02*
G75*
G02*
X601499999Y-455499999I-1500000J0D01*
G01*
X601499999Y-455499999D02*
G75*
G02*
X604499999Y-455499999I1500000J0D01*
G01*
X799499999Y-575499999D02*
G75*
G02*
X796499999Y-575499999I-1500000J0D01*
G01*
X796499999Y-575499999D02*
G75*
G02*
X799499999Y-575499999I1500000J0D01*
G01*
X334499999Y-485499999D02*
G75*
G02*
X331499999Y-485499999I-1500000J0D01*
G01*
X331499999Y-485499999D02*
G75*
G02*
X334499999Y-485499999I1500000J0D01*
G01*
X769499999Y-380499999D02*
G75*
G02*
X766499999Y-380499999I-1500000J0D01*
G01*
X766499999Y-380499999D02*
G75*
G02*
X769499999Y-380499999I1500000J0D01*
G01*
X544499999Y-530499999D02*
G75*
G02*
X541499999Y-530499999I-1500000J0D01*
G01*
X541499999Y-530499999D02*
G75*
G02*
X544499999Y-530499999I1500000J0D01*
G01*
X514499999Y-230499999D02*
G75*
G02*
X511499999Y-230499999I-1500000J0D01*
G01*
X511499999Y-230499999D02*
G75*
G02*
X514499999Y-230499999I1500000J0D01*
G01*
X664499999Y-275499999D02*
G75*
G02*
X661499999Y-275499999I-1500000J0D01*
G01*
X661499999Y-275499999D02*
G75*
G02*
X664499999Y-275499999I1500000J0D01*
G01*
X458499999Y-385199998D02*
X458499999Y-375799999D01*
X604499999Y-470499999D02*
G75*
G02*
X601499999Y-470499999I-1500000J0D01*
G01*
X601499999Y-470499999D02*
G75*
G02*
X604499999Y-470499999I1500000J0D01*
G01*
X274499999Y-380499999D02*
G75*
G02*
X271499999Y-380499999I-1500000J0D01*
G01*
X271499999Y-380499999D02*
G75*
G02*
X274499999Y-380499999I1500000J0D01*
G01*
X499499999Y-200499999D02*
G75*
G02*
X496499999Y-200499999I-1500000J0D01*
G01*
X496499999Y-200499999D02*
G75*
G02*
X499499999Y-200499999I1500000J0D01*
G01*
X604499999Y-335499999D02*
G75*
G02*
X601499999Y-335499999I-1500000J0D01*
G01*
X601499999Y-335499999D02*
G75*
G02*
X604499999Y-335499999I1500000J0D01*
G01*
X484499999Y-440499999D02*
G75*
G02*
X481499999Y-440499999I-1500000J0D01*
G01*
X481499999Y-440499999D02*
G75*
G02*
X484499999Y-440499999I1500000J0D01*
G01*
X289499999Y-320499999D02*
G75*
G02*
X286499999Y-320499999I-1500000J0D01*
G01*
X286499999Y-320499999D02*
G75*
G02*
X289499999Y-320499999I1500000J0D01*
G01*
X334499999Y-515499999D02*
G75*
G02*
X331499999Y-515499999I-1500000J0D01*
G01*
X331499999Y-515499999D02*
G75*
G02*
X334499999Y-515499999I1500000J0D01*
G01*
X649499999Y-350499999D02*
G75*
G02*
X646499999Y-350499999I-1500000J0D01*
G01*
X646499999Y-350499999D02*
G75*
G02*
X649499999Y-350499999I1500000J0D01*
G01*
X589499999Y-575499999D02*
G75*
G02*
X586499999Y-575499999I-1500000J0D01*
G01*
X586499999Y-575499999D02*
G75*
G02*
X589499999Y-575499999I1500000J0D01*
G01*
X799499999Y-260499999D02*
G75*
G02*
X796499999Y-260499999I-1500000J0D01*
G01*
X796499999Y-260499999D02*
G75*
G02*
X799499999Y-260499999I1500000J0D01*
G01*
X394499999Y-500499999D02*
G75*
G02*
X391499999Y-500499999I-1500000J0D01*
G01*
X391499999Y-500499999D02*
G75*
G02*
X394499999Y-500499999I1500000J0D01*
G01*
X469499999Y-320499999D02*
G75*
G02*
X466499999Y-320499999I-1500000J0D01*
G01*
X466499999Y-320499999D02*
G75*
G02*
X469499999Y-320499999I1500000J0D01*
G01*
X784499999Y-260499999D02*
G75*
G02*
X781499999Y-260499999I-1500000J0D01*
G01*
X781499999Y-260499999D02*
G75*
G02*
X784499999Y-260499999I1500000J0D01*
G01*
X754499999Y-395499999D02*
G75*
G02*
X751499999Y-395499999I-1500000J0D01*
G01*
X751499999Y-395499999D02*
G75*
G02*
X754499999Y-395499999I1500000J0D01*
G01*
X649499999Y-455499999D02*
G75*
G02*
X646499999Y-455499999I-1500000J0D01*
G01*
X646499999Y-455499999D02*
G75*
G02*
X649499999Y-455499999I1500000J0D01*
G01*
X259499999Y-260499999D02*
G75*
G02*
X256499999Y-260499999I-1500000J0D01*
G01*
X256499999Y-260499999D02*
G75*
G02*
X259499999Y-260499999I1500000J0D01*
G01*
X664499999Y-485499999D02*
G75*
G02*
X661499999Y-485499999I-1500000J0D01*
G01*
X661499999Y-485499999D02*
G75*
G02*
X664499999Y-485499999I1500000J0D01*
G01*
X424499999Y-485499999D02*
G75*
G02*
X421499999Y-485499999I-1500000J0D01*
G01*
X421499999Y-485499999D02*
G75*
G02*
X424499999Y-485499999I1500000J0D01*
G01*
X259499999Y-365499999D02*
G75*
G02*
X256499999Y-365499999I-1500000J0D01*
G01*
X256499999Y-365499999D02*
G75*
G02*
X259499999Y-365499999I1500000J0D01*
G01*
X499499999Y-575499999D02*
G75*
G02*
X496499999Y-575499999I-1500000J0D01*
G01*
X496499999Y-575499999D02*
G75*
G02*
X499499999Y-575499999I1500000J0D01*
G01*
X694499999Y-515499999D02*
G75*
G02*
X691499999Y-515499999I-1500000J0D01*
G01*
X691499999Y-515499999D02*
G75*
G02*
X694499999Y-515499999I1500000J0D01*
G01*
X304499999Y-245499999D02*
G75*
G02*
X301499999Y-245499999I-1500000J0D01*
G01*
X301499999Y-245499999D02*
G75*
G02*
X304499999Y-245499999I1500000J0D01*
G01*
X754499999Y-545499999D02*
G75*
G02*
X751499999Y-545499999I-1500000J0D01*
G01*
X751499999Y-545499999D02*
G75*
G02*
X754499999Y-545499999I1500000J0D01*
G01*
X364499999Y-200499999D02*
G75*
G02*
X361499999Y-200499999I-1500000J0D01*
G01*
X361499999Y-200499999D02*
G75*
G02*
X364499999Y-200499999I1500000J0D01*
G01*
X679499999Y-185499999D02*
G75*
G02*
X676499999Y-185499999I-1500000J0D01*
G01*
X676499999Y-185499999D02*
G75*
G02*
X679499999Y-185499999I1500000J0D01*
G01*
X334499999Y-335499999D02*
G75*
G02*
X331499999Y-335499999I-1500000J0D01*
G01*
X331499999Y-335499999D02*
G75*
G02*
X334499999Y-335499999I1500000J0D01*
G01*
X859499999Y-185499999D02*
G75*
G02*
X856499999Y-185499999I-1500000J0D01*
G01*
X856499999Y-185499999D02*
G75*
G02*
X859499999Y-185499999I1500000J0D01*
G01*
X679499999Y-575499999D02*
G75*
G02*
X676499999Y-575499999I-1500000J0D01*
G01*
X676499999Y-575499999D02*
G75*
G02*
X679499999Y-575499999I1500000J0D01*
G01*
X799499999Y-290499999D02*
G75*
G02*
X796499999Y-290499999I-1500000J0D01*
G01*
X796499999Y-290499999D02*
G75*
G02*
X799499999Y-290499999I1500000J0D01*
G01*
X664499999Y-350499999D02*
G75*
G02*
X661499999Y-350499999I-1500000J0D01*
G01*
X661499999Y-350499999D02*
G75*
G02*
X664499999Y-350499999I1500000J0D01*
G01*
X544499999Y-545499999D02*
G75*
G02*
X541499999Y-545499999I-1500000J0D01*
G01*
X541499999Y-545499999D02*
G75*
G02*
X544499999Y-545499999I1500000J0D01*
G01*
X349499999Y-230499999D02*
G75*
G02*
X346499999Y-230499999I-1500000J0D01*
G01*
X346499999Y-230499999D02*
G75*
G02*
X349499999Y-230499999I1500000J0D01*
G01*
X484499999Y-320499999D02*
G75*
G02*
X481499999Y-320499999I-1500000J0D01*
G01*
X481499999Y-320499999D02*
G75*
G02*
X484499999Y-320499999I1500000J0D01*
G01*
X484499999Y-245499999D02*
G75*
G02*
X481499999Y-245499999I-1500000J0D01*
G01*
X481499999Y-245499999D02*
G75*
G02*
X484499999Y-245499999I1500000J0D01*
G01*
X274499999Y-320499999D02*
G75*
G02*
X271499999Y-320499999I-1500000J0D01*
G01*
X271499999Y-320499999D02*
G75*
G02*
X274499999Y-320499999I1500000J0D01*
G01*
X784499999Y-470499999D02*
G75*
G02*
X781499999Y-470499999I-1500000J0D01*
G01*
X781499999Y-470499999D02*
G75*
G02*
X784499999Y-470499999I1500000J0D01*
G01*
X274499999Y-185499999D02*
G75*
G02*
X271499999Y-185499999I-1500000J0D01*
G01*
X271499999Y-185499999D02*
G75*
G02*
X274499999Y-185499999I1500000J0D01*
G01*
X319499999Y-530499999D02*
G75*
G02*
X316499999Y-530499999I-1500000J0D01*
G01*
X316499999Y-530499999D02*
G75*
G02*
X319499999Y-530499999I1500000J0D01*
G01*
X724499999Y-335499999D02*
G75*
G02*
X721499999Y-335499999I-1500000J0D01*
G01*
X721499999Y-335499999D02*
G75*
G02*
X724499999Y-335499999I1500000J0D01*
G01*
X814499999Y-350499999D02*
G75*
G02*
X811499999Y-350499999I-1500000J0D01*
G01*
X811499999Y-350499999D02*
G75*
G02*
X814499999Y-350499999I1500000J0D01*
G01*
X424499999Y-305499999D02*
G75*
G02*
X421499999Y-305499999I-1500000J0D01*
G01*
X421499999Y-305499999D02*
G75*
G02*
X424499999Y-305499999I1500000J0D01*
G01*
X469499999Y-485499999D02*
G75*
G02*
X466499999Y-485499999I-1500000J0D01*
G01*
X466499999Y-485499999D02*
G75*
G02*
X469499999Y-485499999I1500000J0D01*
G01*
X814499999Y-200499999D02*
G75*
G02*
X811499999Y-200499999I-1500000J0D01*
G01*
X811499999Y-200499999D02*
G75*
G02*
X814499999Y-200499999I1500000J0D01*
G01*
X394499999Y-515499999D02*
G75*
G02*
X391499999Y-515499999I-1500000J0D01*
G01*
X391499999Y-515499999D02*
G75*
G02*
X394499999Y-515499999I1500000J0D01*
G01*
X754499999Y-575499999D02*
G75*
G02*
X751499999Y-575499999I-1500000J0D01*
G01*
X751499999Y-575499999D02*
G75*
G02*
X754499999Y-575499999I1500000J0D01*
G01*
X754499999Y-530499999D02*
G75*
G02*
X751499999Y-530499999I-1500000J0D01*
G01*
X751499999Y-530499999D02*
G75*
G02*
X754499999Y-530499999I1500000J0D01*
G01*
X634499999Y-560499999D02*
G75*
G02*
X631499999Y-560499999I-1500000J0D01*
G01*
X631499999Y-560499999D02*
G75*
G02*
X634499999Y-560499999I1500000J0D01*
G01*
X379499999Y-515499999D02*
G75*
G02*
X376499999Y-515499999I-1500000J0D01*
G01*
X376499999Y-515499999D02*
G75*
G02*
X379499999Y-515499999I1500000J0D01*
G01*
X379499999Y-455499999D02*
G75*
G02*
X376499999Y-455499999I-1500000J0D01*
G01*
X376499999Y-455499999D02*
G75*
G02*
X379499999Y-455499999I1500000J0D01*
G01*
X784499999Y-230499999D02*
G75*
G02*
X781499999Y-230499999I-1500000J0D01*
G01*
X781499999Y-230499999D02*
G75*
G02*
X784499999Y-230499999I1500000J0D01*
G01*
X724499999Y-200499999D02*
G75*
G02*
X721499999Y-200499999I-1500000J0D01*
G01*
X721499999Y-200499999D02*
G75*
G02*
X724499999Y-200499999I1500000J0D01*
G01*
X604499999Y-500499999D02*
G75*
G02*
X601499999Y-500499999I-1500000J0D01*
G01*
X601499999Y-500499999D02*
G75*
G02*
X604499999Y-500499999I1500000J0D01*
G01*
X589499999Y-515499999D02*
G75*
G02*
X586499999Y-515499999I-1500000J0D01*
G01*
X586499999Y-515499999D02*
G75*
G02*
X589499999Y-515499999I1500000J0D01*
G01*
X649499999Y-305499999D02*
G75*
G02*
X646499999Y-305499999I-1500000J0D01*
G01*
X646499999Y-305499999D02*
G75*
G02*
X649499999Y-305499999I1500000J0D01*
G01*
X724499999Y-365499999D02*
G75*
G02*
X721499999Y-365499999I-1500000J0D01*
G01*
X721499999Y-365499999D02*
G75*
G02*
X724499999Y-365499999I1500000J0D01*
G01*
X304499999Y-350499999D02*
G75*
G02*
X301499999Y-350499999I-1500000J0D01*
G01*
X301499999Y-350499999D02*
G75*
G02*
X304499999Y-350499999I1500000J0D01*
G01*
X859499999Y-410499999D02*
G75*
G02*
X856499999Y-410499999I-1500000J0D01*
G01*
X856499999Y-410499999D02*
G75*
G02*
X859499999Y-410499999I1500000J0D01*
G01*
X784499999Y-305499999D02*
G75*
G02*
X781499999Y-305499999I-1500000J0D01*
G01*
X781499999Y-305499999D02*
G75*
G02*
X784499999Y-305499999I1500000J0D01*
G01*
X739499999Y-245499999D02*
G75*
G02*
X736499999Y-245499999I-1500000J0D01*
G01*
X736499999Y-245499999D02*
G75*
G02*
X739499999Y-245499999I1500000J0D01*
G01*
X529499999Y-320499999D02*
G75*
G02*
X526499999Y-320499999I-1500000J0D01*
G01*
X526499999Y-320499999D02*
G75*
G02*
X529499999Y-320499999I1500000J0D01*
G01*
X754499999Y-380499999D02*
G75*
G02*
X751499999Y-380499999I-1500000J0D01*
G01*
X751499999Y-380499999D02*
G75*
G02*
X754499999Y-380499999I1500000J0D01*
G01*
X709499999Y-290499999D02*
G75*
G02*
X706499999Y-290499999I-1500000J0D01*
G01*
X706499999Y-290499999D02*
G75*
G02*
X709499999Y-290499999I1500000J0D01*
G01*
X409499999Y-365499999D02*
G75*
G02*
X406499999Y-365499999I-1500000J0D01*
G01*
X406499999Y-365499999D02*
G75*
G02*
X409499999Y-365499999I1500000J0D01*
G01*
X649499999Y-260499999D02*
G75*
G02*
X646499999Y-260499999I-1500000J0D01*
G01*
X646499999Y-260499999D02*
G75*
G02*
X649499999Y-260499999I1500000J0D01*
G01*
X424499999Y-260499999D02*
G75*
G02*
X421499999Y-260499999I-1500000J0D01*
G01*
X421499999Y-260499999D02*
G75*
G02*
X424499999Y-260499999I1500000J0D01*
G01*
X844499999Y-230499999D02*
G75*
G02*
X841499999Y-230499999I-1500000J0D01*
G01*
X841499999Y-230499999D02*
G75*
G02*
X844499999Y-230499999I1500000J0D01*
G01*
X319499999Y-395499999D02*
G75*
G02*
X316499999Y-395499999I-1500000J0D01*
G01*
X316499999Y-395499999D02*
G75*
G02*
X319499999Y-395499999I1500000J0D01*
G01*
X799499999Y-470499999D02*
G75*
G02*
X796499999Y-470499999I-1500000J0D01*
G01*
X796499999Y-470499999D02*
G75*
G02*
X799499999Y-470499999I1500000J0D01*
G01*
X619499999Y-530499999D02*
G75*
G02*
X616499999Y-530499999I-1500000J0D01*
G01*
X616499999Y-530499999D02*
G75*
G02*
X619499999Y-530499999I1500000J0D01*
G01*
X799499999Y-485499999D02*
G75*
G02*
X796499999Y-485499999I-1500000J0D01*
G01*
X796499999Y-485499999D02*
G75*
G02*
X799499999Y-485499999I1500000J0D01*
G01*
X334499999Y-500499999D02*
G75*
G02*
X331499999Y-500499999I-1500000J0D01*
G01*
X331499999Y-500499999D02*
G75*
G02*
X334499999Y-500499999I1500000J0D01*
G01*
X784499999Y-200499999D02*
G75*
G02*
X781499999Y-200499999I-1500000J0D01*
G01*
X781499999Y-200499999D02*
G75*
G02*
X784499999Y-200499999I1500000J0D01*
G01*
X739499999Y-200499999D02*
G75*
G02*
X736499999Y-200499999I-1500000J0D01*
G01*
X736499999Y-200499999D02*
G75*
G02*
X739499999Y-200499999I1500000J0D01*
G01*
X844499999Y-320499999D02*
G75*
G02*
X841499999Y-320499999I-1500000J0D01*
G01*
X841499999Y-320499999D02*
G75*
G02*
X844499999Y-320499999I1500000J0D01*
G01*
X364499999Y-515499999D02*
G75*
G02*
X361499999Y-515499999I-1500000J0D01*
G01*
X361499999Y-515499999D02*
G75*
G02*
X364499999Y-515499999I1500000J0D01*
G01*
X304499999Y-260499999D02*
G75*
G02*
X301499999Y-260499999I-1500000J0D01*
G01*
X301499999Y-260499999D02*
G75*
G02*
X304499999Y-260499999I1500000J0D01*
G01*
X454499999Y-305499999D02*
G75*
G02*
X451499999Y-305499999I-1500000J0D01*
G01*
X451499999Y-305499999D02*
G75*
G02*
X454499999Y-305499999I1500000J0D01*
G01*
X694499999Y-500499999D02*
G75*
G02*
X691499999Y-500499999I-1500000J0D01*
G01*
X691499999Y-500499999D02*
G75*
G02*
X694499999Y-500499999I1500000J0D01*
G01*
X409499999Y-305499999D02*
G75*
G02*
X406499999Y-305499999I-1500000J0D01*
G01*
X406499999Y-305499999D02*
G75*
G02*
X409499999Y-305499999I1500000J0D01*
G01*
X694499999Y-560499999D02*
G75*
G02*
X691499999Y-560499999I-1500000J0D01*
G01*
X691499999Y-560499999D02*
G75*
G02*
X694499999Y-560499999I1500000J0D01*
G01*
X529499999Y-335499999D02*
G75*
G02*
X526499999Y-335499999I-1500000J0D01*
G01*
X526499999Y-335499999D02*
G75*
G02*
X529499999Y-335499999I1500000J0D01*
G01*
X529499999Y-260499999D02*
G75*
G02*
X526499999Y-260499999I-1500000J0D01*
G01*
X526499999Y-260499999D02*
G75*
G02*
X529499999Y-260499999I1500000J0D01*
G01*
X634499999Y-410499999D02*
G75*
G02*
X631499999Y-410499999I-1500000J0D01*
G01*
X631499999Y-410499999D02*
G75*
G02*
X634499999Y-410499999I1500000J0D01*
G01*
X559499999Y-275499999D02*
G75*
G02*
X556499999Y-275499999I-1500000J0D01*
G01*
X556499999Y-275499999D02*
G75*
G02*
X559499999Y-275499999I1500000J0D01*
G01*
X334499999Y-230499999D02*
G75*
G02*
X331499999Y-230499999I-1500000J0D01*
G01*
X331499999Y-230499999D02*
G75*
G02*
X334499999Y-230499999I1500000J0D01*
G01*
X319499999Y-545499999D02*
G75*
G02*
X316499999Y-545499999I-1500000J0D01*
G01*
X316499999Y-545499999D02*
G75*
G02*
X319499999Y-545499999I1500000J0D01*
G01*
X859499999Y-245499999D02*
G75*
G02*
X856499999Y-245499999I-1500000J0D01*
G01*
X856499999Y-245499999D02*
G75*
G02*
X859499999Y-245499999I1500000J0D01*
G01*
X574499999Y-530499999D02*
G75*
G02*
X571499999Y-530499999I-1500000J0D01*
G01*
X571499999Y-530499999D02*
G75*
G02*
X574499999Y-530499999I1500000J0D01*
G01*
X424499999Y-245499999D02*
G75*
G02*
X421499999Y-245499999I-1500000J0D01*
G01*
X421499999Y-245499999D02*
G75*
G02*
X424499999Y-245499999I1500000J0D01*
G01*
X619499999Y-485499999D02*
G75*
G02*
X616499999Y-485499999I-1500000J0D01*
G01*
X616499999Y-485499999D02*
G75*
G02*
X619499999Y-485499999I1500000J0D01*
G01*
X379499999Y-470499999D02*
G75*
G02*
X376499999Y-470499999I-1500000J0D01*
G01*
X376499999Y-470499999D02*
G75*
G02*
X379499999Y-470499999I1500000J0D01*
G01*
X469499999Y-440499999D02*
G75*
G02*
X466499999Y-440499999I-1500000J0D01*
G01*
X466499999Y-440499999D02*
G75*
G02*
X469499999Y-440499999I1500000J0D01*
G01*
X559499999Y-380499999D02*
G75*
G02*
X556499999Y-380499999I-1500000J0D01*
G01*
X556499999Y-380499999D02*
G75*
G02*
X559499999Y-380499999I1500000J0D01*
G01*
X499499999Y-230499999D02*
G75*
G02*
X496499999Y-230499999I-1500000J0D01*
G01*
X496499999Y-230499999D02*
G75*
G02*
X499499999Y-230499999I1500000J0D01*
G01*
X304499999Y-395499999D02*
G75*
G02*
X301499999Y-395499999I-1500000J0D01*
G01*
X301499999Y-395499999D02*
G75*
G02*
X304499999Y-395499999I1500000J0D01*
G01*
X619499999Y-185499999D02*
G75*
G02*
X616499999Y-185499999I-1500000J0D01*
G01*
X616499999Y-185499999D02*
G75*
G02*
X619499999Y-185499999I1500000J0D01*
G01*
X589499999Y-470499999D02*
G75*
G02*
X586499999Y-470499999I-1500000J0D01*
G01*
X586499999Y-470499999D02*
G75*
G02*
X589499999Y-470499999I1500000J0D01*
G01*
X319499999Y-215499999D02*
G75*
G02*
X316499999Y-215499999I-1500000J0D01*
G01*
X316499999Y-215499999D02*
G75*
G02*
X319499999Y-215499999I1500000J0D01*
G01*
X844499999Y-350499999D02*
G75*
G02*
X841499999Y-350499999I-1500000J0D01*
G01*
X841499999Y-350499999D02*
G75*
G02*
X844499999Y-350499999I1500000J0D01*
G01*
X814499999Y-260499999D02*
G75*
G02*
X811499999Y-260499999I-1500000J0D01*
G01*
X811499999Y-260499999D02*
G75*
G02*
X814499999Y-260499999I1500000J0D01*
G01*
X304499999Y-275499999D02*
G75*
G02*
X301499999Y-275499999I-1500000J0D01*
G01*
X301499999Y-275499999D02*
G75*
G02*
X304499999Y-275499999I1500000J0D01*
G01*
X694499999Y-530499999D02*
G75*
G02*
X691499999Y-530499999I-1500000J0D01*
G01*
X691499999Y-530499999D02*
G75*
G02*
X694499999Y-530499999I1500000J0D01*
G01*
X649499999Y-395499999D02*
G75*
G02*
X646499999Y-395499999I-1500000J0D01*
G01*
X646499999Y-395499999D02*
G75*
G02*
X649499999Y-395499999I1500000J0D01*
G01*
X619499999Y-560499999D02*
G75*
G02*
X616499999Y-560499999I-1500000J0D01*
G01*
X616499999Y-560499999D02*
G75*
G02*
X619499999Y-560499999I1500000J0D01*
G01*
X604499999Y-305499999D02*
G75*
G02*
X601499999Y-305499999I-1500000J0D01*
G01*
X601499999Y-305499999D02*
G75*
G02*
X604499999Y-305499999I1500000J0D01*
G01*
X814499999Y-485499999D02*
G75*
G02*
X811499999Y-485499999I-1500000J0D01*
G01*
X811499999Y-485499999D02*
G75*
G02*
X814499999Y-485499999I1500000J0D01*
G01*
X244499999Y-560499999D02*
G75*
G02*
X241499999Y-560499999I-1500000J0D01*
G01*
X241499999Y-560499999D02*
G75*
G02*
X244499999Y-560499999I1500000J0D01*
G01*
X859499999Y-215499999D02*
G75*
G02*
X856499999Y-215499999I-1500000J0D01*
G01*
X856499999Y-215499999D02*
G75*
G02*
X859499999Y-215499999I1500000J0D01*
G01*
X484499999Y-335499999D02*
G75*
G02*
X481499999Y-335499999I-1500000J0D01*
G01*
X481499999Y-335499999D02*
G75*
G02*
X484499999Y-335499999I1500000J0D01*
G01*
X274499999Y-215499999D02*
G75*
G02*
X271499999Y-215499999I-1500000J0D01*
G01*
X271499999Y-215499999D02*
G75*
G02*
X274499999Y-215499999I1500000J0D01*
G01*
X439499999Y-335499999D02*
G75*
G02*
X436499999Y-335499999I-1500000J0D01*
G01*
X436499999Y-335499999D02*
G75*
G02*
X439499999Y-335499999I1500000J0D01*
G01*
X634499999Y-335499999D02*
G75*
G02*
X631499999Y-335499999I-1500000J0D01*
G01*
X631499999Y-335499999D02*
G75*
G02*
X634499999Y-335499999I1500000J0D01*
G01*
X799499999Y-515499999D02*
G75*
G02*
X796499999Y-515499999I-1500000J0D01*
G01*
X796499999Y-515499999D02*
G75*
G02*
X799499999Y-515499999I1500000J0D01*
G01*
X394499999Y-575499999D02*
G75*
G02*
X391499999Y-575499999I-1500000J0D01*
G01*
X391499999Y-575499999D02*
G75*
G02*
X394499999Y-575499999I1500000J0D01*
G01*
X829499999Y-275499999D02*
G75*
G02*
X826499999Y-275499999I-1500000J0D01*
G01*
X826499999Y-275499999D02*
G75*
G02*
X829499999Y-275499999I1500000J0D01*
G01*
X499499999Y-515499999D02*
G75*
G02*
X496499999Y-515499999I-1500000J0D01*
G01*
X496499999Y-515499999D02*
G75*
G02*
X499499999Y-515499999I1500000J0D01*
G01*
X724499999Y-515499999D02*
G75*
G02*
X721499999Y-515499999I-1500000J0D01*
G01*
X721499999Y-515499999D02*
G75*
G02*
X724499999Y-515499999I1500000J0D01*
G01*
X694499999Y-455499999D02*
G75*
G02*
X691499999Y-455499999I-1500000J0D01*
G01*
X691499999Y-455499999D02*
G75*
G02*
X694499999Y-455499999I1500000J0D01*
G01*
X439499999Y-275499999D02*
G75*
G02*
X436499999Y-275499999I-1500000J0D01*
G01*
X436499999Y-275499999D02*
G75*
G02*
X439499999Y-275499999I1500000J0D01*
G01*
X814499999Y-500499999D02*
G75*
G02*
X811499999Y-500499999I-1500000J0D01*
G01*
X811499999Y-500499999D02*
G75*
G02*
X814499999Y-500499999I1500000J0D01*
G01*
X514499999Y-380499999D02*
G75*
G02*
X511499999Y-380499999I-1500000J0D01*
G01*
X511499999Y-380499999D02*
G75*
G02*
X514499999Y-380499999I1500000J0D01*
G01*
X649499999Y-290499999D02*
G75*
G02*
X646499999Y-290499999I-1500000J0D01*
G01*
X646499999Y-290499999D02*
G75*
G02*
X649499999Y-290499999I1500000J0D01*
G01*
X454499999Y-410499999D02*
G75*
G02*
X451499999Y-410499999I-1500000J0D01*
G01*
X451499999Y-410499999D02*
G75*
G02*
X454499999Y-410499999I1500000J0D01*
G01*
X499499999Y-470499999D02*
G75*
G02*
X496499999Y-470499999I-1500000J0D01*
G01*
X496499999Y-470499999D02*
G75*
G02*
X499499999Y-470499999I1500000J0D01*
G01*
X514499999Y-425499999D02*
G75*
G02*
X511499999Y-425499999I-1500000J0D01*
G01*
X511499999Y-425499999D02*
G75*
G02*
X514499999Y-425499999I1500000J0D01*
G01*
X424499999Y-425499999D02*
G75*
G02*
X421499999Y-425499999I-1500000J0D01*
G01*
X421499999Y-425499999D02*
G75*
G02*
X424499999Y-425499999I1500000J0D01*
G01*
X589499999Y-500499999D02*
G75*
G02*
X586499999Y-500499999I-1500000J0D01*
G01*
X586499999Y-500499999D02*
G75*
G02*
X589499999Y-500499999I1500000J0D01*
G01*
X784499999Y-560499999D02*
G75*
G02*
X781499999Y-560499999I-1500000J0D01*
G01*
X781499999Y-560499999D02*
G75*
G02*
X784499999Y-560499999I1500000J0D01*
G01*
X334499999Y-320499999D02*
G75*
G02*
X331499999Y-320499999I-1500000J0D01*
G01*
X331499999Y-320499999D02*
G75*
G02*
X334499999Y-320499999I1500000J0D01*
G01*
X844499999Y-365499999D02*
G75*
G02*
X841499999Y-365499999I-1500000J0D01*
G01*
X841499999Y-365499999D02*
G75*
G02*
X844499999Y-365499999I1500000J0D01*
G01*
X289499999Y-500499999D02*
G75*
G02*
X286499999Y-500499999I-1500000J0D01*
G01*
X286499999Y-500499999D02*
G75*
G02*
X289499999Y-500499999I1500000J0D01*
G01*
X829499999Y-395499999D02*
G75*
G02*
X826499999Y-395499999I-1500000J0D01*
G01*
X826499999Y-395499999D02*
G75*
G02*
X829499999Y-395499999I1500000J0D01*
G01*
X529499999Y-560499999D02*
G75*
G02*
X526499999Y-560499999I-1500000J0D01*
G01*
X526499999Y-560499999D02*
G75*
G02*
X529499999Y-560499999I1500000J0D01*
G01*
X709499999Y-530499999D02*
G75*
G02*
X706499999Y-530499999I-1500000J0D01*
G01*
X706499999Y-530499999D02*
G75*
G02*
X709499999Y-530499999I1500000J0D01*
G01*
X244499999Y-215499999D02*
G75*
G02*
X241499999Y-215499999I-1500000J0D01*
G01*
X241499999Y-215499999D02*
G75*
G02*
X244499999Y-215499999I1500000J0D01*
G01*
X799499999Y-320499999D02*
G75*
G02*
X796499999Y-320499999I-1500000J0D01*
G01*
X796499999Y-320499999D02*
G75*
G02*
X799499999Y-320499999I1500000J0D01*
G01*
X454499999Y-470499999D02*
G75*
G02*
X451499999Y-470499999I-1500000J0D01*
G01*
X451499999Y-470499999D02*
G75*
G02*
X454499999Y-470499999I1500000J0D01*
G01*
X379499999Y-245499999D02*
G75*
G02*
X376499999Y-245499999I-1500000J0D01*
G01*
X376499999Y-245499999D02*
G75*
G02*
X379499999Y-245499999I1500000J0D01*
G01*
X529499999Y-515499999D02*
G75*
G02*
X526499999Y-515499999I-1500000J0D01*
G01*
X526499999Y-515499999D02*
G75*
G02*
X529499999Y-515499999I1500000J0D01*
G01*
X574499999Y-215499999D02*
G75*
G02*
X571499999Y-215499999I-1500000J0D01*
G01*
X571499999Y-215499999D02*
G75*
G02*
X574499999Y-215499999I1500000J0D01*
G01*
X364499999Y-380499999D02*
G75*
G02*
X361499999Y-380499999I-1500000J0D01*
G01*
X361499999Y-380499999D02*
G75*
G02*
X364499999Y-380499999I1500000J0D01*
G01*
X668499999Y-385199998D02*
X668499999Y-375799999D01*
X784499999Y-515499999D02*
G75*
G02*
X781499999Y-515499999I-1500000J0D01*
G01*
X781499999Y-515499999D02*
G75*
G02*
X784499999Y-515499999I1500000J0D01*
G01*
X529499999Y-395499999D02*
G75*
G02*
X526499999Y-395499999I-1500000J0D01*
G01*
X526499999Y-395499999D02*
G75*
G02*
X529499999Y-395499999I1500000J0D01*
G01*
X754499999Y-515499999D02*
G75*
G02*
X751499999Y-515499999I-1500000J0D01*
G01*
X751499999Y-515499999D02*
G75*
G02*
X754499999Y-515499999I1500000J0D01*
G01*
X289499999Y-245499999D02*
G75*
G02*
X286499999Y-245499999I-1500000J0D01*
G01*
X286499999Y-245499999D02*
G75*
G02*
X289499999Y-245499999I1500000J0D01*
G01*
X784499999Y-575499999D02*
G75*
G02*
X781499999Y-575499999I-1500000J0D01*
G01*
X781499999Y-575499999D02*
G75*
G02*
X784499999Y-575499999I1500000J0D01*
G01*
X634499999Y-500499999D02*
G75*
G02*
X631499999Y-500499999I-1500000J0D01*
G01*
X631499999Y-500499999D02*
G75*
G02*
X634499999Y-500499999I1500000J0D01*
G01*
X679499999Y-500499999D02*
G75*
G02*
X676499999Y-500499999I-1500000J0D01*
G01*
X676499999Y-500499999D02*
G75*
G02*
X679499999Y-500499999I1500000J0D01*
G01*
X409499999Y-530499999D02*
G75*
G02*
X406499999Y-530499999I-1500000J0D01*
G01*
X406499999Y-530499999D02*
G75*
G02*
X409499999Y-530499999I1500000J0D01*
G01*
X439499999Y-530499999D02*
G75*
G02*
X436499999Y-530499999I-1500000J0D01*
G01*
X436499999Y-530499999D02*
G75*
G02*
X439499999Y-530499999I1500000J0D01*
G01*
X769499999Y-530499999D02*
G75*
G02*
X766499999Y-530499999I-1500000J0D01*
G01*
X766499999Y-530499999D02*
G75*
G02*
X769499999Y-530499999I1500000J0D01*
G01*
X844499999Y-515499999D02*
G75*
G02*
X841499999Y-515499999I-1500000J0D01*
G01*
X841499999Y-515499999D02*
G75*
G02*
X844499999Y-515499999I1500000J0D01*
G01*
X424499999Y-350499999D02*
G75*
G02*
X421499999Y-350499999I-1500000J0D01*
G01*
X421499999Y-350499999D02*
G75*
G02*
X424499999Y-350499999I1500000J0D01*
G01*
X304499999Y-380499999D02*
G75*
G02*
X301499999Y-380499999I-1500000J0D01*
G01*
X301499999Y-380499999D02*
G75*
G02*
X304499999Y-380499999I1500000J0D01*
G01*
X364499999Y-305499999D02*
G75*
G02*
X361499999Y-305499999I-1500000J0D01*
G01*
X361499999Y-305499999D02*
G75*
G02*
X364499999Y-305499999I1500000J0D01*
G01*
X499499999Y-440499999D02*
G75*
G02*
X496499999Y-440499999I-1500000J0D01*
G01*
X496499999Y-440499999D02*
G75*
G02*
X499499999Y-440499999I1500000J0D01*
G01*
X379499999Y-320499999D02*
G75*
G02*
X376499999Y-320499999I-1500000J0D01*
G01*
X376499999Y-320499999D02*
G75*
G02*
X379499999Y-320499999I1500000J0D01*
G01*
X829499999Y-290499999D02*
G75*
G02*
X826499999Y-290499999I-1500000J0D01*
G01*
X826499999Y-290499999D02*
G75*
G02*
X829499999Y-290499999I1500000J0D01*
G01*
X649499999Y-365499999D02*
G75*
G02*
X646499999Y-365499999I-1500000J0D01*
G01*
X646499999Y-365499999D02*
G75*
G02*
X649499999Y-365499999I1500000J0D01*
G01*
X769499999Y-275499999D02*
G75*
G02*
X766499999Y-275499999I-1500000J0D01*
G01*
X766499999Y-275499999D02*
G75*
G02*
X769499999Y-275499999I1500000J0D01*
G01*
X439499999Y-545499999D02*
G75*
G02*
X436499999Y-545499999I-1500000J0D01*
G01*
X436499999Y-545499999D02*
G75*
G02*
X439499999Y-545499999I1500000J0D01*
G01*
X634499999Y-245499999D02*
G75*
G02*
X631499999Y-245499999I-1500000J0D01*
G01*
X631499999Y-245499999D02*
G75*
G02*
X634499999Y-245499999I1500000J0D01*
G01*
X739499999Y-410499999D02*
G75*
G02*
X736499999Y-410499999I-1500000J0D01*
G01*
X736499999Y-410499999D02*
G75*
G02*
X739499999Y-410499999I1500000J0D01*
G01*
X319499999Y-560499999D02*
G75*
G02*
X316499999Y-560499999I-1500000J0D01*
G01*
X316499999Y-560499999D02*
G75*
G02*
X319499999Y-560499999I1500000J0D01*
G01*
X829499999Y-305499999D02*
G75*
G02*
X826499999Y-305499999I-1500000J0D01*
G01*
X826499999Y-305499999D02*
G75*
G02*
X829499999Y-305499999I1500000J0D01*
G01*
X643300000Y-385999999D02*
X667699998Y-385999999D01*
X694499999Y-320499999D02*
G75*
G02*
X691499999Y-320499999I-1500000J0D01*
G01*
X691499999Y-320499999D02*
G75*
G02*
X694499999Y-320499999I1500000J0D01*
G01*
X739499999Y-395499999D02*
G75*
G02*
X736499999Y-395499999I-1500000J0D01*
G01*
X736499999Y-395499999D02*
G75*
G02*
X739499999Y-395499999I1500000J0D01*
G01*
X769499999Y-470499999D02*
G75*
G02*
X766499999Y-470499999I-1500000J0D01*
G01*
X766499999Y-470499999D02*
G75*
G02*
X769499999Y-470499999I1500000J0D01*
G01*
X634499999Y-275499999D02*
G75*
G02*
X631499999Y-275499999I-1500000J0D01*
G01*
X631499999Y-275499999D02*
G75*
G02*
X634499999Y-275499999I1500000J0D01*
G01*
X709499999Y-305499999D02*
G75*
G02*
X706499999Y-305499999I-1500000J0D01*
G01*
X706499999Y-305499999D02*
G75*
G02*
X709499999Y-305499999I1500000J0D01*
G01*
X829499999Y-215499999D02*
G75*
G02*
X826499999Y-215499999I-1500000J0D01*
G01*
X826499999Y-215499999D02*
G75*
G02*
X829499999Y-215499999I1500000J0D01*
G01*
X694499999Y-410499999D02*
G75*
G02*
X691499999Y-410499999I-1500000J0D01*
G01*
X691499999Y-410499999D02*
G75*
G02*
X694499999Y-410499999I1500000J0D01*
G01*
X379499999Y-500499999D02*
G75*
G02*
X376499999Y-500499999I-1500000J0D01*
G01*
X376499999Y-500499999D02*
G75*
G02*
X379499999Y-500499999I1500000J0D01*
G01*
X334499999Y-200499999D02*
G75*
G02*
X331499999Y-200499999I-1500000J0D01*
G01*
X331499999Y-200499999D02*
G75*
G02*
X334499999Y-200499999I1500000J0D01*
G01*
X589499999Y-200499999D02*
G75*
G02*
X586499999Y-200499999I-1500000J0D01*
G01*
X586499999Y-200499999D02*
G75*
G02*
X589499999Y-200499999I1500000J0D01*
G01*
X484499999Y-410499999D02*
G75*
G02*
X481499999Y-410499999I-1500000J0D01*
G01*
X481499999Y-410499999D02*
G75*
G02*
X484499999Y-410499999I1500000J0D01*
G01*
X709499999Y-440499999D02*
G75*
G02*
X706499999Y-440499999I-1500000J0D01*
G01*
X706499999Y-440499999D02*
G75*
G02*
X709499999Y-440499999I1500000J0D01*
G01*
X304499999Y-455499999D02*
G75*
G02*
X301499999Y-455499999I-1500000J0D01*
G01*
X301499999Y-455499999D02*
G75*
G02*
X304499999Y-455499999I1500000J0D01*
G01*
X724499999Y-485499999D02*
G75*
G02*
X721499999Y-485499999I-1500000J0D01*
G01*
X721499999Y-485499999D02*
G75*
G02*
X724499999Y-485499999I1500000J0D01*
G01*
X514499999Y-215499999D02*
G75*
G02*
X511499999Y-215499999I-1500000J0D01*
G01*
X511499999Y-215499999D02*
G75*
G02*
X514499999Y-215499999I1500000J0D01*
G01*
X754499999Y-560499999D02*
G75*
G02*
X751499999Y-560499999I-1500000J0D01*
G01*
X751499999Y-560499999D02*
G75*
G02*
X754499999Y-560499999I1500000J0D01*
G01*
X844499999Y-185499999D02*
G75*
G02*
X841499999Y-185499999I-1500000J0D01*
G01*
X841499999Y-185499999D02*
G75*
G02*
X844499999Y-185499999I1500000J0D01*
G01*
X559499999Y-545499999D02*
G75*
G02*
X556499999Y-545499999I-1500000J0D01*
G01*
X556499999Y-545499999D02*
G75*
G02*
X559499999Y-545499999I1500000J0D01*
G01*
X349499999Y-260499999D02*
G75*
G02*
X346499999Y-260499999I-1500000J0D01*
G01*
X346499999Y-260499999D02*
G75*
G02*
X349499999Y-260499999I1500000J0D01*
G01*
X709499999Y-395499999D02*
G75*
G02*
X706499999Y-395499999I-1500000J0D01*
G01*
X706499999Y-395499999D02*
G75*
G02*
X709499999Y-395499999I1500000J0D01*
G01*
X844499999Y-560499999D02*
G75*
G02*
X841499999Y-560499999I-1500000J0D01*
G01*
X841499999Y-560499999D02*
G75*
G02*
X844499999Y-560499999I1500000J0D01*
G01*
X634499999Y-200499999D02*
G75*
G02*
X631499999Y-200499999I-1500000J0D01*
G01*
X631499999Y-200499999D02*
G75*
G02*
X634499999Y-200499999I1500000J0D01*
G01*
X304499999Y-365499999D02*
G75*
G02*
X301499999Y-365499999I-1500000J0D01*
G01*
X301499999Y-365499999D02*
G75*
G02*
X304499999Y-365499999I1500000J0D01*
G01*
X409499999Y-245499999D02*
G75*
G02*
X406499999Y-245499999I-1500000J0D01*
G01*
X406499999Y-245499999D02*
G75*
G02*
X409499999Y-245499999I1500000J0D01*
G01*
X799499999Y-455499999D02*
G75*
G02*
X796499999Y-455499999I-1500000J0D01*
G01*
X796499999Y-455499999D02*
G75*
G02*
X799499999Y-455499999I1500000J0D01*
G01*
X829499999Y-200499999D02*
G75*
G02*
X826499999Y-200499999I-1500000J0D01*
G01*
X826499999Y-200499999D02*
G75*
G02*
X829499999Y-200499999I1500000J0D01*
G01*
X724499999Y-410499999D02*
G75*
G02*
X721499999Y-410499999I-1500000J0D01*
G01*
X721499999Y-410499999D02*
G75*
G02*
X724499999Y-410499999I1500000J0D01*
G01*
X334499999Y-185499999D02*
G75*
G02*
X331499999Y-185499999I-1500000J0D01*
G01*
X331499999Y-185499999D02*
G75*
G02*
X334499999Y-185499999I1500000J0D01*
G01*
X274499999Y-245499999D02*
G75*
G02*
X271499999Y-245499999I-1500000J0D01*
G01*
X271499999Y-245499999D02*
G75*
G02*
X274499999Y-245499999I1500000J0D01*
G01*
X319499999Y-500499999D02*
G75*
G02*
X316499999Y-500499999I-1500000J0D01*
G01*
X316499999Y-500499999D02*
G75*
G02*
X319499999Y-500499999I1500000J0D01*
G01*
X634499999Y-545499999D02*
G75*
G02*
X631499999Y-545499999I-1500000J0D01*
G01*
X631499999Y-545499999D02*
G75*
G02*
X634499999Y-545499999I1500000J0D01*
G01*
X274499999Y-290499999D02*
G75*
G02*
X271499999Y-290499999I-1500000J0D01*
G01*
X271499999Y-290499999D02*
G75*
G02*
X274499999Y-290499999I1500000J0D01*
G01*
X754499999Y-275499999D02*
G75*
G02*
X751499999Y-275499999I-1500000J0D01*
G01*
X751499999Y-275499999D02*
G75*
G02*
X754499999Y-275499999I1500000J0D01*
G01*
X859499999Y-230499999D02*
G75*
G02*
X856499999Y-230499999I-1500000J0D01*
G01*
X856499999Y-230499999D02*
G75*
G02*
X859499999Y-230499999I1500000J0D01*
G01*
X814499999Y-515499999D02*
G75*
G02*
X811499999Y-515499999I-1500000J0D01*
G01*
X811499999Y-515499999D02*
G75*
G02*
X814499999Y-515499999I1500000J0D01*
G01*
X844499999Y-455499999D02*
G75*
G02*
X841499999Y-455499999I-1500000J0D01*
G01*
X841499999Y-455499999D02*
G75*
G02*
X844499999Y-455499999I1500000J0D01*
G01*
X724499999Y-350499999D02*
G75*
G02*
X721499999Y-350499999I-1500000J0D01*
G01*
X721499999Y-350499999D02*
G75*
G02*
X724499999Y-350499999I1500000J0D01*
G01*
X769499999Y-440499999D02*
G75*
G02*
X766499999Y-440499999I-1500000J0D01*
G01*
X766499999Y-440499999D02*
G75*
G02*
X769499999Y-440499999I1500000J0D01*
G01*
X470249999Y-530499999D02*
G75*
G02*
X465749999Y-530499999I-2250000J0D01*
G01*
X465749999Y-530499999D02*
G75*
G02*
X470249999Y-530499999I2250000J0D01*
G01*
X364499999Y-470499999D02*
G75*
G02*
X361499999Y-470499999I-1500000J0D01*
G01*
X361499999Y-470499999D02*
G75*
G02*
X364499999Y-470499999I1500000J0D01*
G01*
X319499999Y-485499999D02*
G75*
G02*
X316499999Y-485499999I-1500000J0D01*
G01*
X316499999Y-485499999D02*
G75*
G02*
X319499999Y-485499999I1500000J0D01*
G01*
X559499999Y-395499999D02*
G75*
G02*
X556499999Y-395499999I-1500000J0D01*
G01*
X556499999Y-395499999D02*
G75*
G02*
X559499999Y-395499999I1500000J0D01*
G01*
X664499999Y-440499999D02*
G75*
G02*
X661499999Y-440499999I-1500000J0D01*
G01*
X661499999Y-440499999D02*
G75*
G02*
X664499999Y-440499999I1500000J0D01*
G01*
X409499999Y-350499999D02*
G75*
G02*
X406499999Y-350499999I-1500000J0D01*
G01*
X406499999Y-350499999D02*
G75*
G02*
X409499999Y-350499999I1500000J0D01*
G01*
X394499999Y-185499999D02*
G75*
G02*
X391499999Y-185499999I-1500000J0D01*
G01*
X391499999Y-185499999D02*
G75*
G02*
X394499999Y-185499999I1500000J0D01*
G01*
X619499999Y-410499999D02*
G75*
G02*
X616499999Y-410499999I-1500000J0D01*
G01*
X616499999Y-410499999D02*
G75*
G02*
X619499999Y-410499999I1500000J0D01*
G01*
X883499999Y-181499999D02*
G75*
G02*
X884500001Y-182499999I1J-1000001D01*
G01*
X469499999Y-290499999D02*
G75*
G02*
X466499999Y-290499999I-1500000J0D01*
G01*
X466499999Y-290499999D02*
G75*
G02*
X469499999Y-290499999I1500000J0D01*
G01*
X244499999Y-575499999D02*
G75*
G02*
X241499999Y-575499999I-1500000J0D01*
G01*
X241499999Y-575499999D02*
G75*
G02*
X244499999Y-575499999I1500000J0D01*
G01*
X574499999Y-440499999D02*
G75*
G02*
X571499999Y-440499999I-1500000J0D01*
G01*
X571499999Y-440499999D02*
G75*
G02*
X574499999Y-440499999I1500000J0D01*
G01*
X469499999Y-410499999D02*
G75*
G02*
X466499999Y-410499999I-1500000J0D01*
G01*
X466499999Y-410499999D02*
G75*
G02*
X469499999Y-410499999I1500000J0D01*
G01*
X244499999Y-470499999D02*
G75*
G02*
X241499999Y-470499999I-1500000J0D01*
G01*
X241499999Y-470499999D02*
G75*
G02*
X244499999Y-470499999I1500000J0D01*
G01*
X469499999Y-215499999D02*
G75*
G02*
X466499999Y-215499999I-1500000J0D01*
G01*
X466499999Y-215499999D02*
G75*
G02*
X469499999Y-215499999I1500000J0D01*
G01*
X635249999Y-230499999D02*
G75*
G02*
X630749999Y-230499999I-2250000J0D01*
G01*
X630749999Y-230499999D02*
G75*
G02*
X635249999Y-230499999I2250000J0D01*
G01*
X709499999Y-380499999D02*
G75*
G02*
X706499999Y-380499999I-1500000J0D01*
G01*
X706499999Y-380499999D02*
G75*
G02*
X709499999Y-380499999I1500000J0D01*
G01*
X334499999Y-290499999D02*
G75*
G02*
X331499999Y-290499999I-1500000J0D01*
G01*
X331499999Y-290499999D02*
G75*
G02*
X334499999Y-290499999I1500000J0D01*
G01*
X739499999Y-380499999D02*
G75*
G02*
X736499999Y-380499999I-1500000J0D01*
G01*
X736499999Y-380499999D02*
G75*
G02*
X739499999Y-380499999I1500000J0D01*
G01*
X529499999Y-245499999D02*
G75*
G02*
X526499999Y-245499999I-1500000J0D01*
G01*
X526499999Y-245499999D02*
G75*
G02*
X529499999Y-245499999I1500000J0D01*
G01*
X469499999Y-575499999D02*
G75*
G02*
X466499999Y-575499999I-1500000J0D01*
G01*
X466499999Y-575499999D02*
G75*
G02*
X469499999Y-575499999I1500000J0D01*
G01*
X769499999Y-350499999D02*
G75*
G02*
X766499999Y-350499999I-1500000J0D01*
G01*
X766499999Y-350499999D02*
G75*
G02*
X769499999Y-350499999I1500000J0D01*
G01*
X559499999Y-455499999D02*
G75*
G02*
X556499999Y-455499999I-1500000J0D01*
G01*
X556499999Y-455499999D02*
G75*
G02*
X559499999Y-455499999I1500000J0D01*
G01*
X274499999Y-575499999D02*
G75*
G02*
X271499999Y-575499999I-1500000J0D01*
G01*
X271499999Y-575499999D02*
G75*
G02*
X274499999Y-575499999I1500000J0D01*
G01*
X784499999Y-185499999D02*
G75*
G02*
X781499999Y-185499999I-1500000J0D01*
G01*
X781499999Y-185499999D02*
G75*
G02*
X784499999Y-185499999I1500000J0D01*
G01*
X379499999Y-275499999D02*
G75*
G02*
X376499999Y-275499999I-1500000J0D01*
G01*
X376499999Y-275499999D02*
G75*
G02*
X379499999Y-275499999I1500000J0D01*
G01*
X739499999Y-215499999D02*
G75*
G02*
X736499999Y-215499999I-1500000J0D01*
G01*
X736499999Y-215499999D02*
G75*
G02*
X739499999Y-215499999I1500000J0D01*
G01*
X815249999Y-230499999D02*
G75*
G02*
X810749999Y-230499999I-2250000J0D01*
G01*
X810749999Y-230499999D02*
G75*
G02*
X815249999Y-230499999I2250000J0D01*
G01*
X574499999Y-395499999D02*
G75*
G02*
X571499999Y-395499999I-1500000J0D01*
G01*
X571499999Y-395499999D02*
G75*
G02*
X574499999Y-395499999I1500000J0D01*
G01*
X499499999Y-380499999D02*
G75*
G02*
X496499999Y-380499999I-1500000J0D01*
G01*
X496499999Y-380499999D02*
G75*
G02*
X499499999Y-380499999I1500000J0D01*
G01*
X739499999Y-485499999D02*
G75*
G02*
X736499999Y-485499999I-1500000J0D01*
G01*
X736499999Y-485499999D02*
G75*
G02*
X739499999Y-485499999I1500000J0D01*
G01*
X829499999Y-470499999D02*
G75*
G02*
X826499999Y-470499999I-1500000J0D01*
G01*
X826499999Y-470499999D02*
G75*
G02*
X829499999Y-470499999I1500000J0D01*
G01*
X394499999Y-275499999D02*
G75*
G02*
X391499999Y-275499999I-1500000J0D01*
G01*
X391499999Y-275499999D02*
G75*
G02*
X394499999Y-275499999I1500000J0D01*
G01*
X274499999Y-440499999D02*
G75*
G02*
X271499999Y-440499999I-1500000J0D01*
G01*
X271499999Y-440499999D02*
G75*
G02*
X274499999Y-440499999I1500000J0D01*
G01*
X544499999Y-230499999D02*
G75*
G02*
X541499999Y-230499999I-1500000J0D01*
G01*
X541499999Y-230499999D02*
G75*
G02*
X544499999Y-230499999I1500000J0D01*
G01*
X394499999Y-290499999D02*
G75*
G02*
X391499999Y-290499999I-1500000J0D01*
G01*
X391499999Y-290499999D02*
G75*
G02*
X394499999Y-290499999I1500000J0D01*
G01*
X484499999Y-455499999D02*
G75*
G02*
X481499999Y-455499999I-1500000J0D01*
G01*
X481499999Y-455499999D02*
G75*
G02*
X484499999Y-455499999I1500000J0D01*
G01*
X679499999Y-305499999D02*
G75*
G02*
X676499999Y-305499999I-1500000J0D01*
G01*
X676499999Y-305499999D02*
G75*
G02*
X679499999Y-305499999I1500000J0D01*
G01*
X769499999Y-320499999D02*
G75*
G02*
X766499999Y-320499999I-1500000J0D01*
G01*
X766499999Y-320499999D02*
G75*
G02*
X769499999Y-320499999I1500000J0D01*
G01*
X319499999Y-290499999D02*
G75*
G02*
X316499999Y-290499999I-1500000J0D01*
G01*
X316499999Y-290499999D02*
G75*
G02*
X319499999Y-290499999I1500000J0D01*
G01*
X244499999Y-515499999D02*
G75*
G02*
X241499999Y-515499999I-1500000J0D01*
G01*
X241499999Y-515499999D02*
G75*
G02*
X244499999Y-515499999I1500000J0D01*
G01*
X664499999Y-545499999D02*
G75*
G02*
X661499999Y-545499999I-1500000J0D01*
G01*
X661499999Y-545499999D02*
G75*
G02*
X664499999Y-545499999I1500000J0D01*
G01*
X649499999Y-230499999D02*
G75*
G02*
X646499999Y-230499999I-1500000J0D01*
G01*
X646499999Y-230499999D02*
G75*
G02*
X649499999Y-230499999I1500000J0D01*
G01*
X739499999Y-365499999D02*
G75*
G02*
X736499999Y-365499999I-1500000J0D01*
G01*
X736499999Y-365499999D02*
G75*
G02*
X739499999Y-365499999I1500000J0D01*
G01*
X574499999Y-380499999D02*
G75*
G02*
X571499999Y-380499999I-1500000J0D01*
G01*
X571499999Y-380499999D02*
G75*
G02*
X574499999Y-380499999I1500000J0D01*
G01*
X259499999Y-350499999D02*
G75*
G02*
X256499999Y-350499999I-1500000J0D01*
G01*
X256499999Y-350499999D02*
G75*
G02*
X259499999Y-350499999I1500000J0D01*
G01*
X394499999Y-560499999D02*
G75*
G02*
X391499999Y-560499999I-1500000J0D01*
G01*
X391499999Y-560499999D02*
G75*
G02*
X394499999Y-560499999I1500000J0D01*
G01*
X739499999Y-500499999D02*
G75*
G02*
X736499999Y-500499999I-1500000J0D01*
G01*
X736499999Y-500499999D02*
G75*
G02*
X739499999Y-500499999I1500000J0D01*
G01*
X454499999Y-335499999D02*
G75*
G02*
X451499999Y-335499999I-1500000J0D01*
G01*
X451499999Y-335499999D02*
G75*
G02*
X454499999Y-335499999I1500000J0D01*
G01*
X424499999Y-410499999D02*
G75*
G02*
X421499999Y-410499999I-1500000J0D01*
G01*
X421499999Y-410499999D02*
G75*
G02*
X424499999Y-410499999I1500000J0D01*
G01*
X814499999Y-185499999D02*
G75*
G02*
X811499999Y-185499999I-1500000J0D01*
G01*
X811499999Y-185499999D02*
G75*
G02*
X814499999Y-185499999I1500000J0D01*
G01*
X289499999Y-350499999D02*
G75*
G02*
X286499999Y-350499999I-1500000J0D01*
G01*
X286499999Y-350499999D02*
G75*
G02*
X289499999Y-350499999I1500000J0D01*
G01*
X514499999Y-455499999D02*
G75*
G02*
X511499999Y-455499999I-1500000J0D01*
G01*
X511499999Y-455499999D02*
G75*
G02*
X514499999Y-455499999I1500000J0D01*
G01*
X589499999Y-185499999D02*
G75*
G02*
X586499999Y-185499999I-1500000J0D01*
G01*
X586499999Y-185499999D02*
G75*
G02*
X589499999Y-185499999I1500000J0D01*
G01*
X469499999Y-185499999D02*
G75*
G02*
X466499999Y-185499999I-1500000J0D01*
G01*
X466499999Y-185499999D02*
G75*
G02*
X469499999Y-185499999I1500000J0D01*
G01*
X619499999Y-320499999D02*
G75*
G02*
X616499999Y-320499999I-1500000J0D01*
G01*
X616499999Y-320499999D02*
G75*
G02*
X619499999Y-320499999I1500000J0D01*
G01*
X769499999Y-245499999D02*
G75*
G02*
X766499999Y-245499999I-1500000J0D01*
G01*
X766499999Y-245499999D02*
G75*
G02*
X769499999Y-245499999I1500000J0D01*
G01*
X604499999Y-290499999D02*
G75*
G02*
X601499999Y-290499999I-1500000J0D01*
G01*
X601499999Y-290499999D02*
G75*
G02*
X604499999Y-290499999I1500000J0D01*
G01*
X469499999Y-275499999D02*
G75*
G02*
X466499999Y-275499999I-1500000J0D01*
G01*
X466499999Y-275499999D02*
G75*
G02*
X469499999Y-275499999I1500000J0D01*
G01*
X304499999Y-470499999D02*
G75*
G02*
X301499999Y-470499999I-1500000J0D01*
G01*
X301499999Y-470499999D02*
G75*
G02*
X304499999Y-470499999I1500000J0D01*
G01*
X859499999Y-470499999D02*
G75*
G02*
X856499999Y-470499999I-1500000J0D01*
G01*
X856499999Y-470499999D02*
G75*
G02*
X859499999Y-470499999I1500000J0D01*
G01*
X484499999Y-350499999D02*
G75*
G02*
X481499999Y-350499999I-1500000J0D01*
G01*
X481499999Y-350499999D02*
G75*
G02*
X484499999Y-350499999I1500000J0D01*
G01*
X244499999Y-500499999D02*
G75*
G02*
X241499999Y-500499999I-1500000J0D01*
G01*
X241499999Y-500499999D02*
G75*
G02*
X244499999Y-500499999I1500000J0D01*
G01*
X514499999Y-320499999D02*
G75*
G02*
X511499999Y-320499999I-1500000J0D01*
G01*
X511499999Y-320499999D02*
G75*
G02*
X514499999Y-320499999I1500000J0D01*
G01*
X289499999Y-185499999D02*
G75*
G02*
X286499999Y-185499999I-1500000J0D01*
G01*
X286499999Y-185499999D02*
G75*
G02*
X289499999Y-185499999I1500000J0D01*
G01*
X559499999Y-200499999D02*
G75*
G02*
X556499999Y-200499999I-1500000J0D01*
G01*
X556499999Y-200499999D02*
G75*
G02*
X559499999Y-200499999I1500000J0D01*
G01*
X349499999Y-245499999D02*
G75*
G02*
X346499999Y-245499999I-1500000J0D01*
G01*
X346499999Y-245499999D02*
G75*
G02*
X349499999Y-245499999I1500000J0D01*
G01*
X274499999Y-560499999D02*
G75*
G02*
X271499999Y-560499999I-1500000J0D01*
G01*
X271499999Y-560499999D02*
G75*
G02*
X274499999Y-560499999I1500000J0D01*
G01*
X514499999Y-440499999D02*
G75*
G02*
X511499999Y-440499999I-1500000J0D01*
G01*
X511499999Y-440499999D02*
G75*
G02*
X514499999Y-440499999I1500000J0D01*
G01*
X334499999Y-425499999D02*
G75*
G02*
X331499999Y-425499999I-1500000J0D01*
G01*
X331499999Y-425499999D02*
G75*
G02*
X334499999Y-425499999I1500000J0D01*
G01*
X274499999Y-470499999D02*
G75*
G02*
X271499999Y-470499999I-1500000J0D01*
G01*
X271499999Y-470499999D02*
G75*
G02*
X274499999Y-470499999I1500000J0D01*
G01*
X769499999Y-485499999D02*
G75*
G02*
X766499999Y-485499999I-1500000J0D01*
G01*
X766499999Y-485499999D02*
G75*
G02*
X769499999Y-485499999I1500000J0D01*
G01*
X679499999Y-230499999D02*
G75*
G02*
X676499999Y-230499999I-1500000J0D01*
G01*
X676499999Y-230499999D02*
G75*
G02*
X679499999Y-230499999I1500000J0D01*
G01*
X784499999Y-365499999D02*
G75*
G02*
X781499999Y-365499999I-1500000J0D01*
G01*
X781499999Y-365499999D02*
G75*
G02*
X784499999Y-365499999I1500000J0D01*
G01*
X884499999Y-578500000D02*
G75*
G02*
X883500000Y-579499999I-999999J0D01*
G01*
X589499999Y-320499999D02*
G75*
G02*
X586499999Y-320499999I-1500000J0D01*
G01*
X586499999Y-320499999D02*
G75*
G02*
X589499999Y-320499999I1500000J0D01*
G01*
X799499999Y-230499999D02*
G75*
G02*
X796499999Y-230499999I-1500000J0D01*
G01*
X796499999Y-230499999D02*
G75*
G02*
X799499999Y-230499999I1500000J0D01*
G01*
X484499999Y-260499999D02*
G75*
G02*
X481499999Y-260499999I-1500000J0D01*
G01*
X481499999Y-260499999D02*
G75*
G02*
X484499999Y-260499999I1500000J0D01*
G01*
X454499999Y-215499999D02*
G75*
G02*
X451499999Y-215499999I-1500000J0D01*
G01*
X451499999Y-215499999D02*
G75*
G02*
X454499999Y-215499999I1500000J0D01*
G01*
X499499999Y-365499999D02*
G75*
G02*
X496499999Y-365499999I-1500000J0D01*
G01*
X496499999Y-365499999D02*
G75*
G02*
X499499999Y-365499999I1500000J0D01*
G01*
X244499999Y-425499999D02*
G75*
G02*
X241499999Y-425499999I-1500000J0D01*
G01*
X241499999Y-425499999D02*
G75*
G02*
X244499999Y-425499999I1500000J0D01*
G01*
X484499999Y-530499999D02*
G75*
G02*
X481499999Y-530499999I-1500000J0D01*
G01*
X481499999Y-530499999D02*
G75*
G02*
X484499999Y-530499999I1500000J0D01*
G01*
X829499999Y-410499999D02*
G75*
G02*
X826499999Y-410499999I-1500000J0D01*
G01*
X826499999Y-410499999D02*
G75*
G02*
X829499999Y-410499999I1500000J0D01*
G01*
X217499998Y-579499999D02*
G75*
G02*
X216500001Y-578500000I2J999999D01*
G01*
X604499999Y-215499999D02*
G75*
G02*
X601499999Y-215499999I-1500000J0D01*
G01*
X601499999Y-215499999D02*
G75*
G02*
X604499999Y-215499999I1500000J0D01*
G01*
X784499999Y-395499999D02*
G75*
G02*
X781499999Y-395499999I-1500000J0D01*
G01*
X781499999Y-395499999D02*
G75*
G02*
X784499999Y-395499999I1500000J0D01*
G01*
X694499999Y-275499999D02*
G75*
G02*
X691499999Y-275499999I-1500000J0D01*
G01*
X691499999Y-275499999D02*
G75*
G02*
X694499999Y-275499999I1500000J0D01*
G01*
X724499999Y-425499999D02*
G75*
G02*
X721499999Y-425499999I-1500000J0D01*
G01*
X721499999Y-425499999D02*
G75*
G02*
X724499999Y-425499999I1500000J0D01*
G01*
X739499999Y-185499999D02*
G75*
G02*
X736499999Y-185499999I-1500000J0D01*
G01*
X736499999Y-185499999D02*
G75*
G02*
X739499999Y-185499999I1500000J0D01*
G01*
X499499999Y-290499999D02*
G75*
G02*
X496499999Y-290499999I-1500000J0D01*
G01*
X496499999Y-290499999D02*
G75*
G02*
X499499999Y-290499999I1500000J0D01*
G01*
X769499999Y-545499999D02*
G75*
G02*
X766499999Y-545499999I-1500000J0D01*
G01*
X766499999Y-545499999D02*
G75*
G02*
X769499999Y-545499999I1500000J0D01*
G01*
X319499999Y-200499999D02*
G75*
G02*
X316499999Y-200499999I-1500000J0D01*
G01*
X316499999Y-200499999D02*
G75*
G02*
X319499999Y-200499999I1500000J0D01*
G01*
X244499999Y-485499999D02*
G75*
G02*
X241499999Y-485499999I-1500000J0D01*
G01*
X241499999Y-485499999D02*
G75*
G02*
X244499999Y-485499999I1500000J0D01*
G01*
X574499999Y-560499999D02*
G75*
G02*
X571499999Y-560499999I-1500000J0D01*
G01*
X571499999Y-560499999D02*
G75*
G02*
X574499999Y-560499999I1500000J0D01*
G01*
X394499999Y-470499999D02*
G75*
G02*
X391499999Y-470499999I-1500000J0D01*
G01*
X391499999Y-470499999D02*
G75*
G02*
X394499999Y-470499999I1500000J0D01*
G01*
X334499999Y-560499999D02*
G75*
G02*
X331499999Y-560499999I-1500000J0D01*
G01*
X331499999Y-560499999D02*
G75*
G02*
X334499999Y-560499999I1500000J0D01*
G01*
X709499999Y-425499999D02*
G75*
G02*
X706499999Y-425499999I-1500000J0D01*
G01*
X706499999Y-425499999D02*
G75*
G02*
X709499999Y-425499999I1500000J0D01*
G01*
X769499999Y-425499999D02*
G75*
G02*
X766499999Y-425499999I-1500000J0D01*
G01*
X766499999Y-425499999D02*
G75*
G02*
X769499999Y-425499999I1500000J0D01*
G01*
X739499999Y-335499999D02*
G75*
G02*
X736499999Y-335499999I-1500000J0D01*
G01*
X736499999Y-335499999D02*
G75*
G02*
X739499999Y-335499999I1500000J0D01*
G01*
X304499999Y-230499999D02*
G75*
G02*
X301499999Y-230499999I-1500000J0D01*
G01*
X301499999Y-230499999D02*
G75*
G02*
X304499999Y-230499999I1500000J0D01*
G01*
X484499999Y-575499999D02*
G75*
G02*
X481499999Y-575499999I-1500000J0D01*
G01*
X481499999Y-575499999D02*
G75*
G02*
X484499999Y-575499999I1500000J0D01*
G01*
X799499999Y-365499999D02*
G75*
G02*
X796499999Y-365499999I-1500000J0D01*
G01*
X796499999Y-365499999D02*
G75*
G02*
X799499999Y-365499999I1500000J0D01*
G01*
X469499999Y-350499999D02*
G75*
G02*
X466499999Y-350499999I-1500000J0D01*
G01*
X466499999Y-350499999D02*
G75*
G02*
X469499999Y-350499999I1500000J0D01*
G01*
X379499999Y-200499999D02*
G75*
G02*
X376499999Y-200499999I-1500000J0D01*
G01*
X376499999Y-200499999D02*
G75*
G02*
X379499999Y-200499999I1500000J0D01*
G01*
X589499999Y-380499999D02*
G75*
G02*
X586499999Y-380499999I-1500000J0D01*
G01*
X586499999Y-380499999D02*
G75*
G02*
X589499999Y-380499999I1500000J0D01*
G01*
X349499999Y-335499999D02*
G75*
G02*
X346499999Y-335499999I-1500000J0D01*
G01*
X346499999Y-335499999D02*
G75*
G02*
X349499999Y-335499999I1500000J0D01*
G01*
X424499999Y-365499999D02*
G75*
G02*
X421499999Y-365499999I-1500000J0D01*
G01*
X421499999Y-365499999D02*
G75*
G02*
X424499999Y-365499999I1500000J0D01*
G01*
X619499999Y-545499999D02*
G75*
G02*
X616499999Y-545499999I-1500000J0D01*
G01*
X616499999Y-545499999D02*
G75*
G02*
X619499999Y-545499999I1500000J0D01*
G01*
X433300000Y-385999999D02*
G75*
G02*
X432500001Y-385199998I0J799999D01*
G01*
X439499999Y-230499999D02*
G75*
G02*
X436499999Y-230499999I-1500000J0D01*
G01*
X436499999Y-230499999D02*
G75*
G02*
X439499999Y-230499999I1500000J0D01*
G01*
X289499999Y-410499999D02*
G75*
G02*
X286499999Y-410499999I-1500000J0D01*
G01*
X286499999Y-410499999D02*
G75*
G02*
X289499999Y-410499999I1500000J0D01*
G01*
M02*
